  0
SECTION
  2
HEADER
  9
$ACADVER
  1
AC1009
  9
$EXTMIN
 10
0.0
 20
0.0
 30
0.0
  9
$EXTMAX
 10
1000.0
 20
1000.0
 30
0.0
  9
$FILLMODE
 70
 0
  9
$SPLFRAME
 70
 1
  0
ENDSEC
  0
SECTION
  2
TABLES
  0
TABLE
  2
LAYER
 70
1
  0
LAYER
  2
0
 70
     0
 62
     7
  6
CONTINUOUS
  0
ENDTAB
  0
ENDSEC
  0
SECTION
  2
ENTITIES
  0
POLYLINE
  8
0
 62
     250
 66
     1
 10
0
 20
0
 30
0.0
 70
     1
 40
1
 41
1
  0
VERTEX
  8
0
 10
1.73313
 20
4.97597
 30
0.0
 40
0.0138889
 41
0.0138889
  0
VERTEX
  8
0
 10
2.51172
 20
4.97597
 30
0.0
 40
0.0138889
 41
0.0138889
  0
VERTEX
  8
0
 10
2.43213
 20
5.05469
 30
0.0
 40
0.0138889
 41
0.0138889
  0
VERTEX
  8
0
 10
2.34478
 20
5.11257
 30
0.0
 40
0.0138889
 41
0.0138889
  0
VERTEX
  8
0
 10
2.25054
 20
5.15213
 30
0.0
 40
0.0138889
 41
0.0138889
  0
VERTEX
  8
0
 10
2.15033
 20
5.17578
 30
0.0
 40
0.0138889
 41
0.0138889
  0
VERTEX
  8
0
 10
1.94396
 20
5.19971
 30
0.0
 40
0.0138889
 41
0.0138889
  0
VERTEX
  8
0
 10
1.73226
 20
5.21729
 30
0.0
 40
0.0138889
 41
0.0138889
  0
VERTEX
  8
0
 10
1.73226
 20
5.60226
 30
0.0
 40
0.0138889
 41
0.0138889
  0
VERTEX
  8
0
 10
1.95882
 20
5.59337
 30
0.0
 40
0.0138889
 41
0.0138889
  0
VERTEX
  8
0
 10
2.1754
 20
5.55274
 30
0.0
 40
0.0138889
 41
0.0138889
  0
VERTEX
  8
0
 10
2.37901
 20
5.47163
 30
0.0
 40
0.0138889
 41
0.0138889
  0
VERTEX
  8
0
 10
2.56674
 20
5.34119
 30
0.0
 40
0.0138889
 41
0.0138889
  0
VERTEX
  8
0
 10
2.70475
 20
5.18083
 30
0.0
 40
0.0138889
 41
0.0138889
  0
VERTEX
  8
0
 10
2.78906
 20
4.99946
 30
0.0
 40
0.0138889
 41
0.0138889
  0
VERTEX
  8
0
 10
2.82969
 20
4.80067
 30
0.0
 40
0.0138889
 41
0.0138889
  0
VERTEX
  8
0
 10
2.83686
 20
4.58794
 30
0.0
 40
0.0138889
 41
0.0138889
  0
VERTEX
  8
0
 10
2.6856
 20
4.58794
 30
0.0
 40
0.0138889
 41
0.0138889
  0
VERTEX
  8
0
 10
2.76199
 20
4.43826
 30
0.0
 40
0.0138889
 41
0.0138889
  0
VERTEX
  8
0
 10
2.81076
 20
4.28483
 30
0.0
 40
0.0138889
 41
0.0138889
  0
VERTEX
  8
0
 10
2.83436
 20
4.12685
 30
0.0
 40
0.0138889
 41
0.0138889
  0
VERTEX
  8
0
 10
2.83507
 20
3.96332
 30
0.0
 40
0.0138889
 41
0.0138889
  0
VERTEX
  8
0
 10
1.73247
 20
3.96332
 30
0.0
 40
0.0138889
 41
0.0138889
  0
VERTEX
  8
0
 10
1.73247
 20
4.34967
 30
0.0
 40
0.0138889
 41
0.0138889
  0
VERTEX
  8
0
 10
2.51611
 20
4.34967
 30
0.0
 40
0.0138889
 41
0.0138889
  0
VERTEX
  8
0
 10
2.42936
 20
4.42681
 30
0.0
 40
0.0138889
 41
0.0138889
  0
VERTEX
  8
0
 10
2.33817
 20
4.48378
 30
0.0
 40
0.0138889
 41
0.0138889
  0
VERTEX
  8
0
 10
2.24311
 20
4.52387
 30
0.0
 40
0.0138889
 41
0.0138889
  0
VERTEX
  8
0
 10
2.14486
 20
4.55024
 30
0.0
 40
0.0138889
 41
0.0138889
  0
VERTEX
  8
0
 10
2.04406
 20
4.56603
 30
0.0
 40
0.0138889
 41
0.0138889
  0
VERTEX
  8
0
 10
1.9414
 20
4.57443
 30
0.0
 40
0.0138889
 41
0.0138889
  0
VERTEX
  8
0
 10
1.83751
 20
4.57867
 30
0.0
 40
0.0138889
 41
0.0138889
  0
VERTEX
  8
0
 10
1.73313
 20
4.58182
 30
0.0
 40
0.0138889
 41
0.0138889
  0
VERTEX
  8
0
 10
1.73313
 20
4.97597
 30
0.0
 40
0.0138889
 41
0.0138889
  0
SEQEND
 8
0
  0
POLYLINE
  8
0
 62
     250
 66
     1
 10
0
 20
0
 30
0.0
 70
     1
 40
1
 41
1
  0
VERTEX
  8
0
 10
2.20139
 20
1.9624
 30
0.0
 40
0.0138889
 41
0.0138889
  0
VERTEX
  8
0
 10
2.10997
 20
2.04596
 30
0.0
 40
0.0138889
 41
0.0138889
  0
VERTEX
  8
0
 10
2.00608
 20
2.09326
 30
0.0
 40
0.0138889
 41
0.0138889
  0
VERTEX
  8
0
 10
1.89356
 20
2.11643
 30
0.0
 40
0.0138889
 41
0.0138889
  0
VERTEX
  8
0
 10
1.77626
 20
2.12756
 30
0.0
 40
0.0138889
 41
0.0138889
  0
VERTEX
  8
0
 10
1.77626
 20
2.56483
 30
0.0
 40
0.0138889
 41
0.0138889
  0
VERTEX
  8
0
 10
1.95557
 20
2.54878
 30
0.0
 40
0.0138889
 41
0.0138889
  0
VERTEX
  8
0
 10
2.10747
 20
2.48557
 30
0.0
 40
0.0138889
 41
0.0138889
  0
VERTEX
  8
0
 10
2.2366
 20
2.38222
 30
0.0
 40
0.0138889
 41
0.0138889
  0
VERTEX
  8
0
 10
2.34744
 20
2.24571
 30
0.0
 40
0.0138889
 41
0.0138889
  0
VERTEX
  8
0
 10
2.44
 20
2.40207
 30
0.0
 40
0.0138889
 41
0.0138889
  0
VERTEX
  8
0
 10
2.56862
 20
2.50743
 30
0.0
 40
0.0138889
 41
0.0138889
  0
VERTEX
  8
0
 10
2.71701
 20
2.56581
 30
0.0
 40
0.0138889
 41
0.0138889
  0
VERTEX
  8
0
 10
2.86882
 20
2.58106
 30
0.0
 40
0.0138889
 41
0.0138889
  0
VERTEX
  8
0
 10
2.86882
 20
2.12875
 30
0.0
 40
0.0138889
 41
0.0138889
  0
VERTEX
  8
0
 10
2.78635
 20
2.13004
 30
0.0
 40
0.0138889
 41
0.0138889
  0
VERTEX
  8
0
 10
2.70731
 20
2.12756
 30
0.0
 40
0.0138889
 41
0.0138889
  0
VERTEX
  8
0
 10
2.64615
 20
2.11708
 30
0.0
 40
0.0138889
 41
0.0138889
  0
VERTEX
  8
0
 10
2.58703
 20
2.09825
 30
0.0
 40
0.0138889
 41
0.0138889
  0
VERTEX
  8
0
 10
2.53629
 20
2.07579
 30
0.0
 40
0.0138889
 41
0.0138889
  0
VERTEX
  8
0
 10
2.48958
 20
2.04639
 30
0.0
 40
0.0138889
 41
0.0138889
  0
VERTEX
  8
0
 10
2.45725
 20
2.00896
 30
0.0
 40
0.0138889
 41
0.0138889
  0
VERTEX
  8
0
 10
2.44976
 20
1.96251
 30
0.0
 40
0.0138889
 41
0.0138889
  0
VERTEX
  8
0
 10
2.46712
 20
1.92219
 30
0.0
 40
0.0138889
 41
0.0138889
  0
VERTEX
  8
0
 10
2.50142
 20
1.88331
 30
0.0
 40
0.0138889
 41
0.0138889
  0
VERTEX
  8
0
 10
2.54492
 20
1.85015
 30
0.0
 40
0.0138889
 41
0.0138889
  0
VERTEX
  8
0
 10
2.59022
 20
1.8271
 30
0.0
 40
0.0138889
 41
0.0138889
  0
VERTEX
  8
0
 10
2.72336
 20
1.79775
 30
0.0
 40
0.0138889
 41
0.0138889
  0
VERTEX
  8
0
 10
2.86729
 20
1.78119
 30
0.0
 40
0.0138889
 41
0.0138889
  0
VERTEX
  8
0
 10
2.86719
 20
1.34695
 30
0.0
 40
0.0138889
 41
0.0138889
  0
VERTEX
  8
0
 10
2.78282
 20
1.3488
 30
0.0
 40
0.0138889
 41
0.0138889
  0
VERTEX
  8
0
 10
2.70063
 20
1.36366
 30
0.0
 40
0.0138889
 41
0.0138889
  0
VERTEX
  8
0
 10
2.62235
 20
1.39085
 30
0.0
 40
0.0138889
 41
0.0138889
  0
VERTEX
  8
0
 10
2.54969
 20
1.42942
 30
0.0
 40
0.0138889
 41
0.0138889
  0
VERTEX
  8
0
 10
2.48426
 20
1.47862
 30
0.0
 40
0.0138889
 41
0.0138889
  0
VERTEX
  8
0
 10
2.42794
 20
1.53765
 30
0.0
 40
0.0138889
 41
0.0138889
  0
VERTEX
  8
0
 10
2.38226
 20
1.60568
 30
0.0
 40
0.0138889
 41
0.0138889
  0
VERTEX
  8
0
 10
2.34912
 20
1.68192
 30
0.0
 40
0.0138889
 41
0.0138889
  0
VERTEX
  8
0
 10
2.23785
 20
1.54546
 30
0.0
 40
0.0138889
 41
0.0138889
  0
VERTEX
  8
0
 10
2.10889
 20
1.44129
 30
0.0
 40
0.0138889
 41
0.0138889
  0
VERTEX
  8
0
 10
1.95703
 20
1.37755
 30
0.0
 40
0.0138889
 41
0.0138889
  0
VERTEX
  8
0
 10
1.77718
 20
1.36214
 30
0.0
 40
0.0138889
 41
0.0138889
  0
VERTEX
  8
0
 10
1.77718
 20
1.80072
 30
0.0
 40
0.0138889
 41
0.0138889
  0
VERTEX
  8
0
 10
1.89393
 20
1.80985
 30
0.0
 40
0.0138889
 41
0.0138889
  0
VERTEX
  8
0
 10
2.00635
 20
1.83251
 30
0.0
 40
0.0138889
 41
0.0138889
  0
VERTEX
  8
0
 10
2.11025
 20
1.87972
 30
0.0
 40
0.0138889
 41
0.0138889
  0
VERTEX
  8
0
 10
2.20139
 20
1.9624
 30
0.0
 40
0.0138889
 41
0.0138889
  0
SEQEND
 8
0
  0
POLYLINE
  8
0
 62
     250
 66
     1
 10
0
 20
0
 30
0.0
 70
     1
 40
1
 41
1
  0
VERTEX
  8
0
 10
2.43457
 20
7.25993
 30
0.0
 40
0.0138889
 41
0.0138889
  0
VERTEX
  8
0
 10
2.42333
 20
7.36817
 30
0.0
 40
0.0138889
 41
0.0138889
  0
VERTEX
  8
0
 10
2.38206
 20
7.46658
 30
0.0
 40
0.0138889
 41
0.0138889
  0
VERTEX
  8
0
 10
2.31674
 20
7.546
 30
0.0
 40
0.0138889
 41
0.0138889
  0
VERTEX
  8
0
 10
2.23367
 20
7.59722
 30
0.0
 40
0.0138889
 41
0.0138889
  0
VERTEX
  8
0
 10
2.23367
 20
7.25993
 30
0.0
 40
0.0138889
 41
0.0138889
  0
VERTEX
  8
0
 10
2.43457
 20
7.25993
 30
0.0
 40
0.0138889
 41
0.0138889
  0
SEQEND
 8
0
  0
POLYLINE
  8
0
 62
     250
 66
     1
 10
0
 20
0
 30
0.0
 70
     1
 40
1
 41
1
  0
VERTEX
  8
0
 10
1.77522
 20
6.86638
 30
0.0
 40
0.0138889
 41
0.0138889
  0
VERTEX
  8
0
 10
1.77522
 20
7.25629
 30
0.0
 40
0.0138889
 41
0.0138889
  0
VERTEX
  8
0
 10
1.97721
 20
7.25629
 30
0.0
 40
0.0138889
 41
0.0138889
  0
VERTEX
  8
0
 10
1.97721
 20
7.6135
 30
0.0
 40
0.0138889
 41
0.0138889
  0
VERTEX
  8
0
 10
2.1965
 20
7.6135
 30
0.0
 40
0.0138889
 41
0.0138889
  0
VERTEX
  8
0
 10
2.01997
 20
7.70492
 30
0.0
 40
0.0138889
 41
0.0138889
  0
VERTEX
  8
0
 10
1.83029
 20
7.74918
 30
0.0
 40
0.0138889
 41
0.0138889
  0
VERTEX
  8
0
 10
1.80257
 20
7.75575
 30
0.0
 40
0.0138889
 41
0.0138889
  0
VERTEX
  8
0
 10
1.78396
 20
7.76676
 30
0.0
 40
0.0138889
 41
0.0138889
  0
VERTEX
  8
0
 10
1.77399
 20
7.78494
 30
0.0
 40
0.0138889
 41
0.0138889
  0
VERTEX
  8
0
 10
1.77208
 20
7.81278
 30
0.0
 40
0.0138889
 41
0.0138889
  0
VERTEX
  8
0
 10
1.77285
 20
7.97831
 30
0.0
 40
0.0138889
 41
0.0138889
  0
VERTEX
  8
0
 10
2.00151
 20
7.98389
 30
0.0
 40
0.0138889
 41
0.0138889
  0
VERTEX
  8
0
 10
2.21924
 20
7.9484
 30
0.0
 40
0.0138889
 41
0.0138889
  0
VERTEX
  8
0
 10
2.41857
 20
7.87169
 30
0.0
 40
0.0138889
 41
0.0138889
  0
VERTEX
  8
0
 10
2.59201
 20
7.75364
 30
0.0
 40
0.0138889
 41
0.0138889
  0
VERTEX
  8
0
 10
2.73226
 20
7.59418
 30
0.0
 40
0.0138889
 41
0.0138889
  0
VERTEX
  8
0
 10
2.83182
 20
7.39322
 30
0.0
 40
0.0138889
 41
0.0138889
  0
VERTEX
  8
0
 10
2.88331
 20
7.15067
 30
0.0
 40
0.0138889
 41
0.0138889
  0
VERTEX
  8
0
 10
2.87929
 20
6.86638
 30
0.0
 40
0.0138889
 41
0.0138889
  0
VERTEX
  8
0
 10
1.77522
 20
6.86638
 30
0.0
 40
0.0138889
 41
0.0138889
  0
SEQEND
 8
0
  0
POLYLINE
  8
0
 62
     250
 66
     1
 10
0
 20
0
 30
0.0
 70
     1
 40
1
 41
1
  0
VERTEX
  8
0
 10
2.23426
 20
3.46957
 30
0.0
 40
0.0138889
 41
0.0138889
  0
VERTEX
  8
0
 10
2.23426
 20
3.12153
 30
0.0
 40
0.0138889
 41
0.0138889
  0
VERTEX
  8
0
 10
2.43761
 20
3.12153
 30
0.0
 40
0.0138889
 41
0.0138889
  0
VERTEX
  8
0
 10
2.42492
 20
3.22879
 30
0.0
 40
0.0138889
 41
0.0138889
  0
VERTEX
  8
0
 10
2.38558
 20
3.32042
 30
0.0
 40
0.0138889
 41
0.0138889
  0
VERTEX
  8
0
 10
2.32135
 20
3.39962
 30
0.0
 40
0.0138889
 41
0.0138889
  0
VERTEX
  8
0
 10
2.23426
 20
3.46957
 30
0.0
 40
0.0138889
 41
0.0138889
  0
SEQEND
 8
0
  0
POLYLINE
  8
0
 62
     250
 66
     1
 10
0
 20
0
 30
0.0
 70
     1
 40
1
 41
1
  0
VERTEX
  8
0
 10
1.77528
 20
2.72689
 30
0.0
 40
0.0138889
 41
0.0138889
  0
VERTEX
  8
0
 10
1.77528
 20
3.11426
 30
0.0
 40
0.0138889
 41
0.0138889
  0
VERTEX
  8
0
 10
1.977
 20
3.11426
 30
0.0
 40
0.0138889
 41
0.0138889
  0
VERTEX
  8
0
 10
1.977
 20
3.47597
 30
0.0
 40
0.0138889
 41
0.0138889
  0
VERTEX
  8
0
 10
2.19667
 20
3.47597
 30
0.0
 40
0.0138889
 41
0.0138889
  0
VERTEX
  8
0
 10
2.09944
 20
3.53228
 30
0.0
 40
0.0138889
 41
0.0138889
  0
VERTEX
  8
0
 10
1.99675
 20
3.57156
 30
0.0
 40
0.0138889
 41
0.0138889
  0
VERTEX
  8
0
 10
1.88938
 20
3.59885
 30
0.0
 40
0.0138889
 41
0.0138889
  0
VERTEX
  8
0
 10
1.77843
 20
3.61903
 30
0.0
 40
0.0138889
 41
0.0138889
  0
VERTEX
  8
0
 10
1.77843
 20
3.84347
 30
0.0
 40
0.0138889
 41
0.0138889
  0
VERTEX
  8
0
 10
2.0286
 20
3.84233
 30
0.0
 40
0.0138889
 41
0.0138889
  0
VERTEX
  8
0
 10
2.25526
 20
3.79833
 30
0.0
 40
0.0138889
 41
0.0138889
  0
VERTEX
  8
0
 10
2.45404
 20
3.71306
 30
0.0
 40
0.0138889
 41
0.0138889
  0
VERTEX
  8
0
 10
2.62071
 20
3.58822
 30
0.0
 40
0.0138889
 41
0.0138889
  0
VERTEX
  8
0
 10
2.75092
 20
3.42551
 30
0.0
 40
0.0138889
 41
0.0138889
  0
VERTEX
  8
0
 10
2.84028
 20
3.22661
 30
0.0
 40
0.0138889
 41
0.0138889
  0
VERTEX
  8
0
 10
2.8846
 20
2.99317
 30
0.0
 40
0.0138889
 41
0.0138889
  0
VERTEX
  8
0
 10
2.87944
 20
2.72689
 30
0.0
 40
0.0138889
 41
0.0138889
  0
VERTEX
  8
0
 10
1.77528
 20
2.72689
 30
0.0
 40
0.0138889
 41
0.0138889
  0
SEQEND
 8
0
  0
POLYLINE
  8
0
 62
     250
 66
     1
 10
0
 20
0
 30
0.0
 70
     1
 40
1
 41
1
  0
VERTEX
  8
0
 10
2.8705
 20
6.73915
 30
0.0
 40
0.0138889
 41
0.0138889
  0
VERTEX
  8
0
 10
2.8705
 20
6.3189
 30
0.0
 40
0.0138889
 41
0.0138889
  0
VERTEX
  8
0
 10
2.72467
 20
6.29617
 30
0.0
 40
0.0138889
 41
0.0138889
  0
VERTEX
  8
0
 10
2.58132
 20
6.2646
 30
0.0
 40
0.0138889
 41
0.0138889
  0
VERTEX
  8
0
 10
2.4445
 20
6.20919
 30
0.0
 40
0.0138889
 41
0.0138889
  0
VERTEX
  8
0
 10
2.30057
 20
6.14057
 30
0.0
 40
0.0138889
 41
0.0138889
  0
VERTEX
  8
0
 10
2.38732
 20
6.06999
 30
0.0
 40
0.0138889
 41
0.0138889
  0
VERTEX
  8
0
 10
2.47635
 20
6.02024
 30
0.0
 40
0.0138889
 41
0.0138889
  0
VERTEX
  8
0
 10
2.56776
 20
5.98654
 30
0.0
 40
0.0138889
 41
0.0138889
  0
VERTEX
  8
0
 10
2.66178
 20
5.96408
 30
0.0
 40
0.0138889
 41
0.0138889
  0
VERTEX
  8
0
 10
2.74414
 20
5.9541
 30
0.0
 40
0.0138889
 41
0.0138889
  0
VERTEX
  8
0
 10
2.8265
 20
5.9439
 30
0.0
 40
0.0138889
 41
0.0138889
  0
VERTEX
  8
0
 10
2.84119
 20
5.93799
 30
0.0
 40
0.0138889
 41
0.0138889
  0
VERTEX
  8
0
 10
2.85607
 20
5.92736
 30
0.0
 40
0.0138889
 41
0.0138889
  0
VERTEX
  8
0
 10
2.86762
 20
5.91461
 30
0.0
 40
0.0138889
 41
0.0138889
  0
VERTEX
  8
0
 10
2.87244
 20
5.90235
 30
0.0
 40
0.0138889
 41
0.0138889
  0
VERTEX
  8
0
 10
2.87489
 20
5.7105
 30
0.0
 40
0.0138889
 41
0.0138889
  0
VERTEX
  8
0
 10
2.87457
 20
5.50786
 30
0.0
 40
0.0138889
 41
0.0138889
  0
VERTEX
  8
0
 10
2.77024
 20
5.51921
 30
0.0
 40
0.0138889
 41
0.0138889
  0
VERTEX
  8
0
 10
2.67269
 20
5.53483
 30
0.0
 40
0.0138889
 41
0.0138889
  0
VERTEX
  8
0
 10
2.52219
 20
5.58328
 30
0.0
 40
0.0138889
 41
0.0138889
  0
VERTEX
  8
0
 10
2.38661
 20
5.65474
 30
0.0
 40
0.0138889
 41
0.0138889
  0
VERTEX
  8
0
 10
2.26719
 20
5.7506
 30
0.0
 40
0.0138889
 41
0.0138889
  0
VERTEX
  8
0
 10
2.16521
 20
5.87201
 30
0.0
 40
0.0138889
 41
0.0138889
  0
VERTEX
  8
0
 10
2.14458
 20
5.89686
 30
0.0
 40
0.0138889
 41
0.0138889
  0
VERTEX
  8
0
 10
2.12169
 20
5.91374
 30
0.0
 40
0.0138889
 41
0.0138889
  0
VERTEX
  8
0
 10
2.09489
 20
5.92307
 30
0.0
 40
0.0138889
 41
0.0138889
  0
VERTEX
  8
0
 10
2.06282
 20
5.92524
 30
0.0
 40
0.0138889
 41
0.0138889
  0
VERTEX
  8
0
 10
1.77632
 20
5.92426
 30
0.0
 40
0.0138889
 41
0.0138889
  0
VERTEX
  8
0
 10
1.77632
 20
6.3209
 30
0.0
 40
0.0138889
 41
0.0138889
  0
VERTEX
  8
0
 10
2.02067
 20
6.3195
 30
0.0
 40
0.0138889
 41
0.0138889
  0
VERTEX
  8
0
 10
2.06976
 20
6.3209
 30
0.0
 40
0.0138889
 41
0.0138889
  0
VERTEX
  8
0
 10
2.11117
 20
6.33382
 30
0.0
 40
0.0138889
 41
0.0138889
  0
VERTEX
  8
0
 10
2.14725
 20
6.35906
 30
0.0
 40
0.0138889
 41
0.0138889
  0
VERTEX
  8
0
 10
2.18056
 20
6.39729
 30
0.0
 40
0.0138889
 41
0.0138889
  0
VERTEX
  8
0
 10
2.30838
 20
6.53694
 30
0.0
 40
0.0138889
 41
0.0138889
  0
VERTEX
  8
0
 10
2.45811
 20
6.63797
 30
0.0
 40
0.0138889
 41
0.0138889
  0
VERTEX
  8
0
 10
2.62711
 20
6.70404
 30
0.0
 40
0.0138889
 41
0.0138889
  0
VERTEX
  8
0
 10
2.81278
 20
6.73893
 30
0.0
 40
0.0138889
 41
0.0138889
  0
VERTEX
  8
0
 10
2.8705
 20
6.73915
 30
0.0
 40
0.0138889
 41
0.0138889
  0
SEQEND
 8
0
  0
POLYLINE
  8
0
 62
     250
 66
     1
 10
0
 20
0
 30
0.0
 40
1
 41
1
  0
VERTEX
  8
0
 10
1.90175
 20
8.71636
 30
0.0
 40
0.0138889
 41
0.0138889
  0
VERTEX
  8
0
 10
1.92464
 20
8.60639
 30
0.0
 40
0.0138889
 41
0.0138889
  0
VERTEX
  8
0
 10
1.97651
 20
8.51204
 30
0.0
 40
0.0138889
 41
0.0138889
  0
VERTEX
  8
0
 10
2.0491
 20
8.44732
 30
0.0
 40
0.0138889
 41
0.0138889
  0
VERTEX
  8
0
 10
2.13422
 20
8.426
 30
0.0
 40
0.0138889
 41
0.0138889
  0
VERTEX
  8
0
 10
2.13422
 20
8.73281
 30
0.0
 40
0.0138889
 41
0.0138889
  0
VERTEX
  8
0
 10
2.35493
 20
8.73281
 30
0.0
 40
0.0138889
 41
0.0138889
  0
VERTEX
  8
0
 10
2.384
 20
8.73204
 30
0.0
 40
0.0138889
 41
0.0138889
  0
VERTEX
  8
0
 10
2.39974
 20
8.72672
 30
0.0
 40
0.0138889
 41
0.0138889
  0
VERTEX
  8
0
 10
2.40776
 20
8.71229
 30
0.0
 40
0.0138889
 41
0.0138889
  0
VERTEX
  8
0
 10
2.41401
 20
8.68431
 30
0.0
 40
0.0138889
 41
0.0138889
  0
VERTEX
  8
0
 10
2.44993
 20
8.56494
 30
0.0
 40
0.0138889
 41
0.0138889
  0
VERTEX
  8
0
 10
2.5191
 20
8.46121
 30
0.0
 40
0.0138889
 41
0.0138889
  0
VERTEX
  8
0
 10
2.55811
 20
8.42899
 30
0.0
 40
0.0138889
 41
0.0138889
  0
VERTEX
  8
0
 10
2.60493
 20
8.40728
 30
0.0
 40
0.0138889
 41
0.0138889
  0
VERTEX
  8
0
 10
2.60493
 20
8.68485
 30
0.0
 40
0.0138889
 41
0.0138889
  0
SEQEND
 8
0
  0
POLYLINE
  8
0
 62
     250
 66
     1
 10
0
 20
0
 30
0.0
 40
1
 41
1
  0
VERTEX
  8
0
 10
2.87489
 20
8.68485
 30
0.0
 40
0.0138889
 41
0.0138889
  0
VERTEX
  8
0
 10
2.87489
 20
8.05376
 30
0.0
 40
0.0138889
 41
0.0138889
  0
VERTEX
  8
0
 10
2.79422
 20
8.04981
 30
0.0
 40
0.0138889
 41
0.0138889
  0
VERTEX
  8
0
 10
2.71772
 20
8.06114
 30
0.0
 40
0.0138889
 41
0.0138889
  0
VERTEX
  8
0
 10
2.64649
 20
8.08692
 30
0.0
 40
0.0138889
 41
0.0138889
  0
VERTEX
  8
0
 10
2.5816
 20
8.12625
 30
0.0
 40
0.0138889
 41
0.0138889
  0
VERTEX
  8
0
 10
2.52414
 20
8.17833
 30
0.0
 40
0.0138889
 41
0.0138889
  0
VERTEX
  8
0
 10
2.47521
 20
8.24219
 30
0.0
 40
0.0138889
 41
0.0138889
  0
VERTEX
  8
0
 10
2.43593
 20
8.317
 30
0.0
 40
0.0138889
 41
0.0138889
  0
VERTEX
  8
0
 10
2.40744
 20
8.40186
 30
0.0
 40
0.0138889
 41
0.0138889
  0
VERTEX
  8
0
 10
2.40744
 20
8.37451
 30
0.0
 40
0.0138889
 41
0.0138889
  0
VERTEX
  8
0
 10
2.40804
 20
8.08361
 30
0.0
 40
0.0138889
 41
0.0138889
  0
VERTEX
  8
0
 10
2.4011
 20
8.05811
 30
0.0
 40
0.0138889
 41
0.0138889
  0
VERTEX
  8
0
 10
2.37603
 20
8.05078
 30
0.0
 40
0.0138889
 41
0.0138889
  0
VERTEX
  8
0
 10
2.18381
 20
8.0734
 30
0.0
 40
0.0138889
 41
0.0138889
  0
VERTEX
  8
0
 10
2.0224
 20
8.15256
 30
0.0
 40
0.0138889
 41
0.0138889
  0
VERTEX
  8
0
 10
1.89751
 20
8.28424
 30
0.0
 40
0.0138889
 41
0.0138889
  0
VERTEX
  8
0
 10
1.81478
 20
8.46425
 30
0.0
 40
0.0138889
 41
0.0138889
  0
VERTEX
  8
0
 10
1.77354
 20
8.71636
 30
0.0
 40
0.0138889
 41
0.0138889
  0
SEQEND
 8
0
  0
POLYLINE
  8
0
 62
     250
 66
     1
 10
0
 20
0
 30
0.0
 40
1
 41
1
  0
VERTEX
  8
0
 10
1.77181
 20
8.77246
 30
0.0
 40
0.0138889
 41
0.0138889
  0
VERTEX
  8
0
 10
1.77175
 20
8.77636
 30
0.0
 40
0.0138889
 41
0.0138889
  0
VERTEX
  8
0
 10
1.77138
 20
9.14421
 30
0.0
 40
0.0138889
 41
0.0138889
  0
VERTEX
  8
0
 10
1.77251
 20
9.16542
 30
0.0
 40
0.0138889
 41
0.0138889
  0
VERTEX
  8
0
 10
2.87489
 20
9.16542
 30
0.0
 40
0.0138889
 41
0.0138889
  0
VERTEX
  8
0
 10
2.87489
 20
8.77636
 30
0.0
 40
0.0138889
 41
0.0138889
  0
SEQEND
 8
0
  0
POLYLINE
  8
0
 62
     250
 66
     1
 10
0
 20
0
 30
0.0
 40
1
 41
1
  0
VERTEX
  8
0
 10
2.60493
 20
8.68485
 30
0.0
 40
0.0138889
 41
0.0138889
  0
VERTEX
  8
0
 10
2.87489
 20
8.68485
 30
0.0
 40
0.0138889
 41
0.0138889
  0
SEQEND
 8
0
  0
POLYLINE
  8
0
 62
     250
 66
     1
 10
0
 20
0
 30
0.0
 40
1
 41
1
  0
VERTEX
  8
0
 10
1.90175
 20
8.71636
 30
0.0
 40
0.0138889
 41
0.0138889
  0
VERTEX
  8
0
 10
1.77354
 20
8.71636
 30
0.0
 40
0.0138889
 41
0.0138889
  0
SEQEND
 8
0
  0
POLYLINE
  8
0
 62
     250
 66
     1
 10
0
 20
0
 30
0.0
 40
1
 41
1
  0
VERTEX
  8
0
 10
1.77175
 20
8.77636
 30
0.0
 40
0.0138889
 41
0.0138889
  0
VERTEX
  8
0
 10
2.87489
 20
8.77636
 30
0.0
 40
0.0138889
 41
0.0138889
  0
SEQEND
 8
0
  0
ENDSEC
  0
EOF
