  0
SECTION
  2
HEADER
  9
$ACADVER
  1
AC1018
  9
$ACADMAINTVER
 70
     0
  9
$DWGCODEPAGE
  3
ANSI_1252
  9
$INSBASE
 10
0.0
 20
0.0
 30
0.0
  9
$EXTMIN
 10
1.000000000000000E+20
 20
1.000000000000000E+20
 30
1.000000000000000E+20
  9
$EXTMAX
 10
-1.000000000000000E+20
 20
-1.000000000000000E+20
 30
-1.000000000000000E+20
  9
$LIMMIN
 10
0.0
 20
0.0
  9
$LIMMAX
 10
12.0
 20
9.0
  9
$ORTHOMODE
 70
     0
  9
$REGENMODE
 70
     1
  9
$FILLMODE
 70
     1
  9
$QTEXTMODE
 70
     0
  9
$MIRRTEXT
 70
     1
  9
$LTSCALE
 40
1.0
  9
$ATTMODE
 70
     1
  9
$TEXTSIZE
 40
0.2
  9
$TRACEWID
 40
0.05
  9
$TEXTSTYLE
  7
Standard
  9
$CLAYER
  8
0
  9
$CELTYPE
  6
ByLayer
  9
$CECOLOR
 62
   256
  9
$CELTSCALE
 40
1.0
  9
$DISPSILH
 70
     0
  9
$DIMSCALE
 40
1.0
  9
$DIMASZ
 40
0.18
  9
$DIMEXO
 40
0.0625
  9
$DIMDLI
 40
0.38
  9
$DIMRND
 40
0.0
  9
$DIMDLE
 40
0.0
  9
$DIMEXE
 40
0.18
  9
$DIMTP
 40
0.0
  9
$DIMTM
 40
0.0
  9
$DIMTXT
 40
0.18
  9
$DIMCEN
 40
0.09
  9
$DIMTSZ
 40
0.0
  9
$DIMTOL
 70
     0
  9
$DIMLIM
 70
     0
  9
$DIMTIH
 70
     1
  9
$DIMTOH
 70
     1
  9
$DIMSE1
 70
     0
  9
$DIMSE2
 70
     0
  9
$DIMTAD
 70
     0
  9
$DIMZIN
 70
     0
  9
$DIMBLK
  1

  9
$DIMASO
 70
     1
  9
$DIMSHO
 70
     1
  9
$DIMPOST
  1

  9
$DIMAPOST
  1

  9
$DIMALT
 70
     0
  9
$DIMALTD
 70
     2
  9
$DIMALTF
 40
25.4
  9
$DIMLFAC
 40
1.0
  9
$DIMTOFL
 70
     0
  9
$DIMTVP
 40
0.0
  9
$DIMTIX
 70
     0
  9
$DIMSOXD
 70
     0
  9
$DIMSAH
 70
     0
  9
$DIMBLK1
  1

  9
$DIMBLK2
  1

  9
$DIMSTYLE
  2
Standard
  9
$DIMCLRD
 70
     0
  9
$DIMCLRE
 70
     0
  9
$DIMCLRT
 70
     0
  9
$DIMTFAC
 40
1.0
  9
$DIMGAP
 40
0.09
  9
$DIMJUST
 70
     0
  9
$DIMSD1
 70
     0
  9
$DIMSD2
 70
     0
  9
$DIMTOLJ
 70
     1
  9
$DIMTZIN
 70
     0
  9
$DIMALTZ
 70
     0
  9
$DIMALTTZ
 70
     0
  9
$DIMUPT
 70
     0
  9
$DIMDEC
 70
     4
  9
$DIMTDEC
 70
     4
  9
$DIMALTU
 70
     2
  9
$DIMALTTD
 70
     2
  9
$DIMTXSTY
  7
Standard
  9
$DIMAUNIT
 70
     0
  9
$DIMADEC
 70
     0
  9
$DIMALTRND
 40
0.0
  9
$DIMAZIN
 70
     0
  9
$DIMDSEP
 70
    46
  9
$DIMATFIT
 70
     3
  9
$DIMFRAC
 70
     0
  9
$DIMLDRBLK
  1

  9
$DIMLUNIT
 70
     2
  9
$DIMLWD
 70
    -2
  9
$DIMLWE
 70
    -2
  9
$DIMTMOVE
 70
     0
  9
$LUNITS
 70
     2
  9
$LUPREC
 70
     4
  9
$SKETCHINC
 40
0.1
  9
$FILLETRAD
 40
0.5
  9
$AUNITS
 70
     0
  9
$AUPREC
 70
     0
  9
$MENU
  1
.
  9
$ELEVATION
 40
0.0
  9
$PELEVATION
 40
0.0
  9
$THICKNESS
 40
0.0
  9
$LIMCHECK
 70
     0
  9
$CHAMFERA
 40
0.5
  9
$CHAMFERB
 40
0.5
  9
$CHAMFERC
 40
1.0
  9
$CHAMFERD
 40
0.0
  9
$SKPOLY
 70
     0
  9
$TDCREATE
 40
2457465.676774144
  9
$TDUCREATE
 40
2457465.84344081
  9
$TDUPDATE
 40
2457465.676774155
  9
$TDUUPDATE
 40
2457465.843440822
  9
$TDINDWG
 40
0.0000000116
  9
$TDUSRTIMER
 40
0.0000000116
  9
$USRTIMER
 70
     1
  9
$ANGBASE
 50
0.0
  9
$ANGDIR
 70
     0
  9
$PDMODE
 70
     0
  9
$PDSIZE
 40
0.0
  9
$PLINEWID
 40
0.0
  9
$SPLFRAME
 70
     0
  9
$SPLINETYPE
 70
     6
  9
$SPLINESEGS
 70
     8
  9
$HANDSEED
  5
1FD
  9
$SURFTAB1
 70
     6
  9
$SURFTAB2
 70
     6
  9
$SURFTYPE
 70
     6
  9
$SURFU
 70
     6
  9
$SURFV
 70
     6
  9
$UCSBASE
  2

  9
$UCSNAME
  2

  9
$UCSORG
 10
0.0
 20
0.0
 30
0.0
  9
$UCSXDIR
 10
1.0
 20
0.0
 30
0.0
  9
$UCSYDIR
 10
0.0
 20
1.0
 30
0.0
  9
$UCSORTHOREF
  2

  9
$UCSORTHOVIEW
 70
     0
  9
$UCSORGTOP
 10
0.0
 20
0.0
 30
0.0
  9
$UCSORGBOTTOM
 10
0.0
 20
0.0
 30
0.0
  9
$UCSORGLEFT
 10
0.0
 20
0.0
 30
0.0
  9
$UCSORGRIGHT
 10
0.0
 20
0.0
 30
0.0
  9
$UCSORGFRONT
 10
0.0
 20
0.0
 30
0.0
  9
$UCSORGBACK
 10
0.0
 20
0.0
 30
0.0
  9
$PUCSBASE
  2

  9
$PUCSNAME
  2

  9
$PUCSORG
 10
0.0
 20
0.0
 30
0.0
  9
$PUCSXDIR
 10
1.0
 20
0.0
 30
0.0
  9
$PUCSYDIR
 10
0.0
 20
1.0
 30
0.0
  9
$PUCSORTHOREF
  2

  9
$PUCSORTHOVIEW
 70
     0
  9
$PUCSORGTOP
 10
0.0
 20
0.0
 30
0.0
  9
$PUCSORGBOTTOM
 10
0.0
 20
0.0
 30
0.0
  9
$PUCSORGLEFT
 10
0.0
 20
0.0
 30
0.0
  9
$PUCSORGRIGHT
 10
0.0
 20
0.0
 30
0.0
  9
$PUCSORGFRONT
 10
0.0
 20
0.0
 30
0.0
  9
$PUCSORGBACK
 10
0.0
 20
0.0
 30
0.0
  9
$USERI1
 70
     0
  9
$USERI2
 70
     0
  9
$USERI3
 70
     0
  9
$USERI4
 70
     0
  9
$USERI5
 70
     0
  9
$USERR1
 40
0.0
  9
$USERR2
 40
0.0
  9
$USERR3
 40
0.0
  9
$USERR4
 40
0.0
  9
$USERR5
 40
0.0
  9
$WORLDVIEW
 70
     1
  9
$SHADEDGE
 70
     3
  9
$SHADEDIF
 70
    70
  9
$TILEMODE
 70
     1
  9
$MAXACTVP
 70
    64
  9
$PINSBASE
 10
0.0
 20
0.0
 30
0.0
  9
$PLIMCHECK
 70
     0
  9
$PEXTMIN
 10
1.000000000000000E+20
 20
1.000000000000000E+20
 30
1.000000000000000E+20
  9
$PEXTMAX
 10
-1.000000000000000E+20
 20
-1.000000000000000E+20
 30
-1.000000000000000E+20
  9
$PLIMMIN
 10
0.0
 20
0.0
  9
$PLIMMAX
 10
12.0
 20
9.0
  9
$UNITMODE
 70
     0
  9
$VISRETAIN
 70
     1
  9
$PLINEGEN
 70
     0
  9
$PSLTSCALE
 70
     1
  9
$TREEDEPTH
 70
  3020
  9
$CMLSTYLE
  2
Standard
  9
$CMLJUST
 70
     0
  9
$CMLSCALE
 40
1.0
  9
$PROXYGRAPHICS
 70
     1
  9
$MEASUREMENT
 70
     0
  9
$CELWEIGHT
370
    -1
  9
$ENDCAPS
280
     0
  9
$JOINSTYLE
280
     0
  9
$LWDISPLAY
290
     1
  9
$INSUNITS
 70
     1
  9
$HYPERLINKBASE
  1

  9
$STYLESHEET
  1

  9
$XEDIT
290
     1
  9
$CEPSNTYPE
380
     0
  9
$PSTYLEMODE
290
     1
  9
$FINGERPRINTGUID
  2
{37D4D397-E2D6-4E14-AC59-72ADA86CAFF2}
  9
$VERSIONGUID
  2
{FAEB1C32-E019-11D5-929B-00C0DF256EC4}
  9
$EXTNAMES
290
     1
  9
$PSVPSCALE
 40
0.0
  9
$OLESTARTUP
290
     0
  9
$SORTENTS
280
   127
  9
$INDEXCTL
280
     0
  9
$HIDETEXT
280
     1
  9
$XCLIPFRAME
290
     0
  9
$HALOGAP
280
     0
  9
$OBSCOLOR
 70
   257
  9
$OBSLTYPE
280
     0
  9
$INTERSECTIONDISPLAY
280
     0
  9
$INTERSECTIONCOLOR
 70
   257
  9
$DIMASSOC
280
     2
  9
$PROJECTNAME
  1

  0
ENDSEC
  0
SECTION
  2
CLASSES
  0
CLASS
  1
ACDBDICTIONARYWDFLT
  2
AcDbDictionaryWithDefault
  3
ObjectDBX Classes
 90
        0
 91
        3
280
     0
281
     0
  0
CLASS
  1
VISUALSTYLE
  2
AcDbVisualStyle
  3
ObjectDBX Classes
 90
     4095
 91
        3
280
     0
281
     0
  0
ENDSEC
  0
SECTION
  2
TABLES
  0
TABLE
  2
VPORT
  5
8
330
0
100
AcDbSymbolTable
 70
     1
  0
VPORT
  5
29
330
8
100
AcDbSymbolTableRecord
100
AcDbViewportTableRecord
  2
*Active
 70
     0
 10
0.0
 20
0.0
 11
1.0
 21
1.0
 12
0.0
 22
0.0
 13
0.0
 23
0.0
 14
0.5
 24
0.5
 15
0.5
 25
0.5
 16
0.0
 26
0.0
 36
1.0
 17
305.5
 27
396.5
 37
0.0
 40
777.2578125
 41
0.9153876307933541
 42
50.0
 43
0.0
 44
0.0
 50
0.0
 51
0.0
 71
     0
 72
   100
 73
     1
 74
     3
 75
     0
 76
     0
 77
     0
 78
     0
281
     0
 65
     1
110
0.0
120
0.0
130
0.0
111
1.0
121
0.0
131
0.0
112
0.0
122
1.0
132
0.0
 79
     0
146
0.0
  0
ENDTAB
  0
TABLE
  2
LTYPE
  5
5
330
0
100
AcDbSymbolTable
 70
     1
  0
LTYPE
  5
14
330
5
100
AcDbSymbolTableRecord
100
AcDbLinetypeTableRecord
  2
ByBlock
 70
     0
  3

 72
    65
 73
     0
 40
0.0
  0
LTYPE
  5
15
330
5
100
AcDbSymbolTableRecord
100
AcDbLinetypeTableRecord
  2
ByLayer
 70
     0
  3

 72
    65
 73
     0
 40
0.0
  0
LTYPE
  5
16
330
5
100
AcDbSymbolTableRecord
100
AcDbLinetypeTableRecord
  2
Continuous
 70
     0
  3
Solid line
 72
    65
 73
     0
 40
0.0
  0
ENDTAB
  0
TABLE
  2
LAYER
  5
2
330
0
100
AcDbSymbolTable
 70
     2
  0
LAYER
  5
10
330
2
100
AcDbSymbolTableRecord
100
AcDbLayerTableRecord
  2
0
 70
     0
 62
     7
  6
Continuous
370
    -3
390
F
  0
LAYER
  5
3B
330
2
100
AcDbSymbolTableRecord
100
AcDbLayerTableRecord
  2
Layer 1
 70
     0
 62
     7
  6
Continuous
370
    -3
390
F
  0
ENDTAB
  0
TABLE
  2
STYLE
  5
3
330
0
100
AcDbSymbolTable
 70
     1
  0
STYLE
  5
11
330
3
100
AcDbSymbolTableRecord
100
AcDbTextStyleTableRecord
  2
Standard
 70
     0
 40
0.0
 41
1.0
 50
0.0
 71
     0
 42
0.2
  3
txt
  4

  0
ENDTAB
  0
TABLE
  2
VIEW
  5
6
330
0
100
AcDbSymbolTable
 70
     0
  0
ENDTAB
  0
TABLE
  2
UCS
  5
7
330
0
100
AcDbSymbolTable
 70
     0
  0
ENDTAB
  0
TABLE
  2
APPID
  5
9
330
0
100
AcDbSymbolTable
 70
     1
  0
APPID
  5
12
330
9
100
AcDbSymbolTableRecord
100
AcDbRegAppTableRecord
  2
ACAD
 70
     0
  0
ENDTAB
  0
TABLE
  2
DIMSTYLE
  5
A
330
0
100
AcDbSymbolTable
 70
     1
100
AcDbDimStyleTable
  0
DIMSTYLE
105
27
330
A
100
AcDbSymbolTableRecord
100
AcDbDimStyleTableRecord
  2
Standard
 70
     0
340
11
  0
ENDTAB
  0
TABLE
  2
BLOCK_RECORD
  5
1
330
0
100
AcDbSymbolTable
 70
     2
  0
BLOCK_RECORD
  5
1F
330
1
100
AcDbSymbolTableRecord
100
AcDbBlockTableRecord
  2
*Model_Space
340
22
  0
BLOCK_RECORD
  5
1B
330
1
100
AcDbSymbolTableRecord
100
AcDbBlockTableRecord
  2
*Paper_Space
340
1E
  0
BLOCK_RECORD
  5
23
330
1
100
AcDbSymbolTableRecord
100
AcDbBlockTableRecord
  2
*Paper_Space0
340
26
  0
BLOCK_RECORD
  5
3C
330
1
100
AcDbSymbolTableRecord
100
AcDbBlockTableRecord
  2
block 2
340
0
102
{BLKREFS
331
3D
102
}
  0
ENDTAB
  0
ENDSEC
  0
SECTION
  2
BLOCKS
  0
BLOCK
  5
20
330
1F
100
AcDbEntity
  8
0
100
AcDbBlockBegin
  2
*Model_Space
 70
     0
 71
     0
 10
0.0
 20
0.0
 30
0.0
  3
*Model_Space
  1

  0
ENDBLK
  5
21
330
1F
100
AcDbEntity
  8
0
100
AcDbBlockEnd
  0
BLOCK
  5
1C
330
1B
100
AcDbEntity
 67
     1
  8
0
100
AcDbBlockBegin
  2
*Paper_Space
 70
     0
 71
     0
 10
0.0
 20
0.0
 30
0.0
  3
*Paper_Space
  1

  0
ENDBLK
  5
1D
330
1B
100
AcDbEntity
 67
     1
  8
0
100
AcDbBlockEnd
  0
BLOCK
  5
24
330
23
100
AcDbEntity
  8
0
100
AcDbBlockBegin
  2
*Paper_Space0
 70
     0
 71
     0
 10
0.0
 20
0.0
 30
0.0
  3
*Paper_Space0
  1

  0
ENDBLK
  5
25
330
23
100
AcDbEntity
  8
0
100
AcDbBlockEnd
  0
BLOCK
  5
3E
330
3C
100
AcDbEntity
  8
0
100
AcDbBlockBegin
  2
block 2
 70
     0
 71
     0
 10
0.0
 20
0.0
 30
0.0
  3
block 2
  1

  0
ENDBLK
  5
3F
330
3C
100
AcDbEntity
  8
0
100
AcDbBlockEnd
  0
ENDSEC
  0
SECTION
  2
ENTITIES
  0
INSERT
  5
3D
330
1F
100
AcDbEntity
  8
Layer 1
100
AcDbBlockReference
  2
block 2
 10
0.0
 20
0.0
 30
0.0
  0
POLYLINE
  5
40
330
1F
100
AcDbEntity
  8
Layer 1
 62
     5
420
      255
370
    35
100
AcDb2dPolyline
 66
     1
 10
0.0
 20
0.0
 30
0.0
  0
VERTEX
  5
41
330
40
100
AcDbEntity
  8
Layer 1
 62
     5
420
      255
370
    35
100
AcDbVertex
100
AcDb2dVertex
 10
122.0947265625
 20
36.2177734375
 30
0.0
  0
VERTEX
  5
42
330
40
100
AcDbEntity
  8
Layer 1
 62
     5
420
      255
370
    35
100
AcDbVertex
100
AcDb2dVertex
 10
127.39013671875
 20
684.19677734375
 30
0.0
  0
VERTEX
  5
43
330
40
100
AcDbEntity
  8
Layer 1
 62
     5
420
      255
370
    35
100
AcDbVertex
100
AcDb2dVertex
 10
126.39892578125
 20
696.7080078125
 30
0.0
  0
VERTEX
  5
44
330
40
100
AcDbEntity
  8
Layer 1
 62
     5
420
      255
370
    35
100
AcDbVertex
100
AcDb2dVertex
 10
123.25
 20
708.85693359375
 30
0.0
  0
VERTEX
  5
45
330
40
100
AcDbEntity
  8
Layer 1
 62
     5
420
      255
370
    35
100
AcDbVertex
100
AcDb2dVertex
 10
118.0390625
 20
720.27392578125
 30
0.0
  0
VERTEX
  5
46
330
40
100
AcDbEntity
  8
Layer 1
 62
     5
420
      255
370
    35
100
AcDbVertex
100
AcDb2dVertex
 10
110.9248046875
 20
730.61279296875
 30
0.0
  0
VERTEX
  5
47
330
40
100
AcDbEntity
  8
Layer 1
 62
     5
420
      255
370
    35
100
AcDbVertex
100
AcDb2dVertex
 10
102.123046875
 20
739.56005859375
 30
0.0
  0
VERTEX
  5
48
330
40
100
AcDbEntity
  8
Layer 1
 62
     5
420
      255
370
    35
100
AcDbVertex
100
AcDb2dVertex
 10
91.90185546875
 20
746.841796875
 30
0.0
  0
VERTEX
  5
49
330
40
100
AcDbEntity
  8
Layer 1
 62
     5
420
      255
370
    35
100
AcDbVertex
100
AcDb2dVertex
 10
80.56982421875
 20
752.23876953125
 30
0.0
  0
VERTEX
  5
4A
330
40
100
AcDbEntity
  8
Layer 1
 62
     5
420
      255
370
    35
100
AcDbVertex
100
AcDb2dVertex
 10
68.47412109375
 20
755.5859375
 30
0.0
  0
VERTEX
  5
4B
330
40
100
AcDbEntity
  8
Layer 1
 62
     5
420
      255
370
    35
100
AcDbVertex
100
AcDb2dVertex
 10
55.98193359375
 20
756.78173828125
 30
0.0
  0
VERTEX
  5
4C
330
40
100
AcDbEntity
  8
Layer 1
 62
     5
420
      255
370
    35
100
AcDbVertex
100
AcDb2dVertex
 10
43.4697265625
 20
755.791015625
 30
0.0
  0
VERTEX
  5
4D
330
40
100
AcDbEntity
  8
Layer 1
 62
     5
420
      255
370
    35
100
AcDbVertex
100
AcDb2dVertex
 10
31.32080078125
 20
752.64208984375
 30
0.0
  0
VERTEX
  5
4E
330
40
100
AcDbEntity
  8
Layer 1
 62
     5
420
      255
370
    35
100
AcDbVertex
100
AcDb2dVertex
 10
19.90380859375
 20
747.4306640625
 30
0.0
  0
VERTEX
  5
4F
330
40
100
AcDbEntity
  8
Layer 1
 62
     5
420
      255
370
    35
100
AcDbVertex
100
AcDb2dVertex
 10
9.56494140625
 20
740.31689453125
 30
0.0
  0
VERTEX
  5
50
330
40
100
AcDbEntity
  8
Layer 1
 62
     5
420
      255
370
    35
100
AcDbVertex
100
AcDb2dVertex
 10
0.61767578125
 20
731.5146484375
 30
0.0
  0
VERTEX
  5
51
330
40
100
AcDbEntity
  8
Layer 1
 62
     5
420
      255
370
    35
100
AcDbVertex
100
AcDb2dVertex
 10
-6.6640625
 20
721.29296875
 30
0.0
  0
VERTEX
  5
52
330
40
100
AcDbEntity
  8
Layer 1
 62
     5
420
      255
370
    35
100
AcDbVertex
100
AcDb2dVertex
 10
-12.06103515625
 20
709.9619140625
 30
0.0
  0
VERTEX
  5
53
330
40
100
AcDbEntity
  8
Layer 1
 62
     5
420
      255
370
    35
100
AcDbVertex
100
AcDb2dVertex
 10
-15.408203125
 20
697.86572265625
 30
0.0
  0
VERTEX
  5
54
330
40
100
AcDbEntity
  8
Layer 1
 62
     5
420
      255
370
    35
100
AcDbVertex
100
AcDb2dVertex
 10
-16.60400390625
 20
685.3720703125
 30
0.0
  0
VERTEX
  5
55
330
40
100
AcDbEntity
  8
Layer 1
 62
     5
420
      255
370
    35
100
AcDbVertex
100
AcDb2dVertex
 10
-21.89892578125
 20
37.392578125
 30
0.0
  0
VERTEX
  5
56
330
40
100
AcDbEntity
  8
Layer 1
 62
     5
420
      255
370
    35
100
AcDbVertex
100
AcDb2dVertex
 10
122.0947265625
 20
36.2177734375
 30
0.0
  0
SEQEND
  5
57
330
40
100
AcDbEntity
  8
Layer 1
370
    35
  0
POLYLINE
  5
58
330
1F
100
AcDbEntity
  8
Layer 1
 62
     5
420
      255
370
    35
100
AcDb2dPolyline
 66
     1
 10
0.0
 20
0.0
 30
0.0
  0
VERTEX
  5
59
330
58
100
AcDbEntity
  8
Layer 1
 62
     5
420
      255
370
    35
100
AcDbVertex
100
AcDb2dVertex
 10
90.8037109375
 20
612.4931640625
 30
0.0
  0
VERTEX
  5
5A
330
58
100
AcDbEntity
  8
Layer 1
 62
     5
420
      255
370
    35
100
AcDbVertex
100
AcDb2dVertex
 10
89.86279296875
 20
497.296875
 30
0.0
  0
VERTEX
  5
5B
330
58
100
AcDbEntity
  8
Layer 1
 62
     5
420
      255
370
    35
100
AcDbVertex
100
AcDb2dVertex
 10
17.86474609375
 20
497.884765625
 30
0.0
  0
VERTEX
  5
5C
330
58
100
AcDbEntity
  8
Layer 1
 62
     5
420
      255
370
    35
100
AcDbVertex
100
AcDb2dVertex
 10
18.80615234375
 20
613.0810546875
 30
0.0
  0
VERTEX
  5
5D
330
58
100
AcDbEntity
  8
Layer 1
 62
     5
420
      255
370
    35
100
AcDbVertex
100
AcDb2dVertex
 10
90.8037109375
 20
612.4931640625
 30
0.0
  0
SEQEND
  5
5E
330
58
100
AcDbEntity
  8
Layer 1
370
    35
  0
POLYLINE
  5
5F
330
1F
100
AcDbEntity
  8
Layer 1
 62
     5
420
      255
370
    35
100
AcDb2dPolyline
 66
     1
 10
0.0
 20
0.0
 30
0.0
  0
VERTEX
  5
60
330
5F
100
AcDbEntity
  8
Layer 1
 62
     5
420
      255
370
    35
100
AcDbVertex
100
AcDb2dVertex
 10
57.828125
 20
138.9619140625
 30
0.0
  0
VERTEX
  5
61
330
5F
100
AcDbEntity
  8
Layer 1
 62
     5
420
      255
370
    35
100
AcDbVertex
100
AcDb2dVertex
 10
56.708984375
 20
137.861328125
 30
0.0
  0
VERTEX
  5
62
330
5F
100
AcDbEntity
  8
Layer 1
 62
     5
420
      255
370
    35
100
AcDbVertex
100
AcDb2dVertex
 10
55.4169921875
 20
136.970703125
 30
0.0
  0
VERTEX
  5
63
330
5F
100
AcDbEntity
  8
Layer 1
 62
     5
420
      255
370
    35
100
AcDbVertex
100
AcDb2dVertex
 10
53.98974609375
 20
136.3203125
 30
0.0
  0
VERTEX
  5
64
330
5F
100
AcDbEntity
  8
Layer 1
 62
     5
420
      255
370
    35
100
AcDbVertex
100
AcDb2dVertex
 10
52.470703125
 20
135.92578125
 30
0.0
  0
VERTEX
  5
65
330
5F
100
AcDbEntity
  8
Layer 1
 62
     5
420
      255
370
    35
100
AcDbVertex
100
AcDb2dVertex
 10
50.90673828125
 20
135.802734375
 30
0.0
  0
VERTEX
  5
66
330
5F
100
AcDbEntity
  8
Layer 1
 62
     5
420
      255
370
    35
100
AcDbVertex
100
AcDb2dVertex
 10
49.3447265625
 20
135.9521484375
 30
0.0
  0
VERTEX
  5
67
330
5F
100
AcDbEntity
  8
Layer 1
 62
     5
420
      255
370
    35
100
AcDbVertex
100
AcDb2dVertex
 10
47.8330078125
 20
136.3701171875
 30
0.0
  0
VERTEX
  5
68
330
5F
100
AcDbEntity
  8
Layer 1
 62
     5
420
      255
370
    35
100
AcDbVertex
100
AcDb2dVertex
 10
46.416015625
 20
137.044921875
 30
0.0
  0
VERTEX
  5
69
330
5F
100
AcDbEntity
  8
Layer 1
 62
     5
420
      255
370
    35
100
AcDbVertex
100
AcDb2dVertex
 10
45.1376953125
 20
137.955078125
 30
0.0
  0
VERTEX
  5
6A
330
5F
100
AcDbEntity
  8
Layer 1
 62
     5
420
      255
370
    35
100
AcDbVertex
100
AcDb2dVertex
 10
44.0380859375
 20
139.0732421875
 30
0.0
  0
VERTEX
  5
6B
330
5F
100
AcDbEntity
  8
Layer 1
 62
     5
420
      255
370
    35
100
AcDbVertex
100
AcDb2dVertex
 10
43.14892578125
 20
140.3662109375
 30
0.0
  0
VERTEX
  5
6C
330
5F
100
AcDbEntity
  8
Layer 1
 62
     5
420
      255
370
    35
100
AcDbVertex
100
AcDb2dVertex
 10
42.498046875
 20
141.79296875
 30
0.0
  0
VERTEX
  5
6D
330
5F
100
AcDbEntity
  8
Layer 1
 62
     5
420
      255
370
    35
100
AcDbVertex
100
AcDb2dVertex
 10
42.10400390625
 20
143.3115234375
 30
0.0
  0
VERTEX
  5
6E
330
5F
100
AcDbEntity
  8
Layer 1
 62
     5
420
      255
370
    35
100
AcDbVertex
100
AcDb2dVertex
 10
41.97998046875
 20
144.8759765625
 30
0.0
  0
VERTEX
  5
6F
330
5F
100
AcDbEntity
  8
Layer 1
 62
     5
420
      255
370
    35
100
AcDbVertex
100
AcDb2dVertex
 10
42.12890625
 20
146.4375
 30
0.0
  0
VERTEX
  5
70
330
5F
100
AcDbEntity
  8
Layer 1
 62
     5
420
      255
370
    35
100
AcDbVertex
100
AcDb2dVertex
 10
42.546875
 20
147.9501953125
 30
0.0
  0
VERTEX
  5
71
330
5F
100
AcDbEntity
  8
Layer 1
 62
     5
420
      255
370
    35
100
AcDbVertex
100
AcDb2dVertex
 10
43.220703125
 20
149.3662109375
 30
0.0
  0
VERTEX
  5
72
330
5F
100
AcDbEntity
  8
Layer 1
 62
     5
420
      255
370
    35
100
AcDbVertex
100
AcDb2dVertex
 10
44.1318359375
 20
150.6435546875
 30
0.0
  0
VERTEX
  5
73
330
5F
100
AcDbEntity
  8
Layer 1
 62
     5
420
      255
370
    35
100
AcDbVertex
100
AcDb2dVertex
 10
45.25
 20
151.744140625
 30
0.0
  0
VERTEX
  5
74
330
5F
100
AcDbEntity
  8
Layer 1
 62
     5
420
      255
370
    35
100
AcDbVertex
100
AcDb2dVertex
 10
46.5419921875
 20
152.6337890625
 30
0.0
  0
VERTEX
  5
75
330
5F
100
AcDbEntity
  8
Layer 1
 62
     5
420
      255
370
    35
100
AcDbVertex
100
AcDb2dVertex
 10
47.96875
 20
153.28515625
 30
0.0
  0
VERTEX
  5
76
330
5F
100
AcDbEntity
  8
Layer 1
 62
     5
420
      255
370
    35
100
AcDbVertex
100
AcDb2dVertex
 10
49.48779296875
 20
153.6787109375
 30
0.0
  0
VERTEX
  5
77
330
5F
100
AcDbEntity
  8
Layer 1
 62
     5
420
      255
370
    35
100
AcDbVertex
100
AcDb2dVertex
 10
51.0517578125
 20
153.802734375
 30
0.0
  0
VERTEX
  5
78
330
5F
100
AcDbEntity
  8
Layer 1
 62
     5
420
      255
370
    35
100
AcDbVertex
100
AcDb2dVertex
 10
52.61376953125
 20
153.654296875
 30
0.0
  0
VERTEX
  5
79
330
5F
100
AcDbEntity
  8
Layer 1
 62
     5
420
      255
370
    35
100
AcDbVertex
100
AcDb2dVertex
 10
54.1259765625
 20
153.2353515625
 30
0.0
  0
VERTEX
  5
7A
330
5F
100
AcDbEntity
  8
Layer 1
 62
     5
420
      255
370
    35
100
AcDbVertex
100
AcDb2dVertex
 10
55.54296875
 20
152.560546875
 30
0.0
  0
VERTEX
  5
7B
330
5F
100
AcDbEntity
  8
Layer 1
 62
     5
420
      255
370
    35
100
AcDbVertex
100
AcDb2dVertex
 10
56.81982421875
 20
151.650390625
 30
0.0
  0
VERTEX
  5
7C
330
5F
100
AcDbEntity
  8
Layer 1
 62
     5
420
      255
370
    35
100
AcDbVertex
100
AcDb2dVertex
 10
57.919921875
 20
150.5322265625
 30
0.0
  0
VERTEX
  5
7D
330
5F
100
AcDbEntity
  8
Layer 1
 62
     5
420
      255
370
    35
100
AcDbVertex
100
AcDb2dVertex
 10
58.81005859375
 20
149.240234375
 30
0.0
  0
VERTEX
  5
7E
330
5F
100
AcDbEntity
  8
Layer 1
 62
     5
420
      255
370
    35
100
AcDbVertex
100
AcDb2dVertex
 10
59.4609375
 20
147.8125
 30
0.0
  0
VERTEX
  5
7F
330
5F
100
AcDbEntity
  8
Layer 1
 62
     5
420
      255
370
    35
100
AcDbVertex
100
AcDb2dVertex
 10
59.85595703125
 20
146.29296875
 30
0.0
  0
VERTEX
  5
80
330
5F
100
AcDbEntity
  8
Layer 1
 62
     5
420
      255
370
    35
100
AcDbVertex
100
AcDb2dVertex
 10
59.97900390625
 20
144.73046875
 30
0.0
  0
VERTEX
  5
81
330
5F
100
AcDbEntity
  8
Layer 1
 62
     5
420
      255
370
    35
100
AcDbVertex
100
AcDb2dVertex
 10
59.830078125
 20
143.16796875
 30
0.0
  0
VERTEX
  5
82
330
5F
100
AcDbEntity
  8
Layer 1
 62
     5
420
      255
370
    35
100
AcDbVertex
100
AcDb2dVertex
 10
59.4111328125
 20
141.6552734375
 30
0.0
  0
VERTEX
  5
83
330
5F
100
AcDbEntity
  8
Layer 1
 62
     5
420
      255
370
    35
100
AcDbVertex
100
AcDb2dVertex
 10
58.73681640625
 20
140.2392578125
 30
0.0
  0
VERTEX
  5
84
330
5F
100
AcDbEntity
  8
Layer 1
 62
     5
420
      255
370
    35
100
AcDbVertex
100
AcDb2dVertex
 10
57.828125
 20
138.9619140625
 30
0.0
  0
SEQEND
  5
85
330
5F
100
AcDbEntity
  8
Layer 1
370
    35
  0
POLYLINE
  5
86
330
1F
100
AcDbEntity
  8
Layer 1
 62
     5
420
      255
370
    35
100
AcDb2dPolyline
 66
     1
 10
0.0
 20
0.0
 30
0.0
  0
VERTEX
  5
87
330
86
100
AcDbEntity
  8
Layer 1
 62
     5
420
      255
370
    35
100
AcDbVertex
100
AcDb2dVertex
 10
64.119140625
 20
717.63671875
 30
0.0
  0
VERTEX
  5
88
330
86
100
AcDbEntity
  8
Layer 1
 62
     5
420
      255
370
    35
100
AcDbVertex
100
AcDb2dVertex
 10
63.44482421875
 20
716.2197265625
 30
0.0
  0
VERTEX
  5
89
330
86
100
AcDbEntity
  8
Layer 1
 62
     5
420
      255
370
    35
100
AcDbVertex
100
AcDb2dVertex
 10
62.53466796875
 20
714.94189453125
 30
0.0
  0
VERTEX
  5
8A
330
86
100
AcDbEntity
  8
Layer 1
 62
     5
420
      255
370
    35
100
AcDbVertex
100
AcDb2dVertex
 10
61.416015625
 20
713.841796875
 30
0.0
  0
VERTEX
  5
8B
330
86
100
AcDbEntity
  8
Layer 1
 62
     5
420
      255
370
    35
100
AcDbVertex
100
AcDb2dVertex
 10
60.1240234375
 20
712.953125
 30
0.0
  0
VERTEX
  5
8C
330
86
100
AcDbEntity
  8
Layer 1
 62
     5
420
      255
370
    35
100
AcDbVertex
100
AcDb2dVertex
 10
58.69677734375
 20
712.3017578125
 30
0.0
  0
VERTEX
  5
8D
330
86
100
AcDbEntity
  8
Layer 1
 62
     5
420
      255
370
    35
100
AcDbVertex
100
AcDb2dVertex
 10
57.1767578125
 20
711.90771484375
 30
0.0
  0
VERTEX
  5
8E
330
86
100
AcDbEntity
  8
Layer 1
 62
     5
420
      255
370
    35
100
AcDbVertex
100
AcDb2dVertex
 10
55.61376953125
 20
711.7841796875
 30
0.0
  0
VERTEX
  5
8F
330
86
100
AcDbEntity
  8
Layer 1
 62
     5
420
      255
370
    35
100
AcDbVertex
100
AcDb2dVertex
 10
54.0517578125
 20
711.93310546875
 30
0.0
  0
VERTEX
  5
90
330
86
100
AcDbEntity
  8
Layer 1
 62
     5
420
      255
370
    35
100
AcDbVertex
100
AcDb2dVertex
 10
52.5400390625
 20
712.35107421875
 30
0.0
  0
VERTEX
  5
91
330
86
100
AcDbEntity
  8
Layer 1
 62
     5
420
      255
370
    35
100
AcDbVertex
100
AcDb2dVertex
 10
51.123046875
 20
713.02587890625
 30
0.0
  0
VERTEX
  5
92
330
86
100
AcDbEntity
  8
Layer 1
 62
     5
420
      255
370
    35
100
AcDbVertex
100
AcDb2dVertex
 10
49.845703125
 20
713.93603515625
 30
0.0
  0
VERTEX
  5
93
330
86
100
AcDbEntity
  8
Layer 1
 62
     5
420
      255
370
    35
100
AcDbVertex
100
AcDb2dVertex
 10
48.7451171875
 20
715.0546875
 30
0.0
  0
VERTEX
  5
94
330
86
100
AcDbEntity
  8
Layer 1
 62
     5
420
      255
370
    35
100
AcDbVertex
100
AcDb2dVertex
 10
47.85595703125
 20
716.3466796875
 30
0.0
  0
VERTEX
  5
95
330
86
100
AcDbEntity
  8
Layer 1
 62
     5
420
      255
370
    35
100
AcDbVertex
100
AcDb2dVertex
 10
47.205078125
 20
717.77392578125
 30
0.0
  0
VERTEX
  5
96
330
86
100
AcDbEntity
  8
Layer 1
 62
     5
420
      255
370
    35
100
AcDbVertex
100
AcDb2dVertex
 10
46.81103515625
 20
719.29296875
 30
0.0
  0
VERTEX
  5
97
330
86
100
AcDbEntity
  8
Layer 1
 62
     5
420
      255
370
    35
100
AcDbVertex
100
AcDb2dVertex
 10
46.68701171875
 20
720.85693359375
 30
0.0
  0
VERTEX
  5
98
330
86
100
AcDbEntity
  8
Layer 1
 62
     5
420
      255
370
    35
100
AcDbVertex
100
AcDb2dVertex
 10
46.8359375
 20
722.4189453125
 30
0.0
  0
VERTEX
  5
99
330
86
100
AcDbEntity
  8
Layer 1
 62
     5
420
      255
370
    35
100
AcDbVertex
100
AcDb2dVertex
 10
47.25390625
 20
723.9306640625
 30
0.0
  0
VERTEX
  5
9A
330
86
100
AcDbEntity
  8
Layer 1
 62
     5
420
      255
370
    35
100
AcDbVertex
100
AcDb2dVertex
 10
47.9287109375
 20
725.34765625
 30
0.0
  0
VERTEX
  5
9B
330
86
100
AcDbEntity
  8
Layer 1
 62
     5
420
      255
370
    35
100
AcDbVertex
100
AcDb2dVertex
 10
48.8388671875
 20
726.6259765625
 30
0.0
  0
VERTEX
  5
9C
330
86
100
AcDbEntity
  8
Layer 1
 62
     5
420
      255
370
    35
100
AcDbVertex
100
AcDb2dVertex
 10
49.95703125
 20
727.72607421875
 30
0.0
  0
VERTEX
  5
9D
330
86
100
AcDbEntity
  8
Layer 1
 62
     5
420
      255
370
    35
100
AcDbVertex
100
AcDb2dVertex
 10
51.2490234375
 20
728.61474609375
 30
0.0
  0
VERTEX
  5
9E
330
86
100
AcDbEntity
  8
Layer 1
 62
     5
420
      255
370
    35
100
AcDbVertex
100
AcDb2dVertex
 10
52.67578125
 20
729.26611328125
 30
0.0
  0
VERTEX
  5
9F
330
86
100
AcDbEntity
  8
Layer 1
 62
     5
420
      255
370
    35
100
AcDbVertex
100
AcDb2dVertex
 10
54.19482421875
 20
729.66015625
 30
0.0
  0
VERTEX
  5
A0
330
86
100
AcDbEntity
  8
Layer 1
 62
     5
420
      255
370
    35
100
AcDbVertex
100
AcDb2dVertex
 10
55.7587890625
 20
729.7841796875
 30
0.0
  0
VERTEX
  5
A1
330
86
100
AcDbEntity
  8
Layer 1
 62
     5
420
      255
370
    35
100
AcDbVertex
100
AcDb2dVertex
 10
57.31982421875
 20
729.634765625
 30
0.0
  0
VERTEX
  5
A2
330
86
100
AcDbEntity
  8
Layer 1
 62
     5
420
      255
370
    35
100
AcDbVertex
100
AcDb2dVertex
 10
58.8330078125
 20
729.216796875
 30
0.0
  0
VERTEX
  5
A3
330
86
100
AcDbEntity
  8
Layer 1
 62
     5
420
      255
370
    35
100
AcDbVertex
100
AcDb2dVertex
 10
60.25
 20
728.54296875
 30
0.0
  0
VERTEX
  5
A4
330
86
100
AcDbEntity
  8
Layer 1
 62
     5
420
      255
370
    35
100
AcDbVertex
100
AcDb2dVertex
 10
61.52685546875
 20
727.6318359375
 30
0.0
  0
VERTEX
  5
A5
330
86
100
AcDbEntity
  8
Layer 1
 62
     5
420
      255
370
    35
100
AcDbVertex
100
AcDb2dVertex
 10
62.626953125
 20
726.513671875
 30
0.0
  0
VERTEX
  5
A6
330
86
100
AcDbEntity
  8
Layer 1
 62
     5
420
      255
370
    35
100
AcDbVertex
100
AcDb2dVertex
 10
63.51708984375
 20
725.2216796875
 30
0.0
  0
VERTEX
  5
A7
330
86
100
AcDbEntity
  8
Layer 1
 62
     5
420
      255
370
    35
100
AcDbVertex
100
AcDb2dVertex
 10
64.16796875
 20
723.794921875
 30
0.0
  0
VERTEX
  5
A8
330
86
100
AcDbEntity
  8
Layer 1
 62
     5
420
      255
370
    35
100
AcDbVertex
100
AcDb2dVertex
 10
64.56201171875
 20
722.27587890625
 30
0.0
  0
VERTEX
  5
A9
330
86
100
AcDbEntity
  8
Layer 1
 62
     5
420
      255
370
    35
100
AcDbVertex
100
AcDb2dVertex
 10
64.68603515625
 20
720.7119140625
 30
0.0
  0
VERTEX
  5
AA
330
86
100
AcDbEntity
  8
Layer 1
 62
     5
420
      255
370
    35
100
AcDbVertex
100
AcDb2dVertex
 10
64.537109375
 20
719.14990234375
 30
0.0
  0
VERTEX
  5
AB
330
86
100
AcDbEntity
  8
Layer 1
 62
     5
420
      255
370
    35
100
AcDbVertex
100
AcDb2dVertex
 10
64.119140625
 20
717.63671875
 30
0.0
  0
SEQEND
  5
AC
330
86
100
AcDbEntity
  8
Layer 1
370
    35
  0
POLYLINE
  5
AD
330
1F
100
AcDbEntity
  8
Layer 1
 62
     5
420
      255
370
    35
100
AcDb2dPolyline
 66
     1
 10
0.0
 20
0.0
 30
0.0
  0
VERTEX
  5
AE
330
AD
100
AcDbEntity
  8
Layer 1
 62
     5
420
      255
370
    35
100
AcDbVertex
100
AcDb2dVertex
 10
291.08984375
 20
36.2177734375
 30
0.0
  0
VERTEX
  5
AF
330
AD
100
AcDbEntity
  8
Layer 1
 62
     5
420
      255
370
    35
100
AcDbVertex
100
AcDb2dVertex
 10
296.384765625
 20
684.19677734375
 30
0.0
  0
VERTEX
  5
B0
330
AD
100
AcDbEntity
  8
Layer 1
 62
     5
420
      255
370
    35
100
AcDbVertex
100
AcDb2dVertex
 10
295.3935546875
 20
696.7080078125
 30
0.0
  0
VERTEX
  5
B1
330
AD
100
AcDbEntity
  8
Layer 1
 62
     5
420
      255
370
    35
100
AcDbVertex
100
AcDb2dVertex
 10
292.2451171875
 20
708.85693359375
 30
0.0
  0
VERTEX
  5
B2
330
AD
100
AcDbEntity
  8
Layer 1
 62
     5
420
      255
370
    35
100
AcDbVertex
100
AcDb2dVertex
 10
287.0341796875
 20
720.27392578125
 30
0.0
  0
VERTEX
  5
B3
330
AD
100
AcDbEntity
  8
Layer 1
 62
     5
420
      255
370
    35
100
AcDbVertex
100
AcDb2dVertex
 10
279.919921875
 20
730.61279296875
 30
0.0
  0
VERTEX
  5
B4
330
AD
100
AcDbEntity
  8
Layer 1
 62
     5
420
      255
370
    35
100
AcDbVertex
100
AcDb2dVertex
 10
271.1181640625
 20
739.56005859375
 30
0.0
  0
VERTEX
  5
B5
330
AD
100
AcDbEntity
  8
Layer 1
 62
     5
420
      255
370
    35
100
AcDbVertex
100
AcDb2dVertex
 10
260.896484375
 20
746.841796875
 30
0.0
  0
VERTEX
  5
B6
330
AD
100
AcDbEntity
  8
Layer 1
 62
     5
420
      255
370
    35
100
AcDbVertex
100
AcDb2dVertex
 10
249.56494140625
 20
752.23876953125
 30
0.0
  0
VERTEX
  5
B7
330
AD
100
AcDbEntity
  8
Layer 1
 62
     5
420
      255
370
    35
100
AcDbVertex
100
AcDb2dVertex
 10
237.46875
 20
755.5859375
 30
0.0
  0
VERTEX
  5
B8
330
AD
100
AcDbEntity
  8
Layer 1
 62
     5
420
      255
370
    35
100
AcDbVertex
100
AcDb2dVertex
 10
224.97705078125
 20
756.78173828125
 30
0.0
  0
VERTEX
  5
B9
330
AD
100
AcDbEntity
  8
Layer 1
 62
     5
420
      255
370
    35
100
AcDbVertex
100
AcDb2dVertex
 10
212.46484375
 20
755.791015625
 30
0.0
  0
VERTEX
  5
BA
330
AD
100
AcDbEntity
  8
Layer 1
 62
     5
420
      255
370
    35
100
AcDbVertex
100
AcDb2dVertex
 10
200.31689453125
 20
752.64208984375
 30
0.0
  0
VERTEX
  5
BB
330
AD
100
AcDbEntity
  8
Layer 1
 62
     5
420
      255
370
    35
100
AcDbVertex
100
AcDb2dVertex
 10
188.89892578125
 20
747.4306640625
 30
0.0
  0
VERTEX
  5
BC
330
AD
100
AcDbEntity
  8
Layer 1
 62
     5
420
      255
370
    35
100
AcDbVertex
100
AcDb2dVertex
 10
178.55908203125
 20
740.31689453125
 30
0.0
  0
VERTEX
  5
BD
330
AD
100
AcDbEntity
  8
Layer 1
 62
     5
420
      255
370
    35
100
AcDbVertex
100
AcDb2dVertex
 10
169.61279296875
 20
731.5146484375
 30
0.0
  0
VERTEX
  5
BE
330
AD
100
AcDbEntity
  8
Layer 1
 62
     5
420
      255
370
    35
100
AcDbVertex
100
AcDb2dVertex
 10
162.3310546875
 20
721.29296875
 30
0.0
  0
VERTEX
  5
BF
330
AD
100
AcDbEntity
  8
Layer 1
 62
     5
420
      255
370
    35
100
AcDbVertex
100
AcDb2dVertex
 10
156.93505859375
 20
709.9619140625
 30
0.0
  0
VERTEX
  5
C0
330
AD
100
AcDbEntity
  8
Layer 1
 62
     5
420
      255
370
    35
100
AcDbVertex
100
AcDb2dVertex
 10
153.5869140625
 20
697.86572265625
 30
0.0
  0
VERTEX
  5
C1
330
AD
100
AcDbEntity
  8
Layer 1
 62
     5
420
      255
370
    35
100
AcDbVertex
100
AcDb2dVertex
 10
152.39208984375
 20
685.3720703125
 30
0.0
  0
VERTEX
  5
C2
330
AD
100
AcDbEntity
  8
Layer 1
 62
     5
420
      255
370
    35
100
AcDbVertex
100
AcDb2dVertex
 10
147.0966796875
 20
37.392578125
 30
0.0
  0
VERTEX
  5
C3
330
AD
100
AcDbEntity
  8
Layer 1
 62
     5
420
      255
370
    35
100
AcDbVertex
100
AcDb2dVertex
 10
291.08984375
 20
36.2177734375
 30
0.0
  0
SEQEND
  5
C4
330
AD
100
AcDbEntity
  8
Layer 1
370
    35
  0
POLYLINE
  5
C5
330
1F
100
AcDbEntity
  8
Layer 1
 62
     5
420
      255
370
    35
100
AcDb2dPolyline
 66
     1
 10
0.0
 20
0.0
 30
0.0
  0
VERTEX
  5
C6
330
C5
100
AcDbEntity
  8
Layer 1
 62
     5
420
      255
370
    35
100
AcDbVertex
100
AcDb2dVertex
 10
259.798828125
 20
612.4931640625
 30
0.0
  0
VERTEX
  5
C7
330
C5
100
AcDbEntity
  8
Layer 1
 62
     5
420
      255
370
    35
100
AcDbVertex
100
AcDb2dVertex
 10
258.857421875
 20
497.296875
 30
0.0
  0
VERTEX
  5
C8
330
C5
100
AcDbEntity
  8
Layer 1
 62
     5
420
      255
370
    35
100
AcDbVertex
100
AcDb2dVertex
 10
186.85986328125
 20
497.884765625
 30
0.0
  0
VERTEX
  5
C9
330
C5
100
AcDbEntity
  8
Layer 1
 62
     5
420
      255
370
    35
100
AcDbVertex
100
AcDb2dVertex
 10
187.80078125
 20
613.0810546875
 30
0.0
  0
VERTEX
  5
CA
330
C5
100
AcDbEntity
  8
Layer 1
 62
     5
420
      255
370
    35
100
AcDbVertex
100
AcDb2dVertex
 10
259.798828125
 20
612.4931640625
 30
0.0
  0
SEQEND
  5
CB
330
C5
100
AcDbEntity
  8
Layer 1
370
    35
  0
POLYLINE
  5
CC
330
1F
100
AcDbEntity
  8
Layer 1
 62
     5
420
      255
370
    35
100
AcDb2dPolyline
 66
     1
 10
0.0
 20
0.0
 30
0.0
  0
VERTEX
  5
CD
330
CC
100
AcDbEntity
  8
Layer 1
 62
     5
420
      255
370
    35
100
AcDbVertex
100
AcDb2dVertex
 10
226.82275390625
 20
138.9619140625
 30
0.0
  0
VERTEX
  5
CE
330
CC
100
AcDbEntity
  8
Layer 1
 62
     5
420
      255
370
    35
100
AcDbVertex
100
AcDb2dVertex
 10
225.7041015625
 20
137.861328125
 30
0.0
  0
VERTEX
  5
CF
330
CC
100
AcDbEntity
  8
Layer 1
 62
     5
420
      255
370
    35
100
AcDbVertex
100
AcDb2dVertex
 10
224.412109375
 20
136.970703125
 30
0.0
  0
VERTEX
  5
D0
330
CC
100
AcDbEntity
  8
Layer 1
 62
     5
420
      255
370
    35
100
AcDbVertex
100
AcDb2dVertex
 10
222.98486328125
 20
136.3203125
 30
0.0
  0
VERTEX
  5
D1
330
CC
100
AcDbEntity
  8
Layer 1
 62
     5
420
      255
370
    35
100
AcDbVertex
100
AcDb2dVertex
 10
221.46484375
 20
135.92578125
 30
0.0
  0
VERTEX
  5
D2
330
CC
100
AcDbEntity
  8
Layer 1
 62
     5
420
      255
370
    35
100
AcDbVertex
100
AcDb2dVertex
 10
219.90185546875
 20
135.802734375
 30
0.0
  0
VERTEX
  5
D3
330
CC
100
AcDbEntity
  8
Layer 1
 62
     5
420
      255
370
    35
100
AcDbVertex
100
AcDb2dVertex
 10
218.33984375
 20
135.9521484375
 30
0.0
  0
VERTEX
  5
D4
330
CC
100
AcDbEntity
  8
Layer 1
 62
     5
420
      255
370
    35
100
AcDbVertex
100
AcDb2dVertex
 10
216.828125
 20
136.3701171875
 30
0.0
  0
VERTEX
  5
D5
330
CC
100
AcDbEntity
  8
Layer 1
 62
     5
420
      255
370
    35
100
AcDbVertex
100
AcDb2dVertex
 10
215.412109375
 20
137.044921875
 30
0.0
  0
VERTEX
  5
D6
330
CC
100
AcDbEntity
  8
Layer 1
 62
     5
420
      255
370
    35
100
AcDbVertex
100
AcDb2dVertex
 10
214.1337890625
 20
137.955078125
 30
0.0
  0
VERTEX
  5
D7
330
CC
100
AcDbEntity
  8
Layer 1
 62
     5
420
      255
370
    35
100
AcDbVertex
100
AcDb2dVertex
 10
213.03271484375
 20
139.0732421875
 30
0.0
  0
VERTEX
  5
D8
330
CC
100
AcDbEntity
  8
Layer 1
 62
     5
420
      255
370
    35
100
AcDbVertex
100
AcDb2dVertex
 10
212.14404296875
 20
140.3662109375
 30
0.0
  0
VERTEX
  5
D9
330
CC
100
AcDbEntity
  8
Layer 1
 62
     5
420
      255
370
    35
100
AcDbVertex
100
AcDb2dVertex
 10
211.4931640625
 20
141.79296875
 30
0.0
  0
VERTEX
  5
DA
330
CC
100
AcDbEntity
  8
Layer 1
 62
     5
420
      255
370
    35
100
AcDbVertex
100
AcDb2dVertex
 10
211.09912109375
 20
143.3115234375
 30
0.0
  0
VERTEX
  5
DB
330
CC
100
AcDbEntity
  8
Layer 1
 62
     5
420
      255
370
    35
100
AcDbVertex
100
AcDb2dVertex
 10
210.97509765625
 20
144.8759765625
 30
0.0
  0
VERTEX
  5
DC
330
CC
100
AcDbEntity
  8
Layer 1
 62
     5
420
      255
370
    35
100
AcDbVertex
100
AcDb2dVertex
 10
211.1240234375
 20
146.4375
 30
0.0
  0
VERTEX
  5
DD
330
CC
100
AcDbEntity
  8
Layer 1
 62
     5
420
      255
370
    35
100
AcDbVertex
100
AcDb2dVertex
 10
211.5419921875
 20
147.9501953125
 30
0.0
  0
VERTEX
  5
DE
330
CC
100
AcDbEntity
  8
Layer 1
 62
     5
420
      255
370
    35
100
AcDbVertex
100
AcDb2dVertex
 10
212.216796875
 20
149.3662109375
 30
0.0
  0
VERTEX
  5
DF
330
CC
100
AcDbEntity
  8
Layer 1
 62
     5
420
      255
370
    35
100
AcDbVertex
100
AcDb2dVertex
 10
213.1279296875
 20
150.6435546875
 30
0.0
  0
VERTEX
  5
E0
330
CC
100
AcDbEntity
  8
Layer 1
 62
     5
420
      255
370
    35
100
AcDbVertex
100
AcDb2dVertex
 10
214.2451171875
 20
151.744140625
 30
0.0
  0
VERTEX
  5
E1
330
CC
100
AcDbEntity
  8
Layer 1
 62
     5
420
      255
370
    35
100
AcDbVertex
100
AcDb2dVertex
 10
215.5380859375
 20
152.6337890625
 30
0.0
  0
VERTEX
  5
E2
330
CC
100
AcDbEntity
  8
Layer 1
 62
     5
420
      255
370
    35
100
AcDbVertex
100
AcDb2dVertex
 10
216.9658203125
 20
153.28515625
 30
0.0
  0
VERTEX
  5
E3
330
CC
100
AcDbEntity
  8
Layer 1
 62
     5
420
      255
370
    35
100
AcDbVertex
100
AcDb2dVertex
 10
218.48388671875
 20
153.6787109375
 30
0.0
  0
VERTEX
  5
E4
330
CC
100
AcDbEntity
  8
Layer 1
 62
     5
420
      255
370
    35
100
AcDbVertex
100
AcDb2dVertex
 10
220.0478515625
 20
153.802734375
 30
0.0
  0
VERTEX
  5
E5
330
CC
100
AcDbEntity
  8
Layer 1
 62
     5
420
      255
370
    35
100
AcDbVertex
100
AcDb2dVertex
 10
221.60986328125
 20
153.654296875
 30
0.0
  0
VERTEX
  5
E6
330
CC
100
AcDbEntity
  8
Layer 1
 62
     5
420
      255
370
    35
100
AcDbVertex
100
AcDb2dVertex
 10
223.1220703125
 20
153.2353515625
 30
0.0
  0
VERTEX
  5
E7
330
CC
100
AcDbEntity
  8
Layer 1
 62
     5
420
      255
370
    35
100
AcDbVertex
100
AcDb2dVertex
 10
224.5390625
 20
152.560546875
 30
0.0
  0
VERTEX
  5
E8
330
CC
100
AcDbEntity
  8
Layer 1
 62
     5
420
      255
370
    35
100
AcDbVertex
100
AcDb2dVertex
 10
225.81591796875
 20
151.650390625
 30
0.0
  0
VERTEX
  5
E9
330
CC
100
AcDbEntity
  8
Layer 1
 62
     5
420
      255
370
    35
100
AcDbVertex
100
AcDb2dVertex
 10
226.916015625
 20
150.5322265625
 30
0.0
  0
VERTEX
  5
EA
330
CC
100
AcDbEntity
  8
Layer 1
 62
     5
420
      255
370
    35
100
AcDbVertex
100
AcDb2dVertex
 10
227.80615234375
 20
149.240234375
 30
0.0
  0
VERTEX
  5
EB
330
CC
100
AcDbEntity
  8
Layer 1
 62
     5
420
      255
370
    35
100
AcDbVertex
100
AcDb2dVertex
 10
228.45703125
 20
147.8125
 30
0.0
  0
VERTEX
  5
EC
330
CC
100
AcDbEntity
  8
Layer 1
 62
     5
420
      255
370
    35
100
AcDbVertex
100
AcDb2dVertex
 10
228.85205078125
 20
146.29296875
 30
0.0
  0
VERTEX
  5
ED
330
CC
100
AcDbEntity
  8
Layer 1
 62
     5
420
      255
370
    35
100
AcDbVertex
100
AcDb2dVertex
 10
228.97509765625
 20
144.73046875
 30
0.0
  0
VERTEX
  5
EE
330
CC
100
AcDbEntity
  8
Layer 1
 62
     5
420
      255
370
    35
100
AcDbVertex
100
AcDb2dVertex
 10
228.826171875
 20
143.16796875
 30
0.0
  0
VERTEX
  5
EF
330
CC
100
AcDbEntity
  8
Layer 1
 62
     5
420
      255
370
    35
100
AcDbVertex
100
AcDb2dVertex
 10
228.40673828125
 20
141.6552734375
 30
0.0
  0
VERTEX
  5
F0
330
CC
100
AcDbEntity
  8
Layer 1
 62
     5
420
      255
370
    35
100
AcDbVertex
100
AcDb2dVertex
 10
227.73291015625
 20
140.2392578125
 30
0.0
  0
VERTEX
  5
F1
330
CC
100
AcDbEntity
  8
Layer 1
 62
     5
420
      255
370
    35
100
AcDbVertex
100
AcDb2dVertex
 10
226.82275390625
 20
138.9619140625
 30
0.0
  0
SEQEND
  5
F2
330
CC
100
AcDbEntity
  8
Layer 1
370
    35
  0
POLYLINE
  5
F3
330
1F
100
AcDbEntity
  8
Layer 1
 62
     5
420
      255
370
    35
100
AcDb2dPolyline
 66
     1
 10
0.0
 20
0.0
 30
0.0
  0
VERTEX
  5
F4
330
F3
100
AcDbEntity
  8
Layer 1
 62
     5
420
      255
370
    35
100
AcDbVertex
100
AcDb2dVertex
 10
233.11376953125
 20
717.63671875
 30
0.0
  0
VERTEX
  5
F5
330
F3
100
AcDbEntity
  8
Layer 1
 62
     5
420
      255
370
    35
100
AcDbVertex
100
AcDb2dVertex
 10
232.43994140625
 20
716.2197265625
 30
0.0
  0
VERTEX
  5
F6
330
F3
100
AcDbEntity
  8
Layer 1
 62
     5
420
      255
370
    35
100
AcDbVertex
100
AcDb2dVertex
 10
231.52978515625
 20
714.94189453125
 30
0.0
  0
VERTEX
  5
F7
330
F3
100
AcDbEntity
  8
Layer 1
 62
     5
420
      255
370
    35
100
AcDbVertex
100
AcDb2dVertex
 10
230.4111328125
 20
713.841796875
 30
0.0
  0
VERTEX
  5
F8
330
F3
100
AcDbEntity
  8
Layer 1
 62
     5
420
      255
370
    35
100
AcDbVertex
100
AcDb2dVertex
 10
229.119140625
 20
712.953125
 30
0.0
  0
VERTEX
  5
F9
330
F3
100
AcDbEntity
  8
Layer 1
 62
     5
420
      255
370
    35
100
AcDbVertex
100
AcDb2dVertex
 10
227.69189453125
 20
712.3017578125
 30
0.0
  0
VERTEX
  5
FA
330
F3
100
AcDbEntity
  8
Layer 1
 62
     5
420
      255
370
    35
100
AcDbVertex
100
AcDb2dVertex
 10
226.171875
 20
711.90771484375
 30
0.0
  0
VERTEX
  5
FB
330
F3
100
AcDbEntity
  8
Layer 1
 62
     5
420
      255
370
    35
100
AcDbVertex
100
AcDb2dVertex
 10
224.60888671875
 20
711.7841796875
 30
0.0
  0
VERTEX
  5
FC
330
F3
100
AcDbEntity
  8
Layer 1
 62
     5
420
      255
370
    35
100
AcDbVertex
100
AcDb2dVertex
 10
223.046875
 20
711.93310546875
 30
0.0
  0
VERTEX
  5
FD
330
F3
100
AcDbEntity
  8
Layer 1
 62
     5
420
      255
370
    35
100
AcDbVertex
100
AcDb2dVertex
 10
221.53515625
 20
712.35107421875
 30
0.0
  0
VERTEX
  5
FE
330
F3
100
AcDbEntity
  8
Layer 1
 62
     5
420
      255
370
    35
100
AcDbVertex
100
AcDb2dVertex
 10
220.1181640625
 20
713.02587890625
 30
0.0
  0
VERTEX
  5
FF
330
F3
100
AcDbEntity
  8
Layer 1
 62
     5
420
      255
370
    35
100
AcDbVertex
100
AcDb2dVertex
 10
218.8408203125
 20
713.93603515625
 30
0.0
  0
VERTEX
  5
100
330
F3
100
AcDbEntity
  8
Layer 1
 62
     5
420
      255
370
    35
100
AcDbVertex
100
AcDb2dVertex
 10
217.73974609375
 20
715.0546875
 30
0.0
  0
VERTEX
  5
101
330
F3
100
AcDbEntity
  8
Layer 1
 62
     5
420
      255
370
    35
100
AcDbVertex
100
AcDb2dVertex
 10
216.85107421875
 20
716.3466796875
 30
0.0
  0
VERTEX
  5
102
330
F3
100
AcDbEntity
  8
Layer 1
 62
     5
420
      255
370
    35
100
AcDbVertex
100
AcDb2dVertex
 10
216.19873046875
 20
717.77392578125
 30
0.0
  0
VERTEX
  5
103
330
F3
100
AcDbEntity
  8
Layer 1
 62
     5
420
      255
370
    35
100
AcDbVertex
100
AcDb2dVertex
 10
215.8056640625
 20
719.29296875
 30
0.0
  0
VERTEX
  5
104
330
F3
100
AcDbEntity
  8
Layer 1
 62
     5
420
      255
370
    35
100
AcDbVertex
100
AcDb2dVertex
 10
215.6806640625
 20
720.85693359375
 30
0.0
  0
VERTEX
  5
105
330
F3
100
AcDbEntity
  8
Layer 1
 62
     5
420
      255
370
    35
100
AcDbVertex
100
AcDb2dVertex
 10
215.8310546875
 20
722.4189453125
 30
0.0
  0
VERTEX
  5
106
330
F3
100
AcDbEntity
  8
Layer 1
 62
     5
420
      255
370
    35
100
AcDbVertex
100
AcDb2dVertex
 10
216.2490234375
 20
723.9306640625
 30
0.0
  0
VERTEX
  5
107
330
F3
100
AcDbEntity
  8
Layer 1
 62
     5
420
      255
370
    35
100
AcDbVertex
100
AcDb2dVertex
 10
216.923828125
 20
725.34765625
 30
0.0
  0
VERTEX
  5
108
330
F3
100
AcDbEntity
  8
Layer 1
 62
     5
420
      255
370
    35
100
AcDbVertex
100
AcDb2dVertex
 10
217.833984375
 20
726.6259765625
 30
0.0
  0
VERTEX
  5
109
330
F3
100
AcDbEntity
  8
Layer 1
 62
     5
420
      255
370
    35
100
AcDbVertex
100
AcDb2dVertex
 10
218.95166015625
 20
727.72607421875
 30
0.0
  0
VERTEX
  5
10A
330
F3
100
AcDbEntity
  8
Layer 1
 62
     5
420
      255
370
    35
100
AcDbVertex
100
AcDb2dVertex
 10
220.2451171875
 20
728.61474609375
 30
0.0
  0
VERTEX
  5
10B
330
F3
100
AcDbEntity
  8
Layer 1
 62
     5
420
      255
370
    35
100
AcDbVertex
100
AcDb2dVertex
 10
221.671875
 20
729.26611328125
 30
0.0
  0
VERTEX
  5
10C
330
F3
100
AcDbEntity
  8
Layer 1
 62
     5
420
      255
370
    35
100
AcDbVertex
100
AcDb2dVertex
 10
223.19091796875
 20
729.66015625
 30
0.0
  0
VERTEX
  5
10D
330
F3
100
AcDbEntity
  8
Layer 1
 62
     5
420
      255
370
    35
100
AcDbVertex
100
AcDb2dVertex
 10
224.7548828125
 20
729.7841796875
 30
0.0
  0
VERTEX
  5
10E
330
F3
100
AcDbEntity
  8
Layer 1
 62
     5
420
      255
370
    35
100
AcDbVertex
100
AcDb2dVertex
 10
226.31591796875
 20
729.634765625
 30
0.0
  0
VERTEX
  5
10F
330
F3
100
AcDbEntity
  8
Layer 1
 62
     5
420
      255
370
    35
100
AcDbVertex
100
AcDb2dVertex
 10
227.8291015625
 20
729.216796875
 30
0.0
  0
VERTEX
  5
110
330
F3
100
AcDbEntity
  8
Layer 1
 62
     5
420
      255
370
    35
100
AcDbVertex
100
AcDb2dVertex
 10
229.24609375
 20
728.54296875
 30
0.0
  0
VERTEX
  5
111
330
F3
100
AcDbEntity
  8
Layer 1
 62
     5
420
      255
370
    35
100
AcDbVertex
100
AcDb2dVertex
 10
230.52294921875
 20
727.6318359375
 30
0.0
  0
VERTEX
  5
112
330
F3
100
AcDbEntity
  8
Layer 1
 62
     5
420
      255
370
    35
100
AcDbVertex
100
AcDb2dVertex
 10
231.623046875
 20
726.513671875
 30
0.0
  0
VERTEX
  5
113
330
F3
100
AcDbEntity
  8
Layer 1
 62
     5
420
      255
370
    35
100
AcDbVertex
100
AcDb2dVertex
 10
232.5126953125
 20
725.2216796875
 30
0.0
  0
VERTEX
  5
114
330
F3
100
AcDbEntity
  8
Layer 1
 62
     5
420
      255
370
    35
100
AcDbVertex
100
AcDb2dVertex
 10
233.1640625
 20
723.794921875
 30
0.0
  0
VERTEX
  5
115
330
F3
100
AcDbEntity
  8
Layer 1
 62
     5
420
      255
370
    35
100
AcDbVertex
100
AcDb2dVertex
 10
233.55810546875
 20
722.27587890625
 30
0.0
  0
VERTEX
  5
116
330
F3
100
AcDbEntity
  8
Layer 1
 62
     5
420
      255
370
    35
100
AcDbVertex
100
AcDb2dVertex
 10
233.68212890625
 20
720.7119140625
 30
0.0
  0
VERTEX
  5
117
330
F3
100
AcDbEntity
  8
Layer 1
 62
     5
420
      255
370
    35
100
AcDbVertex
100
AcDb2dVertex
 10
233.53271484375
 20
719.14990234375
 30
0.0
  0
VERTEX
  5
118
330
F3
100
AcDbEntity
  8
Layer 1
 62
     5
420
      255
370
    35
100
AcDbVertex
100
AcDb2dVertex
 10
233.11376953125
 20
717.63671875
 30
0.0
  0
SEQEND
  5
119
330
F3
100
AcDbEntity
  8
Layer 1
370
    35
  0
POLYLINE
  5
11A
330
1F
100
AcDbEntity
  8
Layer 1
 62
     5
420
      255
370
    35
100
AcDb2dPolyline
 66
     1
 10
0.0
 20
0.0
 30
0.0
  0
VERTEX
  5
11B
330
11A
100
AcDbEntity
  8
Layer 1
 62
     5
420
      255
370
    35
100
AcDbVertex
100
AcDb2dVertex
 10
460.2041015625
 20
36.2177734375
 30
0.0
  0
VERTEX
  5
11C
330
11A
100
AcDbEntity
  8
Layer 1
 62
     5
420
      255
370
    35
100
AcDbVertex
100
AcDb2dVertex
 10
465.4990234375
 20
684.19677734375
 30
0.0
  0
VERTEX
  5
11D
330
11A
100
AcDbEntity
  8
Layer 1
 62
     5
420
      255
370
    35
100
AcDbVertex
100
AcDb2dVertex
 10
464.5078125
 20
696.7080078125
 30
0.0
  0
VERTEX
  5
11E
330
11A
100
AcDbEntity
  8
Layer 1
 62
     5
420
      255
370
    35
100
AcDbVertex
100
AcDb2dVertex
 10
461.359375
 20
708.85693359375
 30
0.0
  0
VERTEX
  5
11F
330
11A
100
AcDbEntity
  8
Layer 1
 62
     5
420
      255
370
    35
100
AcDbVertex
100
AcDb2dVertex
 10
456.1474609375
 20
720.27392578125
 30
0.0
  0
VERTEX
  5
120
330
11A
100
AcDbEntity
  8
Layer 1
 62
     5
420
      255
370
    35
100
AcDbVertex
100
AcDb2dVertex
 10
449.0341796875
 20
730.61279296875
 30
0.0
  0
VERTEX
  5
121
330
11A
100
AcDbEntity
  8
Layer 1
 62
     5
420
      255
370
    35
100
AcDbVertex
100
AcDb2dVertex
 10
440.2314453125
 20
739.56005859375
 30
0.0
  0
VERTEX
  5
122
330
11A
100
AcDbEntity
  8
Layer 1
 62
     5
420
      255
370
    35
100
AcDbVertex
100
AcDb2dVertex
 10
430.0107421875
 20
746.841796875
 30
0.0
  0
VERTEX
  5
123
330
11A
100
AcDbEntity
  8
Layer 1
 62
     5
420
      255
370
    35
100
AcDbVertex
100
AcDb2dVertex
 10
418.6787109375
 20
752.23876953125
 30
0.0
  0
VERTEX
  5
124
330
11A
100
AcDbEntity
  8
Layer 1
 62
     5
420
      255
370
    35
100
AcDbVertex
100
AcDb2dVertex
 10
406.5830078125
 20
755.5859375
 30
0.0
  0
VERTEX
  5
125
330
11A
100
AcDbEntity
  8
Layer 1
 62
     5
420
      255
370
    35
100
AcDbVertex
100
AcDb2dVertex
 10
394.0908203125
 20
756.78173828125
 30
0.0
  0
VERTEX
  5
126
330
11A
100
AcDbEntity
  8
Layer 1
 62
     5
420
      255
370
    35
100
AcDbVertex
100
AcDb2dVertex
 10
381.5791015625
 20
755.791015625
 30
0.0
  0
VERTEX
  5
127
330
11A
100
AcDbEntity
  8
Layer 1
 62
     5
420
      255
370
    35
100
AcDbVertex
100
AcDb2dVertex
 10
369.4306640625
 20
752.64208984375
 30
0.0
  0
VERTEX
  5
128
330
11A
100
AcDbEntity
  8
Layer 1
 62
     5
420
      255
370
    35
100
AcDbVertex
100
AcDb2dVertex
 10
358.0126953125
 20
747.4306640625
 30
0.0
  0
VERTEX
  5
129
330
11A
100
AcDbEntity
  8
Layer 1
 62
     5
420
      255
370
    35
100
AcDbVertex
100
AcDb2dVertex
 10
347.6728515625
 20
740.31689453125
 30
0.0
  0
VERTEX
  5
12A
330
11A
100
AcDbEntity
  8
Layer 1
 62
     5
420
      255
370
    35
100
AcDbVertex
100
AcDb2dVertex
 10
338.7265625
 20
731.5146484375
 30
0.0
  0
VERTEX
  5
12B
330
11A
100
AcDbEntity
  8
Layer 1
 62
     5
420
      255
370
    35
100
AcDbVertex
100
AcDb2dVertex
 10
331.4453125
 20
721.29296875
 30
0.0
  0
VERTEX
  5
12C
330
11A
100
AcDbEntity
  8
Layer 1
 62
     5
420
      255
370
    35
100
AcDbVertex
100
AcDb2dVertex
 10
326.048828125
 20
709.9619140625
 30
0.0
  0
VERTEX
  5
12D
330
11A
100
AcDbEntity
  8
Layer 1
 62
     5
420
      255
370
    35
100
AcDbVertex
100
AcDb2dVertex
 10
322.701171875
 20
697.86572265625
 30
0.0
  0
VERTEX
  5
12E
330
11A
100
AcDbEntity
  8
Layer 1
 62
     5
420
      255
370
    35
100
AcDbVertex
100
AcDb2dVertex
 10
321.505859375
 20
685.3720703125
 30
0.0
  0
VERTEX
  5
12F
330
11A
100
AcDbEntity
  8
Layer 1
 62
     5
420
      255
370
    35
100
AcDbVertex
100
AcDb2dVertex
 10
316.2109375
 20
37.392578125
 30
0.0
  0
VERTEX
  5
130
330
11A
100
AcDbEntity
  8
Layer 1
 62
     5
420
      255
370
    35
100
AcDbVertex
100
AcDb2dVertex
 10
460.2041015625
 20
36.2177734375
 30
0.0
  0
SEQEND
  5
131
330
11A
100
AcDbEntity
  8
Layer 1
370
    35
  0
POLYLINE
  5
132
330
1F
100
AcDbEntity
  8
Layer 1
 62
     5
420
      255
370
    35
100
AcDb2dPolyline
 66
     1
 10
0.0
 20
0.0
 30
0.0
  0
VERTEX
  5
133
330
132
100
AcDbEntity
  8
Layer 1
 62
     5
420
      255
370
    35
100
AcDbVertex
100
AcDb2dVertex
 10
428.9130859375
 20
612.4931640625
 30
0.0
  0
VERTEX
  5
134
330
132
100
AcDbEntity
  8
Layer 1
 62
     5
420
      255
370
    35
100
AcDbVertex
100
AcDb2dVertex
 10
427.9716796875
 20
497.296875
 30
0.0
  0
VERTEX
  5
135
330
132
100
AcDbEntity
  8
Layer 1
 62
     5
420
      255
370
    35
100
AcDbVertex
100
AcDb2dVertex
 10
355.9736328125
 20
497.884765625
 30
0.0
  0
VERTEX
  5
136
330
132
100
AcDbEntity
  8
Layer 1
 62
     5
420
      255
370
    35
100
AcDbVertex
100
AcDb2dVertex
 10
356.9150390625
 20
613.0810546875
 30
0.0
  0
VERTEX
  5
137
330
132
100
AcDbEntity
  8
Layer 1
 62
     5
420
      255
370
    35
100
AcDbVertex
100
AcDb2dVertex
 10
428.9130859375
 20
612.4931640625
 30
0.0
  0
SEQEND
  5
138
330
132
100
AcDbEntity
  8
Layer 1
370
    35
  0
POLYLINE
  5
139
330
1F
100
AcDbEntity
  8
Layer 1
 62
     5
420
      255
370
    35
100
AcDb2dPolyline
 66
     1
 10
0.0
 20
0.0
 30
0.0
  0
VERTEX
  5
13A
330
139
100
AcDbEntity
  8
Layer 1
 62
     5
420
      255
370
    35
100
AcDbVertex
100
AcDb2dVertex
 10
395.935546875
 20
138.9619140625
 30
0.0
  0
VERTEX
  5
13B
330
139
100
AcDbEntity
  8
Layer 1
 62
     5
420
      255
370
    35
100
AcDbVertex
100
AcDb2dVertex
 10
394.8173828125
 20
137.861328125
 30
0.0
  0
VERTEX
  5
13C
330
139
100
AcDbEntity
  8
Layer 1
 62
     5
420
      255
370
    35
100
AcDbVertex
100
AcDb2dVertex
 10
393.525390625
 20
136.970703125
 30
0.0
  0
VERTEX
  5
13D
330
139
100
AcDbEntity
  8
Layer 1
 62
     5
420
      255
370
    35
100
AcDbVertex
100
AcDb2dVertex
 10
392.09765625
 20
136.3203125
 30
0.0
  0
VERTEX
  5
13E
330
139
100
AcDbEntity
  8
Layer 1
 62
     5
420
      255
370
    35
100
AcDbVertex
100
AcDb2dVertex
 10
390.578125
 20
135.92578125
 30
0.0
  0
VERTEX
  5
13F
330
139
100
AcDbEntity
  8
Layer 1
 62
     5
420
      255
370
    35
100
AcDbVertex
100
AcDb2dVertex
 10
389.0146484375
 20
135.802734375
 30
0.0
  0
VERTEX
  5
140
330
139
100
AcDbEntity
  8
Layer 1
 62
     5
420
      255
370
    35
100
AcDbVertex
100
AcDb2dVertex
 10
387.453125
 20
135.9521484375
 30
0.0
  0
VERTEX
  5
141
330
139
100
AcDbEntity
  8
Layer 1
 62
     5
420
      255
370
    35
100
AcDbVertex
100
AcDb2dVertex
 10
385.94140625
 20
136.3701171875
 30
0.0
  0
VERTEX
  5
142
330
139
100
AcDbEntity
  8
Layer 1
 62
     5
420
      255
370
    35
100
AcDbVertex
100
AcDb2dVertex
 10
384.525390625
 20
137.044921875
 30
0.0
  0
VERTEX
  5
143
330
139
100
AcDbEntity
  8
Layer 1
 62
     5
420
      255
370
    35
100
AcDbVertex
100
AcDb2dVertex
 10
383.2470703125
 20
137.955078125
 30
0.0
  0
VERTEX
  5
144
330
139
100
AcDbEntity
  8
Layer 1
 62
     5
420
      255
370
    35
100
AcDbVertex
100
AcDb2dVertex
 10
382.1455078125
 20
139.0732421875
 30
0.0
  0
VERTEX
  5
145
330
139
100
AcDbEntity
  8
Layer 1
 62
     5
420
      255
370
    35
100
AcDbVertex
100
AcDb2dVertex
 10
381.2568359375
 20
140.3662109375
 30
0.0
  0
VERTEX
  5
146
330
139
100
AcDbEntity
  8
Layer 1
 62
     5
420
      255
370
    35
100
AcDbVertex
100
AcDb2dVertex
 10
380.60546875
 20
141.79296875
 30
0.0
  0
VERTEX
  5
147
330
139
100
AcDbEntity
  8
Layer 1
 62
     5
420
      255
370
    35
100
AcDbVertex
100
AcDb2dVertex
 10
380.2119140625
 20
143.3115234375
 30
0.0
  0
VERTEX
  5
148
330
139
100
AcDbEntity
  8
Layer 1
 62
     5
420
      255
370
    35
100
AcDbVertex
100
AcDb2dVertex
 10
380.087890625
 20
144.8759765625
 30
0.0
  0
VERTEX
  5
149
330
139
100
AcDbEntity
  8
Layer 1
 62
     5
420
      255
370
    35
100
AcDbVertex
100
AcDb2dVertex
 10
380.2373046875
 20
146.4375
 30
0.0
  0
VERTEX
  5
14A
330
139
100
AcDbEntity
  8
Layer 1
 62
     5
420
      255
370
    35
100
AcDbVertex
100
AcDb2dVertex
 10
380.6552734375
 20
147.9501953125
 30
0.0
  0
VERTEX
  5
14B
330
139
100
AcDbEntity
  8
Layer 1
 62
     5
420
      255
370
    35
100
AcDbVertex
100
AcDb2dVertex
 10
381.330078125
 20
149.3662109375
 30
0.0
  0
VERTEX
  5
14C
330
139
100
AcDbEntity
  8
Layer 1
 62
     5
420
      255
370
    35
100
AcDbVertex
100
AcDb2dVertex
 10
382.2412109375
 20
150.6435546875
 30
0.0
  0
VERTEX
  5
14D
330
139
100
AcDbEntity
  8
Layer 1
 62
     5
420
      255
370
    35
100
AcDbVertex
100
AcDb2dVertex
 10
383.357421875
 20
151.744140625
 30
0.0
  0
VERTEX
  5
14E
330
139
100
AcDbEntity
  8
Layer 1
 62
     5
420
      255
370
    35
100
AcDbVertex
100
AcDb2dVertex
 10
384.6513671875
 20
152.6337890625
 30
0.0
  0
VERTEX
  5
14F
330
139
100
AcDbEntity
  8
Layer 1
 62
     5
420
      255
370
    35
100
AcDbVertex
100
AcDb2dVertex
 10
386.0791015625
 20
153.28515625
 30
0.0
  0
VERTEX
  5
150
330
139
100
AcDbEntity
  8
Layer 1
 62
     5
420
      255
370
    35
100
AcDbVertex
100
AcDb2dVertex
 10
387.5966796875
 20
153.6787109375
 30
0.0
  0
VERTEX
  5
151
330
139
100
AcDbEntity
  8
Layer 1
 62
     5
420
      255
370
    35
100
AcDbVertex
100
AcDb2dVertex
 10
389.1611328125
 20
153.802734375
 30
0.0
  0
VERTEX
  5
152
330
139
100
AcDbEntity
  8
Layer 1
 62
     5
420
      255
370
    35
100
AcDbVertex
100
AcDb2dVertex
 10
390.72265625
 20
153.654296875
 30
0.0
  0
VERTEX
  5
153
330
139
100
AcDbEntity
  8
Layer 1
 62
     5
420
      255
370
    35
100
AcDbVertex
100
AcDb2dVertex
 10
392.2353515625
 20
153.2353515625
 30
0.0
  0
VERTEX
  5
154
330
139
100
AcDbEntity
  8
Layer 1
 62
     5
420
      255
370
    35
100
AcDbVertex
100
AcDb2dVertex
 10
393.65234375
 20
152.560546875
 30
0.0
  0
VERTEX
  5
155
330
139
100
AcDbEntity
  8
Layer 1
 62
     5
420
      255
370
    35
100
AcDbVertex
100
AcDb2dVertex
 10
394.9287109375
 20
151.650390625
 30
0.0
  0
VERTEX
  5
156
330
139
100
AcDbEntity
  8
Layer 1
 62
     5
420
      255
370
    35
100
AcDbVertex
100
AcDb2dVertex
 10
396.029296875
 20
150.5322265625
 30
0.0
  0
VERTEX
  5
157
330
139
100
AcDbEntity
  8
Layer 1
 62
     5
420
      255
370
    35
100
AcDbVertex
100
AcDb2dVertex
 10
396.9189453125
 20
149.240234375
 30
0.0
  0
VERTEX
  5
158
330
139
100
AcDbEntity
  8
Layer 1
 62
     5
420
      255
370
    35
100
AcDbVertex
100
AcDb2dVertex
 10
397.5703125
 20
147.8125
 30
0.0
  0
VERTEX
  5
159
330
139
100
AcDbEntity
  8
Layer 1
 62
     5
420
      255
370
    35
100
AcDbVertex
100
AcDb2dVertex
 10
397.96484375
 20
146.29296875
 30
0.0
  0
VERTEX
  5
15A
330
139
100
AcDbEntity
  8
Layer 1
 62
     5
420
      255
370
    35
100
AcDbVertex
100
AcDb2dVertex
 10
398.087890625
 20
144.73046875
 30
0.0
  0
VERTEX
  5
15B
330
139
100
AcDbEntity
  8
Layer 1
 62
     5
420
      255
370
    35
100
AcDbVertex
100
AcDb2dVertex
 10
397.9384765625
 20
143.16796875
 30
0.0
  0
VERTEX
  5
15C
330
139
100
AcDbEntity
  8
Layer 1
 62
     5
420
      255
370
    35
100
AcDbVertex
100
AcDb2dVertex
 10
397.51953125
 20
141.6552734375
 30
0.0
  0
VERTEX
  5
15D
330
139
100
AcDbEntity
  8
Layer 1
 62
     5
420
      255
370
    35
100
AcDbVertex
100
AcDb2dVertex
 10
396.845703125
 20
140.2392578125
 30
0.0
  0
VERTEX
  5
15E
330
139
100
AcDbEntity
  8
Layer 1
 62
     5
420
      255
370
    35
100
AcDbVertex
100
AcDb2dVertex
 10
395.935546875
 20
138.9619140625
 30
0.0
  0
SEQEND
  5
15F
330
139
100
AcDbEntity
  8
Layer 1
370
    35
  0
POLYLINE
  5
160
330
1F
100
AcDbEntity
  8
Layer 1
 62
     5
420
      255
370
    35
100
AcDb2dPolyline
 66
     1
 10
0.0
 20
0.0
 30
0.0
  0
VERTEX
  5
161
330
160
100
AcDbEntity
  8
Layer 1
 62
     5
420
      255
370
    35
100
AcDbVertex
100
AcDb2dVertex
 10
402.2265625
 20
717.63671875
 30
0.0
  0
VERTEX
  5
162
330
160
100
AcDbEntity
  8
Layer 1
 62
     5
420
      255
370
    35
100
AcDbVertex
100
AcDb2dVertex
 10
401.552734375
 20
716.2197265625
 30
0.0
  0
VERTEX
  5
163
330
160
100
AcDbEntity
  8
Layer 1
 62
     5
420
      255
370
    35
100
AcDbVertex
100
AcDb2dVertex
 10
400.642578125
 20
714.94189453125
 30
0.0
  0
VERTEX
  5
164
330
160
100
AcDbEntity
  8
Layer 1
 62
     5
420
      255
370
    35
100
AcDbVertex
100
AcDb2dVertex
 10
399.5234375
 20
713.841796875
 30
0.0
  0
VERTEX
  5
165
330
160
100
AcDbEntity
  8
Layer 1
 62
     5
420
      255
370
    35
100
AcDbVertex
100
AcDb2dVertex
 10
398.2314453125
 20
712.953125
 30
0.0
  0
VERTEX
  5
166
330
160
100
AcDbEntity
  8
Layer 1
 62
     5
420
      255
370
    35
100
AcDbVertex
100
AcDb2dVertex
 10
396.8046875
 20
712.3017578125
 30
0.0
  0
VERTEX
  5
167
330
160
100
AcDbEntity
  8
Layer 1
 62
     5
420
      255
370
    35
100
AcDbVertex
100
AcDb2dVertex
 10
395.28515625
 20
711.90771484375
 30
0.0
  0
VERTEX
  5
168
330
160
100
AcDbEntity
  8
Layer 1
 62
     5
420
      255
370
    35
100
AcDbVertex
100
AcDb2dVertex
 10
393.7216796875
 20
711.7841796875
 30
0.0
  0
VERTEX
  5
169
330
160
100
AcDbEntity
  8
Layer 1
 62
     5
420
      255
370
    35
100
AcDbVertex
100
AcDb2dVertex
 10
392.16015625
 20
711.93310546875
 30
0.0
  0
VERTEX
  5
16A
330
160
100
AcDbEntity
  8
Layer 1
 62
     5
420
      255
370
    35
100
AcDbVertex
100
AcDb2dVertex
 10
390.6474609375
 20
712.35107421875
 30
0.0
  0
VERTEX
  5
16B
330
160
100
AcDbEntity
  8
Layer 1
 62
     5
420
      255
370
    35
100
AcDbVertex
100
AcDb2dVertex
 10
389.23046875
 20
713.02587890625
 30
0.0
  0
VERTEX
  5
16C
330
160
100
AcDbEntity
  8
Layer 1
 62
     5
420
      255
370
    35
100
AcDbVertex
100
AcDb2dVertex
 10
387.9541015625
 20
713.93603515625
 30
0.0
  0
VERTEX
  5
16D
330
160
100
AcDbEntity
  8
Layer 1
 62
     5
420
      255
370
    35
100
AcDbVertex
100
AcDb2dVertex
 10
386.8525390625
 20
715.0546875
 30
0.0
  0
VERTEX
  5
16E
330
160
100
AcDbEntity
  8
Layer 1
 62
     5
420
      255
370
    35
100
AcDbVertex
100
AcDb2dVertex
 10
385.9638671875
 20
716.3466796875
 30
0.0
  0
VERTEX
  5
16F
330
160
100
AcDbEntity
  8
Layer 1
 62
     5
420
      255
370
    35
100
AcDbVertex
100
AcDb2dVertex
 10
385.3115234375
 20
717.77392578125
 30
0.0
  0
VERTEX
  5
170
330
160
100
AcDbEntity
  8
Layer 1
 62
     5
420
      255
370
    35
100
AcDbVertex
100
AcDb2dVertex
 10
384.9189453125
 20
719.29296875
 30
0.0
  0
VERTEX
  5
171
330
160
100
AcDbEntity
  8
Layer 1
 62
     5
420
      255
370
    35
100
AcDbVertex
100
AcDb2dVertex
 10
384.7939453125
 20
720.85693359375
 30
0.0
  0
VERTEX
  5
172
330
160
100
AcDbEntity
  8
Layer 1
 62
     5
420
      255
370
    35
100
AcDbVertex
100
AcDb2dVertex
 10
384.9443359375
 20
722.4189453125
 30
0.0
  0
VERTEX
  5
173
330
160
100
AcDbEntity
  8
Layer 1
 62
     5
420
      255
370
    35
100
AcDbVertex
100
AcDb2dVertex
 10
385.3623046875
 20
723.9306640625
 30
0.0
  0
VERTEX
  5
174
330
160
100
AcDbEntity
  8
Layer 1
 62
     5
420
      255
370
    35
100
AcDbVertex
100
AcDb2dVertex
 10
386.037109375
 20
725.34765625
 30
0.0
  0
VERTEX
  5
175
330
160
100
AcDbEntity
  8
Layer 1
 62
     5
420
      255
370
    35
100
AcDbVertex
100
AcDb2dVertex
 10
386.947265625
 20
726.6259765625
 30
0.0
  0
VERTEX
  5
176
330
160
100
AcDbEntity
  8
Layer 1
 62
     5
420
      255
370
    35
100
AcDbVertex
100
AcDb2dVertex
 10
388.064453125
 20
727.72607421875
 30
0.0
  0
VERTEX
  5
177
330
160
100
AcDbEntity
  8
Layer 1
 62
     5
420
      255
370
    35
100
AcDbVertex
100
AcDb2dVertex
 10
389.357421875
 20
728.61474609375
 30
0.0
  0
VERTEX
  5
178
330
160
100
AcDbEntity
  8
Layer 1
 62
     5
420
      255
370
    35
100
AcDbVertex
100
AcDb2dVertex
 10
390.78515625
 20
729.26611328125
 30
0.0
  0
VERTEX
  5
179
330
160
100
AcDbEntity
  8
Layer 1
 62
     5
420
      255
370
    35
100
AcDbVertex
100
AcDb2dVertex
 10
392.3037109375
 20
729.66015625
 30
0.0
  0
VERTEX
  5
17A
330
160
100
AcDbEntity
  8
Layer 1
 62
     5
420
      255
370
    35
100
AcDbVertex
100
AcDb2dVertex
 10
393.8681640625
 20
729.7841796875
 30
0.0
  0
VERTEX
  5
17B
330
160
100
AcDbEntity
  8
Layer 1
 62
     5
420
      255
370
    35
100
AcDbVertex
100
AcDb2dVertex
 10
395.4287109375
 20
729.634765625
 30
0.0
  0
VERTEX
  5
17C
330
160
100
AcDbEntity
  8
Layer 1
 62
     5
420
      255
370
    35
100
AcDbVertex
100
AcDb2dVertex
 10
396.94140625
 20
729.216796875
 30
0.0
  0
VERTEX
  5
17D
330
160
100
AcDbEntity
  8
Layer 1
 62
     5
420
      255
370
    35
100
AcDbVertex
100
AcDb2dVertex
 10
398.359375
 20
728.54296875
 30
0.0
  0
VERTEX
  5
17E
330
160
100
AcDbEntity
  8
Layer 1
 62
     5
420
      255
370
    35
100
AcDbVertex
100
AcDb2dVertex
 10
399.6357421875
 20
727.6318359375
 30
0.0
  0
VERTEX
  5
17F
330
160
100
AcDbEntity
  8
Layer 1
 62
     5
420
      255
370
    35
100
AcDbVertex
100
AcDb2dVertex
 10
400.736328125
 20
726.513671875
 30
0.0
  0
VERTEX
  5
180
330
160
100
AcDbEntity
  8
Layer 1
 62
     5
420
      255
370
    35
100
AcDbVertex
100
AcDb2dVertex
 10
401.6259765625
 20
725.2216796875
 30
0.0
  0
VERTEX
  5
181
330
160
100
AcDbEntity
  8
Layer 1
 62
     5
420
      255
370
    35
100
AcDbVertex
100
AcDb2dVertex
 10
402.27734375
 20
723.794921875
 30
0.0
  0
VERTEX
  5
182
330
160
100
AcDbEntity
  8
Layer 1
 62
     5
420
      255
370
    35
100
AcDbVertex
100
AcDb2dVertex
 10
402.6708984375
 20
722.27587890625
 30
0.0
  0
VERTEX
  5
183
330
160
100
AcDbEntity
  8
Layer 1
 62
     5
420
      255
370
    35
100
AcDbVertex
100
AcDb2dVertex
 10
402.794921875
 20
720.7119140625
 30
0.0
  0
VERTEX
  5
184
330
160
100
AcDbEntity
  8
Layer 1
 62
     5
420
      255
370
    35
100
AcDbVertex
100
AcDb2dVertex
 10
402.6455078125
 20
719.14990234375
 30
0.0
  0
VERTEX
  5
185
330
160
100
AcDbEntity
  8
Layer 1
 62
     5
420
      255
370
    35
100
AcDbVertex
100
AcDb2dVertex
 10
402.2265625
 20
717.63671875
 30
0.0
  0
SEQEND
  5
186
330
160
100
AcDbEntity
  8
Layer 1
370
    35
  0
POLYLINE
  5
187
330
1F
100
AcDbEntity
  8
Layer 1
 62
     5
420
      255
370
    35
100
AcDb2dPolyline
 66
     1
 10
0.0
 20
0.0
 30
0.0
  0
VERTEX
  5
188
330
187
100
AcDbEntity
  8
Layer 1
 62
     5
420
      255
370
    35
100
AcDbVertex
100
AcDb2dVertex
 10
629.08984375
 20
36.2177734375
 30
0.0
  0
VERTEX
  5
189
330
187
100
AcDbEntity
  8
Layer 1
 62
     5
420
      255
370
    35
100
AcDbVertex
100
AcDb2dVertex
 10
634.384765625
 20
684.19677734375
 30
0.0
  0
VERTEX
  5
18A
330
187
100
AcDbEntity
  8
Layer 1
 62
     5
420
      255
370
    35
100
AcDbVertex
100
AcDb2dVertex
 10
633.3935546875
 20
696.7080078125
 30
0.0
  0
VERTEX
  5
18B
330
187
100
AcDbEntity
  8
Layer 1
 62
     5
420
      255
370
    35
100
AcDbVertex
100
AcDb2dVertex
 10
630.2451171875
 20
708.85693359375
 30
0.0
  0
VERTEX
  5
18C
330
187
100
AcDbEntity
  8
Layer 1
 62
     5
420
      255
370
    35
100
AcDbVertex
100
AcDb2dVertex
 10
625.0341796875
 20
720.27392578125
 30
0.0
  0
VERTEX
  5
18D
330
187
100
AcDbEntity
  8
Layer 1
 62
     5
420
      255
370
    35
100
AcDbVertex
100
AcDb2dVertex
 10
617.919921875
 20
730.61279296875
 30
0.0
  0
VERTEX
  5
18E
330
187
100
AcDbEntity
  8
Layer 1
 62
     5
420
      255
370
    35
100
AcDbVertex
100
AcDb2dVertex
 10
609.1181640625
 20
739.56005859375
 30
0.0
  0
VERTEX
  5
18F
330
187
100
AcDbEntity
  8
Layer 1
 62
     5
420
      255
370
    35
100
AcDbVertex
100
AcDb2dVertex
 10
598.896484375
 20
746.841796875
 30
0.0
  0
VERTEX
  5
190
330
187
100
AcDbEntity
  8
Layer 1
 62
     5
420
      255
370
    35
100
AcDbVertex
100
AcDb2dVertex
 10
587.564453125
 20
752.23876953125
 30
0.0
  0
VERTEX
  5
191
330
187
100
AcDbEntity
  8
Layer 1
 62
     5
420
      255
370
    35
100
AcDbVertex
100
AcDb2dVertex
 10
575.46875
 20
755.5859375
 30
0.0
  0
VERTEX
  5
192
330
187
100
AcDbEntity
  8
Layer 1
 62
     5
420
      255
370
    35
100
AcDbVertex
100
AcDb2dVertex
 10
562.9765625
 20
756.78173828125
 30
0.0
  0
VERTEX
  5
193
330
187
100
AcDbEntity
  8
Layer 1
 62
     5
420
      255
370
    35
100
AcDbVertex
100
AcDb2dVertex
 10
550.46484375
 20
755.791015625
 30
0.0
  0
VERTEX
  5
194
330
187
100
AcDbEntity
  8
Layer 1
 62
     5
420
      255
370
    35
100
AcDbVertex
100
AcDb2dVertex
 10
538.31640625
 20
752.64208984375
 30
0.0
  0
VERTEX
  5
195
330
187
100
AcDbEntity
  8
Layer 1
 62
     5
420
      255
370
    35
100
AcDbVertex
100
AcDb2dVertex
 10
526.8984375
 20
747.4306640625
 30
0.0
  0
VERTEX
  5
196
330
187
100
AcDbEntity
  8
Layer 1
 62
     5
420
      255
370
    35
100
AcDbVertex
100
AcDb2dVertex
 10
516.55859375
 20
740.31689453125
 30
0.0
  0
VERTEX
  5
197
330
187
100
AcDbEntity
  8
Layer 1
 62
     5
420
      255
370
    35
100
AcDbVertex
100
AcDb2dVertex
 10
507.61328125
 20
731.5146484375
 30
0.0
  0
VERTEX
  5
198
330
187
100
AcDbEntity
  8
Layer 1
 62
     5
420
      255
370
    35
100
AcDbVertex
100
AcDb2dVertex
 10
500.3310546875
 20
721.29296875
 30
0.0
  0
VERTEX
  5
199
330
187
100
AcDbEntity
  8
Layer 1
 62
     5
420
      255
370
    35
100
AcDbVertex
100
AcDb2dVertex
 10
494.9345703125
 20
709.9619140625
 30
0.0
  0
VERTEX
  5
19A
330
187
100
AcDbEntity
  8
Layer 1
 62
     5
420
      255
370
    35
100
AcDbVertex
100
AcDb2dVertex
 10
491.5869140625
 20
697.86572265625
 30
0.0
  0
VERTEX
  5
19B
330
187
100
AcDbEntity
  8
Layer 1
 62
     5
420
      255
370
    35
100
AcDbVertex
100
AcDb2dVertex
 10
490.3916015625
 20
685.3720703125
 30
0.0
  0
VERTEX
  5
19C
330
187
100
AcDbEntity
  8
Layer 1
 62
     5
420
      255
370
    35
100
AcDbVertex
100
AcDb2dVertex
 10
485.0966796875
 20
37.392578125
 30
0.0
  0
VERTEX
  5
19D
330
187
100
AcDbEntity
  8
Layer 1
 62
     5
420
      255
370
    35
100
AcDbVertex
100
AcDb2dVertex
 10
629.08984375
 20
36.2177734375
 30
0.0
  0
SEQEND
  5
19E
330
187
100
AcDbEntity
  8
Layer 1
370
    35
  0
POLYLINE
  5
19F
330
1F
100
AcDbEntity
  8
Layer 1
 62
     5
420
      255
370
    35
100
AcDb2dPolyline
 66
     1
 10
0.0
 20
0.0
 30
0.0
  0
VERTEX
  5
1A0
330
19F
100
AcDbEntity
  8
Layer 1
 62
     5
420
      255
370
    35
100
AcDbVertex
100
AcDb2dVertex
 10
597.798828125
 20
612.4931640625
 30
0.0
  0
VERTEX
  5
1A1
330
19F
100
AcDbEntity
  8
Layer 1
 62
     5
420
      255
370
    35
100
AcDbVertex
100
AcDb2dVertex
 10
596.857421875
 20
497.296875
 30
0.0
  0
VERTEX
  5
1A2
330
19F
100
AcDbEntity
  8
Layer 1
 62
     5
420
      255
370
    35
100
AcDbVertex
100
AcDb2dVertex
 10
524.8603515625
 20
497.884765625
 30
0.0
  0
VERTEX
  5
1A3
330
19F
100
AcDbEntity
  8
Layer 1
 62
     5
420
      255
370
    35
100
AcDbVertex
100
AcDb2dVertex
 10
525.80078125
 20
613.0810546875
 30
0.0
  0
VERTEX
  5
1A4
330
19F
100
AcDbEntity
  8
Layer 1
 62
     5
420
      255
370
    35
100
AcDbVertex
100
AcDb2dVertex
 10
597.798828125
 20
612.4931640625
 30
0.0
  0
SEQEND
  5
1A5
330
19F
100
AcDbEntity
  8
Layer 1
370
    35
  0
POLYLINE
  5
1A6
330
1F
100
AcDbEntity
  8
Layer 1
 62
     5
420
      255
370
    35
100
AcDb2dPolyline
 66
     1
 10
0.0
 20
0.0
 30
0.0
  0
VERTEX
  5
1A7
330
1A6
100
AcDbEntity
  8
Layer 1
 62
     5
420
      255
370
    35
100
AcDbVertex
100
AcDb2dVertex
 10
564.8232421875
 20
138.9619140625
 30
0.0
  0
VERTEX
  5
1A8
330
1A6
100
AcDbEntity
  8
Layer 1
 62
     5
420
      255
370
    35
100
AcDbVertex
100
AcDb2dVertex
 10
563.7041015625
 20
137.861328125
 30
0.0
  0
VERTEX
  5
1A9
330
1A6
100
AcDbEntity
  8
Layer 1
 62
     5
420
      255
370
    35
100
AcDbVertex
100
AcDb2dVertex
 10
562.412109375
 20
136.970703125
 30
0.0
  0
VERTEX
  5
1AA
330
1A6
100
AcDbEntity
  8
Layer 1
 62
     5
420
      255
370
    35
100
AcDbVertex
100
AcDb2dVertex
 10
560.984375
 20
136.3203125
 30
0.0
  0
VERTEX
  5
1AB
330
1A6
100
AcDbEntity
  8
Layer 1
 62
     5
420
      255
370
    35
100
AcDbVertex
100
AcDb2dVertex
 10
559.46484375
 20
135.92578125
 30
0.0
  0
VERTEX
  5
1AC
330
1A6
100
AcDbEntity
  8
Layer 1
 62
     5
420
      255
370
    35
100
AcDbVertex
100
AcDb2dVertex
 10
557.90234375
 20
135.802734375
 30
0.0
  0
VERTEX
  5
1AD
330
1A6
100
AcDbEntity
  8
Layer 1
 62
     5
420
      255
370
    35
100
AcDbVertex
100
AcDb2dVertex
 10
556.33984375
 20
135.9521484375
 30
0.0
  0
VERTEX
  5
1AE
330
1A6
100
AcDbEntity
  8
Layer 1
 62
     5
420
      255
370
    35
100
AcDbVertex
100
AcDb2dVertex
 10
554.828125
 20
136.3701171875
 30
0.0
  0
VERTEX
  5
1AF
330
1A6
100
AcDbEntity
  8
Layer 1
 62
     5
420
      255
370
    35
100
AcDbVertex
100
AcDb2dVertex
 10
553.412109375
 20
137.044921875
 30
0.0
  0
VERTEX
  5
1B0
330
1A6
100
AcDbEntity
  8
Layer 1
 62
     5
420
      255
370
    35
100
AcDbVertex
100
AcDb2dVertex
 10
552.1337890625
 20
137.955078125
 30
0.0
  0
VERTEX
  5
1B1
330
1A6
100
AcDbEntity
  8
Layer 1
 62
     5
420
      255
370
    35
100
AcDbVertex
100
AcDb2dVertex
 10
551.033203125
 20
139.0732421875
 30
0.0
  0
VERTEX
  5
1B2
330
1A6
100
AcDbEntity
  8
Layer 1
 62
     5
420
      255
370
    35
100
AcDbVertex
100
AcDb2dVertex
 10
550.1435546875
 20
140.3662109375
 30
0.0
  0
VERTEX
  5
1B3
330
1A6
100
AcDbEntity
  8
Layer 1
 62
     5
420
      255
370
    35
100
AcDbVertex
100
AcDb2dVertex
 10
549.4931640625
 20
141.79296875
 30
0.0
  0
VERTEX
  5
1B4
330
1A6
100
AcDbEntity
  8
Layer 1
 62
     5
420
      255
370
    35
100
AcDbVertex
100
AcDb2dVertex
 10
549.0986328125
 20
143.3115234375
 30
0.0
  0
VERTEX
  5
1B5
330
1A6
100
AcDbEntity
  8
Layer 1
 62
     5
420
      255
370
    35
100
AcDbVertex
100
AcDb2dVertex
 10
548.974609375
 20
144.8759765625
 30
0.0
  0
VERTEX
  5
1B6
330
1A6
100
AcDbEntity
  8
Layer 1
 62
     5
420
      255
370
    35
100
AcDbVertex
100
AcDb2dVertex
 10
549.1240234375
 20
146.4375
 30
0.0
  0
VERTEX
  5
1B7
330
1A6
100
AcDbEntity
  8
Layer 1
 62
     5
420
      255
370
    35
100
AcDbVertex
100
AcDb2dVertex
 10
549.5419921875
 20
147.9501953125
 30
0.0
  0
VERTEX
  5
1B8
330
1A6
100
AcDbEntity
  8
Layer 1
 62
     5
420
      255
370
    35
100
AcDbVertex
100
AcDb2dVertex
 10
550.216796875
 20
149.3662109375
 30
0.0
  0
VERTEX
  5
1B9
330
1A6
100
AcDbEntity
  8
Layer 1
 62
     5
420
      255
370
    35
100
AcDbVertex
100
AcDb2dVertex
 10
551.1279296875
 20
150.6435546875
 30
0.0
  0
VERTEX
  5
1BA
330
1A6
100
AcDbEntity
  8
Layer 1
 62
     5
420
      255
370
    35
100
AcDbVertex
100
AcDb2dVertex
 10
552.2451171875
 20
151.744140625
 30
0.0
  0
VERTEX
  5
1BB
330
1A6
100
AcDbEntity
  8
Layer 1
 62
     5
420
      255
370
    35
100
AcDbVertex
100
AcDb2dVertex
 10
553.5380859375
 20
152.6337890625
 30
0.0
  0
VERTEX
  5
1BC
330
1A6
100
AcDbEntity
  8
Layer 1
 62
     5
420
      255
370
    35
100
AcDbVertex
100
AcDb2dVertex
 10
554.9658203125
 20
153.28515625
 30
0.0
  0
VERTEX
  5
1BD
330
1A6
100
AcDbEntity
  8
Layer 1
 62
     5
420
      255
370
    35
100
AcDbVertex
100
AcDb2dVertex
 10
556.4833984375
 20
153.6787109375
 30
0.0
  0
VERTEX
  5
1BE
330
1A6
100
AcDbEntity
  8
Layer 1
 62
     5
420
      255
370
    35
100
AcDbVertex
100
AcDb2dVertex
 10
558.0478515625
 20
153.802734375
 30
0.0
  0
VERTEX
  5
1BF
330
1A6
100
AcDbEntity
  8
Layer 1
 62
     5
420
      255
370
    35
100
AcDbVertex
100
AcDb2dVertex
 10
559.609375
 20
153.654296875
 30
0.0
  0
VERTEX
  5
1C0
330
1A6
100
AcDbEntity
  8
Layer 1
 62
     5
420
      255
370
    35
100
AcDbVertex
100
AcDb2dVertex
 10
561.1220703125
 20
153.2353515625
 30
0.0
  0
VERTEX
  5
1C1
330
1A6
100
AcDbEntity
  8
Layer 1
 62
     5
420
      255
370
    35
100
AcDbVertex
100
AcDb2dVertex
 10
562.5390625
 20
152.560546875
 30
0.0
  0
VERTEX
  5
1C2
330
1A6
100
AcDbEntity
  8
Layer 1
 62
     5
420
      255
370
    35
100
AcDbVertex
100
AcDb2dVertex
 10
563.8154296875
 20
151.650390625
 30
0.0
  0
VERTEX
  5
1C3
330
1A6
100
AcDbEntity
  8
Layer 1
 62
     5
420
      255
370
    35
100
AcDbVertex
100
AcDb2dVertex
 10
564.916015625
 20
150.5322265625
 30
0.0
  0
VERTEX
  5
1C4
330
1A6
100
AcDbEntity
  8
Layer 1
 62
     5
420
      255
370
    35
100
AcDbVertex
100
AcDb2dVertex
 10
565.8056640625
 20
149.240234375
 30
0.0
  0
VERTEX
  5
1C5
330
1A6
100
AcDbEntity
  8
Layer 1
 62
     5
420
      255
370
    35
100
AcDbVertex
100
AcDb2dVertex
 10
566.45703125
 20
147.8125
 30
0.0
  0
VERTEX
  5
1C6
330
1A6
100
AcDbEntity
  8
Layer 1
 62
     5
420
      255
370
    35
100
AcDbVertex
100
AcDb2dVertex
 10
566.8515625
 20
146.29296875
 30
0.0
  0
VERTEX
  5
1C7
330
1A6
100
AcDbEntity
  8
Layer 1
 62
     5
420
      255
370
    35
100
AcDbVertex
100
AcDb2dVertex
 10
566.974609375
 20
144.73046875
 30
0.0
  0
VERTEX
  5
1C8
330
1A6
100
AcDbEntity
  8
Layer 1
 62
     5
420
      255
370
    35
100
AcDbVertex
100
AcDb2dVertex
 10
566.826171875
 20
143.16796875
 30
0.0
  0
VERTEX
  5
1C9
330
1A6
100
AcDbEntity
  8
Layer 1
 62
     5
420
      255
370
    35
100
AcDbVertex
100
AcDb2dVertex
 10
566.4072265625
 20
141.6552734375
 30
0.0
  0
VERTEX
  5
1CA
330
1A6
100
AcDbEntity
  8
Layer 1
 62
     5
420
      255
370
    35
100
AcDbVertex
100
AcDb2dVertex
 10
565.732421875
 20
140.2392578125
 30
0.0
  0
VERTEX
  5
1CB
330
1A6
100
AcDbEntity
  8
Layer 1
 62
     5
420
      255
370
    35
100
AcDbVertex
100
AcDb2dVertex
 10
564.8232421875
 20
138.9619140625
 30
0.0
  0
SEQEND
  5
1CC
330
1A6
100
AcDbEntity
  8
Layer 1
370
    35
  0
POLYLINE
  5
1CD
330
1F
100
AcDbEntity
  8
Layer 1
 62
     5
420
      255
370
    35
100
AcDb2dPolyline
 66
     1
 10
0.0
 20
0.0
 30
0.0
  0
VERTEX
  5
1CE
330
1CD
100
AcDbEntity
  8
Layer 1
 62
     5
420
      255
370
    35
100
AcDbVertex
100
AcDb2dVertex
 10
571.1142578125
 20
717.63671875
 30
0.0
  0
VERTEX
  5
1CF
330
1CD
100
AcDbEntity
  8
Layer 1
 62
     5
420
      255
370
    35
100
AcDbVertex
100
AcDb2dVertex
 10
570.439453125
 20
716.2197265625
 30
0.0
  0
VERTEX
  5
1D0
330
1CD
100
AcDbEntity
  8
Layer 1
 62
     5
420
      255
370
    35
100
AcDbVertex
100
AcDb2dVertex
 10
569.5302734375
 20
714.94189453125
 30
0.0
  0
VERTEX
  5
1D1
330
1CD
100
AcDbEntity
  8
Layer 1
 62
     5
420
      255
370
    35
100
AcDbVertex
100
AcDb2dVertex
 10
568.4111328125
 20
713.841796875
 30
0.0
  0
VERTEX
  5
1D2
330
1CD
100
AcDbEntity
  8
Layer 1
 62
     5
420
      255
370
    35
100
AcDbVertex
100
AcDb2dVertex
 10
567.119140625
 20
712.953125
 30
0.0
  0
VERTEX
  5
1D3
330
1CD
100
AcDbEntity
  8
Layer 1
 62
     5
420
      255
370
    35
100
AcDbVertex
100
AcDb2dVertex
 10
565.69140625
 20
712.3017578125
 30
0.0
  0
VERTEX
  5
1D4
330
1CD
100
AcDbEntity
  8
Layer 1
 62
     5
420
      255
370
    35
100
AcDbVertex
100
AcDb2dVertex
 10
564.171875
 20
711.90771484375
 30
0.0
  0
VERTEX
  5
1D5
330
1CD
100
AcDbEntity
  8
Layer 1
 62
     5
420
      255
370
    35
100
AcDbVertex
100
AcDb2dVertex
 10
562.609375
 20
711.7841796875
 30
0.0
  0
VERTEX
  5
1D6
330
1CD
100
AcDbEntity
  8
Layer 1
 62
     5
420
      255
370
    35
100
AcDbVertex
100
AcDb2dVertex
 10
561.046875
 20
711.93310546875
 30
0.0
  0
VERTEX
  5
1D7
330
1CD
100
AcDbEntity
  8
Layer 1
 62
     5
420
      255
370
    35
100
AcDbVertex
100
AcDb2dVertex
 10
559.53515625
 20
712.35107421875
 30
0.0
  0
VERTEX
  5
1D8
330
1CD
100
AcDbEntity
  8
Layer 1
 62
     5
420
      255
370
    35
100
AcDbVertex
100
AcDb2dVertex
 10
558.1181640625
 20
713.02587890625
 30
0.0
  0
VERTEX
  5
1D9
330
1CD
100
AcDbEntity
  8
Layer 1
 62
     5
420
      255
370
    35
100
AcDbVertex
100
AcDb2dVertex
 10
556.8408203125
 20
713.93603515625
 30
0.0
  0
VERTEX
  5
1DA
330
1CD
100
AcDbEntity
  8
Layer 1
 62
     5
420
      255
370
    35
100
AcDbVertex
100
AcDb2dVertex
 10
555.740234375
 20
715.0546875
 30
0.0
  0
VERTEX
  5
1DB
330
1CD
100
AcDbEntity
  8
Layer 1
 62
     5
420
      255
370
    35
100
AcDbVertex
100
AcDb2dVertex
 10
554.8505859375
 20
716.3466796875
 30
0.0
  0
VERTEX
  5
1DC
330
1CD
100
AcDbEntity
  8
Layer 1
 62
     5
420
      255
370
    35
100
AcDbVertex
100
AcDb2dVertex
 10
554.19921875
 20
717.77392578125
 30
0.0
  0
VERTEX
  5
1DD
330
1CD
100
AcDbEntity
  8
Layer 1
 62
     5
420
      255
370
    35
100
AcDbVertex
100
AcDb2dVertex
 10
553.8056640625
 20
719.29296875
 30
0.0
  0
VERTEX
  5
1DE
330
1CD
100
AcDbEntity
  8
Layer 1
 62
     5
420
      255
370
    35
100
AcDbVertex
100
AcDb2dVertex
 10
553.6806640625
 20
720.85693359375
 30
0.0
  0
VERTEX
  5
1DF
330
1CD
100
AcDbEntity
  8
Layer 1
 62
     5
420
      255
370
    35
100
AcDbVertex
100
AcDb2dVertex
 10
553.8310546875
 20
722.4189453125
 30
0.0
  0
VERTEX
  5
1E0
330
1CD
100
AcDbEntity
  8
Layer 1
 62
     5
420
      255
370
    35
100
AcDbVertex
100
AcDb2dVertex
 10
554.2490234375
 20
723.9306640625
 30
0.0
  0
VERTEX
  5
1E1
330
1CD
100
AcDbEntity
  8
Layer 1
 62
     5
420
      255
370
    35
100
AcDbVertex
100
AcDb2dVertex
 10
554.923828125
 20
725.34765625
 30
0.0
  0
VERTEX
  5
1E2
330
1CD
100
AcDbEntity
  8
Layer 1
 62
     5
420
      255
370
    35
100
AcDbVertex
100
AcDb2dVertex
 10
555.833984375
 20
726.6259765625
 30
0.0
  0
VERTEX
  5
1E3
330
1CD
100
AcDbEntity
  8
Layer 1
 62
     5
420
      255
370
    35
100
AcDbVertex
100
AcDb2dVertex
 10
556.9521484375
 20
727.72607421875
 30
0.0
  0
VERTEX
  5
1E4
330
1CD
100
AcDbEntity
  8
Layer 1
 62
     5
420
      255
370
    35
100
AcDbVertex
100
AcDb2dVertex
 10
558.2451171875
 20
728.61474609375
 30
0.0
  0
VERTEX
  5
1E5
330
1CD
100
AcDbEntity
  8
Layer 1
 62
     5
420
      255
370
    35
100
AcDbVertex
100
AcDb2dVertex
 10
559.671875
 20
729.26611328125
 30
0.0
  0
VERTEX
  5
1E6
330
1CD
100
AcDbEntity
  8
Layer 1
 62
     5
420
      255
370
    35
100
AcDbVertex
100
AcDb2dVertex
 10
561.19140625
 20
729.66015625
 30
0.0
  0
VERTEX
  5
1E7
330
1CD
100
AcDbEntity
  8
Layer 1
 62
     5
420
      255
370
    35
100
AcDbVertex
100
AcDb2dVertex
 10
562.7548828125
 20
729.7841796875
 30
0.0
  0
VERTEX
  5
1E8
330
1CD
100
AcDbEntity
  8
Layer 1
 62
     5
420
      255
370
    35
100
AcDbVertex
100
AcDb2dVertex
 10
564.31640625
 20
729.634765625
 30
0.0
  0
VERTEX
  5
1E9
330
1CD
100
AcDbEntity
  8
Layer 1
 62
     5
420
      255
370
    35
100
AcDbVertex
100
AcDb2dVertex
 10
565.8291015625
 20
729.216796875
 30
0.0
  0
VERTEX
  5
1EA
330
1CD
100
AcDbEntity
  8
Layer 1
 62
     5
420
      255
370
    35
100
AcDbVertex
100
AcDb2dVertex
 10
567.24609375
 20
728.54296875
 30
0.0
  0
VERTEX
  5
1EB
330
1CD
100
AcDbEntity
  8
Layer 1
 62
     5
420
      255
370
    35
100
AcDbVertex
100
AcDb2dVertex
 10
568.5224609375
 20
727.6318359375
 30
0.0
  0
VERTEX
  5
1EC
330
1CD
100
AcDbEntity
  8
Layer 1
 62
     5
420
      255
370
    35
100
AcDbVertex
100
AcDb2dVertex
 10
569.623046875
 20
726.513671875
 30
0.0
  0
VERTEX
  5
1ED
330
1CD
100
AcDbEntity
  8
Layer 1
 62
     5
420
      255
370
    35
100
AcDbVertex
100
AcDb2dVertex
 10
570.5126953125
 20
725.2216796875
 30
0.0
  0
VERTEX
  5
1EE
330
1CD
100
AcDbEntity
  8
Layer 1
 62
     5
420
      255
370
    35
100
AcDbVertex
100
AcDb2dVertex
 10
571.1640625
 20
723.794921875
 30
0.0
  0
VERTEX
  5
1EF
330
1CD
100
AcDbEntity
  8
Layer 1
 62
     5
420
      255
370
    35
100
AcDbVertex
100
AcDb2dVertex
 10
571.5576171875
 20
722.27587890625
 30
0.0
  0
VERTEX
  5
1F0
330
1CD
100
AcDbEntity
  8
Layer 1
 62
     5
420
      255
370
    35
100
AcDbVertex
100
AcDb2dVertex
 10
571.681640625
 20
720.7119140625
 30
0.0
  0
VERTEX
  5
1F1
330
1CD
100
AcDbEntity
  8
Layer 1
 62
     5
420
      255
370
    35
100
AcDbVertex
100
AcDb2dVertex
 10
571.533203125
 20
719.14990234375
 30
0.0
  0
VERTEX
  5
1F2
330
1CD
100
AcDbEntity
  8
Layer 1
 62
     5
420
      255
370
    35
100
AcDbVertex
100
AcDb2dVertex
 10
571.1142578125
 20
717.63671875
 30
0.0
  0
SEQEND
  5
1F3
330
1CD
100
AcDbEntity
  8
Layer 1
370
    35
  0
POLYLINE
  5
1F4
330
1F
100
AcDbEntity
  8
Layer 1
 62
     1
420
 16711680
370
    35
100
AcDb2dPolyline
 66
     1
 10
0.0
 20
0.0
 30
0.0
  0
VERTEX
  5
1F5
330
1F4
100
AcDbEntity
  8
Layer 1
 62
     1
420
 16711680
370
    35
100
AcDbVertex
100
AcDb2dVertex
 10
64.5380859375
 20
719.14892578125
 30
0.0
  0
VERTEX
  5
1FA
330
1F4
100
AcDbEntity
  8
0
100
AcDbVertex
100
AcDb2dVertex
 10
64.5380859375
 20
719.14892578125
 30
0.0
  0
SEQEND
  5
1F6
330
1F4
100
AcDbEntity
  8
Layer 1
370
    35
  0
POLYLINE
  5
1F7
330
1F
100
AcDbEntity
  8
Layer 1
 62
     3
420
    65280
370
    35
100
AcDb2dPolyline
 66
     1
 10
0.0
 20
0.0
 30
0.0
  0
VERTEX
  5
1F8
330
1F7
100
AcDbEntity
  8
Layer 1
 62
     3
420
    65280
370
    35
100
AcDbVertex
100
AcDb2dVertex
 10
64.5380859375
 20
719.14892578125
 30
0.0
  0
VERTEX
  5
1FB
330
1F7
100
AcDbEntity
  8
0
100
AcDbVertex
100
AcDb2dVertex
 10
64.5380859375
 20
719.14892578125
 30
0.0
  0
SEQEND
  5
1F9
330
1F7
100
AcDbEntity
  8
Layer 1
370
    35
  0
ENDSEC
  0
SECTION
  2
OBJECTS
  0
DICTIONARY
  5
C
330
0
100
AcDbDictionary
281
     1
  3
ACAD_GROUP
350
D
  3
ACAD_LAYOUT
350
1A
  3
ACAD_MLINESTYLE
350
17
  3
ACAD_PLOTSETTINGS
350
19
  3
ACAD_PLOTSTYLENAME
350
E
  3
ACAD_TABLESTYLE
350
1FC
  3
ACAD_VISUALSTYLE
350
2A
  0
DICTIONARY
  5
D
102
{ACAD_REACTORS
330
C
102
}
330
C
100
AcDbDictionary
281
     1
  0
DICTIONARY
  5
1A
102
{ACAD_REACTORS
330
C
102
}
330
C
100
AcDbDictionary
281
     1
  3
Layout1
350
1E
  3
Layout2
350
26
  3
Model
350
22
  0
DICTIONARY
  5
17
102
{ACAD_REACTORS
330
C
102
}
330
C
100
AcDbDictionary
281
     1
  3
Standard
350
18
  0
DICTIONARY
  5
19
102
{ACAD_REACTORS
330
C
102
}
330
C
100
AcDbDictionary
281
     1
  0
ACDBDICTIONARYWDFLT
  5
E
102
{ACAD_REACTORS
330
C
102
}
330
C
100
AcDbDictionary
281
     1
  3
Normal
350
F
100
AcDbDictionaryWithDefault
340
F
  0
DICTIONARY
  5
1FC
102
{ACAD_REACTORS
330
C
102
}
330
C
100
AcDbDictionary
281
     1
  0
DICTIONARY
  5
2A
102
{ACAD_REACTORS
330
C
102
}
330
C
100
AcDbDictionary
281
     1
  3
2dWireframe
350
2F
  3
3D Hidden
350
31
  3
3dWireframe
350
30
  3
Basic
350
32
  3
Brighten
350
36
  3
ColorChange
350
3A
  3
Conceptual
350
34
  3
Dim
350
35
  3
Facepattern
350
39
  3
Flat
350
2B
  3
FlatWithEdges
350
2C
  3
Gouraud
350
2D
  3
GouraudWithEdges
350
2E
  3
Linepattern
350
38
  3
Realistic
350
33
  3
Thicken
350
37
  0
LAYOUT
  5
1E
102
{ACAD_REACTORS
330
1A
102
}
330
1A
100
AcDbPlotSettings
  1

  2
none_device
  4

  6

 40
0.0
 41
0.0
 42
0.0
 43
0.0
 44
0.0
 45
0.0
 46
0.0
 47
0.0
 48
0.0
 49
0.0
140
0.0
141
0.0
142
1.0
143
1.0
 70
   688
 72
     0
 73
     0
 74
     5
  7

 75
    16
 76
     0
 77
     2
 78
   300
147
1.0
148
0.0
149
0.0
100
AcDbLayout
  1
Layout1
 70
     1
 71
     1
 10
0.0
 20
0.0
 11
12.0
 21
9.0
 12
0.0
 22
0.0
 32
0.0
 14
1.000000000000000E+20
 24
1.000000000000000E+20
 34
1.000000000000000E+20
 15
-1.000000000000000E+20
 25
-1.000000000000000E+20
 35
-1.000000000000000E+20
146
0.0
 13
0.0
 23
0.0
 33
0.0
 16
1.0
 26
0.0
 36
0.0
 17
0.0
 27
1.0
 37
0.0
 76
     0
330
1B
  0
LAYOUT
  5
26
102
{ACAD_REACTORS
330
1A
102
}
330
1A
100
AcDbPlotSettings
  1

  2
none_device
  4

  6

 40
0.0
 41
0.0
 42
0.0
 43
0.0
 44
0.0
 45
0.0
 46
0.0
 47
0.0
 48
0.0
 49
0.0
140
0.0
141
0.0
142
1.0
143
1.0
 70
   688
 72
     0
 73
     0
 74
     5
  7

 75
    16
 76
     0
 77
     2
 78
   300
147
1.0
148
0.0
149
0.0
100
AcDbLayout
  1
Layout2
 70
     1
 71
     2
 10
0.0
 20
0.0
 11
0.0
 21
0.0
 12
0.0
 22
0.0
 32
0.0
 14
0.0
 24
0.0
 34
0.0
 15
0.0
 25
0.0
 35
0.0
146
0.0
 13
0.0
 23
0.0
 33
0.0
 16
1.0
 26
0.0
 36
0.0
 17
0.0
 27
1.0
 37
0.0
 76
     0
330
23
  0
LAYOUT
  5
22
102
{ACAD_REACTORS
330
1A
102
}
330
1A
100
AcDbPlotSettings
  1

  2
none_device
  4

  6

 40
0.0
 41
0.0
 42
0.0
 43
0.0
 44
0.0
 45
0.0
 46
0.0
 47
0.0
 48
0.0
 49
0.0
140
0.0
141
0.0
142
1.0
143
1.0
 70
  1712
 72
     0
 73
     0
 74
     0
  7

 75
     0
 76
     0
 77
     2
 78
   300
147
1.0
148
0.0
149
0.0
100
AcDbLayout
  1
Model
 70
     1
 71
     0
 10
0.0
 20
0.0
 11
12.0
 21
9.0
 12
0.0
 22
0.0
 32
0.0
 14
1.000000000000000E+20
 24
1.000000000000000E+20
 34
1.000000000000000E+20
 15
-1.000000000000000E+20
 25
-1.000000000000000E+20
 35
-1.000000000000000E+20
146
0.0
 13
0.0
 23
0.0
 33
0.0
 16
1.0
 26
0.0
 36
0.0
 17
0.0
 27
1.0
 37
0.0
 76
     0
330
1F
331
29
  0
MLINESTYLE
  5
18
102
{ACAD_REACTORS
330
17
102
}
330
17
100
AcDbMlineStyle
  2
Standard
 70
     0
  3

 62
   256
 51
90.0
 52
90.0
 71
     2
 49
0.5
 62
   256
  6
BYLAYER
 49
-0.5
 62
   256
  6
BYLAYER
  0
ACDBPLACEHOLDER
  5
F
102
{ACAD_REACTORS
330
E
102
}
330
E
  0
VISUALSTYLE
  5
2F
102
{ACAD_REACTORS
330
2A
102
}
330
2A
100
AcDbVisualStyle
  2
2dWireframe
 70
     4
 71
     0
 72
     2
 73
     0
 90
        0
 40
-0.6
 41
-30.0
 62
     5
 63
     7
421
 16777215
 74
     1
 91
        4
 64
     7
 65
   257
 75
     1
175
     1
 42
1.0
 92
        0
 66
   257
 43
1.0
 76
     1
 77
     6
 78
     2
 67
     7
 79
     5
170
     0
171
     0
290
     0
174
     0
 93
        1
 44
0.0
173
     0
291
     0
 45
0.0
1001
ACAD
1000
AcDbSavedByObjectVersion
1070
     0
  0
VISUALSTYLE
  5
31
102
{ACAD_REACTORS
330
2A
102
}
330
2A
100
AcDbVisualStyle
  2
3D Hidden
 70
     6
 71
     1
 72
     2
 73
     2
 90
        0
 40
-0.6
 41
-30.0
 62
     5
 63
     7
421
 16777215
 74
     2
 91
        2
 64
     7
 65
   257
 75
     2
175
     1
 42
40.0
 92
        0
 66
   257
 43
1.0
 76
     1
 77
     6
 78
     2
 67
     7
 79
     3
170
     0
171
     0
290
     0
174
     0
 93
        1
 44
0.0
173
     0
291
     0
 45
0.0
1001
ACAD
1000
AcDbSavedByObjectVersion
1070
     0
  0
VISUALSTYLE
  5
30
102
{ACAD_REACTORS
330
2A
102
}
330
2A
100
AcDbVisualStyle
  2
3dWireframe
 70
     5
 71
     0
 72
     2
 73
     0
 90
        0
 40
-0.6
 41
-30.0
 62
     5
 63
     7
421
 16777215
 74
     1
 91
        4
 64
     7
 65
   257
 75
     1
175
     1
 42
1.0
 92
        0
 66
   257
 43
1.0
 76
     1
 77
     6
 78
     2
 67
     7
 79
     5
170
     0
171
     0
290
     0
174
     0
 93
        1
 44
0.0
173
     0
291
     0
 45
0.0
1001
ACAD
1000
AcDbSavedByObjectVersion
1070
     0
  0
VISUALSTYLE
  5
32
102
{ACAD_REACTORS
330
2A
102
}
330
2A
100
AcDbVisualStyle
  2
Basic
 70
     7
 71
     1
 72
     0
 73
     1
 90
        0
 40
-0.6
 41
-30.0
 62
     5
 63
     7
421
 16777215
 74
     0
 91
        4
 64
     7
 65
   257
 75
     1
175
     1
 42
1.0
 92
        8
 66
     7
 43
1.0
 76
     1
 77
     6
 78
     2
 67
     7
 79
     5
170
     0
171
     0
290
     0
174
     0
 93
        1
 44
0.0
173
     0
291
     1
 45
0.0
1001
ACAD
1000
AcDbSavedByObjectVersion
1070
     0
  0
VISUALSTYLE
  5
36
102
{ACAD_REACTORS
330
2A
102
}
330
2A
100
AcDbVisualStyle
  2
Brighten
 70
    12
 71
     2
 72
     2
 73
     0
 90
        0
 40
-0.6
 41
-30.0
 62
     5
 63
     7
421
 16777215
 74
     1
 91
        4
 64
     7
 65
   257
 75
     1
175
     1
 42
1.0
 92
        8
 66
     7
 43
1.0
 76
     1
 77
     6
 78
     2
 67
     7
 79
     5
170
     0
171
     0
290
     0
174
     0
 93
        1
 44
50.0
173
     0
291
     1
 45
0.0
1001
ACAD
1000
AcDbSavedByObjectVersion
1070
     0
  0
VISUALSTYLE
  5
3A
102
{ACAD_REACTORS
330
2A
102
}
330
2A
100
AcDbVisualStyle
  2
ColorChange
 70
    16
 71
     2
 72
     2
 73
     3
 90
        0
 40
-0.6
 41
-30.0
 62
     5
 63
     8
421
  8421504
 74
     1
 91
        4
 64
     7
 65
   257
 75
     1
175
     1
 42
1.0
 92
        8
 66
     8
424
  8421504
 43
1.0
 76
     1
 77
     6
 78
     2
 67
     7
 79
     5
170
     0
171
     0
290
     0
174
     0
 93
        1
 44
0.0
173
     0
291
     1
 45
0.0
1001
ACAD
1000
AcDbSavedByObjectVersion
1070
     0
  0
VISUALSTYLE
  5
34
102
{ACAD_REACTORS
330
2A
102
}
330
2A
100
AcDbVisualStyle
  2
Conceptual
 70
     9
 71
     3
 72
     2
 73
     0
 90
        0
 40
-0.6
 41
-30.0
 62
     5
 63
     7
421
 16777215
 74
     2
 91
        2
 64
     7
 65
   257
 75
     1
175
     1
 42
40.0
 92
        8
 66
     7
 43
1.0
 76
     1
 77
     6
 78
     2
 67
     7
 79
     3
170
     0
171
     0
290
     0
174
     0
 93
        1
 44
0.0
173
     0
291
     0
 45
0.0
1001
ACAD
1000
AcDbSavedByObjectVersion
1070
     0
  0
VISUALSTYLE
  5
35
102
{ACAD_REACTORS
330
2A
102
}
330
2A
100
AcDbVisualStyle
  2
Dim
 70
    11
 71
     2
 72
     2
 73
     0
 90
        0
 40
-0.6
 41
-30.0
 62
     5
 63
     7
421
 16777215
 74
     1
 91
        4
 64
     7
 65
   257
 75
     1
175
     1
 42
1.0
 92
        8
 66
     7
 43
1.0
 76
     1
 77
     6
 78
     2
 67
     7
 79
     5
170
     0
171
     0
290
     0
174
     0
 93
        1
 44
-50.0
173
     0
291
     1
 45
0.0
1001
ACAD
1000
AcDbSavedByObjectVersion
1070
     0
  0
VISUALSTYLE
  5
39
102
{ACAD_REACTORS
330
2A
102
}
330
2A
100
AcDbVisualStyle
  2
Facepattern
 70
    15
 71
     2
 72
     2
 73
     0
 90
        0
 40
-0.6
 41
-30.0
 62
     5
 63
     7
421
 16777215
 74
     1
 91
        4
 64
     7
 65
   257
 75
     1
175
     1
 42
1.0
 92
        8
 66
     7
 43
1.0
 76
     1
 77
     6
 78
     2
 67
     7
 79
     5
170
     0
171
     0
290
     0
174
     0
 93
        1
 44
0.0
173
     0
291
     1
 45
0.0
1001
ACAD
1000
AcDbSavedByObjectVersion
1070
     0
  0
VISUALSTYLE
  5
2B
102
{ACAD_REACTORS
330
2A
102
}
330
2A
100
AcDbVisualStyle
  2
Flat
 70
     0
 71
     2
 72
     1
 73
     1
 90
        2
 40
-0.6
 41
30.0
 62
     5
 63
     7
421
 16777215
 74
     0
 91
        4
 64
     7
 65
   257
 75
     1
175
     1
 42
1.0
 92
        8
 66
     7
 43
1.0
 76
     1
 77
     6
 78
     2
 67
     7
 79
     5
170
     0
171
     0
290
     0
174
     0
 93
       13
 44
0.0
173
     0
291
     1
 45
0.0
1001
ACAD
1000
AcDbSavedByObjectVersion
1070
     0
  0
VISUALSTYLE
  5
2C
102
{ACAD_REACTORS
330
2A
102
}
330
2A
100
AcDbVisualStyle
  2
FlatWithEdges
 70
     1
 71
     2
 72
     1
 73
     1
 90
        2
 40
-0.6
 41
30.0
 62
     5
 63
     7
421
 16777215
 74
     1
 91
        4
 64
     7
 65
   257
 75
     1
175
     1
 42
1.0
 92
        0
 66
   257
 43
1.0
 76
     1
 77
     6
 78
     2
 67
     7
 79
     5
170
     0
171
     0
290
     0
174
     0
 93
       13
 44
0.0
173
     0
291
     1
 45
0.0
1001
ACAD
1000
AcDbSavedByObjectVersion
1070
     0
  0
VISUALSTYLE
  5
2D
102
{ACAD_REACTORS
330
2A
102
}
330
2A
100
AcDbVisualStyle
  2
Gouraud
 70
     2
 71
     2
 72
     2
 73
     1
 90
        2
 40
-0.6
 41
30.0
 62
     5
 63
     7
421
 16777215
 74
     0
 91
        4
 64
     7
 65
   257
 75
     1
175
     1
 42
1.0
 92
        0
 66
     7
 43
1.0
 76
     1
 77
     6
 78
     2
 67
     7
 79
     5
170
     0
171
     0
290
     0
174
     0
 93
       13
 44
0.0
173
     0
291
     1
 45
0.0
1001
ACAD
1000
AcDbSavedByObjectVersion
1070
     0
  0
VISUALSTYLE
  5
2E
102
{ACAD_REACTORS
330
2A
102
}
330
2A
100
AcDbVisualStyle
  2
GouraudWithEdges
 70
     3
 71
     2
 72
     2
 73
     1
 90
        2
 40
-0.6
 41
30.0
 62
     5
 63
     7
421
 16777215
 74
     1
 91
        4
 64
     7
 65
   257
 75
     1
175
     1
 42
1.0
 92
        0
 66
   257
 43
1.0
 76
     1
 77
     6
 78
     2
 67
     7
 79
     5
170
     0
171
     0
290
     0
174
     0
 93
       13
 44
0.0
173
     0
291
     1
 45
0.0
1001
ACAD
1000
AcDbSavedByObjectVersion
1070
     0
  0
VISUALSTYLE
  5
38
102
{ACAD_REACTORS
330
2A
102
}
330
2A
100
AcDbVisualStyle
  2
Linepattern
 70
    14
 71
     2
 72
     2
 73
     0
 90
        0
 40
-0.6
 41
-30.0
 62
     5
 63
     7
421
 16777215
 74
     1
 91
        4
 64
     7
 65
   257
 75
     7
175
     7
 42
1.0
 92
        8
 66
     7
 43
1.0
 76
     1
 77
     6
 78
     2
 67
     7
 79
     5
170
     0
171
     0
290
     0
174
     0
 93
        1
 44
0.0
173
     0
291
     1
 45
0.0
1001
ACAD
1000
AcDbSavedByObjectVersion
1070
     0
  0
VISUALSTYLE
  5
33
102
{ACAD_REACTORS
330
2A
102
}
330
2A
100
AcDbVisualStyle
  2
Realistic
 70
     8
 71
     2
 72
     2
 73
     0
 90
        0
 40
-0.6
 41
-30.0
 62
     5
 63
     7
421
 16777215
 74
     1
 91
        0
 64
     7
 65
   257
 75
     1
175
     1
 42
1.0
 92
        8
 66
     8
424
  7895160
 43
1.0
 76
     1
 77
     6
 78
     2
 67
     7
 79
     5
170
     0
171
     0
290
     0
174
     0
 93
       13
 44
0.0
173
     0
291
     0
 45
0.0
1001
ACAD
1000
AcDbSavedByObjectVersion
1070
     0
  0
VISUALSTYLE
  5
37
102
{ACAD_REACTORS
330
2A
102
}
330
2A
100
AcDbVisualStyle
  2
Thicken
 70
    13
 71
     2
 72
     2
 73
     0
 90
        0
 40
-0.6
 41
-30.0
 62
     5
 63
     7
421
 16777215
 74
     1
 91
        4
 64
     7
 65
   257
 75
     1
175
     1
 42
1.0
 92
       12
 66
     7
 43
1.0
 76
     1
 77
     6
 78
     2
 67
     7
 79
     5
170
     0
171
     0
290
     0
174
     0
 93
        1
 44
0.0
173
     0
291
     1
 45
0.0
1001
ACAD
1000
AcDbSavedByObjectVersion
1070
     0
  0
ENDSEC
  0
EOF
