<?xml version="1.0" encoding="utf-8"?>
<!-- Generator: Adobe Illustrator 16.0.0, SVG Export Plug-In . SVG Version: 6.00 Build 0)  -->
<!DOCTYPE svg PUBLIC "-//W3C//DTD SVG 1.1//EN" "http://www.w3.org/Graphics/SVG/1.1/DTD/svg11.dtd">
<svg version="1.1" id="Layer_1" xmlns="http://www.w3.org/2000/svg" xmlns:xlink="http://www.w3.org/1999/xlink" x="0px" y="0px"
	 width="711.492px" height="777.258px" viewBox="0 0 711.492 777.258" enable-background="new 0 0 711.492 777.258"
	 xml:space="preserve">
<desc>Output from Flights of Ideas SVG Sketchup Plugin</desc>
<path id="face0-cut" fill="none" stroke="#0000FF" stroke-linecap="round" stroke-linejoin="round" d="M172.341,748.911
	l5.295-647.979l-0.991-12.511l-3.149-12.149l-5.211-11.417l-7.114-10.339l-8.802-8.947l-10.221-7.282l-11.332-5.397l-12.096-3.347
	l-12.492-1.196l-12.512,0.991l-12.149,3.149L70.15,37.698l-10.339,7.114l-8.947,8.802l-7.282,10.222l-5.397,11.331l-3.347,12.096
	l-1.196,12.494l-5.295,647.979L172.341,748.911 M141.05,172.636l-0.941,115.196l-71.998-0.588l0.941-115.196L141.05,172.636
	 M108.074,646.167l-1.119,1.101l-1.292,0.89l-1.427,0.651l-1.519,0.394l-1.564,0.123l-1.562-0.149l-1.512-0.418l-1.417-0.675
	l-1.278-0.91l-1.1-1.118l-0.889-1.293l-0.651-1.427l-0.394-1.519l-0.124-1.564l0.149-1.562l0.418-1.512l0.674-1.416l0.911-1.278
	l1.118-1.1l1.292-0.89l1.427-0.651l1.519-0.394l1.564-0.124l1.562,0.149l1.512,0.419l1.417,0.674l1.277,0.911l1.1,1.118l0.89,1.292
	l0.651,1.428l0.395,1.519l0.123,1.563l-0.149,1.562l-0.419,1.513l-0.674,1.416L108.074,646.167 M114.365,67.492l-0.674,1.417
	l-0.91,1.278l-1.119,1.1l-1.292,0.889l-1.427,0.651l-1.52,0.394l-1.563,0.124l-1.562-0.149l-1.512-0.418l-1.417-0.675l-1.277-0.91
	l-1.101-1.119l-0.889-1.292l-0.651-1.427l-0.394-1.519l-0.124-1.564l0.149-1.562l0.418-1.512l0.675-1.417l0.91-1.278l1.118-1.1
	l1.292-0.889l1.427-0.651l1.519-0.394l1.564-0.124l1.561,0.149l1.513,0.418l1.417,0.674l1.277,0.911l1.1,1.118l0.89,1.292
	l0.651,1.427l0.394,1.519l0.124,1.564l-0.149,1.562L114.365,67.492"/>
<path id="face0-cut_1_" fill="none" stroke="#0000FF" stroke-linecap="round" stroke-linejoin="round" d="M341.336,748.911
	l5.295-647.979l-0.991-12.511l-3.149-12.149l-5.211-11.417l-7.114-10.339l-8.802-8.947l-10.221-7.282l-11.332-5.397l-12.096-3.347
	l-12.492-1.196l-12.512,0.991l-12.148,3.149l-11.418,5.211l-10.34,7.114l-8.946,8.802l-7.282,10.222l-5.396,11.331l-3.348,12.096
	l-1.195,12.494l-5.295,647.979L341.336,748.911 M310.045,172.636l-0.941,115.196l-71.998-0.588l0.941-115.196L310.045,172.636
	 M277.069,646.167l-1.119,1.101l-1.292,0.89l-1.427,0.651l-1.52,0.394l-1.563,0.123l-1.562-0.149l-1.512-0.418l-1.416-0.675
	l-1.278-0.91l-1.101-1.118l-0.889-1.293l-0.651-1.427l-0.394-1.519l-0.124-1.564l0.149-1.562l0.418-1.512l0.675-1.416l0.911-1.278
	l1.117-1.1l1.293-0.89l1.428-0.651l1.518-0.394l1.564-0.124l1.562,0.149l1.512,0.419l1.417,0.674l1.277,0.911l1.1,1.118l0.89,1.292
	l0.651,1.428l0.395,1.519l0.123,1.563l-0.149,1.562l-0.419,1.513l-0.674,1.416L277.069,646.167 M283.36,67.492l-0.674,1.417
	l-0.91,1.278l-1.119,1.1l-1.292,0.889l-1.427,0.651l-1.52,0.394l-1.563,0.124l-1.562-0.149l-1.512-0.418l-1.417-0.675l-1.277-0.91
	l-1.101-1.119l-0.889-1.292l-0.652-1.427l-0.393-1.519l-0.125-1.564l0.15-1.562l0.418-1.512l0.675-1.417l0.91-1.278l1.118-1.1
	l1.293-0.889l1.427-0.651l1.519-0.394l1.564-0.124l1.561,0.149l1.513,0.418l1.417,0.674l1.277,0.911l1.1,1.118l0.89,1.292
	l0.651,1.427l0.394,1.519l0.124,1.564l-0.149,1.562L283.36,67.492"/>
<path id="face0-cut_2_" fill="none" stroke="#0000FF" stroke-linecap="round" stroke-linejoin="round" d="M510.45,748.911
	l5.295-647.979l-0.991-12.511l-3.149-12.149l-5.211-11.417l-7.114-10.339l-8.802-8.947l-10.221-7.282l-11.332-5.397l-12.096-3.347
	l-12.492-1.196l-12.512,0.991l-12.148,3.149l-11.418,5.211l-10.34,7.114l-8.946,8.802l-7.282,10.222l-5.396,11.331l-3.348,12.096
	l-1.195,12.494l-5.295,647.979L510.45,748.911 M479.159,172.636l-0.941,115.196l-71.998-0.588l0.941-115.196L479.159,172.636
	 M446.182,646.167l-1.119,1.101l-1.292,0.89l-1.427,0.651l-1.52,0.394l-1.563,0.123l-1.562-0.149l-1.512-0.418l-1.416-0.675
	l-1.278-0.91l-1.101-1.118l-0.889-1.293l-0.651-1.427l-0.394-1.519l-0.124-1.564l0.149-1.562l0.418-1.512l0.675-1.416l0.911-1.278
	l1.117-1.1l1.293-0.89l1.428-0.651l1.518-0.394l1.564-0.124l1.562,0.149l1.512,0.419l1.417,0.674l1.277,0.911l1.1,1.118l0.89,1.292
	l0.651,1.428l0.395,1.519l0.123,1.563l-0.149,1.562l-0.419,1.513l-0.674,1.416L446.182,646.167 M452.473,67.492l-0.674,1.417
	l-0.91,1.278l-1.119,1.1l-1.292,0.889l-1.427,0.651l-1.52,0.394l-1.563,0.124l-1.562-0.149l-1.512-0.418l-1.417-0.675l-1.277-0.91
	l-1.101-1.119l-0.889-1.292l-0.652-1.427l-0.393-1.519l-0.125-1.564l0.15-1.562l0.418-1.512l0.675-1.417l0.91-1.278l1.118-1.1
	l1.293-0.889l1.427-0.651l1.519-0.394l1.564-0.124l1.561,0.149l1.513,0.418l1.417,0.674l1.277,0.911l1.1,1.118l0.89,1.292
	l0.651,1.427l0.394,1.519l0.124,1.564l-0.149,1.562L452.473,67.492"/>
<path id="face0-cut_3_" fill="none" stroke="#0000FF" stroke-linecap="round" stroke-linejoin="round" d="M679.336,748.911
	l5.295-647.979l-0.991-12.511l-3.149-12.149l-5.211-11.417l-7.114-10.339l-8.802-8.947l-10.221-7.282l-11.332-5.397l-12.096-3.347
	l-12.492-1.196l-12.512,0.991l-12.148,3.149l-11.418,5.211l-10.34,7.114l-8.946,8.802l-7.282,10.222l-5.396,11.331l-3.348,12.096
	l-1.195,12.494l-5.295,647.979L679.336,748.911 M648.045,172.636l-0.941,115.196l-71.998-0.588l0.941-115.196L648.045,172.636
	 M615.069,646.167l-1.119,1.101l-1.292,0.89l-1.427,0.651l-1.52,0.394l-1.563,0.123l-1.562-0.149l-1.512-0.418l-1.416-0.675
	l-1.278-0.91l-1.101-1.118l-0.889-1.293l-0.651-1.427l-0.394-1.519l-0.124-1.564l0.149-1.562l0.418-1.512l0.675-1.416l0.911-1.278
	l1.117-1.1l1.293-0.89l1.428-0.651l1.518-0.394l1.564-0.124l1.562,0.149l1.512,0.419l1.417,0.674l1.277,0.911l1.1,1.118l0.89,1.292
	l0.651,1.428l0.395,1.519l0.123,1.563l-0.149,1.562l-0.419,1.513l-0.674,1.416L615.069,646.167 M621.36,67.492l-0.674,1.417
	l-0.91,1.278l-1.119,1.1l-1.292,0.889l-1.427,0.651l-1.52,0.394l-1.563,0.124l-1.562-0.149l-1.512-0.418l-1.417-0.675l-1.277-0.91
	l-1.101-1.119l-0.889-1.292l-0.652-1.427l-0.393-1.519l-0.125-1.564l0.15-1.562l0.418-1.512l0.675-1.417l0.91-1.278l1.118-1.1
	l1.293-0.889l1.427-0.651l1.519-0.394l1.564-0.124l1.561,0.149l1.513,0.418l1.417,0.674l1.277,0.911l1.1,1.118l0.89,1.292
	l0.651,1.427l0.394,1.519l0.124,1.564l-0.149,1.562L621.36,67.492"/>
<path id="face0-interior" fill="none" stroke="#FF0000" stroke-linecap="round" stroke-linejoin="round" d="M114.784,65.98"/>
<path id="face0-interior_1_" fill="none" stroke="#00FF00" stroke-linecap="round" stroke-linejoin="round" d="M114.784,65.98"/>
</svg>
