  0
SECTION
  2
HEADER
  9
$ACADVER
  1
AC1009
  9
$EXTMIN
 10
0.0
 20
0.0
 30
0.0
  9
$EXTMAX
 10
1000.0
 20
1000.0
 30
0.0
  9
$FILLMODE
 70
 0
  9
$SPLFRAME
 70
 1
  0
ENDSEC
  0
SECTION
  2
TABLES
  0
TABLE
  2
LAYER
 70
1
  0
LAYER
  2
0
 70
     0
 62
     7
  6
CONTINUOUS
  0
ENDTAB
  0
ENDSEC
  0
SECTION
  2
ENTITIES
  0
POLYLINE
  8
0
 62
     250
 66
     1
 10
0
 20
0
 30
0.0
 40
1
 41
1
  0
VERTEX
  8
0
 10
2.35628
 20
1.07265
 30
0.0
 40
0.0138889
 41
0.0138889
  0
VERTEX
  8
0
 10
3.55501
 20
1.07265
 30
0.0
 40
0.0138889
 41
0.0138889
  0
VERTEX
  8
0
 10
3.55501
 20
1.41629
 30
0.0
 40
0.0138889
 41
0.0138889
  0
VERTEX
  8
0
 10
2.34239
 20
1.41629
 30
0.0
 40
0.0138889
 41
0.0138889
  0
SEQEND
 8
0
  0
POLYLINE
  8
0
 62
     250
 66
     1
 10
0
 20
0
 30
0.0
 40
1
 41
1
  0
VERTEX
  8
0
 10
2.22987
 20
1.41629
 30
0.0
 40
0.0138889
 41
0.0138889
  0
VERTEX
  8
0
 10
1.31494
 20
1.41629
 30
0.0
 40
0.0138889
 41
0.0138889
  0
VERTEX
  8
0
 10
1.31494
 20
1.07265
 30
0.0
 40
0.0138889
 41
0.0138889
  0
VERTEX
  8
0
 10
2.24821
 20
1.07265
 30
0.0
 40
0.0138889
 41
0.0138889
  0
SEQEND
 8
0
  0
POLYLINE
  8
0
 62
     250
 66
     1
 10
0
 20
0
 30
0.0
 40
1
 41
1
  0
VERTEX
  8
0
 10
2.55354
 20
2.12907
 30
0.0
 40
0.0138889
 41
0.0138889
  0
VERTEX
  8
0
 10
3.99621
 20
2.12885
 30
0.0
 40
0.0138889
 41
0.0138889
  0
VERTEX
  8
0
 10
4.118
 20
2.11556
 30
0.0
 40
0.0138889
 41
0.0138889
  0
VERTEX
  8
0
 10
4.22646
 20
2.07319
 30
0.0
 40
0.0138889
 41
0.0138889
  0
VERTEX
  8
0
 10
4.30718
 20
2.00493
 30
0.0
 40
0.0138889
 41
0.0138889
  0
VERTEX
  8
0
 10
4.35786
 20
1.91265
 30
0.0
 40
0.0138889
 41
0.0138889
  0
VERTEX
  8
0
 10
4.37603
 20
1.79779
 30
0.0
 40
0.0138889
 41
0.0138889
  0
VERTEX
  8
0
 10
4.37608
 20
0.693033
 30
0.0
 40
0.0138889
 41
0.0138889
  0
VERTEX
  8
0
 10
4.35226
 20
0.563857
 30
0.0
 40
0.0138889
 41
0.0138889
  0
VERTEX
  8
0
 10
4.28733
 20
0.462349
 30
0.0
 40
0.0138889
 41
0.0138889
  0
VERTEX
  8
0
 10
4.18728
 20
0.393446
 30
0.0
 40
0.0138889
 41
0.0138889
  0
VERTEX
  8
0
 10
4.05806
 20
0.361817
 30
0.0
 40
0.0138889
 41
0.0138889
  0
VERTEX
  8
0
 10
3.98264
 20
0.359104
 30
0.0
 40
0.0138889
 41
0.0138889
  0
VERTEX
  8
0
 10
2.57351
 20
0.358996
 30
0.0
 40
0.0138889
 41
0.0138889
  0
VERTEX
  8
0
 10
2.46099
 20
0.358996
 30
0.0
 40
0.0138889
 41
0.0138889
  0
VERTEX
  8
0
 10
0.878906
 20
0.359537
 30
0.0
 40
0.0138889
 41
0.0138889
  0
VERTEX
  8
0
 10
0.811524
 20
0.362901
 30
0.0
 40
0.0138889
 41
0.0138889
  0
VERTEX
  8
0
 10
0.745281
 20
0.374024
 30
0.0
 40
0.0138889
 41
0.0138889
  0
VERTEX
  8
0
 10
0.637315
 20
0.417643
 30
0.0
 40
0.0138889
 41
0.0138889
  0
VERTEX
  8
0
 10
0.558051
 20
0.488172
 30
0.0
 40
0.0138889
 41
0.0138889
  0
VERTEX
  8
0
 10
0.508735
 20
0.583931
 30
0.0
 40
0.0138889
 41
0.0138889
  0
VERTEX
  8
0
 10
0.490668
 20
0.703233
 30
0.0
 40
0.0138889
 41
0.0138889
  0
VERTEX
  8
0
 10
0.490614
 20
1.11654
 30
0.0
 40
0.0138889
 41
0.0138889
  0
VERTEX
  8
0
 10
0.490397
 20
2.72999
 30
0.0
 40
0.0138889
 41
0.0138889
  0
VERTEX
  8
0
 10
0.501574
 20
2.86008
 30
0.0
 40
0.0138889
 41
0.0138889
  0
VERTEX
  8
0
 10
0.53966
 20
2.95861
 30
0.0
 40
0.0138889
 41
0.0138889
  0
VERTEX
  8
0
 10
0.60536
 20
3.03549
 30
0.0
 40
0.0138889
 41
0.0138889
  0
VERTEX
  8
0
 10
0.694933
 20
3.088
 30
0.0
 40
0.0138889
 41
0.0138889
  0
VERTEX
  8
0
 10
0.804633
 20
3.1135
 30
0.0
 40
0.0138889
 41
0.0138889
  0
VERTEX
  8
0
 10
0.883951
 20
3.11746
 30
0.0
 40
0.0138889
 41
0.0138889
  0
VERTEX
  8
0
 10
4.31749
 20
3.11757
 30
0.0
 40
0.0138889
 41
0.0138889
  0
VERTEX
  8
0
 10
4.37733
 20
3.11757
 30
0.0
 40
0.0138889
 41
0.0138889
  0
VERTEX
  8
0
 10
4.37733
 20
2.81625
 30
0.0
 40
0.0138889
 41
0.0138889
  0
VERTEX
  8
0
 10
4.37793
 20
2.51426
 30
0.0
 40
0.0138889
 41
0.0138889
  0
VERTEX
  8
0
 10
4.37625
 20
2.49561
 30
0.0
 40
0.0138889
 41
0.0138889
  0
VERTEX
  8
0
 10
4.36996
 20
2.48361
 30
0.0
 40
0.0138889
 41
0.0138889
  0
VERTEX
  8
0
 10
4.35801
 20
2.47749
 30
0.0
 40
0.0138889
 41
0.0138889
  0
VERTEX
  8
0
 10
4.33951
 20
2.47613
 30
0.0
 40
0.0138889
 41
0.0138889
  0
VERTEX
  8
0
 10
4.16862
 20
2.47672
 30
0.0
 40
0.0138889
 41
0.0138889
  0
VERTEX
  8
0
 10
1.50206
 20
2.47635
 30
0.0
 40
0.0138889
 41
0.0138889
  0
VERTEX
  8
0
 10
1.38384
 20
2.46604
 30
0.0
 40
0.0138889
 41
0.0138889
  0
VERTEX
  8
0
 10
1.35737
 20
2.45747
 30
0.0
 40
0.0138889
 41
0.0138889
  0
VERTEX
  8
0
 10
1.3367
 20
2.44228
 30
0.0
 40
0.0138889
 41
0.0138889
  0
VERTEX
  8
0
 10
1.32308
 20
2.42057
 30
0.0
 40
0.0138889
 41
0.0138889
  0
VERTEX
  8
0
 10
1.31793
 20
2.39247
 30
0.0
 40
0.0138889
 41
0.0138889
  0
VERTEX
  8
0
 10
1.31749
 20
2.12875
 30
0.0
 40
0.0138889
 41
0.0138889
  0
VERTEX
  8
0
 10
1.36144
 20
2.12875
 30
0.0
 40
0.0138889
 41
0.0138889
  0
VERTEX
  8
0
 10
2.44824
 20
2.12901
 30
0.0
 40
0.0138889
 41
0.0138889
  0
SEQEND
 8
0
  0
POLYLINE
  8
0
 62
     250
 66
     1
 10
0
 20
0
 30
0.0
 40
1
 41
1
  0
VERTEX
  8
0
 10
1.06679
 20
5.63699
 30
0.0
 40
0.0138889
 41
0.0138889
  0
VERTEX
  8
0
 10
1.06679
 20
4.60525
 30
0.0
 40
0.0138889
 41
0.0138889
  0
SEQEND
 8
0
  0
POLYLINE
  8
0
 62
     250
 66
     1
 10
0
 20
0
 30
0.0
 40
1
 41
1
  0
VERTEX
  8
0
 10
1.15533
 20
4.60021
 30
0.0
 40
0.0138889
 41
0.0138889
  0
VERTEX
  8
0
 10
1.23796
 20
4.61106
 30
0.0
 40
0.0138889
 41
0.0138889
  0
VERTEX
  8
0
 10
1.31744
 20
4.634
 30
0.0
 40
0.0138889
 41
0.0138889
  0
VERTEX
  8
0
 10
1.39117
 20
4.66769
 30
0.0
 40
0.0138889
 41
0.0138889
  0
VERTEX
  8
0
 10
1.45654
 20
4.7105
 30
0.0
 40
0.0138889
 41
0.0138889
  0
VERTEX
  8
0
 10
1.51101
 20
4.76096
 30
0.0
 40
0.0138889
 41
0.0138889
  0
VERTEX
  8
0
 10
1.55203
 20
4.81754
 30
0.0
 40
0.0138889
 41
0.0138889
  0
VERTEX
  8
0
 10
1.57699
 20
4.87875
 30
0.0
 40
0.0138889
 41
0.0138889
  0
VERTEX
  8
0
 10
1.58339
 20
4.94299
 30
0.0
 40
0.0138889
 41
0.0138889
  0
VERTEX
  8
0
 10
1.13108
 20
4.94299
 30
0.0
 40
0.0138889
 41
0.0138889
  0
VERTEX
  8
0
 10
1.13108
 20
5.26839
 30
0.0
 40
0.0138889
 41
0.0138889
  0
VERTEX
  8
0
 10
1.13222
 20
5.31136
 30
0.0
 40
0.0138889
 41
0.0138889
  0
VERTEX
  8
0
 10
1.14008
 20
5.33447
 30
0.0
 40
0.0138889
 41
0.0138889
  0
VERTEX
  8
0
 10
1.16135
 20
5.34636
 30
0.0
 40
0.0138889
 41
0.0138889
  0
VERTEX
  8
0
 10
1.20258
 20
5.35553
 30
0.0
 40
0.0138889
 41
0.0138889
  0
VERTEX
  8
0
 10
1.37858
 20
5.40847
 30
0.0
 40
0.0138889
 41
0.0138889
  0
VERTEX
  8
0
 10
1.53153
 20
5.51042
 30
0.0
 40
0.0138889
 41
0.0138889
  0
VERTEX
  8
0
 10
1.57904
 20
5.56793
 30
0.0
 40
0.0138889
 41
0.0138889
  0
VERTEX
  8
0
 10
1.61106
 20
5.63699
 30
0.0
 40
0.0138889
 41
0.0138889
  0
VERTEX
  8
0
 10
1.20177
 20
5.63699
 30
0.0
 40
0.0138889
 41
0.0138889
  0
SEQEND
 8
0
  0
POLYLINE
  8
0
 62
     250
 66
     1
 10
0
 20
0
 30
0.0
 40
1
 41
1
  0
VERTEX
  8
0
 10
1.20171
 20
6.03504
 30
0.0
 40
0.0138889
 41
0.0138889
  0
VERTEX
  8
0
 10
2.13226
 20
6.03504
 30
0.0
 40
0.0138889
 41
0.0138889
  0
VERTEX
  8
0
 10
2.13813
 20
5.91613
 30
0.0
 40
0.0138889
 41
0.0138889
  0
VERTEX
  8
0
 10
2.12142
 20
5.80333
 30
0.0
 40
0.0138889
 41
0.0138889
  0
VERTEX
  8
0
 10
2.08339
 20
5.69829
 30
0.0
 40
0.0138889
 41
0.0138889
  0
VERTEX
  8
0
 10
2.02533
 20
5.6026
 30
0.0
 40
0.0138889
 41
0.0138889
  0
VERTEX
  8
0
 10
1.94862
 20
5.5179
 30
0.0
 40
0.0138889
 41
0.0138889
  0
VERTEX
  8
0
 10
1.85444
 20
5.44581
 30
0.0
 40
0.0138889
 41
0.0138889
  0
VERTEX
  8
0
 10
1.74414
 20
5.38792
 30
0.0
 40
0.0138889
 41
0.0138889
  0
VERTEX
  8
0
 10
1.61897
 20
5.34581
 30
0.0
 40
0.0138889
 41
0.0138889
  0
VERTEX
  8
0
 10
1.65935
 20
5.34581
 30
0.0
 40
0.0138889
 41
0.0138889
  0
VERTEX
  8
0
 10
2.08832
 20
5.34663
 30
0.0
 40
0.0138889
 41
0.0138889
  0
VERTEX
  8
0
 10
2.11133
 20
5.34451
 30
0.0
 40
0.0138889
 41
0.0138889
  0
VERTEX
  8
0
 10
2.12592
 20
5.33649
 30
0.0
 40
0.0138889
 41
0.0138889
  0
VERTEX
  8
0
 10
2.13379
 20
5.32183
 30
0.0
 40
0.0138889
 41
0.0138889
  0
VERTEX
  8
0
 10
2.13667
 20
5.29947
 30
0.0
 40
0.0138889
 41
0.0138889
  0
VERTEX
  8
0
 10
2.13075
 20
5.15267
 30
0.0
 40
0.0138889
 41
0.0138889
  0
VERTEX
  8
0
 10
2.10331
 20
5.01617
 30
0.0
 40
0.0138889
 41
0.0138889
  0
VERTEX
  8
0
 10
2.05496
 20
4.891
 30
0.0
 40
0.0138889
 41
0.0138889
  0
VERTEX
  8
0
 10
1.98654
 20
4.77821
 30
0.0
 40
0.0138889
 41
0.0138889
  0
VERTEX
  8
0
 10
1.89876
 20
4.67888
 30
0.0
 40
0.0138889
 41
0.0138889
  0
VERTEX
  8
0
 10
1.79243
 20
4.59403
 30
0.0
 40
0.0138889
 41
0.0138889
  0
VERTEX
  8
0
 10
1.66824
 20
4.52474
 30
0.0
 40
0.0138889
 41
0.0138889
  0
VERTEX
  8
0
 10
1.52701
 20
4.472
 30
0.0
 40
0.0138889
 41
0.0138889
  0
VERTEX
  8
0
 10
1.34267
 20
4.43056
 30
0.0
 40
0.0138889
 41
0.0138889
  0
VERTEX
  8
0
 10
1.15533
 20
4.41114
 30
0.0
 40
0.0138889
 41
0.0138889
  0
SEQEND
 8
0
  0
POLYLINE
  8
0
 62
     250
 66
     1
 10
0
 20
0
 30
0.0
 40
1
 41
1
  0
VERTEX
  8
0
 10
1.07259
 20
4.40853
 30
0.0
 40
0.0138889
 41
0.0138889
  0
VERTEX
  8
0
 10
1.06679
 20
4.40847
 30
0.0
 40
0.0138889
 41
0.0138889
  0
VERTEX
  8
0
 10
0.524468
 20
4.40793
 30
0.0
 40
0.0138889
 41
0.0138889
  0
VERTEX
  8
0
 10
0.493164
 20
4.40961
 30
0.0
 40
0.0138889
 41
0.0138889
  0
VERTEX
  8
0
 10
0.493164
 20
6.03504
 30
0.0
 40
0.0138889
 41
0.0138889
  0
VERTEX
  8
0
 10
1.06679
 20
6.03504
 30
0.0
 40
0.0138889
 41
0.0138889
  0
SEQEND
 8
0
  0
POLYLINE
  8
0
 62
     250
 66
     1
 10
0
 20
0
 30
0.0
 70
     1
 40
1
 41
1
  0
VERTEX
  8
0
 10
4.37543
 20
5.42393
 30
0.0
 40
0.0138889
 41
0.0138889
  0
VERTEX
  8
0
 10
4.37543
 20
4.40663
 30
0.0
 40
0.0138889
 41
0.0138889
  0
VERTEX
  8
0
 10
4.33003
 20
4.40663
 30
0.0
 40
0.0138889
 41
0.0138889
  0
VERTEX
  8
0
 10
3.78581
 20
4.40701
 30
0.0
 40
0.0138889
 41
0.0138889
  0
VERTEX
  8
0
 10
3.52621
 20
4.43989
 30
0.0
 40
0.0138889
 41
0.0138889
  0
VERTEX
  8
0
 10
3.30783
 20
4.53674
 30
0.0
 40
0.0138889
 41
0.0138889
  0
VERTEX
  8
0
 10
3.1301
 20
4.69661
 30
0.0
 40
0.0138889
 41
0.0138889
  0
VERTEX
  8
0
 10
2.9924
 20
4.9184
 30
0.0
 40
0.0138889
 41
0.0138889
  0
VERTEX
  8
0
 10
2.89936
 20
5.18604
 30
0.0
 40
0.0138889
 41
0.0138889
  0
VERTEX
  8
0
 10
2.85194
 20
5.46522
 30
0.0
 40
0.0138889
 41
0.0138889
  0
VERTEX
  8
0
 10
2.83621
 20
5.73861
 30
0.0
 40
0.0138889
 41
0.0138889
  0
VERTEX
  8
0
 10
2.84939
 20
6.01226
 30
0.0
 40
0.0138889
 41
0.0138889
  0
VERTEX
  8
0
 10
2.85292
 20
6.03461
 30
0.0
 40
0.0138889
 41
0.0138889
  0
VERTEX
  8
0
 10
4.37483
 20
6.03461
 30
0.0
 40
0.0138889
 41
0.0138889
  0
VERTEX
  8
0
 10
4.37483
 20
5.6416
 30
0.0
 40
0.0138889
 41
0.0138889
  0
VERTEX
  8
0
 10
3.49337
 20
5.6416
 30
0.0
 40
0.0138889
 41
0.0138889
  0
VERTEX
  8
0
 10
3.48708
 20
5.62337
 30
0.0
 40
0.0138889
 41
0.0138889
  0
VERTEX
  8
0
 10
3.50108
 20
5.27083
 30
0.0
 40
0.0138889
 41
0.0138889
  0
VERTEX
  8
0
 10
3.56928
 20
4.92475
 30
0.0
 40
0.0138889
 41
0.0138889
  0
VERTEX
  8
0
 10
3.62088
 20
4.79178
 30
0.0
 40
0.0138889
 41
0.0138889
  0
VERTEX
  8
0
 10
3.7015
 20
4.6741
 30
0.0
 40
0.0138889
 41
0.0138889
  0
VERTEX
  8
0
 10
3.74701
 20
4.63357
 30
0.0
 40
0.0138889
 41
0.0138889
  0
VERTEX
  8
0
 10
3.80149
 20
4.5906
 30
0.0
 40
0.0138889
 41
0.0138889
  0
VERTEX
  8
0
 10
3.80149
 20
4.99387
 30
0.0
 40
0.0138889
 41
0.0138889
  0
VERTEX
  8
0
 10
3.70947
 20
4.99387
 30
0.0
 40
0.0138889
 41
0.0138889
  0
VERTEX
  8
0
 10
3.70947
 20
5.42393
 30
0.0
 40
0.0138889
 41
0.0138889
  0
VERTEX
  8
0
 10
4.37543
 20
5.42393
 30
0.0
 40
0.0138889
 41
0.0138889
  0
SEQEND
 8
0
  0
POLYLINE
  8
0
 62
     250
 66
     1
 10
0
 20
0
 30
0.0
 70
     1
 40
1
 41
1
  0
VERTEX
  8
0
 10
2.20019
 20
6.03407
 30
0.0
 40
0.0138889
 41
0.0138889
  0
VERTEX
  8
0
 10
2.76942
 20
6.03407
 30
0.0
 40
0.0138889
 41
0.0138889
  0
VERTEX
  8
0
 10
2.76942
 20
4.40896
 30
0.0
 40
0.0138889
 41
0.0138889
  0
VERTEX
  8
0
 10
2.20019
 20
4.40896
 30
0.0
 40
0.0138889
 41
0.0138889
  0
VERTEX
  8
0
 10
2.20019
 20
6.03407
 30
0.0
 40
0.0138889
 41
0.0138889
  0
SEQEND
 8
0
  0
POLYLINE
  8
0
 62
     250
 66
     1
 10
0
 20
0
 30
0.0
 40
1
 41
1
  0
VERTEX
  8
0
 10
2.73313
 20
4.00667
 30
0.0
 40
0.0138889
 41
0.0138889
  0
VERTEX
  8
0
 10
2.73313
 20
3.85542
 30
0.0
 40
0.0138889
 41
0.0138889
  0
VERTEX
  8
0
 10
2.84065
 20
3.86431
 30
0.0
 40
0.0138889
 41
0.0138889
  0
VERTEX
  8
0
 10
2.93951
 20
3.8941
 30
0.0
 40
0.0138889
 41
0.0138889
  0
VERTEX
  8
0
 10
3.01318
 20
3.94239
 30
0.0
 40
0.0138889
 41
0.0138889
  0
VERTEX
  8
0
 10
3.04531
 20
4.00667
 30
0.0
 40
0.0138889
 41
0.0138889
  0
VERTEX
  8
0
 10
2.82639
 20
4.00667
 30
0.0
 40
0.0138889
 41
0.0138889
  0
SEQEND
 8
0
  0
POLYLINE
  8
0
 62
     250
 66
     1
 10
0
 20
0
 30
0.0
 40
1
 41
1
  0
VERTEX
  8
0
 10
2.82525
 20
4.27257
 30
0.0
 40
0.0138889
 41
0.0138889
  0
VERTEX
  8
0
 10
3.44006
 20
4.27257
 30
0.0
 40
0.0138889
 41
0.0138889
  0
VERTEX
  8
0
 10
3.42312
 20
4.12104
 30
0.0
 40
0.0138889
 41
0.0138889
  0
VERTEX
  8
0
 10
3.36447
 20
3.98931
 30
0.0
 40
0.0138889
 41
0.0138889
  0
VERTEX
  8
0
 10
3.26639
 20
3.88108
 30
0.0
 40
0.0138889
 41
0.0138889
  0
VERTEX
  8
0
 10
3.13135
 20
3.80018
 30
0.0
 40
0.0138889
 41
0.0138889
  0
VERTEX
  8
0
 10
3.25651
 20
3.69971
 30
0.0
 40
0.0138889
 41
0.0138889
  0
VERTEX
  8
0
 10
3.35069
 20
3.58197
 30
0.0
 40
0.0138889
 41
0.0138889
  0
VERTEX
  8
0
 10
3.40821
 20
3.44353
 30
0.0
 40
0.0138889
 41
0.0138889
  0
VERTEX
  8
0
 10
3.42361
 20
3.28076
 30
0.0
 40
0.0138889
 41
0.0138889
  0
VERTEX
  8
0
 10
3.07596
 20
3.28076
 30
0.0
 40
0.0138889
 41
0.0138889
  0
VERTEX
  8
0
 10
3.05908
 20
3.36231
 30
0.0
 40
0.0138889
 41
0.0138889
  0
VERTEX
  8
0
 10
3.03922
 20
3.44249
 30
0.0
 40
0.0138889
 41
0.0138889
  0
VERTEX
  8
0
 10
3.01058
 20
3.51764
 30
0.0
 40
0.0138889
 41
0.0138889
  0
VERTEX
  8
0
 10
2.97125
 20
3.5849
 30
0.0
 40
0.0138889
 41
0.0138889
  0
VERTEX
  8
0
 10
2.91868
 20
3.64187
 30
0.0
 40
0.0138889
 41
0.0138889
  0
VERTEX
  8
0
 10
2.85032
 20
3.68599
 30
0.0
 40
0.0138889
 41
0.0138889
  0
VERTEX
  8
0
 10
2.79471
 20
3.70628
 30
0.0
 40
0.0138889
 41
0.0138889
  0
VERTEX
  8
0
 10
2.73193
 20
3.72478
 30
0.0
 40
0.0138889
 41
0.0138889
  0
VERTEX
  8
0
 10
2.73193
 20
3.28108
 30
0.0
 40
0.0138889
 41
0.0138889
  0
VERTEX
  8
0
 10
2.39258
 20
3.28108
 30
0.0
 40
0.0138889
 41
0.0138889
  0
VERTEX
  8
0
 10
2.39258
 20
4.27257
 30
0.0
 40
0.0138889
 41
0.0138889
  0
VERTEX
  8
0
 10
2.7335
 20
4.27257
 30
0.0
 40
0.0138889
 41
0.0138889
  0
SEQEND
 8
0
  0
POLYLINE
  8
0
 62
     250
 66
     1
 10
0
 20
0
 30
0.0
 40
1
 41
1
  0
VERTEX
  8
0
 10
3.82731
 20
3.93631
 30
0.0
 40
0.0138889
 41
0.0138889
  0
VERTEX
  8
0
 10
3.81222
 20
3.93631
 30
0.0
 40
0.0138889
 41
0.0138889
  0
VERTEX
  8
0
 10
3.73503
 20
3.93631
 30
0.0
 40
0.0138889
 41
0.0138889
  0
VERTEX
  8
0
 10
3.73503
 20
3.62011
 30
0.0
 40
0.0138889
 41
0.0138889
  0
VERTEX
  8
0
 10
3.82731
 20
3.62011
 30
0.0
 40
0.0138889
 41
0.0138889
  0
SEQEND
 8
0
  0
POLYLINE
  8
0
 62
     250
 66
     1
 10
0
 20
0
 30
0.0
 40
1
 41
1
  0
VERTEX
  8
0
 10
3.93147
 20
3.62011
 30
0.0
 40
0.0138889
 41
0.0138889
  0
VERTEX
  8
0
 10
4.04844
 20
3.62011
 30
0.0
 40
0.0138889
 41
0.0138889
  0
VERTEX
  8
0
 10
4.0471
 20
3.91536
 30
0.0
 40
0.0138889
 41
0.0138889
  0
VERTEX
  8
0
 10
4.03646
 20
3.92794
 30
0.0
 40
0.0138889
 41
0.0138889
  0
VERTEX
  8
0
 10
4.01822
 20
3.93533
 30
0.0
 40
0.0138889
 41
0.0138889
  0
VERTEX
  8
0
 10
3.93147
 20
3.93647
 30
0.0
 40
0.0138889
 41
0.0138889
  0
SEQEND
 8
0
  0
POLYLINE
  8
0
 62
     250
 66
     1
 10
0
 20
0
 30
0.0
 40
1
 41
1
  0
VERTEX
  8
0
 10
3.93147
 20
4.30007
 30
0.0
 40
0.0138889
 41
0.0138889
  0
VERTEX
  8
0
 10
4.03103
 20
4.28228
 30
0.0
 40
0.0138889
 41
0.0138889
  0
VERTEX
  8
0
 10
4.12283
 20
4.24707
 30
0.0
 40
0.0138889
 41
0.0138889
  0
VERTEX
  8
0
 10
4.20503
 20
4.19613
 30
0.0
 40
0.0138889
 41
0.0138889
  0
VERTEX
  8
0
 10
4.27599
 20
4.1314
 30
0.0
 40
0.0138889
 41
0.0138889
  0
VERTEX
  8
0
 10
4.33388
 20
4.05458
 30
0.0
 40
0.0138889
 41
0.0138889
  0
VERTEX
  8
0
 10
4.37701
 20
3.9675
 30
0.0
 40
0.0138889
 41
0.0138889
  0
VERTEX
  8
0
 10
4.4036
 20
3.87196
 30
0.0
 40
0.0138889
 41
0.0138889
  0
VERTEX
  8
0
 10
4.41189
 20
3.76969
 30
0.0
 40
0.0138889
 41
0.0138889
  0
VERTEX
  8
0
 10
4.40115
 20
3.66938
 30
0.0
 40
0.0138889
 41
0.0138889
  0
VERTEX
  8
0
 10
4.37283
 20
3.57585
 30
0.0
 40
0.0138889
 41
0.0138889
  0
VERTEX
  8
0
 10
4.32872
 20
3.49089
 30
0.0
 40
0.0138889
 41
0.0138889
  0
VERTEX
  8
0
 10
4.27051
 20
3.41618
 30
0.0
 40
0.0138889
 41
0.0138889
  0
VERTEX
  8
0
 10
4.19993
 20
3.35335
 30
0.0
 40
0.0138889
 41
0.0138889
  0
VERTEX
  8
0
 10
4.11876
 20
3.30419
 30
0.0
 40
0.0138889
 41
0.0138889
  0
VERTEX
  8
0
 10
4.02869
 20
3.2704
 30
0.0
 40
0.0138889
 41
0.0138889
  0
VERTEX
  8
0
 10
3.93147
 20
3.25358
 30
0.0
 40
0.0138889
 41
0.0138889
  0
SEQEND
 8
0
  0
POLYLINE
  8
0
 62
     250
 66
     1
 10
0
 20
0
 30
0.0
 40
1
 41
1
  0
VERTEX
  8
0
 10
3.82725
 20
3.25586
 30
0.0
 40
0.0138889
 41
0.0138889
  0
VERTEX
  8
0
 10
3.73199
 20
3.27664
 30
0.0
 40
0.0138889
 41
0.0138889
  0
VERTEX
  8
0
 10
3.64415
 20
3.31392
 30
0.0
 40
0.0138889
 41
0.0138889
  0
VERTEX
  8
0
 10
3.56538
 20
3.36594
 30
0.0
 40
0.0138889
 41
0.0138889
  0
VERTEX
  8
0
 10
3.49744
 20
3.43093
 30
0.0
 40
0.0138889
 41
0.0138889
  0
VERTEX
  8
0
 10
3.442
 20
3.50717
 30
0.0
 40
0.0138889
 41
0.0138889
  0
VERTEX
  8
0
 10
3.40076
 20
3.59289
 30
0.0
 40
0.0138889
 41
0.0138889
  0
VERTEX
  8
0
 10
3.37549
 20
3.68631
 30
0.0
 40
0.0138889
 41
0.0138889
  0
VERTEX
  8
0
 10
3.36778
 20
3.78569
 30
0.0
 40
0.0138889
 41
0.0138889
  0
VERTEX
  8
0
 10
3.37836
 20
3.88232
 30
0.0
 40
0.0138889
 41
0.0138889
  0
VERTEX
  8
0
 10
3.40582
 20
3.97299
 30
0.0
 40
0.0138889
 41
0.0138889
  0
VERTEX
  8
0
 10
3.44829
 20
4.05604
 30
0.0
 40
0.0138889
 41
0.0138889
  0
VERTEX
  8
0
 10
3.50418
 20
4.12983
 30
0.0
 40
0.0138889
 41
0.0138889
  0
VERTEX
  8
0
 10
3.57172
 20
4.1926
 30
0.0
 40
0.0138889
 41
0.0138889
  0
VERTEX
  8
0
 10
3.64925
 20
4.24278
 30
0.0
 40
0.0138889
 41
0.0138889
  0
VERTEX
  8
0
 10
3.73497
 20
4.2786
 30
0.0
 40
0.0138889
 41
0.0138889
  0
VERTEX
  8
0
 10
3.82731
 20
4.29839
 30
0.0
 40
0.0138889
 41
0.0138889
  0
SEQEND
 8
0
  0
POLYLINE
  8
0
 62
     250
 66
     1
 10
0
 20
0
 30
0.0
 70
     1
 40
1
 41
1
  0
VERTEX
  8
0
 10
0.829969
 20
3.28011
 30
0.0
 40
0.0138889
 41
0.0138889
  0
VERTEX
  8
0
 10
0.492458
 20
3.28011
 30
0.0
 40
0.0138889
 41
0.0138889
  0
VERTEX
  8
0
 10
0.492458
 20
4.27376
 30
0.0
 40
0.0138889
 41
0.0138889
  0
VERTEX
  8
0
 10
0.826822
 20
4.27376
 30
0.0
 40
0.0138889
 41
0.0138889
  0
VERTEX
  8
0
 10
0.829861
 20
4.22771
 30
0.0
 40
0.0138889
 41
0.0138889
  0
VERTEX
  8
0
 10
0.829428
 20
3.93761
 30
0.0
 40
0.0138889
 41
0.0138889
  0
VERTEX
  8
0
 10
0.830838
 20
3.91835
 30
0.0
 40
0.0138889
 41
0.0138889
  0
VERTEX
  8
0
 10
0.83686
 20
3.90517
 30
0.0
 40
0.0138889
 41
0.0138889
  0
VERTEX
  8
0
 10
0.849067
 20
3.89779
 30
0.0
 40
0.0138889
 41
0.0138889
  0
VERTEX
  8
0
 10
0.86914
 20
3.89594
 30
0.0
 40
0.0138889
 41
0.0138889
  0
VERTEX
  8
0
 10
1.06907
 20
3.8966
 30
0.0
 40
0.0138889
 41
0.0138889
  0
VERTEX
  8
0
 10
1.06907
 20
4.27333
 30
0.0
 40
0.0138889
 41
0.0138889
  0
VERTEX
  8
0
 10
1.40869
 20
4.27333
 30
0.0
 40
0.0138889
 41
0.0138889
  0
VERTEX
  8
0
 10
1.40869
 20
3.28131
 30
0.0
 40
0.0138889
 41
0.0138889
  0
VERTEX
  8
0
 10
1.07129
 20
3.28131
 30
0.0
 40
0.0138889
 41
0.0138889
  0
VERTEX
  8
0
 10
1.07129
 20
3.66997
 30
0.0
 40
0.0138889
 41
0.0138889
  0
VERTEX
  8
0
 10
0.849664
 20
3.66846
 30
0.0
 40
0.0138889
 41
0.0138889
  0
VERTEX
  8
0
 10
0.837728
 20
3.65576
 30
0.0
 40
0.0138889
 41
0.0138889
  0
VERTEX
  8
0
 10
0.830838
 20
3.63428
 30
0.0
 40
0.0138889
 41
0.0138889
  0
VERTEX
  8
0
 10
0.829969
 20
3.32835
 30
0.0
 40
0.0138889
 41
0.0138889
  0
VERTEX
  8
0
 10
0.829969
 20
3.28011
 30
0.0
 40
0.0138889
 41
0.0138889
  0
SEQEND
 8
0
  0
POLYLINE
  8
0
 62
     250
 66
     1
 10
0
 20
0
 30
0.0
 70
     1
 40
1
 41
1
  0
VERTEX
  8
0
 10
1.85319
 20
3.9834
 30
0.0
 40
0.0138889
 41
0.0138889
  0
VERTEX
  8
0
 10
1.84685
 20
3.87517
 30
0.0
 40
0.0138889
 41
0.0138889
  0
VERTEX
  8
0
 10
1.86014
 20
3.7774
 30
0.0
 40
0.0138889
 41
0.0138889
  0
VERTEX
  8
0
 10
1.89264
 20
3.69069
 30
0.0
 40
0.0138889
 41
0.0138889
  0
VERTEX
  8
0
 10
1.94396
 20
3.6154
 30
0.0
 40
0.0138889
 41
0.0138889
  0
VERTEX
  8
0
 10
2.01361
 20
3.55197
 30
0.0
 40
0.0138889
 41
0.0138889
  0
VERTEX
  8
0
 10
2.10124
 20
3.50082
 30
0.0
 40
0.0138889
 41
0.0138889
  0
VERTEX
  8
0
 10
2.20632
 20
3.46235
 30
0.0
 40
0.0138889
 41
0.0138889
  0
VERTEX
  8
0
 10
2.32856
 20
3.43707
 30
0.0
 40
0.0138889
 41
0.0138889
  0
VERTEX
  8
0
 10
2.32856
 20
3.27414
 30
0.0
 40
0.0138889
 41
0.0138889
  0
VERTEX
  8
0
 10
2.18961
 20
3.26704
 30
0.0
 40
0.0138889
 41
0.0138889
  0
VERTEX
  8
0
 10
2.05474
 20
3.27875
 30
0.0
 40
0.0138889
 41
0.0138889
  0
VERTEX
  8
0
 10
1.92686
 20
3.31093
 30
0.0
 40
0.0138889
 41
0.0138889
  0
VERTEX
  8
0
 10
1.80871
 20
3.36535
 30
0.0
 40
0.0138889
 41
0.0138889
  0
VERTEX
  8
0
 10
1.70324
 20
3.44368
 30
0.0
 40
0.0138889
 41
0.0138889
  0
VERTEX
  8
0
 10
1.61322
 20
3.54758
 30
0.0
 40
0.0138889
 41
0.0138889
  0
VERTEX
  8
0
 10
1.54161
 20
3.67887
 30
0.0
 40
0.0138889
 41
0.0138889
  0
VERTEX
  8
0
 10
1.49126
 20
3.83914
 30
0.0
 40
0.0138889
 41
0.0138889
  0
VERTEX
  8
0
 10
1.46311
 20
4.04144
 30
0.0
 40
0.0138889
 41
0.0138889
  0
VERTEX
  8
0
 10
1.46664
 20
4.24576
 30
0.0
 40
0.0138889
 41
0.0138889
  0
VERTEX
  8
0
 10
1.47413
 20
4.26899
 30
0.0
 40
0.0138889
 41
0.0138889
  0
VERTEX
  8
0
 10
1.49729
 20
4.27642
 30
0.0
 40
0.0138889
 41
0.0138889
  0
VERTEX
  8
0
 10
2.31185
 20
4.27576
 30
0.0
 40
0.0138889
 41
0.0138889
  0
VERTEX
  8
0
 10
2.32921
 20
4.27203
 30
0.0
 40
0.0138889
 41
0.0138889
  0
VERTEX
  8
0
 10
2.32921
 20
3.9834
 30
0.0
 40
0.0138889
 41
0.0138889
  0
VERTEX
  8
0
 10
1.85319
 20
3.9834
 30
0.0
 40
0.0138889
 41
0.0138889
  0
SEQEND
 8
0
  0
POLYLINE
  8
0
 62
     250
 66
     1
 10
0
 20
0
 30
0.0
 70
     1
 40
1
 41
1
  0
VERTEX
  8
0
 10
1.91379
 20
3.89638
 30
0.0
 40
0.0138889
 41
0.0138889
  0
VERTEX
  8
0
 10
2.30664
 20
3.89524
 30
0.0
 40
0.0138889
 41
0.0138889
  0
VERTEX
  8
0
 10
2.32178
 20
3.88601
 30
0.0
 40
0.0138889
 41
0.0138889
  0
VERTEX
  8
0
 10
2.33083
 20
3.87007
 30
0.0
 40
0.0138889
 41
0.0138889
  0
VERTEX
  8
0
 10
2.33089
 20
3.69542
 30
0.0
 40
0.0138889
 41
0.0138889
  0
VERTEX
  8
0
 10
2.32264
 20
3.6805
 30
0.0
 40
0.0138889
 41
0.0138889
  0
VERTEX
  8
0
 10
2.30875
 20
3.67176
 30
0.0
 40
0.0138889
 41
0.0138889
  0
VERTEX
  8
0
 10
1.91379
 20
3.67074
 30
0.0
 40
0.0138889
 41
0.0138889
  0
VERTEX
  8
0
 10
1.91379
 20
3.89638
 30
0.0
 40
0.0138889
 41
0.0138889
  0
SEQEND
 8
0
  0
POLYLINE
  8
0
 62
     250
 66
     1
 10
0
 20
0
 30
0.0
 40
1
 41
1
  0
VERTEX
  8
0
 10
3.78896
 20
4.29232
 30
0.0
 40
0.0138889
 41
0.0138889
  0
VERTEX
  8
0
 10
3.7901
 20
4.29253
 30
0.0
 40
0.0138889
 41
0.0138889
  0
SEQEND
 8
0
  0
POLYLINE
  8
0
 62
     250
 66
     1
 10
0
 20
0
 30
0.0
 40
1
 41
1
  0
VERTEX
  8
0
 10
3.82731
 20
3.93647
 30
0.0
 40
0.0138889
 41
0.0138889
  0
VERTEX
  8
0
 10
3.82731
 20
4.29839
 30
0.0
 40
0.0138889
 41
0.0138889
  0
SEQEND
 8
0
  0
POLYLINE
  8
0
 62
     250
 66
     1
 10
0
 20
0
 30
0.0
 40
1
 41
1
  0
VERTEX
  8
0
 10
3.93147
 20
3.93647
 30
0.0
 40
0.0138889
 41
0.0138889
  0
VERTEX
  8
0
 10
3.93147
 20
4.30013
 30
0.0
 40
0.0138889
 41
0.0138889
  0
SEQEND
 8
0
  0
POLYLINE
  8
0
 62
     250
 66
     1
 10
0
 20
0
 30
0.0
 40
1
 41
1
  0
VERTEX
  8
0
 10
3.82731
 20
3.25651
 30
0.0
 40
0.0138889
 41
0.0138889
  0
VERTEX
  8
0
 10
3.82731
 20
3.62011
 30
0.0
 40
0.0138889
 41
0.0138889
  0
SEQEND
 8
0
  0
POLYLINE
  8
0
 62
     250
 66
     1
 10
0
 20
0
 30
0.0
 40
1
 41
1
  0
VERTEX
  8
0
 10
3.93147
 20
3.25358
 30
0.0
 40
0.0138889
 41
0.0138889
  0
VERTEX
  8
0
 10
3.93147
 20
3.62011
 30
0.0
 40
0.0138889
 41
0.0138889
  0
SEQEND
 8
0
  0
POLYLINE
  8
0
 62
     250
 66
     1
 10
0
 20
0
 30
0.0
 40
1
 41
1
  0
VERTEX
  8
0
 10
2.73313
 20
4.00667
 30
0.0
 40
0.0138889
 41
0.0138889
  0
VERTEX
  8
0
 10
2.7335
 20
4.27257
 30
0.0
 40
0.0138889
 41
0.0138889
  0
SEQEND
 8
0
  0
POLYLINE
  8
0
 62
     250
 66
     1
 10
0
 20
0
 30
0.0
 40
1
 41
1
  0
VERTEX
  8
0
 10
2.82639
 20
4.00667
 30
0.0
 40
0.0138889
 41
0.0138889
  0
VERTEX
  8
0
 10
2.82525
 20
4.27257
 30
0.0
 40
0.0138889
 41
0.0138889
  0
SEQEND
 8
0
  0
POLYLINE
  8
0
 62
     250
 66
     1
 10
0
 20
0
 30
0.0
 40
1
 41
1
  0
VERTEX
  8
0
 10
2.24821
 20
1.07265
 30
0.0
 40
0.0138889
 41
0.0138889
  0
VERTEX
  8
0
 10
2.24864
 20
0.768392
 30
0.0
 40
0.0138889
 41
0.0138889
  0
SEQEND
 8
0
  0
POLYLINE
  8
0
 62
     250
 66
     1
 10
0
 20
0
 30
0.0
 40
1
 41
1
  0
VERTEX
  8
0
 10
2.24864
 20
0.768392
 30
0.0
 40
0.0138889
 41
0.0138889
  0
VERTEX
  8
0
 10
2.46392
 20
0.768392
 30
0.0
 40
0.0138889
 41
0.0138889
  0
SEQEND
 8
0
  0
POLYLINE
  8
0
 62
     250
 66
     1
 10
0
 20
0
 30
0.0
 40
1
 41
1
  0
VERTEX
  8
0
 10
2.46392
 20
0.768392
 30
0.0
 40
0.0138889
 41
0.0138889
  0
VERTEX
  8
0
 10
2.46099
 20
0.358996
 30
0.0
 40
0.0138889
 41
0.0138889
  0
SEQEND
 8
0
  0
POLYLINE
  8
0
 62
     250
 66
     1
 10
0
 20
0
 30
0.0
 40
1
 41
1
  0
VERTEX
  8
0
 10
2.35628
 20
1.07265
 30
0.0
 40
0.0138889
 41
0.0138889
  0
VERTEX
  8
0
 10
2.35628
 20
0.865614
 30
0.0
 40
0.0138889
 41
0.0138889
  0
SEQEND
 8
0
  0
POLYLINE
  8
0
 62
     250
 66
     1
 10
0
 20
0
 30
0.0
 40
1
 41
1
  0
VERTEX
  8
0
 10
2.35628
 20
0.865614
 30
0.0
 40
0.0138889
 41
0.0138889
  0
VERTEX
  8
0
 10
2.57156
 20
0.865614
 30
0.0
 40
0.0138889
 41
0.0138889
  0
SEQEND
 8
0
  0
POLYLINE
  8
0
 62
     250
 66
     1
 10
0
 20
0
 30
0.0
 40
1
 41
1
  0
VERTEX
  8
0
 10
2.57156
 20
0.865614
 30
0.0
 40
0.0138889
 41
0.0138889
  0
VERTEX
  8
0
 10
2.57351
 20
0.358996
 30
0.0
 40
0.0138889
 41
0.0138889
  0
SEQEND
 8
0
  0
POLYLINE
  8
0
 62
     250
 66
     1
 10
0
 20
0
 30
0.0
 40
1
 41
1
  0
VERTEX
  8
0
 10
2.55354
 20
2.12907
 30
0.0
 40
0.0138889
 41
0.0138889
  0
VERTEX
  8
0
 10
2.55479
 20
1.82568
 30
0.0
 40
0.0138889
 41
0.0138889
  0
SEQEND
 8
0
  0
POLYLINE
  8
0
 62
     250
 66
     1
 10
0
 20
0
 30
0.0
 40
1
 41
1
  0
VERTEX
  8
0
 10
2.55479
 20
1.82568
 30
0.0
 40
0.0138889
 41
0.0138889
  0
VERTEX
  8
0
 10
2.33951
 20
1.82568
 30
0.0
 40
0.0138889
 41
0.0138889
  0
SEQEND
 8
0
  0
POLYLINE
  8
0
 62
     250
 66
     1
 10
0
 20
0
 30
0.0
 40
1
 41
1
  0
VERTEX
  8
0
 10
2.33951
 20
1.82568
 30
0.0
 40
0.0138889
 41
0.0138889
  0
VERTEX
  8
0
 10
2.34239
 20
1.41629
 30
0.0
 40
0.0138889
 41
0.0138889
  0
SEQEND
 8
0
  0
POLYLINE
  8
0
 62
     250
 66
     1
 10
0
 20
0
 30
0.0
 40
1
 41
1
  0
VERTEX
  8
0
 10
2.44824
 20
2.12907
 30
0.0
 40
0.0138889
 41
0.0138889
  0
VERTEX
  8
0
 10
2.4471
 20
1.92296
 30
0.0
 40
0.0138889
 41
0.0138889
  0
SEQEND
 8
0
  0
POLYLINE
  8
0
 62
     250
 66
     1
 10
0
 20
0
 30
0.0
 40
1
 41
1
  0
VERTEX
  8
0
 10
2.44715
 20
1.9229
 30
0.0
 40
0.0138889
 41
0.0138889
  0
VERTEX
  8
0
 10
2.23188
 20
1.9229
 30
0.0
 40
0.0138889
 41
0.0138889
  0
SEQEND
 8
0
  0
POLYLINE
  8
0
 62
     250
 66
     1
 10
0
 20
0
 30
0.0
 40
1
 41
1
  0
VERTEX
  8
0
 10
2.23188
 20
1.9229
 30
0.0
 40
0.0138889
 41
0.0138889
  0
VERTEX
  8
0
 10
2.22987
 20
1.41629
 30
0.0
 40
0.0138889
 41
0.0138889
  0
SEQEND
 8
0
  0
POLYLINE
  8
0
 62
     250
 66
     1
 10
0
 20
0
 30
0.0
 40
1
 41
1
  0
VERTEX
  8
0
 10
1.06679
 20
5.63699
 30
0.0
 40
0.0138889
 41
0.0138889
  0
VERTEX
  8
0
 10
1.06679
 20
5.40701
 30
0.0
 40
0.0138889
 41
0.0138889
  0
SEQEND
 8
0
  0
POLYLINE
  8
0
 62
     250
 66
     1
 10
0
 20
0
 30
0.0
 40
1
 41
1
  0
VERTEX
  8
0
 10
1.06679
 20
5.63699
 30
0.0
 40
0.0138889
 41
0.0138889
  0
VERTEX
  8
0
 10
1.06679
 20
6.03504
 30
0.0
 40
0.0138889
 41
0.0138889
  0
SEQEND
 8
0
  0
POLYLINE
  8
0
 62
     250
 66
     1
 10
0
 20
0
 30
0.0
 40
1
 41
1
  0
VERTEX
  8
0
 10
1.20177
 20
5.63699
 30
0.0
 40
0.0138889
 41
0.0138889
  0
VERTEX
  8
0
 10
1.20177
 20
6.03504
 30
0.0
 40
0.0138889
 41
0.0138889
  0
SEQEND
 8
0
  0
POLYLINE
  8
0
 62
     250
 66
     1
 10
0
 20
0
 30
0.0
 40
1
 41
1
  0
VERTEX
  8
0
 10
1.06679
 20
4.60525
 30
0.0
 40
0.0138889
 41
0.0138889
  0
VERTEX
  8
0
 10
1.06679
 20
4.40847
 30
0.0
 40
0.0138889
 41
0.0138889
  0
SEQEND
 8
0
  0
POLYLINE
  8
0
 62
     250
 66
     1
 10
0
 20
0
 30
0.0
 40
1
 41
1
  0
VERTEX
  8
0
 10
1.15533
 20
4.60021
 30
0.0
 40
0.0138889
 41
0.0138889
  0
VERTEX
  8
0
 10
1.15533
 20
4.41114
 30
0.0
 40
0.0138889
 41
0.0138889
  0
SEQEND
 8
0
  0
ENDSEC
  0
EOF
