  0
SECTION
  2
HEADER
  9
$ACADVER
  1
AC1024
  9
$ACADMAINTVER
 70
     6
  9
$DWGCODEPAGE
  3
UNDEFINED
  9
$INSBASE
 10
0.0
 20
0.0
 30
0.0
  9
$EXTMIN
 10
1.000000000000000E+20
 20
1.000000000000000E+20
 30
1.000000000000000E+20
  9
$EXTMAX
 10
-1.000000000000000E+20
 20
-1.000000000000000E+20
 30
-1.000000000000000E+20
  9
$LIMMIN
 10
0.0
 20
0.0
  9
$LIMMAX
 10
12.0
 20
9.0
  9
$ORTHOMODE
 70
     0
  9
$REGENMODE
 70
     1
  9
$FILLMODE
 70
     1
  9
$QTEXTMODE
 70
     0
  9
$MIRRTEXT
 70
     1
  9
$LTSCALE
 40
1.0
  9
$ATTMODE
 70
     1
  9
$TEXTSIZE
 40
0.2
  9
$TRACEWID
 40
0.05
  9
$TEXTSTYLE
  7
Standard
  9
$CLAYER
  8
0
  9
$CELTYPE
  6
ByLayer
  9
$CECOLOR
 62
   256
  9
$CELTSCALE
 40
1.0
  9
$DISPSILH
 70
     0
  9
$DIMSCALE
 40
1.0
  9
$DIMASZ
 40
0.18
  9
$DIMEXO
 40
0.0625
  9
$DIMDLI
 40
0.38
  9
$DIMRND
 40
0.0
  9
$DIMDLE
 40
0.0
  9
$DIMEXE
 40
0.18
  9
$DIMTP
 40
0.0
  9
$DIMTM
 40
0.0
  9
$DIMTXT
 40
0.18
  9
$DIMCEN
 40
0.09
  9
$DIMTSZ
 40
0.0
  9
$DIMTOL
 70
     0
  9
$DIMLIM
 70
     0
  9
$DIMTIH
 70
     1
  9
$DIMTOH
 70
     1
  9
$DIMSE1
 70
     0
  9
$DIMSE2
 70
     0
  9
$DIMTAD
 70
     0
  9
$DIMZIN
 70
     0
  9
$DIMBLK
  1

  9
$DIMASO
 70
     1
  9
$DIMSHO
 70
     1
  9
$DIMPOST
  1

  9
$DIMAPOST
  1

  9
$DIMALT
 70
     0
  9
$DIMALTD
 70
     2
  9
$DIMALTF
 40
25.4
  9
$DIMLFAC
 40
1.0
  9
$DIMTOFL
 70
     0
  9
$DIMTVP
 40
0.0
  9
$DIMTIX
 70
     0
  9
$DIMSOXD
 70
     0
  9
$DIMSAH
 70
     0
  9
$DIMBLK1
  1

  9
$DIMBLK2
  1

  9
$DIMSTYLE
  2
Standard
  9
$DIMCLRD
 70
     0
  9
$DIMCLRE
 70
     0
  9
$DIMCLRT
 70
     0
  9
$DIMTFAC
 40
1.0
  9
$DIMGAP
 40
0.09
  9
$DIMJUST
 70
     0
  9
$DIMSD1
 70
     0
  9
$DIMSD2
 70
     0
  9
$DIMTOLJ
 70
     1
  9
$DIMTZIN
 70
     0
  9
$DIMALTZ
 70
     0
  9
$DIMALTTZ
 70
     0
  9
$DIMUPT
 70
     0
  9
$DIMDEC
 70
     4
  9
$DIMTDEC
 70
     4
  9
$DIMALTU
 70
     2
  9
$DIMALTTD
 70
     2
  9
$DIMTXSTY
  7
Standard
  9
$DIMAUNIT
 70
     0
  9
$DIMADEC
 70
     0
  9
$DIMALTRND
 40
0.0
  9
$DIMAZIN
 70
     0
  9
$DIMDSEP
 70
    46
  9
$DIMATFIT
 70
     3
  9
$DIMFRAC
 70
     0
  9
$DIMLDRBLK
  1

  9
$DIMLUNIT
 70
     2
  9
$DIMLWD
 70
    -2
  9
$DIMLWE
 70
    -2
  9
$DIMTMOVE
 70
     0
  9
$DIMFXL
 40
1.0
  9
$DIMFXLON
 70
     0
  9
$DIMJOGANG
 40
0.7853981633974483
  9
$DIMTFILL
 70
     0
  9
$DIMTFILLCLR
 70
     0
  9
$DIMARCSYM
 70
     0
  9
$DIMLTYPE
  6

  9
$DIMLTEX1
  6

  9
$DIMLTEX2
  6

  9
$DIMTXTDIRECTION
 70
     0
  9
$LUNITS
 70
     2
  9
$LUPREC
 70
     4
  9
$SKETCHINC
 40
0.1
  9
$FILLETRAD
 40
0.5
  9
$AUNITS
 70
     0
  9
$AUPREC
 70
     0
  9
$MENU
  1
.
  9
$ELEVATION
 40
0.0
  9
$PELEVATION
 40
0.0
  9
$THICKNESS
 40
0.0
  9
$LIMCHECK
 70
     0
  9
$CHAMFERA
 40
0.5
  9
$CHAMFERB
 40
0.5
  9
$CHAMFERC
 40
1.0
  9
$CHAMFERD
 40
0.0
  9
$SKPOLY
 70
     0
  9
$TDCREATE
 40
2457493.778865729
  9
$TDUCREATE
 40
2457493.987199074
  9
$TDUPDATE
 40
2457493.778865729
  9
$TDUUPDATE
 40
2457493.987199074
  9
$TDINDWG
 40
0.0000000116
  9
$TDUSRTIMER
 40
0.0000000116
  9
$USRTIMER
 70
     1
  9
$ANGBASE
 50
0.0
  9
$ANGDIR
 70
     0
  9
$PDMODE
 70
     0
  9
$PDSIZE
 40
0.0
  9
$PLINEWID
 40
0.0
  9
$SPLFRAME
 70
     0
  9
$SPLINETYPE
 70
     6
  9
$SPLINESEGS
 70
     8
  9
$HANDSEED
  5
5B
  9
$SURFTAB1
 70
     6
  9
$SURFTAB2
 70
     6
  9
$SURFTYPE
 70
     6
  9
$SURFU
 70
     6
  9
$SURFV
 70
     6
  9
$UCSBASE
  2

  9
$UCSNAME
  2

  9
$UCSORG
 10
0.0
 20
0.0
 30
0.0
  9
$UCSXDIR
 10
1.0
 20
0.0
 30
0.0
  9
$UCSYDIR
 10
0.0
 20
1.0
 30
0.0
  9
$UCSORTHOREF
  2

  9
$UCSORTHOVIEW
 70
     0
  9
$UCSORGTOP
 10
0.0
 20
0.0
 30
0.0
  9
$UCSORGBOTTOM
 10
0.0
 20
0.0
 30
0.0
  9
$UCSORGLEFT
 10
0.0
 20
0.0
 30
0.0
  9
$UCSORGRIGHT
 10
0.0
 20
0.0
 30
0.0
  9
$UCSORGFRONT
 10
0.0
 20
0.0
 30
0.0
  9
$UCSORGBACK
 10
0.0
 20
0.0
 30
0.0
  9
$PUCSBASE
  2

  9
$PUCSNAME
  2

  9
$PUCSORG
 10
0.0
 20
0.0
 30
0.0
  9
$PUCSXDIR
 10
1.0
 20
0.0
 30
0.0
  9
$PUCSYDIR
 10
0.0
 20
1.0
 30
0.0
  9
$PUCSORTHOREF
  2

  9
$PUCSORTHOVIEW
 70
     0
  9
$PUCSORGTOP
 10
0.0
 20
0.0
 30
0.0
  9
$PUCSORGBOTTOM
 10
0.0
 20
0.0
 30
0.0
  9
$PUCSORGLEFT
 10
0.0
 20
0.0
 30
0.0
  9
$PUCSORGRIGHT
 10
0.0
 20
0.0
 30
0.0
  9
$PUCSORGFRONT
 10
0.0
 20
0.0
 30
0.0
  9
$PUCSORGBACK
 10
0.0
 20
0.0
 30
0.0
  9
$USERI1
 70
     0
  9
$USERI2
 70
     0
  9
$USERI3
 70
     0
  9
$USERI4
 70
     0
  9
$USERI5
 70
     0
  9
$USERR1
 40
0.0
  9
$USERR2
 40
0.0
  9
$USERR3
 40
0.0
  9
$USERR4
 40
0.0
  9
$USERR5
 40
0.0
  9
$WORLDVIEW
 70
     1
  9
$SHADEDGE
 70
     3
  9
$SHADEDIF
 70
    70
  9
$TILEMODE
 70
     1
  9
$MAXACTVP
 70
    64
  9
$PINSBASE
 10
0.0
 20
0.0
 30
0.0
  9
$PLIMCHECK
 70
     0
  9
$PEXTMIN
 10
1.000000000000000E+20
 20
1.000000000000000E+20
 30
1.000000000000000E+20
  9
$PEXTMAX
 10
-1.000000000000000E+20
 20
-1.000000000000000E+20
 30
-1.000000000000000E+20
  9
$PLIMMIN
 10
0.0
 20
0.0
  9
$PLIMMAX
 10
12.0
 20
9.0
  9
$UNITMODE
 70
     0
  9
$VISRETAIN
 70
     1
  9
$PLINEGEN
 70
     0
  9
$PSLTSCALE
 70
     1
  9
$TREEDEPTH
 70
  3020
  9
$CMLSTYLE
  2
Standard
  9
$CMLJUST
 70
     0
  9
$CMLSCALE
 40
1.0
  9
$PROXYGRAPHICS
 70
     1
  9
$MEASUREMENT
 70
     0
  9
$CELWEIGHT
370
    -1
  9
$ENDCAPS
280
     0
  9
$JOINSTYLE
280
     0
  9
$LWDISPLAY
290
     1
  9
$INSUNITS
 70
     1
  9
$HYPERLINKBASE
  1

  9
$STYLESHEET
  1

  9
$XEDIT
290
     1
  9
$CEPSNTYPE
380
     0
  9
$PSTYLEMODE
290
     1
  9
$FINGERPRINTGUID
  2
{6970984A-8F04-F809-CFF4-5931FF457789}
  9
$VERSIONGUID
  2
{FAEB1C32-E019-11D5-929B-00C0DF256EC4}
  9
$EXTNAMES
290
     1
  9
$PSVPSCALE
 40
0.0
  9
$OLESTARTUP
290
     0
  9
$SORTENTS
280
   127
  9
$INDEXCTL
280
     0
  9
$HIDETEXT
280
     1
  9
$XCLIPFRAME
280
     2
  9
$HALOGAP
280
     0
  9
$OBSCOLOR
 70
   257
  9
$OBSLTYPE
280
     0
  9
$INTERSECTIONDISPLAY
280
     0
  9
$INTERSECTIONCOLOR
 70
   257
  9
$DIMASSOC
280
     2
  9
$PROJECTNAME
  1

  9
$CAMERADISPLAY
290
     0
  9
$LENSLENGTH
 40
50.0
  9
$CAMERAHEIGHT
 40
0.0
  9
$STEPSPERSEC
 40
2.0
  9
$STEPSIZE
 40
6.0
  9
$3DDWFPREC
 40
2.0
  9
$PSOLWIDTH
 40
0.25
  9
$PSOLHEIGHT
 40
4.0
  9
$LOFTANG1
 40
1.570796326794897
  9
$LOFTANG2
 40
1.570796326794897
  9
$LOFTMAG1
 40
0.0
  9
$LOFTMAG2
 40
0.0
  9
$LOFTPARAM
 70
     7
  9
$LOFTNORMALS
280
     1
  9
$LATITUDE
 40
37.795
  9
$LONGITUDE
 40
-122.394
  9
$NORTHDIRECTION
 40
0.0
  9
$TIMEZONE
 70
 -8000
  9
$LIGHTGLYPHDISPLAY
280
     1
  9
$TILEMODELIGHTSYNCH
280
     1
  9
$CMATERIAL
347
3C
  9
$SOLIDHIST
280
     1
  9
$SHOWHIST
280
     1
  9
$DWFFRAME
280
     2
  9
$DGNFRAME
280
     2
  9
$REALWORLDSCALE
290
     1
  9
$INTERFERECOLOR
 62
   256
  9
$CSHADOW
280
     0
  9
$SHADOWPLANELOCATION
 40
0.0
  0
ENDSEC
  0
SECTION
  2
CLASSES
  0
CLASS
  1
ACDBDICTIONARYWDFLT
  2
AcDbDictionaryWithDefault
  3
ObjectDBX Classes
 90
        0
 91
        4
280
     0
281
     0
  0
CLASS
  1
VISUALSTYLE
  2
AcDbVisualStyle
  3
ObjectDBX Classes
 90
     4095
 91
        4
280
     0
281
     0
  0
CLASS
  1
MATERIAL
  2
AcDbMaterial
  3
ObjectDBX Classes
 90
     1153
 91
        4
280
     0
281
     0
  0
CLASS
  1
SUN
  2
AcDbSun
  3
SCENEOE
 90
     1024
 91
        4
280
     0
281
     0
  0
ENDSEC
  0
SECTION
  2
TABLES
  0
TABLE
  2
VPORT
  5
8
330
0
100
AcDbSymbolTable
 70
     1
  0
VPORT
  5
29
330
8
100
AcDbSymbolTableRecord
100
AcDbViewportTableRecord
  2
*Active
 70
     0
 10
0.0
 20
0.0
 11
1.0
 21
1.0
 12
0.0
 22
0.0
 13
0.0
 23
0.0
 14
0.5
 24
0.5
 15
0.5
 25
0.5
 16
0.0
 26
0.0
 36
1.0
 17
8.397094728596914
 27
-5.501256187190645
 37
0.0
 40
7.207972934686595
 41
0.6531791907514478
 42
50.0
 43
0.0
 44
0.0
 50
0.0
 51
0.0
 71
     0
 72
   100
 73
     1
 74
     3
 75
     0
 76
     0
 77
     0
 78
     0
281
     0
 65
     1
110
0.0
120
0.0
130
0.0
111
1.0
121
0.0
131
0.0
112
0.0
122
1.0
132
0.0
 79
     0
146
0.0
 60
     3
 61
     5
292
     1
282
     1
141
0.0
142
0.0
 63
   250
361
3F
  0
ENDTAB
  0
TABLE
  2
LTYPE
  5
5
330
0
100
AcDbSymbolTable
 70
     1
  0
LTYPE
  5
14
330
5
100
AcDbSymbolTableRecord
100
AcDbLinetypeTableRecord
  2
ByBlock
 70
     0
  3

 72
    65
 73
     0
 40
0.0
  0
LTYPE
  5
15
330
5
100
AcDbSymbolTableRecord
100
AcDbLinetypeTableRecord
  2
ByLayer
 70
     0
  3

 72
    65
 73
     0
 40
0.0
  0
LTYPE
  5
16
330
5
100
AcDbSymbolTableRecord
100
AcDbLinetypeTableRecord
  2
Continuous
 70
     0
  3
Solid line
 72
    65
 73
     0
 40
0.0
  0
ENDTAB
  0
TABLE
  2
LAYER
  5
2
330
0
100
AcDbSymbolTable
 70
     2
  0
LAYER
  5
10
330
2
100
AcDbSymbolTableRecord
100
AcDbLayerTableRecord
  2
0
 70
     0
 62
     7
  6
Continuous
370
    -3
390
F
347
3E
  0
LAYER
  5
40
330
2
100
AcDbSymbolTableRecord
100
AcDbLayerTableRecord
  2
Layer 1
 70
     0
 62
     7
  6
Continuous
370
    -3
390
F
347
3E
  0
ENDTAB
  0
TABLE
  2
STYLE
  5
3
330
0
100
AcDbSymbolTable
 70
     1
  0
STYLE
  5
11
330
3
100
AcDbSymbolTableRecord
100
AcDbTextStyleTableRecord
  2
Standard
 70
     0
 40
0.0
 41
1.0
 50
0.0
 71
     0
 42
0.2
  3
txt
  4

  0
ENDTAB
  0
TABLE
  2
VIEW
  5
6
330
0
100
AcDbSymbolTable
 70
     0
  0
ENDTAB
  0
TABLE
  2
UCS
  5
7
330
0
100
AcDbSymbolTable
 70
     0
  0
ENDTAB
  0
TABLE
  2
APPID
  5
9
330
0
100
AcDbSymbolTable
 70
     1
  0
APPID
  5
12
330
9
100
AcDbSymbolTableRecord
100
AcDbRegAppTableRecord
  2
ACAD
 70
     0
  0
ENDTAB
  0
TABLE
  2
DIMSTYLE
  5
A
330
0
100
AcDbSymbolTable
 70
     1
100
AcDbDimStyleTable
  0
DIMSTYLE
105
27
330
A
100
AcDbSymbolTableRecord
100
AcDbDimStyleTableRecord
  2
Standard
 70
     0
178
     0
340
11
  0
ENDTAB
  0
TABLE
  2
BLOCK_RECORD
  5
1
330
0
100
AcDbSymbolTable
 70
     1
  0
BLOCK_RECORD
  5
1F
330
1
100
AcDbSymbolTableRecord
100
AcDbBlockTableRecord
  2
*Model_Space
340
22
 70
     0
280
     1
281
     0
  0
BLOCK_RECORD
  5
1B
330
1
100
AcDbSymbolTableRecord
100
AcDbBlockTableRecord
  2
*Paper_Space
340
1E
 70
     0
280
     1
281
     0
  0
BLOCK_RECORD
  5
23
330
1
100
AcDbSymbolTableRecord
100
AcDbBlockTableRecord
  2
*Paper_Space0
340
26
 70
     0
280
     1
281
     0
  0
ENDTAB
  0
ENDSEC
  0
SECTION
  2
BLOCKS
  0
BLOCK
  5
20
330
1F
100
AcDbEntity
  8
0
100
AcDbBlockBegin
  2
*Model_Space
 70
     0
 10
0.0
 20
0.0
 30
0.0
  3
*Model_Space
  1

  0
ENDBLK
  5
21
330
1F
100
AcDbEntity
  8
0
100
AcDbBlockEnd
  0
BLOCK
  5
1C
330
1B
100
AcDbEntity
 67
     1
  8
0
100
AcDbBlockBegin
  2
*Paper_Space
 70
     0
 10
0.0
 20
0.0
 30
0.0
  3
*Paper_Space
  1

  0
ENDBLK
  5
1D
330
1B
100
AcDbEntity
 67
     1
  8
0
100
AcDbBlockEnd
  0
BLOCK
  5
24
330
23
100
AcDbEntity
  8
0
100
AcDbBlockBegin
  2
*Paper_Space0
 70
     0
 10
0.0
 20
0.0
 30
0.0
  3
*Paper_Space0
  1

  0
ENDBLK
  5
25
330
23
100
AcDbEntity
  8
0
100
AcDbBlockEnd
  0
ENDSEC
  0
SECTION
  2
ENTITIES
  0
SPLINE
  5
41
330
1F
100
AcDbEntity
  8
Layer 1
 62
   179
420
  2301728
370
    35
100
AcDbSpline
210
0.0
220
0.0
230
1.0
 70
    11
 71
     3
 72
    80
 73
    76
 74
     0
 42
0.0000000001
 43
0.0000000001
 12
1.0
 22
0.0
 32
0.0
 13
1.0
 23
0.0
 33
0.0
 40
0.0
 40
0.0
 40
0.0
 40
0.0
 40
1.0
 40
1.0
 40
1.0
 40
2.0
 40
2.0
 40
2.0
 40
3.0
 40
3.0
 40
3.0
 40
4.0
 40
4.0
 40
4.0
 40
5.0
 40
5.0
 40
5.0
 40
6.0
 40
6.0
 40
6.0
 40
7.0
 40
7.0
 40
7.0
 40
8.0
 40
8.0
 40
8.0
 40
9.0
 40
9.0
 40
9.0
 40
10.0
 40
10.0
 40
10.0
 40
11.0
 40
11.0
 40
11.0
 40
12.0
 40
12.0
 40
12.0
 40
13.0
 40
13.0
 40
13.0
 40
14.0
 40
14.0
 40
14.0
 40
15.0
 40
15.0
 40
15.0
 40
16.0
 40
16.0
 40
16.0
 40
17.0
 40
17.0
 40
17.0
 40
18.0
 40
18.0
 40
18.0
 40
19.0
 40
19.0
 40
19.0
 40
20.0
 40
20.0
 40
20.0
 40
21.0
 40
21.0
 40
21.0
 40
22.0
 40
22.0
 40
22.0
 40
23.0
 40
23.0
 40
23.0
 40
24.0
 40
24.0
 40
24.0
 40
25.0
 40
25.0
 40
25.0
 40
25.0
 10
10.42036469796234
 20
-5.987674426701333
 30
0.0
 10
10.42036469796234
 20
-6.093165720502535
 30
0.0
 10
10.42036615330908
 20
-6.191064470344119
 30
0.0
 10
10.42036421284676
 20
-6.288963220185703
 30
0.0
 10
10.42036227238443
 20
-6.389638771613439
 30
0.0
 10
10.41932800596555
 20
-6.490331787202093
 30
0.0
 10
10.42098419055939
 20
-6.590980172157288
 30
0.0
 10
10.42147609775861
 20
-6.62087008357048
 30
0.0
 10
10.41209735822943
 20
-6.630146463712056
 30
0.0
 10
10.38253732541138
 20
-6.629075328509012
 30
0.0
 10
10.3256507319106
 20
-6.627014072404967
 30
0.0
 10
10.26863703812758
 20
-6.628473785188462
 30
0.0
 10
10.21167573682732
 20
-6.628474270304044
 30
0.0
 10
9.322815921759608
 20
-6.628474755419624
 30
0.0
 10
8.433956349249684
 20
-6.62834814025296
 30
0.0
 10
7.54509701929755
 20
-6.628895350628428
 30
0.0
 10
7.505648633032378
 20
-6.628919606407483
 30
0.0
 10
7.465674624035096
 20
-6.632170851031939
 30
0.0
 10
7.426906612372401
 20
-6.639211333460278
 30
0.0
 10
7.388397894987797
 20
-6.646204759677251
 30
0.0
 10
7.36168330761062
 20
-6.671163956324259
 30
0.0
 10
7.360972370726535
 20
-6.712736906276809
 30
0.0
 10
7.359502955631418
 20
-6.798658152421315
 30
0.0
 10
7.360529945316582
 20
-6.884622088736958
 30
0.0
 10
7.360529945316582
 20
-6.976462230086327
 30
0.0
 10
7.376481273296147
 20
-6.976462230086327
 30
0.0
 10
7.390472006654742
 20
-6.976465140779813
 30
0.0
 10
7.404462497455547
 20
-6.976461744970745
 30
0.0
 10
8.282723022192057
 20
-6.976244413190417
 30
0.0
 10
9.160983789486357
 20
-6.975851469569736
 30
0.0
 10
10.03924382910729
 20
-6.976366662316852
 30
0.0
 10
10.07990864269204
 20
-6.976390432980325
 30
0.0
 10
10.12159025853475
 20
-6.980253408352533
 30
0.0
 10
10.16105101524724
 20
-6.989658829238679
 30
0.0
 10
10.32304323566225
 20
-7.028269178337521
 30
0.0
 10
10.41761894377338
 20
-7.14010093278355
 30
0.0
 10
10.41905779658689
 20
-7.307420692510075
 30
0.0
 10
10.42222414598465
 20
-7.675651070144441
 30
0.0
 10
10.42243371591568
 20
-8.043947423497835
 30
0.0
 10
10.41912571276824
 20
-8.412174405323134
 30
0.0
 10
10.4174312040435
 20
-8.6008586552408
 30
0.0
 10
10.29024699680276
 20
-8.728297548161612
 30
0.0
 10
10.10108684850004
 20
-8.743402592009968
 30
0.0
 10
10.07603305431472
 20
-8.745403693781958
 30
0.0
 10
10.05081432083183
 20
-8.746131852269173
 30
0.0
 10
10.02567223561075
 20
-8.74613524807824
 30
0.0
 10
8.991097768335875
 20
-8.746274961365593
 30
0.0
 10
7.956523301060997
 20
-8.746440385778744
 30
0.0
 10
6.921949804017281
 20
-8.745672447813881
 30
0.0
 10
6.877332753793401
 20
-8.745639459954367
 30
0.0
 10
6.831529595973759
 20
-8.741731853948698
 30
0.0
 10
6.78832132139736
 20
-8.73122861650255
 30
0.0
 10
6.625827976587086
 20
-8.69172808031241
 30
0.0
 10
6.53640443850491
 20
-8.57609447505739
 30
0.0
 10
6.533700889371503
 20
-8.401999591125382
 30
0.0
 10
6.531561772216693
 20
-8.264272366960842
 30
0.0
 10
6.533713502376612
 20
-8.126480137308437
 30
0.0
 10
6.533669114300942
 20
-7.988717014590899
 30
0.0
 10
6.533495928038493
 20
-7.450899932119581
 30
0.0
 10
6.532956479512323
 20
-6.913082849648263
 30
0.0
 10
6.533432863012952
 20
-6.375266252292526
 30
0.0
 10
6.533471187143858
 20
-6.33182318177488
 30
0.0
 10
6.535634802635514
 20
-6.287418127059937
 30
0.0
 10
6.544629573182267
 20
-6.245122840007146
 30
0.0
 10
6.575349274796912
 20
-6.1006723990043
 30
0.0
 10
6.689733464872839
 20
-6.006508068905936
 30
0.0
 10
6.847649259059962
 20
-5.991747457120153
 30
0.0
 10
6.873987154188423
 20
-5.989285495546128
 30
0.0
 10
6.90052297647397
 20
-5.987787458631727
 30
0.0
 10
6.926967597030271
 20
-5.987783577707078
 30
0.0
 10
8.071490357507603
 20
-5.987609906329049
 30
0.0
 10
9.216012875427142
 20
-5.98765502207809
 30
0.0
 10
10.36053587846226
 20
-5.987673941585753
 30
0.0
 10
10.37879271824095
 20
-5.987673941585753
 30
0.0
 10
10.39705004313522
 20
-5.987674426701333
 30
0.0
 10
10.42036469796234
 20
-5.987674426701333
 30
0.0
  0
SPLINE
  5
42
330
1F
100
AcDbEntity
  8
Layer 1
 62
   179
420
  2301728
370
    35
100
AcDbSpline
210
0.0
220
0.0
230
1.0
 70
    11
 71
     3
 72
    17
 73
    13
 74
     0
 42
0.0000000001
 43
0.0000000001
 12
1.0
 22
0.0
 32
0.0
 13
1.0
 23
0.0
 33
0.0
 40
0.0
 40
0.0
 40
0.0
 40
0.0
 40
1.0
 40
1.0
 40
1.0
 40
2.0
 40
2.0
 40
2.0
 40
3.0
 40
3.0
 40
3.0
 40
4.0
 40
4.0
 40
4.0
 40
4.0
 10
9.598042365765574
 20
-7.688962641689512
 30
0.0
 10
8.850125606049435
 20
-7.688962641689512
 30
0.0
 10
8.104218437627953
 20
-7.688962641689512
 30
0.0
 10
7.358008799641665
 20
-7.688962641689512
 30
0.0
 10
7.358008799641665
 20
-7.805644096599685
 30
0.0
 10
7.358008799641665
 20
-7.918873954150412
 30
0.0
 10
7.358008799641665
 20
-8.032557879885037
 30
0.0
 10
8.10616884482172
 20
-8.032557879885037
 30
0.0
 10
8.851320930841236
 20
-8.032557879885037
 30
0.0
 10
9.598042365765574
 20
-8.032557879885037
 30
0.0
 10
9.598042365765574
 20
-7.916737020015717
 30
0.0
 10
9.598042365765574
 20
-7.803494064344299
 30
0.0
 10
9.598042365765574
 20
-7.688962641689512
 30
0.0
  0
SPLINE
  5
43
330
1F
100
AcDbEntity
  8
Layer 1
 62
   179
420
  2301728
370
    35
100
AcDbSpline
210
0.0
220
0.0
230
1.0
 70
    11
 71
     3
 72
    35
 73
    31
 74
     0
 42
0.0000000001
 43
0.0000000001
 12
1.0
 22
0.0
 32
0.0
 13
1.0
 23
0.0
 33
0.0
 40
0.0
 40
0.0
 40
0.0
 40
0.0
 40
1.0
 40
1.0
 40
1.0
 40
2.0
 40
2.0
 40
2.0
 40
3.0
 40
3.0
 40
3.0
 40
4.0
 40
4.0
 40
4.0
 40
5.0
 40
5.0
 40
5.0
 40
6.0
 40
6.0
 40
6.0
 40
7.0
 40
7.0
 40
7.0
 40
8.0
 40
8.0
 40
8.0
 40
9.0
 40
9.0
 40
9.0
 40
10.0
 40
10.0
 40
10.0
 40
10.0
 10
8.175305334418352
 20
-3.070169189737903
 30
0.0
 10
8.222239539215302
 20
-3.394045449793339
 30
0.0
 10
8.014460654910408
 20
-3.669776171445847
 30
0.0
 10
7.662032189656631
 20
-3.759405398534404
 30
0.0
 10
7.675487355413704
 20
-3.759405398534404
 30
0.0
 10
7.688942763728568
 20
-3.759404428303242
 30
0.0
 10
7.702398172043432
 20
-3.759405398534404
 30
0.0
 10
7.845385747011505
 20
-3.759416798750559
 30
0.0
 10
7.98839224148724
 20
-3.760701142251492
 30
0.0
 10
8.131348041384753
 20
-3.758572697639465
 30
0.0
 10
8.168460596126982
 20
-3.758020393550396
 30
0.0
 10
8.178506369580166
 20
-3.770567422939671
 30
0.0
 10
8.17970678808557
 20
-3.805740243030919
 30
0.0
 10
8.193506385905215
 20
-4.210092569390932
 30
0.0
 10
7.968898114418986
 20
-4.515728968713018
 30
0.0
 10
7.570048211537469
 20
-4.633246762884988
 30
0.0
 10
7.421728731217652
 20
-4.676947429776192
 30
0.0
 10
7.269545062736673
 20
-4.694907621377044
 30
0.0
 10
7.115622740013072
 20
-4.696669318609767
 30
0.0
 10
6.932939854949053
 20
-4.698760409322049
 30
0.0
 10
6.750216462734013
 20
-4.69730748815669
 30
0.0
 10
6.567510534679892
 20
-4.697289053764607
 30
0.0
 10
6.558326326498722
 20
-4.697288083533445
 30
0.0
 10
6.549141875759763
 20
-4.696319792833592
 30
0.0
 10
6.536214515754914
 20
-4.695590664115216
 30
0.0
 10
6.536214515754914
 20
-4.154408577415678
 30
0.0
 10
6.536214515754914
 20
-3.613916325072447
 30
0.0
 10
6.536214515754914
 20
-3.070169189737903
 30
0.0
 10
7.081343260264399
 20
-3.070169189737903
 30
0.0
 10
7.627184882120294
 20
-3.070169189737903
 30
0.0
 10
8.175305334418352
 20
-3.070169189737903
 30
0.0
  0
SPLINE
  5
44
330
1F
100
AcDbEntity
  8
Layer 1
 62
   179
420
  2301728
370
    35
100
AcDbSpline
210
0.0
220
0.0
230
1.0
 70
    11
 71
     3
 72
    29
 73
    25
 74
     0
 42
0.0000000001
 43
0.0000000001
 12
1.0
 22
0.0
 32
0.0
 13
1.0
 23
0.0
 33
0.0
 40
0.0
 40
0.0
 40
0.0
 40
0.0
 40
1.0
 40
1.0
 40
1.0
 40
2.0
 40
2.0
 40
2.0
 40
3.0
 40
3.0
 40
3.0
 40
4.0
 40
4.0
 40
4.0
 40
5.0
 40
5.0
 40
5.0
 40
6.0
 40
6.0
 40
6.0
 40
7.0
 40
7.0
 40
7.0
 40
8.0
 40
8.0
 40
8.0
 40
8.0
 10
7.174115308645039
 20
-4.162236887547705
 30
0.0
 10
7.174115308645039
 20
-4.048318408429623
 30
0.0
 10
7.174114823529457
 20
-3.942571458717187
 30
0.0
 10
7.174115308645039
 20
-3.836824751562542
 30
0.0
 10
7.17411555120283
 20
-3.762614438103305
 30
0.0
 10
7.174379211521151
 20
-3.763932739694913
 30
0.0
 10
7.245633473187025
 20
-3.74971109131972
 30
0.0
 10
7.367880174043446
 20
-3.725311718053288
 30
0.0
 10
7.483074507139791
 20
-3.684569771091143
 30
0.0
 10
7.574587438029716
 20
-3.594813686278131
 30
0.0
 10
7.610577435317307
 20
-3.559514857414696
 30
0.0
 10
7.638788361704352
 20
-3.51889940434032
 30
0.0
 10
7.654084298533866
 20
-3.468241209785143
 30
0.0
 10
7.47042245022721
 20
-3.468241209785143
 30
0.0
 10
7.290889420631199
 20
-3.468241209785143
 30
0.0
 10
7.109852532733814
 20
-3.468241209785143
 30
0.0
 10
7.109852532733814
 20
-3.813704628083441
 30
0.0
 10
7.109852532733814
 20
-4.157031597362624
 30
0.0
 10
7.109852532733814
 20
-4.49994985676474
 30
0.0
 10
7.364785621751682
 20
-4.538646798994805
 30
0.0
 10
7.638051228578888
 20
-4.361787483923965
 30
0.0
 10
7.626452842708431
 20
-4.162236887547705
 30
0.0
 10
7.477809790296027
 20
-4.162236887547705
 30
0.0
 10
7.328758998237718
 20
-4.162236887547705
 30
0.0
 10
7.174115308645039
 20
-4.162236887547705
 30
0.0
  0
SPLINE
  5
45
330
1F
100
AcDbEntity
  8
Layer 1
 62
   179
420
  2301728
370
    35
100
AcDbSpline
210
0.0
220
0.0
230
1.0
 70
    11
 71
     3
 72
    59
 73
    55
 74
     0
 42
0.0000000001
 43
0.0000000001
 12
1.0
 22
0.0
 32
0.0
 13
1.0
 23
0.0
 33
0.0
 40
0.0
 40
0.0
 40
0.0
 40
0.0
 40
1.0
 40
1.0
 40
1.0
 40
2.0
 40
2.0
 40
2.0
 40
3.0
 40
3.0
 40
3.0
 40
4.0
 40
4.0
 40
4.0
 40
5.0
 40
5.0
 40
5.0
 40
6.0
 40
6.0
 40
6.0
 40
7.0
 40
7.0
 40
7.0
 40
8.0
 40
8.0
 40
8.0
 40
9.0
 40
9.0
 40
9.0
 40
10.0
 40
10.0
 40
10.0
 40
11.0
 40
11.0
 40
11.0
 40
12.0
 40
12.0
 40
12.0
 40
13.0
 40
13.0
 40
13.0
 40
14.0
 40
14.0
 40
14.0
 40
15.0
 40
15.0
 40
15.0
 40
16.0
 40
16.0
 40
16.0
 40
17.0
 40
17.0
 40
17.0
 40
18.0
 40
18.0
 40
18.0
 40
18.0
 10
10.41847808346749
 20
-3.681290874878565
 30
0.0
 10
10.41847808346749
 20
-4.019597383009063
 30
0.0
 10
10.41847808346749
 20
-4.355454542570643
 30
0.0
 10
10.41847808346749
 20
-4.698597653044595
 30
0.0
 10
10.40331676621172
 20
-4.698597653044595
 30
0.0
 10
10.38819183262454
 20
-4.698605900009473
 30
0.0
 10
10.37306738415294
 20
-4.698596440255642
 30
0.0
 10
10.19166180841393
 20
-4.698481952978505
 30
0.0
 10
10.01025526244376
 20
-4.698530221978823
 30
0.0
 10
9.828850171820324
 20
-4.698213684062162
 30
0.0
 10
9.455002640872534
 20
-4.697560961047808
 30
0.0
 10
9.192692884328633
 20
-4.523447642723719
 30
0.0
 10
9.035464984035494
 20
-4.186844617956214
 30
0.0
 10
8.95446523546113
 20
-4.013435444898075
 30
0.0
 10
8.915139825995766
 20
-3.828856728143162
 30
0.0
 10
8.89496774990294
 20
-3.640020151933034
 30
0.0
 10
8.87552043648826
 20
-3.457963914920886
 30
0.0
 10
8.873419886022146
 20
-3.275414557920562
 30
0.0
 10
8.892418467524319
 20
-3.092978717966212
 30
0.0
 10
8.893095688875519
 20
-3.086472711629338
 30
0.0
 10
8.894453042271405
 20
-3.080037410888407
 30
0.0
 10
8.895968543346726
 20
-3.070612949215703
 30
0.0
 10
9.402600940918925
 20
-3.070612949215703
 30
0.0
 10
9.908857859031361
 20
-3.070612949215703
 30
0.0
 10
10.4178775103781
 20
-3.070612949215703
 30
0.0
 10
10.4178775103781
 20
-3.201082359171576
 30
0.0
 10
10.4178775103781
 20
-3.330020137959056
 30
0.0
 10
10.4178775103781
 20
-3.463623879684342
 30
0.0
 10
10.12321151480675
 20
-3.463623879684342
 30
0.0
 10
9.82989947682222
 20
-3.463623879684342
 30
0.0
 10
9.536423954886862
 20
-3.463623879684342
 30
0.0
 10
9.53329447427326
 20
-3.472416357033782
 30
0.0
 10
9.530192160132199
 20
-3.47711458015773
 30
0.0
 10
9.53014413368967
 20
-3.481843971957763
 30
0.0
 10
9.527739415754214
 20
-3.718230000800556
 30
0.0
 10
9.542442298785847
 20
-3.952820495598846
 30
0.0
 10
9.612307674543064
 20
-4.180501489175691
 30
0.0
 10
9.640375006718108
 20
-4.271969546874364
 30
0.0
 10
9.677921982463204
 20
-4.360085455907716
 30
0.0
 10
9.744539024289452
 20
-4.431108802556992
 30
0.0
 10
9.7716288485686
 20
-4.459990643792682
 30
0.0
 10
9.805527270028328
 20
-4.482485938403341
 30
0.0
 10
9.844515524164837
 20
-4.514639399117893
 30
0.0
 10
9.844515524164837
 20
-4.37212408416801
 30
0.0
 10
9.844515524164837
 20
-4.244266779058509
 30
0.0
 10
9.844515524164837
 20
-4.111327645679315
 30
0.0
 10
9.815392095369765
 20
-4.111327645679315
 30
0.0
 10
9.785829636973807
 20
-4.111327645679315
 30
0.0
 10
9.75253809510602
 20
-4.111327645679315
 30
0.0
 10
9.75253809510602
 20
-3.965629002286328
 30
0.0
 10
9.75253809510602
 20
-3.824940147499243
 30
0.0
 10
9.75253809510602
 20
-3.681290874878565
 30
0.0
 10
9.972592344074782
 20
-3.681290874878565
 30
0.0
 10
10.1930633073277
 20
-3.681290874878565
 30
0.0
 10
10.41847808346749
 20
-3.681290874878565
 30
0.0
  0
SPLINE
  5
46
330
1F
100
AcDbEntity
  8
Layer 1
 62
   179
420
  2301728
370
    35
100
AcDbSpline
210
0.0
220
0.0
230
1.0
 70
    11
 71
     3
 72
    17
 73
    13
 74
     0
 42
0.0000000001
 43
0.0000000001
 12
1.0
 22
0.0
 32
0.0
 13
1.0
 23
0.0
 33
0.0
 40
0.0
 40
0.0
 40
0.0
 40
0.0
 40
1.0
 40
1.0
 40
1.0
 40
2.0
 40
2.0
 40
2.0
 40
3.0
 40
3.0
 40
3.0
 40
4.0
 40
4.0
 40
4.0
 40
4.0
 10
8.81245007467535
 20
-4.696275404757923
 30
0.0
 10
8.622504524246853
 20
-4.696275404757923
 30
0.0
 10
8.43393694462644
 20
-4.696275404757923
 30
0.0
 10
8.243226609484356
 20
-4.696275404757923
 30
0.0
 10
8.243226609484356
 20
-4.154233208133115
 30
0.0
 10
8.243226609484356
 20
-3.61451932373974
 30
0.0
 10
8.243226609484356
 20
-3.071162221332391
 30
0.0
 10
8.431886603622969
 20
-3.071162221332391
 30
0.0
 10
8.620317623207306
 20
-3.071162221332391
 30
0.0
 10
8.81245007467535
 20
-3.071162221332391
 30
0.0
 10
8.81245007467535
 20
-3.610774231453736
 30
0.0
 10
8.81245007467535
 20
-4.151386549903287
 30
0.0
 10
8.81245007467535
 20
-4.696275404757923
 30
0.0
  0
SPLINE
  5
47
330
1F
100
AcDbEntity
  8
Layer 1
 62
   179
420
  2301728
370
    35
100
AcDbSpline
210
0.0
220
0.0
230
1.0
 70
    11
 71
     3
 72
    35
 73
    31
 74
     0
 42
0.0000000001
 43
0.0000000001
 12
1.0
 22
0.0
 32
0.0
 13
1.0
 23
0.0
 33
0.0
 40
0.0
 40
0.0
 40
0.0
 40
0.0
 40
1.0
 40
1.0
 40
1.0
 40
2.0
 40
2.0
 40
2.0
 40
3.0
 40
3.0
 40
3.0
 40
4.0
 40
4.0
 40
4.0
 40
5.0
 40
5.0
 40
5.0
 40
6.0
 40
6.0
 40
6.0
 40
7.0
 40
7.0
 40
7.0
 40
8.0
 40
8.0
 40
8.0
 40
9.0
 40
9.0
 40
9.0
 40
10.0
 40
10.0
 40
10.0
 40
10.0
 10
9.483110722756388
 20
-4.832636300888326
 30
0.0
 10
9.489486111723055
 20
-5.046206980115837
 30
0.0
 10
9.378121038466032
 20
-5.217081181704998
 30
0.0
 10
9.174410818539728
 20
-5.305026330053806
 30
0.0
 10
9.359588653037285
 20
-5.429056558344099
 30
0.0
 10
9.476735818905302
 20
-5.589741392268075
 30
0.0
 10
9.466682768718403
 20
-5.824458744790818
 30
0.0
 10
9.34834706967672
 20
-5.824458744790818
 30
0.0
 10
9.233759373614525
 20
-5.824458744790818
 30
0.0
 10
9.119006738254761
 20
-5.824458744790818
 30
0.0
 10
9.106923479361006
 20
-5.770133561558193
 30
0.0
 10
9.098418918108942
 20
-5.715255346563127
 30
0.0
 10
9.082252441369166
 20
-5.662735278407732
 30
0.0
 10
9.050171747991776
 20
-5.558512561851077
 30
0.0
 10
8.996177898701035
 20
-5.468450126548608
 30
0.0
 10
8.893369779178833
 20
-5.419259406626225
 30
0.0
 10
8.858509858637388
 20
-5.402579677601655
 30
0.0
 10
8.819433798580702
 20
-5.394711345434189
 30
0.0
 10
8.774958402106499
 20
-5.380470292435752
 30
0.0
 10
8.774958402106499
 20
-5.534190079404248
 30
0.0
 10
8.774958402106499
 20
-5.677804423703088
 30
0.0
 10
8.774958402106499
 20
-5.824115768074989
 30
0.0
 10
8.659617806662457
 20
-5.824115768074989
 30
0.0
 10
8.549143405612313
 20
-5.824115768074989
 30
0.0
 10
8.435597252702715
 20
-5.824115768074989
 30
0.0
 10
8.435597252702715
 20
-5.494711373415258
 30
0.0
 10
8.435597252702715
 20
-5.165778268542554
 30
0.0
 10
8.435597252702715
 20
-4.832636300888326
 30
0.0
 10
8.783889865069922
 20
-4.832636300888326
 30
0.0
 10
9.132244087115925
 20
-4.832636300888326
 30
0.0
 10
9.483110722756388
 20
-4.832636300888326
 30
0.0
  0
SPLINE
  5
48
330
1F
100
AcDbEntity
  8
Layer 1
 62
   179
420
  2301728
370
    35
100
AcDbSpline
210
0.0
220
0.0
230
1.0
 70
    11
 71
     3
 72
    14
 73
    10
 74
     0
 42
0.0000000001
 43
0.0000000001
 12
1.0
 22
0.0
 32
0.0
 13
1.0
 23
0.0
 33
0.0
 40
0.0
 40
0.0
 40
0.0
 40
0.0
 40
1.0
 40
1.0
 40
1.0
 40
2.0
 40
2.0
 40
2.0
 40
3.0
 40
3.0
 40
3.0
 40
3.0
 10
8.776168280365734
 20
-5.249779184659322
 30
0.0
 10
8.918115524970164
 20
-5.253003020253446
 30
0.0
 10
9.080510391317477
 20
-5.193948202662997
 30
0.0
 10
9.088334820524853
 20
-5.098533972269959
 30
0.0
 10
8.984672412464356
 20
-5.098533972269959
 30
0.0
 10
8.880954216112034
 20
-5.098533972269959
 30
0.0
 10
8.776168280365734
 20
-5.098533972269959
 30
0.0
 10
8.776168280365734
 20
-5.1498984951112
 30
0.0
 10
8.776168280365734
 20
-5.198369060953458
 30
0.0
 10
8.776168280365734
 20
-5.249779184659322
 30
0.0
  0
SPLINE
  5
49
330
1F
100
AcDbEntity
  8
Layer 1
 62
   179
420
  2301728
370
    35
100
AcDbSpline
210
0.0
220
0.0
230
1.0
 70
    11
 71
     3
 72
    17
 73
    13
 74
     0
 42
0.0000000001
 43
0.0000000001
 12
1.0
 22
0.0
 32
0.0
 13
1.0
 23
0.0
 33
0.0
 40
0.0
 40
0.0
 40
0.0
 40
0.0
 40
1.0
 40
1.0
 40
1.0
 40
2.0
 40
2.0
 40
2.0
 40
3.0
 40
3.0
 40
3.0
 40
4.0
 40
4.0
 40
4.0
 40
4.0
 10
9.937626668336659
 20
-4.803336532579528
 30
0.0
 10
10.2298918268972
 20
-4.807624954316351
 30
0.0
 10
10.45887947929171
 20
-5.043207267920176
 30
0.0
 10
10.4549447068135
 20
-5.335553440782759
 30
0.0
 10
10.45102739849621
 20
-5.626628125707308
 30
0.0
 10
10.21685580100219
 20
-5.856453572710355
 30
0.0
 10
9.927561975375813
 20
-5.853147510025236
 30
0.0
 10
9.637852405696448
 20
-5.849837566415468
 30
0.0
 10
9.40603458900187
 20
-5.610435452726152
 30
0.0
 10
9.41083917371697
 20
-5.319519885712199
 30
0.0
 10
9.415579238059788
 20
-5.032504405412409
 30
0.0
 10
9.653706953117585
 20
-4.799170359969139
 30
0.0
 10
9.937626668336659
 20
-4.803336532579528
 30
0.0
  0
SPLINE
  5
4A
330
1F
100
AcDbEntity
  8
Layer 1
 62
   179
420
  2301728
370
    35
100
AcDbSpline
210
0.0
220
0.0
230
1.0
 70
    11
 71
     3
 72
    23
 73
    19
 74
     0
 42
0.0000000001
 43
0.0000000001
 12
1.0
 22
0.0
 32
0.0
 13
1.0
 23
0.0
 33
0.0
 40
0.0
 40
0.0
 40
0.0
 40
0.0
 40
1.0
 40
1.0
 40
1.0
 40
2.0
 40
2.0
 40
2.0
 40
3.0
 40
3.0
 40
3.0
 40
4.0
 40
4.0
 40
4.0
 40
5.0
 40
5.0
 40
5.0
 40
6.0
 40
6.0
 40
6.0
 40
6.0
 10
10.09146409583357
 20
-5.485084982381927
 30
0.0
 10
10.09146409583357
 20
-5.384628218081262
 30
0.0
 10
10.09209571632015
 20
-5.287205609182516
 30
0.0
 10
10.09016544142299
 20
-5.189834179977575
 30
0.0
 10
10.09002378767332
 20
-5.182687942352559
 30
0.0
 10
10.07152439010408
 20
-5.170154738757345
 30
0.0
 10
10.06130494527287
 20
-5.169887925187746
 30
0.0
 10
9.992672248207201
 20
-5.168095908231205
 30
0.0
 10
9.923970179613434
 20
-5.168946558402644
 30
0.0
 10
9.855290911451977
 20
-5.168941707246833
 30
0.0
 10
9.829603556317755
 20
-5.168940009342299
 30
0.0
 10
9.803916201183533
 20
-5.168941707246833
 30
0.0
 10
9.778083311374985
 20
-5.168941707246833
 30
0.0
 10
9.778083311374985
 20
-5.27846819245153
 30
0.0
 10
9.778083311374985
 20
-5.380865904192129
 30
0.0
 10
9.778083311374985
 20
-5.485084982381927
 30
0.0
 10
9.883020118067002
 20
-5.485084982381927
 30
0.0
 10
9.985219902650517
 20
-5.485084982381927
 30
0.0
 10
10.09146409583357
 20
-5.485084982381927
 30
0.0
  0
SPLINE
  5
4B
330
1F
100
AcDbEntity
  8
Layer 1
 62
   179
420
  2301728
370
    35
100
AcDbSpline
210
0.0
220
0.0
230
1.0
 70
    11
 71
     3
 72
    53
 73
    49
 74
     0
 42
0.0000000001
 43
0.0000000001
 12
1.0
 22
0.0
 32
0.0
 13
1.0
 23
0.0
 33
0.0
 40
0.0
 40
0.0
 40
0.0
 40
0.0
 40
1.0
 40
1.0
 40
1.0
 40
2.0
 40
2.0
 40
2.0
 40
3.0
 40
3.0
 40
3.0
 40
4.0
 40
4.0
 40
4.0
 40
5.0
 40
5.0
 40
5.0
 40
6.0
 40
6.0
 40
6.0
 40
7.0
 40
7.0
 40
7.0
 40
8.0
 40
8.0
 40
8.0
 40
9.0
 40
9.0
 40
9.0
 40
10.0
 40
10.0
 40
10.0
 40
11.0
 40
11.0
 40
11.0
 40
12.0
 40
12.0
 40
12.0
 40
13.0
 40
13.0
 40
13.0
 40
14.0
 40
14.0
 40
14.0
 40
15.0
 40
15.0
 40
15.0
 40
16.0
 40
16.0
 40
16.0
 40
16.0
 10
6.873032689282631
 20
-5.825099097357856
 30
0.0
 10
6.757701553592419
 20
-5.825099097357856
 30
0.0
 10
6.648150812608669
 20
-5.825099097357856
 30
0.0
 10
6.535507702353268
 20
-5.825099097357856
 30
0.0
 10
6.535507702353268
 20
-5.494029543466038
 30
0.0
 10
6.535507702353268
 20
-5.163955689304404
 30
0.0
 10
6.535507702353268
 20
-4.831470810704761
 30
0.0
 10
6.646515002869237
 20
-4.831470810704761
 30
0.0
 10
6.75586102507777
 20
-4.831470810704761
 30
0.0
 10
6.869888655201597
 20
-4.831470810704761
 30
0.0
 10
6.87095979040464
 20
-4.847145380245315
 30
0.0
 10
6.872853924191
 20
-4.86233095328013
 30
0.0
 10
6.872896856919927
 20
-4.877521620028548
 30
0.0
 10
6.873168764203127
 20
-4.974214372535546
 30
0.0
 10
6.873951983308794
 20
-5.070922406183349
 30
0.0
 10
6.87248402356042
 20
-5.167593813604778
 30
0.0
 10
6.87202922770315
 20
-5.197551641199324
 30
0.0
 10
6.879564285466408
 20
-5.210416421294212
 30
0.0
 10
6.912188308294617
 20
-5.209300412899918
 30
0.0
 10
6.976893267058004
 20
-5.20708634538783
 30
0.0
 10
7.041727266565961
 20
-5.208646234538819
 30
0.0
 10
7.112100558336579
 20
-5.208646234538819
 30
0.0
 10
7.112100558336579
 20
-5.081730296214421
 30
0.0
 10
7.112100558336579
 20
-4.95816844701767
 30
0.0
 10
7.112100558336579
 20
-4.831885099411011
 30
0.0
 10
7.228129532790186
 20
-4.831885099411011
 30
0.0
 10
7.338529468598633
 20
-4.831885099411011
 30
0.0
 10
7.451738466179373
 20
-4.831885099411011
 30
0.0
 10
7.451738466179373
 20
-5.162761092185974
 30
0.0
 10
7.451738466179373
 20
-5.491847493582301
 30
0.0
 10
7.451738466179373
 20
-5.823910564184189
 30
0.0
 10
7.3401900192327
 20
-5.823910564184189
 30
0.0
 10
7.229764372298455
 20
-5.823910564184189
 30
0.0
 10
7.114356830904221
 20
-5.823910564184189
 30
0.0
 10
7.114356830904221
 20
-5.6960811532206
 30
0.0
 10
7.114356830904221
 20
-5.568430992464224
 30
0.0
 10
7.114356830904221
 20
-5.435229654113451
 30
0.0
 10
7.037229032340317
 20
-5.435229654113451
 30
0.0
 10
6.964893448044196
 20
-5.434259908066855
 30
0.0
 10
6.89268011287451
 20
-5.436786147455374
 30
0.0
 10
6.88574587075843
 20
-5.437028705245918
 30
0.0
 10
6.874086117766965
 20
-5.458943316506015
 30
0.0
 10
6.873908322906496
 20
-5.470935131112734
 30
0.0
 10
6.872396460198034
 20
-5.572904728353024
 30
0.0
 10
6.873037055322861
 20
-5.674906343221664
 30
0.0
 10
6.873032689282631
 20
-5.776898013220893
 30
0.0
 10
6.873032204167051
 20
-5.792383872800403
 30
0.0
 10
6.873032689282631
 20
-5.807869247264332
 30
0.0
 10
6.873032689282631
 20
-5.825099097357856
 30
0.0
  0
SPLINE
  5
4C
330
1F
100
AcDbEntity
  8
Layer 1
 62
   179
420
  2301728
370
    35
100
AcDbSpline
210
0.0
220
0.0
230
1.0
 70
    11
 71
     3
 72
    32
 73
    28
 74
     0
 42
0.0000000001
 43
0.0000000001
 12
1.0
 22
0.0
 32
0.0
 13
1.0
 23
0.0
 33
0.0
 40
0.0
 40
0.0
 40
0.0
 40
0.0
 40
1.0
 40
1.0
 40
1.0
 40
2.0
 40
2.0
 40
2.0
 40
3.0
 40
3.0
 40
3.0
 40
4.0
 40
4.0
 40
4.0
 40
5.0
 40
5.0
 40
5.0
 40
6.0
 40
6.0
 40
6.0
 40
7.0
 40
7.0
 40
7.0
 40
8.0
 40
8.0
 40
8.0
 40
9.0
 40
9.0
 40
9.0
 40
9.0
 10
7.896245992206205
 20
-5.121852750579516
 30
0.0
 10
7.852796130070423
 20
-5.424282293352816
 30
0.0
 10
8.02334748724037
 20
-5.618672715293036
 30
0.0
 10
8.371616328944103
 20
-5.668155474795236
 30
0.0
 10
8.371616328944103
 20
-5.722123127844598
 30
0.0
 10
8.371616328944103
 20
-5.776666127973132
 30
0.0
 10
8.371616328944103
 20
-5.831082512935002
 30
0.0
 10
7.998300727230975
 20
-5.873619387547174
 30
0.0
 10
7.637814492175316
 20
-5.733726607428657
 30
0.0
 10
7.53433084920645
 20
-5.26607518725925
 30
0.0
 10
7.504658269573585
 20
-5.131980993681483
 30
0.0
 10
7.497160080594489
 20
-4.996316238409943
 30
0.0
 10
7.509669756084021
 20
-4.859433600472079
 30
0.0
 10
7.511579413568976
 20
-4.838536519143316
 30
0.0
 10
7.517556280085778
 20
-4.82876968714926
 30
0.0
 10
7.540327605462076
 20
-4.828816985918416
 30
0.0
 10
7.811845340850621
 20
-4.829379962550269
 30
0.0
 10
8.083364774143698
 20
-4.829231274624665
 30
0.0
 10
8.354883722321194
 20
-4.829440601997905
 30
0.0
 10
8.359918009263941
 20
-4.829444482922554
 30
0.0
 10
8.364950598302155
 20
-4.831548186639944
 30
0.0
 10
8.37224358339045
 20
-4.833176962203449
 30
0.0
 10
8.37224358339045
 20
-4.928321953448984
 30
0.0
 10
8.37224358339045
 20
-5.022895721097787
 30
0.0
 10
8.37224358339045
 20
-5.121852750579516
 30
0.0
 10
8.212244702898134
 20
-5.121852750579516
 30
0.0
 10
8.055134200575619
 20
-5.121852750579516
 30
0.0
 10
7.896245992206205
 20
-5.121852750579516
 30
0.0
  0
SPLINE
  5
4D
330
1F
100
AcDbEntity
  8
Layer 1
 62
   179
420
  2301728
370
    35
100
AcDbSpline
210
0.0
220
0.0
230
1.0
 70
    11
 71
     3
 72
    95
 73
    91
 74
     0
 42
0.0000000001
 43
0.0000000001
 12
1.0
 22
0.0
 32
0.0
 13
1.0
 23
0.0
 33
0.0
 40
0.0
 40
0.0
 40
0.0
 40
0.0
 40
1.0
 40
1.0
 40
1.0
 40
2.0
 40
2.0
 40
2.0
 40
3.0
 40
3.0
 40
3.0
 40
4.0
 40
4.0
 40
4.0
 40
5.0
 40
5.0
 40
5.0
 40
6.0
 40
6.0
 40
6.0
 40
7.0
 40
7.0
 40
7.0
 40
8.0
 40
8.0
 40
8.0
 40
9.0
 40
9.0
 40
9.0
 40
10.0
 40
10.0
 40
10.0
 40
11.0
 40
11.0
 40
11.0
 40
12.0
 40
12.0
 40
12.0
 40
13.0
 40
13.0
 40
13.0
 40
14.0
 40
14.0
 40
14.0
 40
15.0
 40
15.0
 40
15.0
 40
16.0
 40
16.0
 40
16.0
 40
17.0
 40
17.0
 40
17.0
 40
18.0
 40
18.0
 40
18.0
 40
19.0
 40
19.0
 40
19.0
 40
20.0
 40
20.0
 40
20.0
 40
21.0
 40
21.0
 40
21.0
 40
22.0
 40
22.0
 40
22.0
 40
23.0
 40
23.0
 40
23.0
 40
24.0
 40
24.0
 40
24.0
 40
25.0
 40
25.0
 40
25.0
 40
26.0
 40
26.0
 40
26.0
 40
27.0
 40
27.0
 40
27.0
 40
28.0
 40
28.0
 40
28.0
 40
29.0
 40
29.0
 40
29.0
 40
30.0
 40
30.0
 40
30.0
 40
30.0
 10
7.616749318297707
 20
-2.275469035531084
 30
0.0
 10
7.624155820431977
 20
-2.283449186839991
 30
0.0
 10
7.629122433751162
 20
-2.288800436175532
 30
0.0
 10
7.634089047070347
 20
-2.294151685511072
 30
0.0
 10
7.632685365136467
 20
-2.298223563780387
 30
0.0
 10
7.631281683202587
 20
-2.302295381410254
 30
0.0
 10
7.629878001268708
 20
-2.306367259679569
 30
0.0
 10
7.612577809415925
 20
-2.301133165756861
 30
0.0
 10
7.595277375005353
 20
-2.295899071834154
 30
0.0
 10
7.577977183152572
 20
-2.290664977911446
 30
0.0
 10
7.590114532433618
 20
-2.273721527929107
 30
0.0
 10
7.600127075469496
 20
-2.244530001034339
 30
0.0
 10
7.61476325510873
 20
-2.241991027361817
 30
0.0
 10
7.672842262707818
 20
-2.231915661858188
 30
0.0
 10
7.733108171346455
 20
-2.221847209251589
 30
0.0
 10
7.791203672875301
 20
-2.227027334065901
 30
0.0
 10
7.922076456436848
 20
-2.23869697128733
 30
0.0
 10
8.040013390470879
 20
-2.290051670538054
 30
0.0
 10
8.139748545344673
 20
-2.375593192461464
 30
0.0
 10
8.178041386295693
 20
-2.408436487532324
 30
0.0
 10
8.212204438304903
 20
-2.450111129838559
 30
0.0
 10
8.2366688170592
 20
-2.49418921665185
 30
0.0
 10
8.28179742166334
 20
-2.575497316817442
 30
0.0
 10
8.254924686606728
 20
-2.660669180668063
 30
0.0
 10
8.17653437474304
 20
-2.711091487771935
 30
0.0
 10
8.101203929407069
 20
-2.759545680963331
 30
0.0
 10
8.01816912097004
 20
-2.766538864622513
 30
0.0
 10
7.932060862769023
 20
-2.754611206551393
 30
0.0
 10
7.915209160270958
 20
-2.752277072932985
 30
0.0
 10
7.902412053799631
 20
-2.746509776347213
 30
0.0
 10
7.890402289916412
 20
-2.769136658559243
 30
0.0
 10
7.877345161493622
 20
-2.793736990955141
 30
0.0
 10
7.842634413993361
 20
-2.785577225602335
 30
0.0
 10
7.838561626132332
 20
-2.756458162847492
 30
0.0
 10
7.834400304677754
 20
-2.726706994490491
 30
0.0
 10
7.815587037327557
 20
-2.716421452661355
 30
0.0
 10
7.794898313140871
 20
-2.701159473922517
 30
0.0
 10
7.758017886204192
 20
-2.673952736788326
 30
0.0
 10
7.722518098211291
 20
-2.643752957797713
 30
0.0
 10
7.691392112297485
 20
-2.610210368616713
 30
0.0
 10
7.664831064001722
 20
-2.581586972706848
 30
0.0
 10
7.668861161691615
 20
-2.558059109581841
 30
0.0
 10
7.703023971143036
 20
-2.538796503924661
 30
0.0
 10
7.735900496631201
 20
-2.520259206700656
 30
0.0
 10
7.772398167374401
 20
-2.5066945867406
 30
0.0
 10
7.808861394911345
 20
-2.496528929099441
 30
0.0
 10
7.829738343943492
 20
-2.490708694275882
 30
0.0
 10
7.835688043987753
 20
-2.482773537437121
 30
0.0
 10
7.837538274814025
 20
-2.462512685192956
 30
0.0
 10
7.840360434707009
 20
-2.431609973725345
 30
0.0
 10
7.847685194865865
 20
-2.40111833707326
 30
0.0
 10
7.853904861731002
 20
-2.365881239167518
 30
0.0
 10
7.909769316702421
 20
-2.394322292258342
 30
0.0
 10
7.884937220337658
 20
-2.443950161958734
 30
0.0
 10
7.897043037105933
 20
-2.480835076214539
 30
0.0
 10
7.934010784847209
 20
-2.485095421887106
 30
0.0
 10
7.970892424572841
 20
-2.487211192854577
 30
0.0
 10
8.006797526633742
 20
-2.494285087618563
 30
0.0
 10
8.028301244996657
 20
-2.498521723267105
 30
0.0
 10
8.04947096128199
 20
-2.508447491253416
 30
0.0
 10
8.068642486488821
 20
-2.519531775886814
 30
0.0
 10
8.093471187044518
 20
-2.533886831046806
 30
0.0
 10
8.10967113675939
 20
-2.556714126633273
 30
0.0
 10
8.095672641551497
 20
-2.585810752792491
 30
0.0
 10
8.082296307076351
 20
-2.613613818254735
 30
0.0
 10
8.05849435364803
 20
-2.6258327882323
 30
0.0
 10
8.023242217159273
 20
-2.611118383705616
 30
0.0
 10
8.031880670311718
 20
-2.598943195409245
 30
0.0
 10
8.039592067588703
 20
-2.588075029767222
 30
0.0
 10
8.053842580340971
 20
-2.567990395757887
 30
0.0
 10
7.998833869254591
 20
-2.557783806489573
 30
0.0
 10
7.949847868107427
 20
-2.548694680962297
 30
0.0
 10
7.899018670309917
 20
-2.539263548950354
 30
0.0
 10
7.899018670309917
 20
-2.591385701050361
 30
0.0
 10
7.897942198835481
 20
-2.634771042813857
 30
0.0
 10
7.900014612597892
 20
-2.67800539235274
 30
0.0
 10
7.900386211133005
 20
-2.685758509569698
 30
0.0
 10
7.913162215076555
 20
-2.698568592882819
 30
0.0
 10
7.92122580626541
 20
-2.699418757938676
 30
0.0
 10
7.994374201717644
 20
-2.707129548821184
 30
0.0
 10
8.066869631597733
 20
-2.707432018385993
 30
0.0
 10
8.132569804975724
 20
-2.666227392438385
 30
0.0
 10
8.184586080600159
 20
-2.63360458239913
 30
0.0
 10
8.205889203670292
 20
-2.576954725301928
 30
0.0
 10
8.177408795577952
 20
-2.522181052714586
 30
0.0
 10
8.157123202439152
 20
-2.483167815125651
 30
0.0
 10
8.129668328685232
 20
-2.445068899128172
 30
0.0
 10
8.097140358742081
 20
-2.415735415286488
 30
0.0
 10
7.974972246609796
 20
-2.305564696590106
 30
0.0
 10
7.783380699014666
 20
-2.251161955503953
 30
0.0
 10
7.616749318297707
 20
-2.275469035531084
 30
0.0
  0
SPLINE
  5
4E
330
1F
100
AcDbEntity
  8
Layer 1
 62
   179
420
  2301728
370
    35
100
AcDbSpline
210
0.0
220
0.0
230
1.0
 70
    11
 71
     3
 72
    14
 73
    10
 74
     0
 42
0.0000000001
 43
0.0000000001
 12
1.0
 22
0.0
 32
0.0
 13
1.0
 23
0.0
 33
0.0
 40
0.0
 40
0.0
 40
0.0
 40
0.0
 40
1.0
 40
1.0
 40
1.0
 40
2.0
 40
2.0
 40
2.0
 40
3.0
 40
3.0
 40
3.0
 40
3.0
 10
7.687842036475078
 20
-2.571813712931342
 30
0.0
 10
7.729280366853875
 20
-2.628492191847827
 30
0.0
 10
7.772827009548084
 20
-2.655231156282955
 30
0.0
 10
7.827723416377441
 20
-2.673728613389863
 30
0.0
 10
7.829796557813223
 20
-2.628328829175896
 30
0.0
 10
7.831567229684197
 20
-2.589554147173961
 30
0.0
 10
7.833651528778343
 20
-2.543915564815203
 30
0.0
 10
7.783761999861402
 20
-2.553461062825388
 30
0.0
 10
7.740888697593745
 20
-2.561664124743806
 30
0.0
 10
7.687842036475078
 20
-2.571813712931342
 30
0.0
  0
SPLINE
  5
4F
330
1F
100
AcDbEntity
  8
Layer 1
 62
   179
420
  2301728
370
    35
100
AcDbSpline
210
0.0
220
0.0
230
1.0
 70
    11
 71
     3
 72
    23
 73
    19
 74
     0
 42
0.0000000001
 43
0.0000000001
 12
1.0
 22
0.0
 32
0.0
 13
1.0
 23
0.0
 33
0.0
 40
0.0
 40
0.0
 40
0.0
 40
0.0
 40
1.0
 40
1.0
 40
1.0
 40
2.0
 40
2.0
 40
2.0
 40
3.0
 40
3.0
 40
3.0
 40
4.0
 40
4.0
 40
4.0
 40
5.0
 40
5.0
 40
5.0
 40
6.0
 40
6.0
 40
6.0
 40
6.0
 10
7.956854877560671
 20
-5.20884707238939
 30
0.0
 10
8.09059784745773
 20
-5.20884707238939
 30
0.0
 10
8.220139231306979
 20
-5.208349828918775
 30
0.0
 10
8.349653933799269
 20
-5.209973995884259
 30
0.0
 10
8.358213313111996
 20
-5.21008120642768
 30
0.0
 10
8.373543208032187
 20
-5.226090505719185
 30
0.0
 10
8.373886912421387
 20
-5.235151737100548
 30
0.0
 10
8.376091035064064
 20
-5.293303026921219
 30
0.0
 10
8.375921729726263
 20
-5.351611736747953
 30
0.0
 10
8.373942458155422
 20
-5.409780248171753
 30
0.0
 10
8.373654056942465
 20
-5.418260068529182
 30
0.0
 10
8.35961869295041
 20
-5.43335298448801
 30
0.0
 10
8.351809544883837
 20
-5.433441518081559
 30
0.0
 10
8.22110242829323
 20
-5.434920635488298
 30
0.0
 10
8.090373481501477
 20
-5.434496887028217
 30
0.0
 10
7.956854877560671
 20
-5.434496887028217
 30
0.0
 10
7.956854877560671
 20
-5.358153035243352
 30
0.0
 10
7.956854877560671
 20
-5.286109733084837
 30
0.0
 10
7.956854877560671
 20
-5.20884707238939
 30
0.0
  0
SPLINE
  5
50
330
1F
100
AcDbEntity
  8
Layer 1
 62
   179
420
  2301728
370
    35
100
AcDbSpline
210
0.0
220
0.0
230
1.0
 70
    11
 71
     3
 72
    44
 73
    40
 74
     0
 42
0.0000000001
 43
0.0000000001
 12
1.0
 22
0.0
 32
0.0
 13
1.0
 23
0.0
 33
0.0
 40
0.0
 40
0.0
 40
0.0
 40
0.0
 40
1.0
 40
1.0
 40
1.0
 40
2.0
 40
2.0
 40
2.0
 40
3.0
 40
3.0
 40
3.0
 40
4.0
 40
4.0
 40
4.0
 40
5.0
 40
5.0
 40
5.0
 40
6.0
 40
6.0
 40
6.0
 40
7.0
 40
7.0
 40
7.0
 40
8.0
 40
8.0
 40
8.0
 40
9.0
 40
9.0
 40
9.0
 40
10.0
 40
10.0
 40
10.0
 40
11.0
 40
11.0
 40
11.0
 40
12.0
 40
12.0
 40
12.0
 40
13.0
 40
13.0
 40
13.0
 40
13.0
 10
9.063253859866991
 20
-2.917237230473094
 30
0.0
 10
9.026257490306433
 20
-2.906166892912653
 30
0.0
 10
9.011281972318228
 20
-2.882609559016095
 30
0.0
 10
9.016319897627833
 20
-2.84805720175306
 30
0.0
 10
9.020687878319954
 20
-2.818104346593221
 30
0.0
 10
9.027180180141663
 20
-2.788271678818596
 30
0.0
 10
9.035300044737925
 20
-2.759100344859891
 30
0.0
 10
9.04748566301929
 20
-2.715326668073733
 30
0.0
 10
9.059730465401545
 20
-2.674139991402626
 30
0.0
 10
9.053908108197321
 20
-2.625520737634765
 30
0.0
 10
9.046067670175766
 20
-2.560056330429183
 30
0.0
 10
9.08545857024458
 20
-2.509271884544028
 30
0.0
 10
9.130822698463335
 20
-2.466014977130625
 30
0.0
 10
9.13575777926975
 20
-2.468028691907723
 30
0.0
 10
9.140692860076165
 20
-2.470042406684823
 30
0.0
 10
9.14562842599816
 20
-2.472056121461921
 30
0.0
 10
9.126686117903393
 20
-2.517870618858271
 30
0.0
 10
9.107744294924208
 20
-2.563685116254621
 30
0.0
 10
9.088801986829441
 20
-2.609499553011523
 30
0.0
 10
9.091046131507557
 20
-2.610517204221752
 30
0.0
 10
9.093290276185673
 20
-2.611534734153085
 30
0.0
 10
9.095534420863789
 20
-2.612552264084418
 30
0.0
 10
9.123044840351742
 20
-2.581574359701739
 30
0.0
 10
9.148063221099644
 20
-2.54773985221982
 30
0.0
 10
9.179031544449597
 20
-2.52072546341353
 30
0.0
 10
9.19667083209356
 20
-2.505337718460295
 30
0.0
 10
9.2393983571291
 20
-2.488253645598888
 30
0.0
 10
9.244276679412526
 20
-2.494098257480396
 30
0.0
 10
9.262910453997721
 20
-2.516419941352473
 30
0.0
 10
9.280680722848576
 20
-2.547754223768909
 30
0.0
 10
9.280638032677441
 20
-2.575695001416736
 30
0.0
 10
9.280540524445643
 20
-2.639127744568718
 30
0.0
 10
9.213419447530642
 20
-2.709635292076402
 30
0.0
 10
9.15002696897189
 20
-2.716715432703495
 30
0.0
 10
9.122815865797469
 20
-2.719754681819015
 30
0.0
 10
9.114116288081807
 20
-2.731925625354052
 30
0.0
 10
9.108224559349486
 20
-2.753637700859043
 30
0.0
 10
9.093751621103289
 20
-2.806970822728343
 30
0.0
 10
9.078952200071019
 20
-2.860215047167407
 30
0.0
 10
9.063253859866991
 20
-2.917237230473094
 30
0.0
  0
SPLINE
  5
51
330
1F
100
AcDbEntity
  8
Layer 1
 62
   179
420
  2301728
370
    35
100
AcDbSpline
210
0.0
220
0.0
230
1.0
 70
    11
 71
     3
 72
    11
 73
     7
 74
     0
 42
0.0000000001
 43
0.0000000001
 12
1.0
 22
0.0
 32
0.0
 13
1.0
 23
0.0
 33
0.0
 40
0.0
 40
0.0
 40
0.0
 40
0.0
 40
1.0
 40
1.0
 40
1.0
 40
2.0
 40
2.0
 40
2.0
 40
2.0
 10
9.230293707903229
 20
-2.537624889156885
 30
0.0
 10
9.204821258971428
 20
-2.573550426711638
 30
0.0
 10
9.179348324924048
 20
-2.60947602490584
 30
0.0
 10
9.148438700559407
 20
-2.65306984509031
 30
0.0
 10
9.223419620119204
 20
-2.635713864945703
 30
0.0
 10
9.248829974256624
 20
-2.601080250822835
 30
0.0
 10
9.230293707903229
 20
-2.537624889156885
 30
0.0
  0
SPLINE
  5
52
330
1F
100
AcDbEntity
  8
Layer 1
 62
   179
420
  2301728
370
    35
100
AcDbSpline
210
0.0
220
0.0
230
1.0
 70
    11
 71
     3
 72
    47
 73
    43
 74
     0
 42
0.0000000001
 43
0.0000000001
 12
1.0
 22
0.0
 32
0.0
 13
1.0
 23
0.0
 33
0.0
 40
0.0
 40
0.0
 40
0.0
 40
0.0
 40
1.0
 40
1.0
 40
1.0
 40
2.0
 40
2.0
 40
2.0
 40
3.0
 40
3.0
 40
3.0
 40
4.0
 40
4.0
 40
4.0
 40
5.0
 40
5.0
 40
5.0
 40
6.0
 40
6.0
 40
6.0
 40
7.0
 40
7.0
 40
7.0
 40
8.0
 40
8.0
 40
8.0
 40
9.0
 40
9.0
 40
9.0
 40
10.0
 40
10.0
 40
10.0
 40
11.0
 40
11.0
 40
11.0
 40
12.0
 40
12.0
 40
12.0
 40
13.0
 40
13.0
 40
13.0
 40
14.0
 40
14.0
 40
14.0
 40
14.0
 10
8.609104661666025
 20
-2.497096696247657
 30
0.0
 10
8.551745565589272
 20
-2.540950356465247
 30
0.0
 10
8.479132980296349
 20
-2.511355152767565
 30
0.0
 10
8.422552979842823
 20
-2.548519978713658
 30
0.0
 10
8.454563088903164
 20
-2.551717799984746
 30
0.0
 10
8.486638688566952
 20
-2.554377446158064
 30
0.0
 10
8.518565600305136
 20
-2.558260311269098
 30
0.0
 10
8.552492643584149
 20
-2.562386583122942
 30
0.0
 10
8.584768353425135
 20
-2.570870648241705
 30
0.0
 10
8.596142373339337
 20
-2.60886320264803
 30
0.0
 10
8.599408171431225
 20
-2.619772603114446
 30
0.0
 10
8.599298050194319
 20
-2.632603303839763
 30
0.0
 10
8.597381358533438
 20
-2.643988481412331
 30
0.0
 10
8.590703257444172
 20
-2.6836626889805
 30
0.0
 10
8.552055554445587
 20
-2.708971775240368
 30
0.0
 10
8.497540205905175
 20
-2.710870881461435
 30
0.0
 10
8.441562476445572
 20
-2.712821046097411
 30
0.0
 10
8.383890965934597
 20
-2.685524805138508
 30
0.0
 10
8.379894098662009
 20
-2.649610970997148
 30
0.0
 10
8.37824203755061
 20
-2.634765706542465
 30
0.0
 10
8.394830322288145
 20
-2.604592366351021
 30
0.0
 10
8.404246900832655
 20
-2.604126776672072
 30
0.0
 10
8.443968892285561
 20
-2.602163271357615
 30
0.0
 10
8.484231545053591
 20
-2.607900126940674
 30
0.0
 10
8.52397269857195
 20
-2.61323275996579
 30
0.0
 10
8.529585000729563
 20
-2.61398590190543
 30
0.0
 10
8.533410622202029
 20
-2.628059226191706
 30
0.0
 10
8.53805075273514
 20
-2.635946720424625
 30
0.0
 10
8.559326466774943
 20
-2.617748579631249
 30
0.0
 10
8.559666047681706
 20
-2.607929597712225
 30
0.0
 10
8.53437794267072
 20
-2.60235707503226
 30
0.0
 10
8.493275554831826
 20
-2.593300452248918
 30
0.0
 10
8.45066203195784
 20
-2.591274367024501
 30
0.0
 10
8.4092760940618
 20
-2.583242429627312
 30
0.0
 10
8.394285294932791
 20
-2.580333312766419
 30
0.0
 10
8.37099998959833
 20
-2.570549986842606
 30
0.0
 10
8.369161158988213
 20
-2.56062973704603
 30
0.0
 10
8.366086738993065
 20
-2.544041755505734
 30
0.0
 10
8.371809162387585
 20
-2.519667790167861
 30
0.0
 10
8.383311252815195
 20
-2.507636378001835
 30
0.0
 10
8.425205106724636
 20
-2.46381467477315
 30
0.0
 10
8.55168298567931
 20
-2.457289021255241
 30
0.0
 10
8.609104661666025
 20
-2.497096696247657
 30
0.0
  0
SPLINE
  5
53
330
1F
100
AcDbEntity
  8
Layer 1
 62
   179
420
  2301728
370
    35
100
AcDbSpline
210
0.0
220
0.0
230
1.0
 70
    11
 71
     3
 72
    14
 73
    10
 74
     0
 42
0.0000000001
 43
0.0000000001
 12
1.0
 22
0.0
 32
0.0
 13
1.0
 23
0.0
 33
0.0
 40
0.0
 40
0.0
 40
0.0
 40
0.0
 40
1.0
 40
1.0
 40
1.0
 40
2.0
 40
2.0
 40
2.0
 40
3.0
 40
3.0
 40
3.0
 40
3.0
 10
8.403625467773281
 20
-2.632469533218277
 30
0.0
 10
8.403077529724442
 20
-2.638599089864227
 30
0.0
 10
8.402529591675602
 20
-2.644728646510177
 30
0.0
 10
8.401981653626763
 20
-2.650858203156127
 30
0.0
 10
8.431321443971001
 20
-2.652440528902742
 30
0.0
 10
8.46066123431524
 20
-2.654022854649358
 30
0.0
 10
8.490001024659477
 20
-2.655605180395974
 30
0.0
 10
8.461323659641215
 20
-2.64570591184828
 30
0.0
 10
8.435187330036696
 20
-2.615221612569358
 30
0.0
 10
8.403625467773281
 20
-2.632469533218277
 30
0.0
  0
SPLINE
  5
54
330
1F
100
AcDbEntity
  8
Layer 1
 62
   179
420
  2301728
370
    35
100
AcDbSpline
210
0.0
220
0.0
230
1.0
 70
    11
 71
     3
 72
    47
 73
    43
 74
     0
 42
0.0000000001
 43
0.0000000001
 12
1.0
 22
0.0
 32
0.0
 13
1.0
 23
0.0
 33
0.0
 40
0.0
 40
0.0
 40
0.0
 40
0.0
 40
1.0
 40
1.0
 40
1.0
 40
2.0
 40
2.0
 40
2.0
 40
3.0
 40
3.0
 40
3.0
 40
4.0
 40
4.0
 40
4.0
 40
5.0
 40
5.0
 40
5.0
 40
6.0
 40
6.0
 40
6.0
 40
7.0
 40
7.0
 40
7.0
 40
8.0
 40
8.0
 40
8.0
 40
9.0
 40
9.0
 40
9.0
 40
10.0
 40
10.0
 40
10.0
 40
11.0
 40
11.0
 40
11.0
 40
12.0
 40
12.0
 40
12.0
 40
13.0
 40
13.0
 40
13.0
 40
14.0
 40
14.0
 40
14.0
 40
14.0
 10
8.676603158503111
 20
-2.583007148570485
 30
0.0
 10
8.674852861486544
 20
-2.615819396244155
 30
0.0
 10
8.674332332468035
 20
-2.648771721041865
 30
0.0
 10
8.670616347116896
 20
-2.681359724038177
 30
0.0
 10
8.669474870154595
 20
-2.691371296842893
 30
0.0
 10
8.659589184843172
 20
-2.700385957128472
 30
0.0
 10
8.653707643538054
 20
-2.709857111175855
 30
0.0
 10
8.64445454894437
 20
-2.703822515904903
 30
0.0
 10
8.631364190104275
 20
-2.699922429190742
 30
0.0
 10
8.626613938334255
 20
-2.691383060895734
 30
0.0
 10
8.60615224823952
 20
-2.654598323007424
 30
0.0
 10
8.633090231341788
 20
-2.521636207277576
 30
0.0
 10
8.672374405982762
 20
-2.483074430376291
 30
0.0
 10
8.704768484025534
 20
-2.527722467357914
 30
0.0
 10
8.736502319762444
 20
-2.57146127646168
 30
0.0
 10
8.768236640614935
 20
-2.615200146204895
 30
0.0
 10
8.771164313146805
 20
-2.614407346066501
 30
0.0
 10
8.774091985678675
 20
-2.613614545928107
 30
0.0
 10
8.777019658210545
 20
-2.612821745789713
 30
0.0
 10
8.765342926173743
 20
-2.555274788704183
 30
0.0
 10
8.75366619413694
 20
-2.497727770979206
 30
0.0
 10
8.741989462100138
 20
-2.440180753254228
 30
0.0
 10
8.744926351828047
 20
-2.438426514673564
 30
0.0
 10
8.747863241555958
 20
-2.4366722760929
 30
0.0
 10
8.750800131283869
 20
-2.434918037512236
 30
0.0
 10
8.759503104808598
 20
-2.441339573098553
 30
0.0
 10
8.770365327784752
 20
-2.446148341935542
 30
0.0
 10
8.776559768639673
 20
-2.454443333256576
 30
0.0
 10
8.817980392299761
 20
-2.509912055192722
 30
0.0
 10
8.837883229245083
 20
-2.572415620088577
 30
0.0
 10
8.822839309959944
 20
-2.640756883968909
 30
0.0
 10
8.818449013951092
 20
-2.660700591901938
 30
0.0
 10
8.7999588335779
 20
-2.683231299950017
 30
0.0
 10
8.7818305494282
 20
-2.692084780583779
 30
0.0
 10
8.77261868965891
 20
-2.696583621203899
 30
0.0
 10
8.745782580828669
 20
-2.676557928737667
 30
0.0
 10
8.734127193877434
 20
-2.661887791007757
 30
0.0
 10
8.714773022654324
 20
-2.637528682334555
 30
0.0
 10
8.701236357479628
 20
-2.608548241357008
 30
0.0
 10
8.685248888389271
 20
-2.58151432664858
 30
0.0
 10
8.682367301837605
 20
-2.582011933955881
 30
0.0
 10
8.679485230170359
 20
-2.582509541263183
 30
0.0
 10
8.676603158503111
 20
-2.583007148570485
 30
0.0
  0
SPLINE
  5
55
330
1F
100
AcDbEntity
  8
Layer 1
 62
   179
420
  2301728
370
    35
100
AcDbSpline
210
0.0
220
0.0
230
1.0
 70
    11
 71
     3
 72
    59
 73
    55
 74
     0
 42
0.0000000001
 43
0.0000000001
 12
1.0
 22
0.0
 32
0.0
 13
1.0
 23
0.0
 33
0.0
 40
0.0
 40
0.0
 40
0.0
 40
0.0
 40
1.0
 40
1.0
 40
1.0
 40
2.0
 40
2.0
 40
2.0
 40
3.0
 40
3.0
 40
3.0
 40
4.0
 40
4.0
 40
4.0
 40
5.0
 40
5.0
 40
5.0
 40
6.0
 40
6.0
 40
6.0
 40
7.0
 40
7.0
 40
7.0
 40
8.0
 40
8.0
 40
8.0
 40
9.0
 40
9.0
 40
9.0
 40
10.0
 40
10.0
 40
10.0
 40
11.0
 40
11.0
 40
11.0
 40
12.0
 40
12.0
 40
12.0
 40
13.0
 40
13.0
 40
13.0
 40
14.0
 40
14.0
 40
14.0
 40
15.0
 40
15.0
 40
15.0
 40
16.0
 40
16.0
 40
16.0
 40
17.0
 40
17.0
 40
17.0
 40
18.0
 40
18.0
 40
18.0
 40
18.0
 10
8.889993374734457
 20
-2.531806049040622
 30
0.0
 10
8.879352364463278
 20
-2.521931582027011
 30
0.0
 10
8.867676602657639
 20
-2.511097131917874
 30
0.0
 10
8.85600132596758
 20
-2.500262742448184
 30
0.0
 10
8.856872593551214
 20
-2.49579658649034
 30
0.0
 10
8.857744346250431
 20
-2.491330369893047
 30
0.0
 10
8.858615613834065
 20
-2.486864213935203
 30
0.0
 10
8.910103356032904
 20
-2.482280417448945
 30
0.0
 10
8.961580425688958
 20
-2.47520979721513
 30
0.0
 10
9.013087087395458
 20
-2.474987856836782
 30
0.0
 10
9.024896741101479
 20
-2.474936980340216
 30
0.0
 10
9.036807298848366
 20
-2.498453443249066
 30
0.0
 10
9.04867177061505
 20
-2.511123934553729
 30
0.0
 10
9.035676494428849
 20
-2.517307399668627
 30
0.0
 10
9.023227943502535
 20
-2.525706205724014
 30
0.0
 10
9.00954040738212
 20
-2.529081943134467
 30
0.0
 10
8.994350468307074
 20
-2.532828005651633
 30
0.0
 10
8.977600397523247
 20
-2.530196071705884
 30
0.0
 10
8.962368253392645
 20
-2.533843413202299
 30
0.0
 10
8.953733196049269
 20
-2.535910975808898
 30
0.0
 10
8.946779549309944
 20
-2.545001132206784
 30
0.0
 10
8.942653641292786
 20
-2.560047719627619
 30
0.0
 10
8.9565284320275
 20
-2.561242195467154
 30
0.0
 10
8.970989727499752
 20
-2.560445756961902
 30
0.0
 10
8.984082511917752
 20
-2.564298181070221
 30
0.0
 10
8.993558274563156
 20
-2.567086504151423
 30
0.0
 10
9.001219219819706
 20
-2.576043435682853
 30
0.0
 10
9.009689822981095
 20
-2.582249398032824
 30
0.0
 10
9.001256088603869
 20
-2.590465921908617
 30
0.0
 10
8.993979840003123
 20
-2.600849942200714
 30
0.0
 10
8.984003438078036
 20
-2.60617614744438
 30
0.0
 10
8.976718942512408
 20
-2.610065076500177
 30
0.0
 10
8.965660247725912
 20
-2.608669641531176
 30
0.0
 10
8.956662323927882
 20
-2.607244008117252
 30
0.0
 10
8.923701630886399
 20
-2.602021011213461
 30
0.0
 10
8.911615946414738
 20
-2.617658348133166
 30
0.0
 10
8.91220051068995
 20
-2.651273340814643
 30
0.0
 10
8.938148858006798
 20
-2.647482162548436
 30
0.0
 10
8.962476919282809
 20
-2.642132065362401
 30
0.0
 10
8.98696506870058
 20
-2.641251216746039
 30
0.0
 10
8.996493708944323
 20
-2.640908482588
 30
0.0
 10
9.01112770556344
 20
-2.648535348474979
 30
0.0
 10
9.014643823295172
 20
-2.656441762215561
 30
0.0
 10
9.017578287445177
 20
-2.663040304349528
 30
0.0
 10
9.010379172221821
 20
-2.6798995261391
 30
0.0
 10
9.002970972183018
 20
-2.6842911562158
 30
0.0
 10
8.978272767718636
 20
-2.698931944453054
 30
0.0
 10
8.952586867931156
 20
-2.714190648661719
 30
0.0
 10
8.925218587308462
 20
-2.721551428652472
 30
0.0
 10
8.873482465932106
 20
-2.735466241422627
 30
0.0
 10
8.83675485040347
 20
-2.695138219330046
 30
0.0
 10
8.852068493951695
 20
-2.64336644195848
 30
0.0
 10
8.862950121551092
 20
-2.606580612560113
 30
0.0
 10
8.876676466917994
 20
-2.570636094858249
 30
0.0
 10
8.889993374734457
 20
-2.531806049040622
 30
0.0
  0
SPLINE
  5
56
330
1F
100
AcDbEntity
  8
Layer 1
 62
   179
420
  2301728
370
    35
100
AcDbSpline
210
0.0
220
0.0
230
1.0
 70
    11
 71
     3
 72
    20
 73
    16
 74
     0
 42
0.0000000001
 43
0.0000000001
 12
1.0
 22
0.0
 32
0.0
 13
1.0
 23
0.0
 33
0.0
 40
0.0
 40
0.0
 40
0.0
 40
0.0
 40
1.0
 40
1.0
 40
1.0
 40
2.0
 40
2.0
 40
2.0
 40
3.0
 40
3.0
 40
3.0
 40
4.0
 40
4.0
 40
4.0
 40
5.0
 40
5.0
 40
5.0
 40
5.0
 10
8.260087044062882
 20
-2.451657314474384
 30
0.0
 10
8.21880686136352
 20
-2.394416768517759
 30
0.0
 10
8.216866641596955
 20
-2.349653880422314
 30
0.0
 10
8.253925105951895
 20
-2.309775378555059
 30
0.0
 10
8.301309498008095
 20
-2.258784758547942
 30
0.0
 10
8.36442254999214
 20
-2.246847519444095
 30
0.0
 10
8.416728197060694
 20
-2.27898242448767
 30
0.0
 10
8.47096897018221
 20
-2.312305862704913
 30
0.0
 10
8.474738318247267
 20
-2.341969831536213
 30
0.0
 10
8.428148788070681
 20
-2.387732542844282
 30
0.0
 10
8.392335615412396
 20
-2.422910396009684
 30
0.0
 10
8.352300239294108
 20
-2.448462282617887
 30
0.0
 10
8.29750643441015
 20
-2.438766156219774
 30
0.0
 10
8.286155700043839
 20
-2.436757595795724
 30
0.0
 10
8.272625826487278
 20
-2.447062178411417
 30
0.0
 10
8.260087044062882
 20
-2.451657314474384
 30
0.0
  0
SPLINE
  5
57
330
1F
100
AcDbEntity
  8
Layer 1
 62
   179
420
  2301728
370
    35
100
AcDbSpline
210
0.0
220
0.0
230
1.0
 70
    11
 71
     3
 72
    20
 73
    16
 74
     0
 42
0.0000000001
 43
0.0000000001
 12
1.0
 22
0.0
 32
0.0
 13
1.0
 23
0.0
 33
0.0
 40
0.0
 40
0.0
 40
0.0
 40
0.0
 40
1.0
 40
1.0
 40
1.0
 40
2.0
 40
2.0
 40
2.0
 40
3.0
 40
3.0
 40
3.0
 40
4.0
 40
4.0
 40
4.0
 40
5.0
 40
5.0
 40
5.0
 40
5.0
 10
8.312552536715405
 20
-2.379001614534193
 30
0.0
 10
8.314719790573918
 20
-2.382963796042734
 30
0.0
 10
8.31688704443243
 20
-2.386925977551275
 30
0.0
 10
8.319054540848734
 20
-2.390888098420368
 30
0.0
 10
8.356577988488146
 20
-2.396142809755272
 30
0.0
 10
8.389187457848923
 20
-2.384964776535829
 30
0.0
 10
8.41430674263769
 20
-2.35645356360409
 30
0.0
 10
8.420873994816677
 20
-2.348999580782321
 30
0.0
 10
8.420128372168543
 20
-2.335102717288666
 30
0.0
 10
8.422741689803868
 20
-2.324165058839652
 30
0.0
 10
8.41185205779738
 20
-2.323210715212756
 30
0.0
 10
8.39797847985162
 20
-2.317512426318394
 30
0.0
 10
8.390606178365816
 20
-2.322149949355258
 30
0.0
 10
8.363423211895098
 20
-2.339248515044649
 30
0.0
 10
8.33839270325767
 20
-2.359768419009116
 30
0.0
 10
8.312552536715405
 20
-2.379001614534193
 30
0.0
  0
SPLINE
  5
58
330
1F
100
AcDbEntity
  8
Layer 1
 62
   179
420
  2301728
370
    35
100
AcDbSpline
210
0.0
220
0.0
230
1.0
 70
    11
 71
     3
 72
    26
 73
    22
 74
     0
 42
0.0000000001
 43
0.0000000001
 12
1.0
 22
0.0
 32
0.0
 13
1.0
 23
0.0
 33
0.0
 40
0.0
 40
0.0
 40
0.0
 40
0.0
 40
1.0
 40
1.0
 40
1.0
 40
2.0
 40
2.0
 40
2.0
 40
3.0
 40
3.0
 40
3.0
 40
4.0
 40
4.0
 40
4.0
 40
5.0
 40
5.0
 40
5.0
 40
6.0
 40
6.0
 40
6.0
 40
7.0
 40
7.0
 40
7.0
 40
7.0
 10
8.342280904640095
 20
-2.604069047917922
 30
0.0
 10
8.342280904640095
 20
-2.63662842909495
 30
0.0
 10
8.344306019633349
 20
-2.661982024709383
 30
0.0
 10
8.341296120010485
 20
-2.686723040623797
 30
0.0
 10
8.340071445726027
 20
-2.696787248469061
 30
0.0
 10
8.327006070338358
 20
-2.713758046842284
 30
0.0
 10
8.320909380273026
 20
-2.713092710822821
 30
0.0
 10
8.309290862105955
 20
-2.711825225088331
 30
0.0
 10
8.28932859850195
 20
-2.70014024608665
 30
0.0
 10
8.28933320709997
 20
-2.692791230148739
 30
0.0
 10
8.289377110060059
 20
-2.625711509337028
 30
0.0
 10
8.292647031634386
 20
-2.558616628663407
 30
0.0
 10
8.29624464878374
 20
-2.491594394048055
 30
0.0
 10
8.296497636559277
 20
-2.486882405769494
 30
0.0
 10
8.309121314210364
 20
-2.47786659333441
 30
0.0
 10
8.312048259068863
 20
-2.479242502401272
 30
0.0
 10
8.31940091337363
 20
-2.482699011555976
 30
0.0
 10
8.328716830435066
 20
-2.490328909415338
 30
0.0
 10
8.329784327271252
 20
-2.49741008091304
 30
0.0
 10
8.335477643730908
 20
-2.535175540587968
 30
0.0
 10
8.338881457205616
 20
-2.573286159998841
 30
0.0
 10
8.342280904640095
 20
-2.604069047917922
 30
0.0
  0
ENDSEC
  0
SECTION
  2
OBJECTS
  0
DICTIONARY
  5
C
330
0
100
AcDbDictionary
281
     1
  3
ACAD_GROUP
350
D
  3
ACAD_LAYOUT
350
1A
  3
ACAD_MATERIAL
350
3B
  3
ACAD_MLEADERSTYLE
350
5A
  3
ACAD_MLINESTYLE
350
17
  3
ACAD_PLOTSETTINGS
350
19
  3
ACAD_PLOTSTYLENAME
350
E
  3
ACAD_TABLESTYLE
350
59
  3
ACAD_VISUALSTYLE
350
2A
  0
SUN
  5
3F
330
29
100
AcDbSun
 90
        1
290
     0
 63
     7
421
 16777215
 40
1.0
291
     1
 91
  2455826
 92
 54000000
292
     0
 70
     2
 71
   256
280
     1
  0
DICTIONARY
  5
D
102
{ACAD_REACTORS
330
C
102
}
330
C
100
AcDbDictionary
281
     1
  0
DICTIONARY
  5
1A
102
{ACAD_REACTORS
330
C
102
}
330
C
100
AcDbDictionary
281
     1
  3
Layout1
350
1E
  3
Layout2
350
26
  3
Model
350
22
  0
DICTIONARY
  5
3B
102
{ACAD_REACTORS
330
C
102
}
330
C
100
AcDbDictionary
281
     1
  3
ByBlock
350
3D
  3
ByLayer
350
3C
  3
Global
350
3E
  0
DICTIONARY
  5
5A
102
{ACAD_REACTORS
330
C
102
}
330
C
100
AcDbDictionary
281
     1
  0
DICTIONARY
  5
17
102
{ACAD_REACTORS
330
C
102
}
330
C
100
AcDbDictionary
281
     1
  3
Standard
350
18
  0
DICTIONARY
  5
19
102
{ACAD_REACTORS
330
C
102
}
330
C
100
AcDbDictionary
281
     1
  0
ACDBDICTIONARYWDFLT
  5
E
102
{ACAD_REACTORS
330
C
102
}
330
C
100
AcDbDictionary
281
     1
  3
Normal
350
F
100
AcDbDictionaryWithDefault
340
F
  0
DICTIONARY
  5
59
102
{ACAD_REACTORS
330
C
102
}
330
C
100
AcDbDictionary
281
     1
  0
DICTIONARY
  5
2A
102
{ACAD_REACTORS
330
C
102
}
330
C
100
AcDbDictionary
281
     1
  3
2dWireframe
350
2F
  3
3D Hidden
350
31
  3
3dWireframe
350
30
  3
Basic
350
32
  3
Brighten
350
36
  3
ColorChange
350
3A
  3
Conceptual
350
34
  3
Dim
350
35
  3
Facepattern
350
39
  3
Flat
350
2B
  3
FlatWithEdges
350
2C
  3
Gouraud
350
2D
  3
GouraudWithEdges
350
2E
  3
Linepattern
350
38
  3
Realistic
350
33
  3
Thicken
350
37
  0
LAYOUT
  5
1E
102
{ACAD_REACTORS
330
1A
102
}
330
1A
100
AcDbPlotSettings
  1

  2
none_device
  4

  6

 40
0.0
 41
0.0
 42
0.0
 43
0.0
 44
0.0
 45
0.0
 46
0.0
 47
0.0
 48
0.0
 49
0.0
140
0.0
141
0.0
142
1.0
143
1.0
 70
   688
 72
     0
 73
     0
 74
     5
  7

 75
    16
 76
     0
 77
     2
 78
   300
147
1.0
148
0.0
149
0.0
100
AcDbLayout
  1
Layout1
 70
     1
 71
     1
 10
0.0
 20
0.0
 11
12.0
 21
9.0
 12
0.0
 22
0.0
 32
0.0
 14
1.000000000000000E+20
 24
1.000000000000000E+20
 34
1.000000000000000E+20
 15
-1.000000000000000E+20
 25
-1.000000000000000E+20
 35
-1.000000000000000E+20
146
0.0
 13
0.0
 23
0.0
 33
0.0
 16
1.0
 26
0.0
 36
0.0
 17
0.0
 27
1.0
 37
0.0
 76
     0
330
1B
  0
LAYOUT
  5
26
102
{ACAD_REACTORS
330
1A
102
}
330
1A
100
AcDbPlotSettings
  1

  2
none_device
  4

  6

 40
0.0
 41
0.0
 42
0.0
 43
0.0
 44
0.0
 45
0.0
 46
0.0
 47
0.0
 48
0.0
 49
0.0
140
0.0
141
0.0
142
1.0
143
1.0
 70
   688
 72
     0
 73
     0
 74
     5
  7

 75
    16
 76
     0
 77
     2
 78
   300
147
1.0
148
0.0
149
0.0
100
AcDbLayout
  1
Layout2
 70
     1
 71
     2
 10
0.0
 20
0.0
 11
0.0
 21
0.0
 12
0.0
 22
0.0
 32
0.0
 14
0.0
 24
0.0
 34
0.0
 15
0.0
 25
0.0
 35
0.0
146
0.0
 13
0.0
 23
0.0
 33
0.0
 16
1.0
 26
0.0
 36
0.0
 17
0.0
 27
1.0
 37
0.0
 76
     0
330
23
  0
LAYOUT
  5
22
102
{ACAD_REACTORS
330
1A
102
}
330
1A
100
AcDbPlotSettings
  1

  2
none_device
  4

  6

 40
0.0
 41
0.0
 42
0.0
 43
0.0
 44
0.0
 45
0.0
 46
0.0
 47
0.0
 48
0.0
 49
0.0
140
0.0
141
0.0
142
1.0
143
1.0
 70
  1712
 72
     0
 73
     0
 74
     0
  7

 75
     0
 76
     0
 77
     2
 78
   300
147
1.0
148
0.0
149
0.0
100
AcDbLayout
  1
Model
 70
     1
 71
     0
 10
0.0
 20
0.0
 11
12.0
 21
9.0
 12
0.0
 22
0.0
 32
0.0
 14
1.000000000000000E+20
 24
1.000000000000000E+20
 34
1.000000000000000E+20
 15
-1.000000000000000E+20
 25
-1.000000000000000E+20
 35
-1.000000000000000E+20
146
0.0
 13
0.0
 23
0.0
 33
0.0
 16
1.0
 26
0.0
 36
0.0
 17
0.0
 27
1.0
 37
0.0
 76
     0
330
1F
331
29
  0
MATERIAL
  5
3D
102
{ACAD_REACTORS
330
3B
102
}
330
3B
100
AcDbMaterial
  1
ByBlock
 72
     1
 94
      127
  0
MATERIAL
  5
3C
102
{ACAD_REACTORS
330
3B
102
}
330
3B
100
AcDbMaterial
  1
ByLayer
 72
     1
 94
      127
  0
MATERIAL
  5
3E
102
{ACAD_REACTORS
330
3B
102
}
330
3B
100
AcDbMaterial
  1
Global
 72
     1
 94
      127
  0
MLINESTYLE
  5
18
102
{ACAD_REACTORS
330
17
102
}
330
17
100
AcDbMlineStyle
  2
Standard
 70
     0
  3

 62
   256
 51
90.0
 52
90.0
 71
     2
 49
0.5
 62
   256
  6
BYLAYER
 49
-0.5
 62
   256
  6
BYLAYER
  0
ACDBPLACEHOLDER
  5
F
102
{ACAD_REACTORS
330
E
102
}
330
E
  0
VISUALSTYLE
  5
2F
102
{ACAD_REACTORS
330
2A
102
}
330
2A
100
AcDbVisualStyle
  2
2dWireframe
 70
     4
177
     2
291
     0
 71
     0
176
     1
 72
     2
176
     1
 73
     0
176
     1
 90
        0
176
     1
 40
-0.6
176
     1
 41
-30.0
176
     1
 62
     5
 63
     7
421
 16777215
176
     1
 74
     1
176
     1
 91
        4
176
     1
 64
     7
176
     1
 65
   257
176
     1
 75
     1
176
     1
175
     1
176
     1
 42
1.0
176
     1
 92
        0
176
     1
 66
   257
176
     1
 43
1.0
176
     1
 76
     1
176
     1
 77
     6
176
     1
 78
     2
176
     1
 67
     7
176
     1
 79
     5
176
     1
170
     0
176
     1
171
     0
176
     1
290
     0
176
     1
 93
        1
176
     1
 44
0.0
176
     1
173
     0
176
     1
  0
VISUALSTYLE
  5
31
102
{ACAD_REACTORS
330
2A
102
}
330
2A
100
AcDbVisualStyle
  2
3D Hidden
 70
     6
177
     2
291
     0
 71
     1
176
     1
 72
     2
176
     1
 73
     2
176
     1
 90
        0
176
     1
 40
-0.6
176
     1
 41
-30.0
176
     1
 62
     5
 63
     7
421
 16777215
176
     1
 74
     2
176
     1
 91
        2
176
     1
 64
     7
176
     1
 65
   257
176
     1
 75
     2
176
     1
175
     1
176
     1
 42
40.0
176
     1
 92
        0
176
     1
 66
   257
176
     1
 43
1.0
176
     1
 76
     1
176
     1
 77
     6
176
     1
 78
     2
176
     1
 67
     7
176
     1
 79
     3
176
     1
170
     0
176
     1
171
     0
176
     1
290
     0
176
     1
 93
        1
176
     1
 44
0.0
176
     1
173
     0
176
     1
  0
VISUALSTYLE
  5
30
102
{ACAD_REACTORS
330
2A
102
}
330
2A
100
AcDbVisualStyle
  2
3dWireframe
 70
     5
177
     2
291
     0
 71
     0
176
     1
 72
     2
176
     1
 73
     0
176
     1
 90
        0
176
     1
 40
-0.6
176
     1
 41
-30.0
176
     1
 62
     5
 63
     7
421
 16777215
176
     1
 74
     1
176
     1
 91
        4
176
     1
 64
     7
176
     1
 65
   257
176
     1
 75
     1
176
     1
175
     1
176
     1
 42
1.0
176
     1
 92
        0
176
     1
 66
   257
176
     1
 43
1.0
176
     1
 76
     1
176
     1
 77
     6
176
     1
 78
     2
176
     1
 67
     7
176
     1
 79
     5
176
     1
170
     0
176
     1
171
     0
176
     1
290
     0
176
     1
 93
        1
176
     1
 44
0.0
176
     1
173
     0
176
     1
  0
VISUALSTYLE
  5
32
102
{ACAD_REACTORS
330
2A
102
}
330
2A
100
AcDbVisualStyle
  2
Basic
 70
     7
177
     2
291
     1
 71
     1
176
     1
 72
     0
176
     1
 73
     1
176
     1
 90
        0
176
     1
 40
-0.6
176
     1
 41
-30.0
176
     1
 62
     5
 63
     7
421
 16777215
176
     1
 74
     0
176
     1
 91
        4
176
     1
 64
     7
176
     1
 65
   257
176
     1
 75
     1
176
     1
175
     1
176
     1
 42
1.0
176
     1
 92
        8
176
     1
 66
     7
176
     1
 43
1.0
176
     1
 76
     1
176
     1
 77
     6
176
     1
 78
     2
176
     1
 67
     7
176
     1
 79
     5
176
     1
170
     0
176
     1
171
     0
176
     1
290
     0
176
     1
 93
        1
176
     1
 44
0.0
176
     1
173
     0
176
     1
  0
VISUALSTYLE
  5
36
102
{ACAD_REACTORS
330
2A
102
}
330
2A
100
AcDbVisualStyle
  2
Brighten
 70
    12
177
     2
291
     1
 71
     2
176
     1
 72
     2
176
     1
 73
     0
176
     1
 90
        0
176
     1
 40
-0.6
176
     1
 41
-30.0
176
     1
 62
     5
 63
     7
421
 16777215
176
     1
 74
     1
176
     1
 91
        4
176
     1
 64
     7
176
     1
 65
   257
176
     1
 75
     1
176
     1
175
     1
176
     1
 42
1.0
176
     1
 92
        8
176
     1
 66
     7
176
     1
 43
1.0
176
     1
 76
     1
176
     1
 77
     6
176
     1
 78
     2
176
     1
 67
     7
176
     1
 79
     5
176
     1
170
     0
176
     1
171
     0
176
     1
290
     0
176
     1
 93
        1
176
     1
 44
50.0
176
     1
173
     0
176
     1
  0
VISUALSTYLE
  5
3A
102
{ACAD_REACTORS
330
2A
102
}
330
2A
100
AcDbVisualStyle
  2
ColorChange
 70
    16
177
     2
291
     1
 71
     2
176
     1
 72
     2
176
     1
 73
     3
176
     1
 90
        0
176
     1
 40
-0.6
176
     1
 41
-30.0
176
     1
 62
     5
 63
     8
421
  8421504
176
     1
 74
     1
176
     1
 91
        4
176
     1
 64
     7
176
     1
 65
   257
176
     1
 75
     1
176
     1
175
     1
176
     1
 42
1.0
176
     1
 92
        8
176
     1
 66
     8
424
  8421504
176
     1
 43
1.0
176
     1
 76
     1
176
     1
 77
     6
176
     1
 78
     2
176
     1
 67
     7
176
     1
 79
     5
176
     1
170
     0
176
     1
171
     0
176
     1
290
     0
176
     1
 93
        1
176
     1
 44
0.0
176
     1
173
     0
176
     1
  0
VISUALSTYLE
  5
34
102
{ACAD_REACTORS
330
2A
102
}
330
2A
100
AcDbVisualStyle
  2
Conceptual
 70
     9
177
     2
291
     0
 71
     3
176
     1
 72
     2
176
     1
 73
     0
176
     1
 90
        0
176
     1
 40
-0.6
176
     1
 41
-30.0
176
     1
 62
     5
 63
     7
421
 16777215
176
     1
 74
     2
176
     1
 91
        2
176
     1
 64
     7
176
     1
 65
   257
176
     1
 75
     1
176
     1
175
     1
176
     1
 42
40.0
176
     1
 92
        8
176
     1
 66
     7
176
     1
 43
1.0
176
     1
 76
     1
176
     1
 77
     6
176
     1
 78
     2
176
     1
 67
     7
176
     1
 79
     3
176
     1
170
     0
176
     1
171
     0
176
     1
290
     0
176
     1
 93
        1
176
     1
 44
0.0
176
     1
173
     0
176
     1
  0
VISUALSTYLE
  5
35
102
{ACAD_REACTORS
330
2A
102
}
330
2A
100
AcDbVisualStyle
  2
Dim
 70
    11
177
     2
291
     1
 71
     2
176
     1
 72
     2
176
     1
 73
     0
176
     1
 90
        0
176
     1
 40
-0.6
176
     1
 41
-30.0
176
     1
 62
     5
 63
     7
421
 16777215
176
     1
 74
     1
176
     1
 91
        4
176
     1
 64
     7
176
     1
 65
   257
176
     1
 75
     1
176
     1
175
     1
176
     1
 42
1.0
176
     1
 92
        8
176
     1
 66
     7
176
     1
 43
1.0
176
     1
 76
     1
176
     1
 77
     6
176
     1
 78
     2
176
     1
 67
     7
176
     1
 79
     5
176
     1
170
     0
176
     1
171
     0
176
     1
290
     0
176
     1
 93
        1
176
     1
 44
-50.0
176
     1
173
     0
176
     1
  0
VISUALSTYLE
  5
39
102
{ACAD_REACTORS
330
2A
102
}
330
2A
100
AcDbVisualStyle
  2
Facepattern
 70
    15
177
     2
291
     1
 71
     2
176
     1
 72
     2
176
     1
 73
     0
176
     1
 90
        0
176
     1
 40
-0.6
176
     1
 41
-30.0
176
     1
 62
     5
 63
     7
421
 16777215
176
     1
 74
     1
176
     1
 91
        4
176
     1
 64
     7
176
     1
 65
   257
176
     1
 75
     1
176
     1
175
     1
176
     1
 42
1.0
176
     1
 92
        8
176
     1
 66
     7
176
     1
 43
1.0
176
     1
 76
     1
176
     1
 77
     6
176
     1
 78
     2
176
     1
 67
     7
176
     1
 79
     5
176
     1
170
     0
176
     1
171
     0
176
     1
290
     0
176
     1
 93
        1
176
     1
 44
0.0
176
     1
173
     0
176
     1
  0
VISUALSTYLE
  5
2B
102
{ACAD_REACTORS
330
2A
102
}
330
2A
100
AcDbVisualStyle
  2
Flat
 70
     0
177
     2
291
     1
 71
     2
176
     1
 72
     1
176
     1
 73
     1
176
     1
 90
        2
176
     1
 40
-0.6
176
     1
 41
30.0
176
     1
 62
     5
 63
     7
421
 16777215
176
     1
 74
     0
176
     1
 91
        4
176
     1
 64
     7
176
     1
 65
   257
176
     1
 75
     1
176
     1
175
     1
176
     1
 42
1.0
176
     1
 92
        8
176
     1
 66
     7
176
     1
 43
1.0
176
     1
 76
     1
176
     1
 77
     6
176
     1
 78
     2
176
     1
 67
     7
176
     1
 79
     5
176
     1
170
     0
176
     1
171
     0
176
     1
290
     0
176
     1
 93
       13
176
     1
 44
0.0
176
     1
173
     0
176
     1
  0
VISUALSTYLE
  5
2C
102
{ACAD_REACTORS
330
2A
102
}
330
2A
100
AcDbVisualStyle
  2
FlatWithEdges
 70
     1
177
     2
291
     1
 71
     2
176
     1
 72
     1
176
     1
 73
     1
176
     1
 90
        2
176
     1
 40
-0.6
176
     1
 41
30.0
176
     1
 62
     5
 63
     7
421
 16777215
176
     1
 74
     1
176
     1
 91
        4
176
     1
 64
     7
176
     1
 65
   257
176
     1
 75
     1
176
     1
175
     1
176
     1
 42
1.0
176
     1
 92
        0
176
     1
 66
   257
176
     1
 43
1.0
176
     1
 76
     1
176
     1
 77
     6
176
     1
 78
     2
176
     1
 67
     7
176
     1
 79
     5
176
     1
170
     0
176
     1
171
     0
176
     1
290
     0
176
     1
 93
       13
176
     1
 44
0.0
176
     1
173
     0
176
     1
  0
VISUALSTYLE
  5
2D
102
{ACAD_REACTORS
330
2A
102
}
330
2A
100
AcDbVisualStyle
  2
Gouraud
 70
     2
177
     2
291
     1
 71
     2
176
     1
 72
     2
176
     1
 73
     1
176
     1
 90
        2
176
     1
 40
-0.6
176
     1
 41
30.0
176
     1
 62
     5
 63
     7
421
 16777215
176
     1
 74
     0
176
     1
 91
        4
176
     1
 64
     7
176
     1
 65
   257
176
     1
 75
     1
176
     1
175
     1
176
     1
 42
1.0
176
     1
 92
        0
176
     1
 66
     7
176
     1
 43
1.0
176
     1
 76
     1
176
     1
 77
     6
176
     1
 78
     2
176
     1
 67
     7
176
     1
 79
     5
176
     1
170
     0
176
     1
171
     0
176
     1
290
     0
176
     1
 93
       13
176
     1
 44
0.0
176
     1
173
     0
176
     1
  0
VISUALSTYLE
  5
2E
102
{ACAD_REACTORS
330
2A
102
}
330
2A
100
AcDbVisualStyle
  2
GouraudWithEdges
 70
     3
177
     2
291
     1
 71
     2
176
     1
 72
     2
176
     1
 73
     1
176
     1
 90
        2
176
     1
 40
-0.6
176
     1
 41
30.0
176
     1
 62
     5
 63
     7
421
 16777215
176
     1
 74
     1
176
     1
 91
        4
176
     1
 64
     7
176
     1
 65
   257
176
     1
 75
     1
176
     1
175
     1
176
     1
 42
1.0
176
     1
 92
        0
176
     1
 66
   257
176
     1
 43
1.0
176
     1
 76
     1
176
     1
 77
     6
176
     1
 78
     2
176
     1
 67
     7
176
     1
 79
     5
176
     1
170
     0
176
     1
171
     0
176
     1
290
     0
176
     1
 93
       13
176
     1
 44
0.0
176
     1
173
     0
176
     1
  0
VISUALSTYLE
  5
38
102
{ACAD_REACTORS
330
2A
102
}
330
2A
100
AcDbVisualStyle
  2
Linepattern
 70
    14
177
     2
291
     1
 71
     2
176
     1
 72
     2
176
     1
 73
     0
176
     1
 90
        0
176
     1
 40
-0.6
176
     1
 41
-30.0
176
     1
 62
     5
 63
     7
421
 16777215
176
     1
 74
     1
176
     1
 91
        4
176
     1
 64
     7
176
     1
 65
   257
176
     1
 75
     7
176
     1
175
     7
176
     1
 42
1.0
176
     1
 92
        8
176
     1
 66
     7
176
     1
 43
1.0
176
     1
 76
     1
176
     1
 77
     6
176
     1
 78
     2
176
     1
 67
     7
176
     1
 79
     5
176
     1
170
     0
176
     1
171
     0
176
     1
290
     0
176
     1
 93
        1
176
     1
 44
0.0
176
     1
173
     0
176
     1
  0
VISUALSTYLE
  5
33
102
{ACAD_REACTORS
330
2A
102
}
330
2A
100
AcDbVisualStyle
  2
Realistic
 70
     8
177
     2
291
     0
 71
     2
176
     1
 72
     2
176
     1
 73
     0
176
     1
 90
        0
176
     1
 40
-0.6
176
     1
 41
-30.0
176
     1
 62
     5
 63
     7
421
 16777215
176
     1
 74
     1
176
     1
 91
        0
176
     1
 64
     7
176
     1
 65
   257
176
     1
 75
     1
176
     1
175
     1
176
     1
 42
1.0
176
     1
 92
        8
176
     1
 66
     8
424
  7895160
176
     1
 43
1.0
176
     1
 76
     1
176
     1
 77
     6
176
     1
 78
     2
176
     1
 67
     7
176
     1
 79
     5
176
     1
170
     0
176
     1
171
     0
176
     1
290
     0
176
     1
 93
       13
176
     1
 44
0.0
176
     1
173
     0
176
     1
  0
VISUALSTYLE
  5
37
102
{ACAD_REACTORS
330
2A
102
}
330
2A
100
AcDbVisualStyle
  2
Thicken
 70
    13
177
     2
291
     1
 71
     2
176
     1
 72
     2
176
     1
 73
     0
176
     1
 90
        0
176
     1
 40
-0.6
176
     1
 41
-30.0
176
     1
 62
     5
 63
     7
421
 16777215
176
     1
 74
     1
176
     1
 91
        4
176
     1
 64
     7
176
     1
 65
   257
176
     1
 75
     1
176
     1
175
     1
176
     1
 42
1.0
176
     1
 92
       12
176
     1
 66
     7
176
     1
 43
1.0
176
     1
 76
     1
176
     1
 77
     6
176
     1
 78
     2
176
     1
 67
     7
176
     1
 79
     5
176
     1
170
     0
176
     1
171
     0
176
     1
290
     0
176
     1
 93
        1
176
     1
 44
0.0
176
     1
173
     0
176
     1
  0
ENDSEC
  0
EOF
