<?xml version="1.0" standalone="no"?>
<!DOCTYPE svg PUBLIC "-//W3C//DTD SVG 1.1//EN" "http://www.w3.org/Graphics/SVG/1.1/DTD/svg11.dtd">
<svg width="207.52317664312454mm" height="863.4163525912992mm"
 viewBox="0 0 207.52317664312454 863.4163525912992"
 xmlns="http://www.w3.org/2000/svg" version="1.1"
 xmlns:xlink="http://www.w3.org/1999/xlink">
<desc>Output from Flights of Ideas SVG Sketchup Plugin</desc>

  <g id="face0" fill="none" stroke="#0000FF" stroke-width="1" stroke-miterlimit="4" stroke-dasharray="none" stroke-linejoin="round" stroke-linecap="round">
    <line x1="106.20874533614798" y1="10.76541573044517" x2="97.86367015553282" y2="10.273280695594735"/>
    <line x1="97.86367015553282" y1="10.273280695594735" x2="96.47571712706676" y2="10.191429969176056"/>
    <line x1="96.47571712706676" y1="10.191429969176056" x2="88.11776766527294" y2="10.027299172453638"/>
    <line x1="88.11776766527294" y1="10.027299172453638" x2="86.7276711660343" y2="10.0"/>
    <line x1="86.7276711660343" y1="10.0" x2="78.3697086735921" y2="10.164130796722702"/>
    <line x1="78.3697086735921" y1="10.164130796722702" x2="76.97961217435338" y2="10.191429969176056"/>
    <line x1="76.97961217435338" y1="10.191429969176056" x2="68.63455002438752" y2="10.683565004027116"/>
    <line x1="68.63455002438752" y1="10.683565004027116" x2="67.2465969959209" y2="10.76541573044517"/>
    <line x1="67.2465969959209" y1="10.76541573044517" x2="58.92725734701585" y2="11.584795968121"/>
    <line x1="58.92725734701585" y1="11.584795968121" x2="57.54359126009382" y2="11.721076257834738"/>
    <line x1="57.54359126009382" y1="11.721076257834738" x2="49.262874454726074" y2="12.86643772538622"/>
    <line x1="49.262874454726074" y1="12.86643772538622" x2="47.8856209549993" y2="13.056934791015635"/>
    <line x1="47.8856209549993" y1="13.056934791015635" x2="39.65621884526192" y2="14.526521608495102"/>
    <line x1="39.65621884526192" y1="14.526521608495102" x2="38.28750357838251" y2="14.770943006652487"/>
    <line x1="38.28750357838251" y1="14.770943006652487" x2="30.1221862002636" y2="16.562465037503443"/>
    <line x1="30.1221862002636" y1="16.562465037503443" x2="28.764125899322266" y2="16.860433098442968"/>
    <line x1="28.764125899322266" y1="16.860433098442968" x2="20.67540267583024" y2="18.97115390638254"/>
    <line x1="20.67540267583024" y1="18.97115390638254" x2="19.330091792516384" y2="19.32220740510411"/>
    <line x1="19.330091792516384" y1="19.32220740510411" x2="11.330498207956424" y2="21.74885955490396"/>
    <line x1="11.330498207956424" y1="21.74885955490396" x2="10.0" y2="22.152461509644183"/>
    <line x1="10.0" y1="22.152461509644183" x2="12.450998802753077" y2="29.695987645912794"/>
    <line x1="12.450998802753077" y1="29.695987645912794" x2="161.00431301173742" y2="29.695987645912794"/>
    <line x1="161.00431301173742" y1="29.695987645912794" x2="163.45534010392848" y2="22.152461509644183"/>
    <line x1="163.45534010392848" y1="22.152461509644183" x2="155.45573348871963" y2="19.725809359844277"/>
    <line x1="155.45573348871963" y1="19.725809359844277" x2="154.12523750890247" y2="19.32220740510394"/>
    <line x1="154.12523750890247" y1="19.32220740510394" x2="146.03652731605948" y2="17.211486597164253"/>
    <line x1="146.03652731605948" y1="17.211486597164253" x2="144.69121420460627" y2="16.860433098442854"/>
    <line x1="144.69121420460627" y1="16.860433098442854" x2="136.52587076518896" y2="15.068911067591841"/>
    <line x1="136.52587076518896" y1="15.068911067591841" x2="135.16780823610793" y2="14.770943006652601"/>
    <line x1="135.16780823610793" y1="14.770943006652601" x2="126.93843218766895" y2="13.301356189173134"/>
    <line x1="126.93843218766895" y1="13.301356189173134" x2="125.56972137706933" y2="13.056934791015749"/>
    <line x1="125.56972137706933" y1="13.056934791015749" x2="117.28897851040372" y2="11.911573323463983"/>
    <line x1="117.28897851040372" y1="11.911573323463983" x2="115.91172723881718" y2="11.721076257834738"/>
    <line x1="115.91172723881718" y1="11.721076257834738" x2="107.59241365121005" y2="10.901696020158738"/>
    <line x1="107.59241365121005" y1="10.901696020158738" x2="106.20874533614798" y2="10.76541573044517"/>
  </g>
  <g id="face1" fill="none" stroke="#0000FF" stroke-width="1" stroke-miterlimit="4" stroke-dasharray="none" stroke-linejoin="round" stroke-linecap="round">
    <line x1="107.7132680107342" y1="41.35256120650337" x2="102.85645787531226" y2="40.87420415724972"/>
    <line x1="102.85645787531226" y1="40.87420415724972" x2="98.37396298467999" y2="40.432714885498456"/>
    <line x1="98.37396298467999" y1="40.432714885498456" x2="93.50211308917804" y2="40.14541088833795"/>
    <line x1="93.50211308917804" y1="40.14541088833795" x2="89.00574669971587" y2="39.88024212665084"/>
    <line x1="89.00574669971587" y1="39.88024212665084" x2="84.12637301367968" y2="39.78441938068073"/>
    <line x1="84.12637301367968" y1="39.78441938068073" x2="79.62305971810085" y2="39.695987645912794"/>
    <line x1="79.62305971810085" y1="39.695987645912794" x2="74.74368603206503" y2="39.79181039188302"/>
    <line x1="74.74368603206503" y1="39.79181039188302" x2="70.24037273648591" y2="39.88024212665084"/>
    <line x1="70.24037273648591" y1="39.88024212665084" x2="65.36852284098401" y2="40.16754612381135"/>
    <line x1="65.36852284098401" y1="40.16754612381135" x2="60.872149013721184" y2="40.432714885498626"/>
    <line x1="60.872149013721184" y1="40.432714885498626" x2="56.015346699286994" y2="40.911071934752385"/>
    <line x1="56.015346699286994" y1="40.911071934752385" x2="51.532859246456155" y2="41.35256120650337"/>
    <line x1="51.532859246456155" y1="41.35256120650337" x2="46.698565735719484" y2="42.02122440348808"/>
    <line x1="46.698565735719484" y1="42.02122440348808" x2="42.236852061029595" y2="42.63834990761353"/>
    <line x1="42.236852061029595" y1="42.63834990761353" x2="37.43252857661997" y2="43.49629274764368"/>
    <line x1="37.43252857661997" y1="43.49629274764368" x2="32.998498397182885" y2="44.288113602319186"/>
    <line x1="32.998498397182885" y1="44.288113602319186" x2="28.231574877776893" y2="45.33401042791547"/>
    <line x1="28.231574877776893" y1="45.33401042791547" x2="23.83204121929157" y2="46.29929939597815"/>
    <line x1="23.83204121929157" y1="46.29929939597815" x2="20.247667483130755" y2="47.18392606515931"/>
    <line x1="20.247667483130755" y1="47.18392606515931" x2="17.446298102207436" y2="47.977135347764715"/>
    <line x1="17.446298102207436" y1="47.977135347764715" x2="14.740592107985094" y2="48.68317851411723"/>
    <line x1="14.740592107985094" y1="48.68317851411723" x2="12.064677550820306" y2="49.494907789310275"/>
    <line x1="12.064677550820306" y1="49.494907789310275" x2="10.0" y2="50.085580837273596"/>
    <line x1="10.0" y1="50.085580837273596" x2="149.24609617664845" y2="50.08558083727348"/>
    <line x1="149.24609617664845" y1="50.08558083727348" x2="144.50551655069165" y2="48.683178514117344"/>
    <line x1="144.50551655069165" y1="48.683178514117344" x2="142.7220509647085" y2="48.15558671902011"/>
    <line x1="142.7220509647085" y1="48.15558671902011" x2="138.99843669428242" y2="47.18392606515948"/>
    <line x1="138.99843669428242" y1="47.18392606515948" x2="135.64880136546014" y2="46.40609213167994"/>
    <line x1="135.64880136546014" y1="46.40609213167994" x2="135.41407039592258" y2="46.29929939597804"/>
    <line x1="135.41407039592258" y1="46.29929939597804" x2="130.6471390555286" y2="45.25340257038158"/>
    <line x1="130.6471390555286" y1="45.25340257038158" x2="126.24761283484443" y2="44.2881136023189"/>
    <line x1="126.24761283484443" y1="44.2881136023189" x2="121.44330499241084" y2="43.43017076228824"/>
    <line x1="121.44330499241084" y1="43.43017076228824" x2="117.00925993737144" y2="42.63834990761336"/>
    <line x1="117.00925993737144" y1="42.63834990761336" x2="112.17497424762328" y2="41.96968671062842"/>
    <line x1="112.17497424762328" y1="41.96968671062842" x2="107.7132680107342" y2="41.35256120650337"/>
  </g>
  <g id="face2" fill="none" stroke="#0000FF" stroke-width="1" stroke-miterlimit="4" stroke-dasharray="none" stroke-linejoin="round" stroke-linecap="round">
    <line x1="30.28817411083085" y1="68.37983557127075" x2="20.78358796264868" y2="70.86004172960293"/>
    <line x1="20.78358796264868" y1="70.86004172960293" x2="19.399895357870662" y2="71.27977819794114"/>
    <line x1="19.399895357870662" y1="71.27977819794114" x2="10.0" y2="74.13120333686288"/>
    <line x1="10.0" y1="74.13120333686288" x2="24.40383697009466" y2="118.46172658374587"/>
    <line x1="24.40383697009466" y1="118.46172658374587" x2="172.95715117907912" y2="118.46172658374576"/>
    <line x1="172.95715117907912" y1="118.46172658374576" x2="187.3610034079636" y2="74.13120333686243"/>
    <line x1="187.3610034079636" y1="74.13120333686243" x2="185.9773127391453" y2="73.71146686852455"/>
    <line x1="185.9773127391453" y1="73.71146686852455" x2="176.57744402693214" y2="70.86004172960293"/>
    <line x1="176.57744402693214" y1="70.86004172960293" x2="175.17834311604605" y2="70.49495063786458"/>
    <line x1="175.17834311604605" y1="70.49495063786458" x2="165.6737436450349" y2="68.0147444795374"/>
    <line x1="165.6737436450349" y1="68.0147444795374" x2="164.2613872156262" y2="67.70486600069535"/>
    <line x1="164.2613872156262" y1="67.70486600069535" x2="154.66676538903727" y2="65.5997557661924"/>
    <line x1="154.66676538903727" y1="65.5997557661924" x2="153.24333139617124" y2="65.34556275849604"/>
    <line x1="153.24333139617124" y1="65.34556275849604" x2="143.57346223136955" y2="63.61874592678453"/>
    <line x1="143.57346223136955" y1="63.61874592678453" x2="142.14114798971417" y2="63.42063139012282"/>
    <line x1="142.14114798971417" y1="63.42063139012282" x2="132.41093973235513" y2="62.07476586558778"/>
    <line x1="132.41093973235513" y1="62.07476586558778" x2="130.97195030041678" y2="61.93303616564003"/>
    <line x1="130.97195030041678" y1="61.93303616564003" x2="121.19639113312928" y2="60.97022695526471"/>
    <line x1="121.19639113312928" y1="60.97022695526471" x2="119.75294705709524" y2="60.88510521142723"/>
    <line x1="119.75294705709524" y1="60.88510521142723" x2="109.94713174514055" y2="60.306837810645334"/>
    <line x1="109.94713174514055" y1="60.306837810645334" x2="108.50145937907837" y2="60.27844877134498"/>
    <line x1="108.50145937907837" y1="60.27844877134498" x2="98.68050933337645" y2="60.085580837273596"/>
    <line x1="98.68050933337645" y1="60.085580837273596" x2="97.23483696731466" y2="60.11396987657406"/>
    <line x1="97.23483696731466" y1="60.11396987657406" x2="87.41387359878212" y2="60.306837810645334"/>
    <line x1="87.41387359878212" y1="60.306837810645334" x2="85.9704275867881" y2="60.391959554482696"/>
    <line x1="85.9704275867881" y1="60.391959554482696" x2="76.16462559766285" y2="60.97022695526459"/>
    <line x1="76.16462559766285" y1="60.97022695526459" x2="74.72563810168367" y2="61.111956655212566"/>
    <line x1="74.72563810168367" y1="61.111956655212566" x2="64.95009225722606" y2="62.07476586558778"/>
    <line x1="64.95009225722606" y1="62.07476586558778" x2="63.517776079610144" y2="62.2728804022496"/>
    <line x1="63.517776079610144" y1="62.2728804022496" x2="53.7875544994225" y2="63.61874592678441"/>
    <line x1="53.7875544994225" y1="63.61874592678441" x2="52.364120506555736" y2="63.87293893448077"/>
    <line x1="52.364120506555736" y1="63.87293893448077" x2="42.69425134175529" y2="65.5997557661924"/>
    <line x1="42.69425134175529" y1="65.5997557661924" x2="41.281894912345734" y2="65.90963424503138"/>
    <line x1="41.281894912345734" y1="65.90963424503138" x2="31.68727308575677" y2="68.01474447953365"/>
    <line x1="31.68727308575677" y1="68.01474447953365" x2="30.28817411083085" y2="68.37983557127075"/>
  </g>
  <g id="face3" fill="none" stroke="#0000FF" stroke-width="1" stroke-miterlimit="4" stroke-dasharray="none" stroke-linejoin="round" stroke-linecap="round">
    <line x1="13.96767919406929" y1="142.03890317611388" x2="10.0" y2="143.24248656267991"/>
    <line x1="10.0" y1="143.24248656267991" x2="29.045396272766027" y2="201.8582837390593"/>
    <line x1="29.045396272766027" y1="201.8582837390593" x2="177.59871048175046" y2="201.8582837390593"/>
    <line x1="177.59871048175046" y1="201.8582837390593" x2="196.64412201330555" y2="143.24248656268003"/>
    <line x1="196.64412201330555" y1="143.24248656268003" x2="189.2638219502623" y2="141.00369692071695"/>
    <line x1="189.2638219502623" y1="141.00369692071695" x2="185.29614275619207" y2="139.8001135341492"/>
    <line x1="185.29614275619207" y1="139.8001135341492" x2="177.8336294787942" y2="137.85281183420295"/>
    <line x1="177.8336294787942" y1="137.85281183420295" x2="173.82175646107328" y2="136.80592479642416"/>
    <line x1="173.82175646107328" y1="136.80592479642416" x2="166.28855962974296" y2="135.15307052848664"/>
    <line x1="166.28855962974296" y1="135.15307052848664" x2="162.23868152975808" y2="134.26450130579713"/>
    <line x1="162.23868152975808" y1="134.26450130579713" x2="154.64638033095054" y2="132.90870696809668"/>
    <line x1="154.64638033095054" y1="132.90870696809668" x2="150.56473407232818" y2="132.1798147012588"/>
    <line x1="150.56473407232818" y1="132.1798147012588" x2="142.9250661758055" y2="131.12311086113777"/>
    <line x1="142.9250661758055" y1="131.12311086113777" x2="138.81795292516546" y2="130.55502465416328"/>
    <line x1="138.81795292516546" y1="130.55502465416328" x2="131.1426956215126" y2="129.7990755410907"/>
    <line x1="131.1426956215126" y1="129.7990755410907" x2="127.01644331338622" y2="129.3926738834101"/>
    <line x1="127.01644331338622" y1="129.3926738834101" x2="119.31742341922268" y2="128.93864010900938"/>
    <line x1="119.31742341922268" y1="128.93864010900938" x2="115.17839746321835" y2="128.6945501226246"/>
    <line x1="115.17839746321835" y1="128.6945501226246" x2="107.46748141598988" y2="128.54312822411578"/>
    <line x1="107.46748141598988" y1="128.54312822411578" x2="103.32206863604773" y2="128.46172658374587"/>
    <line x1="103.32206863604773" y1="128.46172658374587" x2="95.61115258881841" y2="128.6131484822546"/>
    <line x1="95.61115258881841" y1="128.6131484822546" x2="91.46573445529299" y2="128.69455012262438"/>
    <line x1="91.46573445529299" y1="128.69455012262438" x2="83.76670465592309" y2="129.148583897025"/>
    <line x1="83.76670465592309" y1="129.148583897025" x2="79.62768405350175" y2="129.3926738834101"/>
    <line x1="79.62768405350175" y1="129.3926738834101" x2="71.95241684464207" y2="130.1486229964828"/>
    <line x1="71.95241684464207" y1="130.1486229964828" x2="67.82615918293317" y2="130.5550246541634"/>
    <line x1="67.82615918293317" y1="130.5550246541634" x2="60.18651109682315" y2="131.61172849428465"/>
    <line x1="60.18651109682315" y1="131.61172849428465" x2="56.07939249260062" y2="132.17981470125903"/>
    <line x1="56.07939249260062" y1="132.17981470125903" x2="48.48711110420737" y2="133.53560903895982"/>
    <line x1="48.48711110420737" y1="133.53560903895982" x2="44.40547555274986" y2="134.26450130579735"/>
    <line x1="44.40547555274986" y1="134.26450130579735" x2="36.87224900579997" y2="135.9173555737351"/>
    <line x1="36.87224900579997" y1="135.9173555737351" x2="32.82236019864945" y2="136.80592479642394"/>
    <line x1="32.82236019864945" y1="136.80592479642394" x2="25.359856826457616" y2="138.75322649637144"/>
    <line x1="25.359856826457616" y1="138.75322649637144" x2="21.347989162319408" y2="139.8001135341508"/>
    <line x1="21.347989162319408" y1="139.8001135341508" x2="13.96767919406929" y2="142.03890317611388"/>
  </g>
  <g id="face4" fill="none" stroke="#0000FF" stroke-width="1" stroke-miterlimit="4" stroke-dasharray="none" stroke-linejoin="round" stroke-linecap="round">
    <line x1="125.31530250172403" y1="212.77570269391606" x2="119.77991690581263" y2="212.449274581675"/>
    <line x1="119.77991690581263" y1="212.449274581675" x2="113.64935523276594" y2="212.08772321329332"/>
    <line x1="113.64935523276594" y1="212.08772321329332" x2="108.10542745300356" y2="211.97884798903692"/>
    <line x1="108.10542745300356" y1="211.97884798903692" x2="101.96539070032918" y2="211.8582837390593"/>
    <line x1="101.96539070032918" y1="211.8582837390593" x2="96.4214629205668" y2="211.9671589633159"/>
    <line x1="96.4214629205668" y1="211.9671589633159" x2="90.28142616789299" y2="212.08772321329354"/>
    <line x1="90.28142616789299" y1="212.08772321329354" x2="84.7460405719822" y2="212.41415132553402"/>
    <line x1="84.7460405719822" y1="212.41415132553402" x2="78.6154708487403" y2="212.77570269391606"/>
    <line x1="78.6154708487403" y1="212.77570269391606" x2="73.09716962053258" y2="213.31921941563655"/>
    <line x1="73.09716962053258" y1="213.31921941563655" x2="66.98552590595799" y2="213.92116017543663"/>
    <line x1="66.98552590595799" y1="213.92116017543663" x2="61.49280797774048" y2="214.68089236569153"/>
    <line x1="61.49280797774048" y1="214.68089236569153" x2="55.40950094990123" y2="215.52231083231516"/>
    <line x1="55.40950094990123" y1="215.52231083231516" x2="49.950865253962235" y2="216.49710421499674"/>
    <line x1="49.950865253962235" y1="216.49710421499674" x2="43.905281440338456" y2="217.57671084781703"/>
    <line x1="43.905281440338456" y1="217.57671084781703" x2="38.489104362867124" y2="218.76504486013437"/>
    <line x1="38.489104362867124" y1="218.76504486013437" x2="32.490581989768174" y2="220.08115767151378"/>
    <line x1="32.490581989768174" y1="220.08115767151378" x2="27.125254334144444" y2="221.4812297144382"/>
    <line x1="27.125254334144444" y1="221.4812297144382" x2="21.18301892515096" y2="223.03183514932903"/>
    <line x1="21.18301892515096" y1="223.03183514932903" x2="15.876787322872218" y2="224.64146372211076"/>
    <line x1="15.876787322872218" y1="224.64146372211076" x2="10.0" y2="226.42417338825533"/>
    <line x1="10.0" y1="226.42417338825533" x2="27.688723410621208" y2="280.86450702352136"/>
    <line x1="27.688723410621208" y1="280.86450702352136" x2="176.24203041202182" y2="280.8645079786413"/>
    <line x1="176.24203041202182" y1="280.8645079786413" x2="193.93077335046516" y2="226.42417338825533"/>
    <line x1="193.93077335046516" y1="226.42417338825533" x2="188.62453453959105" y2="224.81454481547337"/>
    <line x1="188.62453453959105" y1="224.81454481547337" x2="182.74774721671983" y2="223.0318351493289"/>
    <line x1="182.74774721671983" y1="223.0318351493289" x2="177.3824123525009" y2="221.6317631064045"/>
    <line x1="177.3824123525009" y1="221.6317631064045" x2="171.44018499370318" y2="220.0811576715139"/>
    <line x1="171.44018499370318" y1="220.0811576715139" x2="166.0240151248258" y2="218.89282365919644"/>
    <line x1="166.0240151248258" y1="218.89282365919644" x2="160.02547665133605" y2="217.5767108478169"/>
    <line x1="160.02547665133605" y1="217.5767108478169" x2="154.56683374680446" y2="216.60191746513556"/>
    <line x1="154.56683374680446" y1="216.60191746513556" x2="148.52125798337462" y2="215.52231083231516"/>
    <line x1="148.52125798337462" y1="215.52231083231516" x2="143.02854726375108" y2="214.76257864205968"/>
    <line x1="143.02854726375108" y1="214.76257864205968" x2="136.94524023591248" y2="213.92116017543628"/>
    <line x1="136.94524023591248" y1="213.92116017543628" x2="131.4269462162978" y2="213.3776434537159"/>
    <line x1="131.4269462162978" y1="213.3776434537159" x2="125.31530250172403" y2="212.77570269391606"/>
  </g>
  <g id="face5" fill="none" stroke="#0000FF" stroke-width="1" stroke-miterlimit="4" stroke-dasharray="none" stroke-linejoin="round" stroke-linecap="round">
    <line x1="127.56756193430782" y1="291.7998467243316" x2="118.90504882462527" y2="291.288979215356"/>
    <line x1="118.90504882462527" y1="291.288979215356" x2="115.67376959939666" y2="291.0984212062924"/>
    <line x1="115.67376959939666" y1="291.0984212062924" x2="106.99786799251568" y2="290.9280597607669"/>
    <line x1="106.99786799251568" y1="290.9280597607669" x2="103.76159595095636" y2="290.8645079786413"/>
    <line x1="103.76159595095636" y1="290.8645079786413" x2="95.08569434407438" y2="291.0348694241667"/>
    <line x1="95.08569434407438" y1="291.0348694241667" x2="91.8494223025154" y2="291.0984212062922"/>
    <line x1="91.8494223025154" y1="291.0984212062922" x2="83.18689809125966" y2="291.6092887152672"/>
    <line x1="83.18689809125966" y1="291.6092887152672" x2="79.95561470881528" y2="291.7998467243316"/>
    <line x1="79.95561470881528" y1="291.7998467243316" x2="71.31982308566457" y2="292.6503962651458"/>
    <line x1="71.31982308566457" y1="292.6503962651458" x2="68.0985128642351" y2="292.96766816442346"/>
    <line x1="68.0985128642351" y1="292.96766816442346" x2="59.50278681852258" y2="294.15659911839884"/>
    <line x1="59.50278681852258" y1="294.15659911839884" x2="56.29642594557346" y2="294.60009779910627"/>
    <line x1="56.29642594557346" y1="294.60009779910627" x2="47.75398745090108" y2="296.1255882072825"/>
    <line x1="47.75398745090108" y1="296.1255882072825" x2="44.567506384525174" y2="296.69461519218703"/>
    <line x1="44.567506384525174" y1="296.69461519218703" x2="36.09154410977597" y2="298.55428029788584"/>
    <line x1="36.09154410977597" y1="298.55428029788584" x2="32.92984836476951" y2="299.24798335772164"/>
    <line x1="32.92984836476951" y1="299.24798335772164" x2="24.53343996309364" y2="301.43900509598836"/>
    <line x1="24.53343996309364" y1="301.43900509598836" x2="21.40142673982062" y2="302.2562877650538"/>
    <line x1="21.40142673982062" y1="302.2562877650538" x2="13.097516645492632" y2="304.7752603814055"/>
    <line x1="13.097516645492632" y1="304.7752603814055" x2="10.0" y2="305.7148805615293"/>
    <line x1="10.0" y1="305.7148805615293" x2="29.48492358767514" y2="365.683372890491"/>
    <line x1="29.48492358767514" y1="365.683372890491" x2="178.03823779665953" y2="365.683372890491"/>
    <line x1="178.03823779665953" y1="365.683372890491" x2="197.52317664312454" y2="305.7148805615293"/>
    <line x1="197.52317664312454" y1="305.7148805615293" x2="189.2192554472229" y2="303.19590794517774"/>
    <line x1="189.2192554472229" y1="303.19590794517774" x2="186.12174295894567" y2="302.2562877650538"/>
    <line x1="186.12174295894567" y1="302.2562877650538" x2="177.72533455726966" y2="300.0652660267873"/>
    <line x1="177.72533455726966" y1="300.0652660267873" x2="174.59331717678185" y2="299.2479833577215"/>
    <line x1="174.59331717678185" y1="299.2479833577215" x2="166.117366003605" y2="297.3883182520225"/>
    <line x1="166.117366003605" y1="297.3883182520225" x2="162.95568273024668" y2="296.6946151921868"/>
    <line x1="162.95568273024668" y1="296.6946151921868" x2="154.41325533714712" y2="295.1691247840105"/>
    <line x1="154.41325533714712" y1="295.1691247840105" x2="151.22676595633982" y2="294.60009779910615"/>
    <line x1="151.22676595633982" y1="294.60009779910615" x2="142.63101770748113" y2="293.4111668451312"/>
    <line x1="142.63101770748113" y1="293.4111668451312" x2="139.42464852009977" y2="292.9676681644238"/>
    <line x1="139.42464852009977" y1="292.9676681644238" x2="130.788867998522" y2="292.1171186236097"/>
    <line x1="130.788867998522" y1="292.1171186236097" x2="127.56756193430782" y2="291.7998467243316"/>
  </g>
  <g id="face6" fill="none" stroke="#0000FF" stroke-width="1" stroke-miterlimit="4" stroke-dasharray="none" stroke-linejoin="round" stroke-linecap="round">
    <line x1="29.144949953316967" y1="384.47023866453685" x2="20.937779876214705" y2="386.6118774886802"/>
    <line x1="20.937779876214705" y1="386.6118774886802" x2="18.116795211623696" y2="387.467617112644"/>
    <line x1="18.116795211623696" y1="387.467617112644" x2="10.0" y2="389.92980772495457"/>
    <line x1="10.0" y1="389.92980772495457" x2="25.671883459471815" y2="438.16297911121796"/>
    <line x1="25.671883459471815" y1="438.16297911121796" x2="174.22519766845622" y2="438.16297911121796"/>
    <line x1="174.22519766845622" y1="438.16297911121796" x2="189.8971007762373" y2="389.92980788323985"/>
    <line x1="189.8971007762373" y1="389.92980788323985" x2="187.07611611164654" y2="389.0740682592759"/>
    <line x1="187.07611611164654" y1="389.0740682592759" x2="178.95933176929103" y2="386.6118774886796"/>
    <line x1="178.95933176929103" y1="386.6118774886796" x2="176.10691741209237" y2="385.8675534713967"/>
    <line x1="176.10691741209237" y1="385.8675534713967" x2="167.89973597857207" y2="383.7259146472487"/>
    <line x1="167.89973597857207" y1="383.7259146472487" x2="165.0203055098872" y2="383.0941423142822"/>
    <line x1="165.0203055098872" y1="383.0941423142822" x2="156.73536667897915" y2="381.2763828672064"/>
    <line x1="156.73536667897915" y1="381.2763828672064" x2="153.83335319177942" y2="380.75815268898"/>
    <line x1="153.83335319177942" y1="380.75815268898" x2="145.48343293428368" y2="379.2670464241894"/>
    <line x1="145.48343293428368" y1="379.2670464241894" x2="142.56330854524774" y2="378.86314350888745"/>
    <line x1="142.56330854524774" y1="378.86314350888745" x2="134.1612963961468" y2="377.700995779335"/>
    <line x1="134.1612963961468" y1="377.700995779335" x2="131.22756444091735" y2="377.41204499404535"/>
    <line x1="131.22756444091735" y1="377.41204499404535" x2="122.78639536087022" y2="376.58065295295637"/>
    <line x1="122.78639536087022" y1="376.58065295295637" x2="119.84358258931397" y2="376.40711185062924"/>
    <line x1="119.84358258931397" y1="376.40711185062924" x2="111.37628239032509" y2="375.9077843252344"/>
    <line x1="111.37628239032509" y1="375.9077843252344" x2="108.42892725942099" y2="375.84990412097545"/>
    <line x1="108.42892725942099" y1="375.84990412097545" x2="99.9485558227527" y2="375.683372890491"/>
    <line x1="99.9485558227527" y1="375.683372890491" x2="97.00119678947746" y2="375.74125309474994"/>
    <line x1="97.00119678947746" y1="375.74125309474994" x2="88.52082535280991" y2="375.9077843252344"/>
    <line x1="88.52082535280991" y1="375.9077843252344" x2="85.57801258125355" y2="376.08132542756164"/>
    <line x1="85.57801258125355" y1="376.08132542756164" x2="77.11070102584657" y2="376.5806529529565"/>
    <line x1="77.11070102584657" y1="376.5806529529565" x2="74.17697297298795" y2="376.86960373824616"/>
    <line x1="74.17697297298795" y1="376.86960373824616" x2="65.73581524935909" y2="377.70099577933513"/>
    <line x1="65.73581524935909" y1="377.70099577933513" x2="62.81568695795252" y2="378.1048986946374"/>
    <line x1="62.81568695795252" y1="378.1048986946374" x2="54.41366345243338" y2="379.26704642418974"/>
    <line x1="54.41366345243338" y1="379.26704642418974" x2="51.51164996523332" y2="379.78527660241673"/>
    <line x1="51.51164996523332" y1="379.78527660241673" x2="43.16172970773695" y2="381.2763828672066"/>
    <line x1="43.16172970773695" y1="381.2763828672066" x2="40.28230314142266" y2="381.90815520017793"/>
    <line x1="40.28230314142266" y1="381.90815520017793" x2="31.997364310514968" y2="383.72591464725247"/>
    <line x1="31.997364310514968" y1="383.72591464725247" x2="29.144949953316967" y2="384.47023866453685"/>
  </g>
  <g id="face7" fill="none" stroke="#0000FF" stroke-width="1" stroke-miterlimit="4" stroke-dasharray="none" stroke-linejoin="round" stroke-linecap="round">
    <line x1="112.60826356922638" y1="448.3901145579392" x2="108.30043894586024" y2="448.30552717423586"/>
    <line x1="108.30043894586024" y1="448.30552717423586" x2="101.04165728959163" y2="448.16297911121796"/>
    <line x1="101.04165728959163" y1="448.16297911121796" x2="96.73383266622591" y2="448.24756649492167"/>
    <line x1="96.73383266622591" y1="448.24756649492167" x2="89.47504139915264" y2="448.3901145579392"/>
    <line x1="89.47504139915264" y1="448.3901145579392" x2="85.1738588048386" y2="448.6437775163321"/>
    <line x1="85.1738588048386" y1="448.6437775163321" x2="77.9262641257921" y2="449.07117662985365"/>
    <line x1="77.9262641257921" y1="449.07117662985365" x2="73.63835994160203" y2="449.493495800133"/>
    <line x1="73.63835994160203" y1="449.493495800133" x2="66.41313921700115" y2="450.205127268575"/>
    <line x1="66.41313921700115" y1="450.205127268575" x2="62.14511593609615" y2="450.7954630165649"/>
    <line x1="62.14511593609615" y1="450.7954630165649" x2="54.95338886752805" y2="451.79019997302066"/>
    <line x1="54.95338886752805" y1="451.79019997302066" x2="50.711832039124346" y2="452.54764756230236"/>
    <line x1="50.711832039124346" y1="452.54764756230236" x2="43.564718328174166" y2="453.8239510765934"/>
    <line x1="43.564718328174166" y1="453.8239510765934" x2="39.356179613581645" y2="454.7473304315331"/>
    <line x1="39.356179613581645" y1="454.7473304315331" x2="32.26469324297864" y2="456.3032669297934"/>
    <line x1="32.26469324297864" y1="456.3032669297934" x2="28.095645231734096" y2="457.39116534842094"/>
    <line x1="28.095645231734096" y1="457.39116534842094" x2="21.07068485454701" y2="459.2242954881625"/>
    <line x1="21.07068485454701" y1="459.2242954881625" x2="16.947554952315215" y2="460.4750372842577"/>
    <line x1="16.947554952315215" y1="460.4750372842577" x2="10.0" y2="462.58256311982404"/>
    <line x1="10.0" y1="462.58256311982404" x2="26.76498492631049" y2="514.1799672228549"/>
    <line x1="26.76498492631049" y1="514.1799672228549" x2="175.318299135295" y2="514.1799672228549"/>
    <line x1="175.318299135295" y1="514.1799672228549" x2="192.08330893119998" y2="462.58256311982416"/>
    <line x1="192.08330893119998" y1="462.58256311982416" x2="187.96017902896787" y2="461.33182132372895"/>
    <line x1="187.96017902896787" y1="461.33182132372895" x2="181.01262407665294" y2="459.2242954881625"/>
    <line x1="181.01262407665294" y1="459.2242954881625" x2="176.84358171339167" y2="458.13639706953506"/>
    <line x1="176.84358171339167" y1="458.13639706953506" x2="169.81862133620515" y2="456.3032669297934"/>
    <line x1="169.81862133620515" y1="456.3032669297934" x2="165.61007132564495" y2="455.3798875748539"/>
    <line x1="165.61007132564495" y1="455.3798875748539" x2="158.51857534423786" y2="453.82395107659363"/>
    <line x1="158.51857534423786" y1="453.82395107659363" x2="154.27702416381752" y2="453.06650348731193"/>
    <line x1="154.27702416381752" y1="453.06650348731193" x2="147.1299104528671" y2="451.7901999730208"/>
    <line x1="147.1299104528671" y1="451.7901999730208" x2="142.8618871719627" y2="451.19986422503075"/>
    <line x1="142.8618871719627" y1="451.19986422503075" x2="135.67016971419864" y2="450.205127268575"/>
    <line x1="135.67016971419864" y1="450.205127268575" x2="131.38226553000737" y2="449.78280809829573"/>
    <line x1="131.38226553000737" y1="449.78280809829573" x2="124.15703519460186" y2="449.07117662985377"/>
    <line x1="124.15703519460186" y1="449.07117662985377" x2="119.85585824827226" y2="448.8175136714606"/>
    <line x1="119.85585824827226" y1="448.8175136714606" x2="112.60826356922638" y2="448.3901145579392"/>
  </g>
  <g id="face8" fill="none" stroke="#0000FF" stroke-width="1" stroke-miterlimit="4" stroke-dasharray="none" stroke-linejoin="round" stroke-linecap="round">
    <line x1="29.959617702239683" y1="531.4774883643372" x2="25.902193069297596" y2="532.5362626673082"/>
    <line x1="25.902193069297596" y1="532.5362626673082" x2="19.92452731489172" y2="534.0961053809848"/>
    <line x1="19.92452731489172" y1="534.0961053809848" x2="15.911817729239687" y2="535.3133464740624"/>
    <line x1="15.911817729239687" y1="535.3133464740624" x2="10.0" y2="537.1066782900651"/>
    <line x1="10.0" y1="537.1066782900651" x2="17.339395753330052" y2="559.695102805044"/>
    <line x1="17.339395753330052" y1="559.695102805044" x2="165.89270996231411" y2="559.695102805044"/>
    <line x1="165.89270996231411" y1="559.695102805044" x2="173.23212097443312" y2="537.1066782900657"/>
    <line x1="173.23212097443312" y1="537.1066782900657" x2="169.2194052984718" y2="535.889437196988"/>
    <line x1="169.2194052984718" y1="535.889437196988" x2="163.30759673771237" y2="534.0961053809849"/>
    <line x1="163.30759673771237" y1="534.0961053809849" x2="159.2501842853873" y2="533.0373310780129"/>
    <line x1="159.2501842853873" y1="533.0373310780129" x2="153.27251853098122" y2="531.4774883643372"/>
    <line x1="153.27251853098122" y1="531.4774883643372" x2="149.176664049442" y2="530.5788358928909"/>
    <line x1="149.176664049442" y1="530.5788358928909" x2="143.1423737610024" y2="529.2548683785268"/>
    <line x1="143.1423737610024" y1="529.2548683785268" x2="139.01439290048503" y2="528.5177019677816"/>
    <line x1="139.01439290048503" y1="528.5177019677816" x2="132.9327657485065" y2="527.4316656844246"/>
    <line x1="132.9327657485065" y1="527.4316656844246" x2="128.7790350623366" y2="526.8571440156295"/>
    <line x1="128.7790350623366" y1="526.8571440156295" x2="122.65946873907686" y2="526.010707626686"/>
    <line x1="122.65946873907686" y1="526.010707626686" x2="118.48638305150561" y2="525.5996818204986"/>
    <line x1="118.48638305150561" y1="525.5996818204986" x2="112.33830275466417" y2="524.9941518344046"/>
    <line x1="112.33830275466417" y1="524.9941518344046" x2="108.15229343179593" y2="524.7472933473707"/>
    <line x1="108.15229343179593" y1="524.7472933473707" x2="101.98517020147202" y2="524.3835980727522"/>
    <line x1="101.98517020147202" y1="524.3835980727522" x2="97.79269906095615" y2="524.3012708008229"/>
    <line x1="97.79269906095615" y1="524.3012708008229" x2="91.6160681166107" y2="524.1799672228549"/>
    <line x1="91.6160681166107" y1="524.1799672228549" x2="87.42359088578516" y2="524.262294494784"/>
    <line x1="87.42359088578516" y1="524.262294494784" x2="81.24695077296067" y2="524.3835980727522"/>
    <line x1="81.24695077296067" y1="524.3835980727522" x2="77.06094754040097" y2="524.6304565597864"/>
    <line x1="77.06094754040097" y1="524.6304565597864" x2="70.89382431007678" y2="524.9941518344049"/>
    <line x1="70.89382431007678" y1="524.9941518344049" x2="66.72073862250582" y2="525.4051776405926"/>
    <line x1="66.72073862250582" y1="525.4051776405926" x2="60.57266749414421" y2="526.0107076266862"/>
    <line x1="60.57266749414421" y1="526.0107076266862" x2="56.41893071766549" y2="526.5852292954811"/>
    <line x1="56.41893071766549" y1="526.5852292954811" x2="50.29935522592578" y2="527.4316656844243"/>
    <line x1="50.29935522592578" y1="527.4316656844243" x2="46.17138045571812" y2="528.16883209517"/>
    <line x1="46.17138045571812" y1="528.16883209517" x2="40.089762472219036" y2="529.254868378527"/>
    <line x1="40.089762472219036" y1="529.254868378527" x2="35.99390799067976" y2="530.1535208499722"/>
    <line x1="35.99390799067976" y1="530.1535208499722" x2="29.959617702239683" y2="531.4774883643372"/>
  </g>
  <g id="face9" fill="none" stroke="#0000FF" stroke-width="1" stroke-miterlimit="4" stroke-dasharray="none" stroke-linejoin="round" stroke-linecap="round">
    <line x1="114.94834922119549" y1="570.5300436016762" x2="108.3221880912815" y2="570.139273117007"/>
    <line x1="108.3221880912815" y1="570.139273117007" x2="104.33116615599289" y2="569.9039134795395"/>
    <line x1="104.33116615599289" y1="569.9039134795395" x2="97.69479668106771" y2="569.773595212203"/>
    <line x1="97.69479668106771" y1="569.773595212203" x2="93.69761392434032" y2="569.695102805044"/>
    <line x1="93.69761392434032" y1="569.695102805044" x2="87.06122554507198" y2="569.8254210723807"/>
    <line x1="87.06122554507198" y1="569.8254210723807" x2="83.06403698172826" y2="569.9039134795397"/>
    <line x1="83.06403698172826" y1="569.9039134795397" x2="76.43790420832843" y2="570.2946839642086"/>
    <line x1="76.43790420832843" y1="570.2946839642086" x2="72.44688807965736" y2="570.5300436016762"/>
    <line x1="72.44688807965736" y1="570.5300436016762" x2="65.84119090062441" y2="571.1806554571068"/>
    <line x1="65.84119090062441" y1="571.1806554571068" x2="61.862490608212624" y2="571.5725353794725"/>
    <line x1="61.862490608212624" y1="571.5725353794725" x2="55.287409012043895" y2="572.4819736787707"/>
    <line x1="55.287409012043895" y1="572.4819736787707" x2="51.327156344239796" y2="573.0297337064261"/>
    <line x1="51.327156344239796" y1="573.0297337064261" x2="44.792889223776996" y2="574.1966160695388"/>
    <line x1="44.792889223776996" y1="574.1966160695388" x2="40.85719854907683" y2="574.8994447276524"/>
    <line x1="40.85719854907683" y1="574.8994447276524" x2="34.37374630156168" y2="576.3219397963886"/>
    <line x1="34.37374630156168" y1="576.3219397963886" x2="30.468679728901947" y2="577.1787323759335"/>
    <line x1="30.468679728901947" y1="577.1787323759335" x2="24.046080560264926" y2="578.8547039595768"/>
    <line x1="24.046080560264926" y1="578.8547039595768" x2="20.177653745639503" y2="579.8641597781756"/>
    <line x1="20.177653745639503" y1="579.8641597781756" x2="13.825794627066443" y2="581.7909612687608"/>
    <line x1="13.825794627066443" y1="581.7909612687608" x2="10.0" y2="582.9515023780382"/>
    <line x1="10.0" y1="582.9515023780382" x2="19.42094156105952" y2="611.946209893516"/>
    <line x1="19.42094156105952" y1="611.946209893516" x2="167.97425577004438" y2="611.946209893516"/>
    <line x1="167.97425577004438" y1="611.946209893516" x2="177.39520313772144" y2="582.9515023780384"/>
    <line x1="177.39520313772144" y1="582.9515023780384" x2="171.0433534713201" y2="581.0247008874532"/>
    <line x1="171.0433534713201" y1="581.0247008874532" x2="167.21755303763544" y2="579.8641597781756"/>
    <line x1="167.21755303763544" y1="579.8641597781756" x2="160.79495386899762" y2="578.188188194532"/>
    <line x1="160.79495386899762" y1="578.188188194532" x2="156.9265386676078" y2="577.1787323759334"/>
    <line x1="156.9265386676078" y1="577.1787323759334" x2="150.44310532443617" y2="575.7562373071975"/>
    <line x1="150.44310532443617" y1="575.7562373071975" x2="146.5380387517765" y2="574.8994447276526"/>
    <line x1="146.5380387517765" y1="574.8994447276526" x2="140.00375272697073" y2="573.73256236454"/>
    <line x1="140.00375272697073" y1="573.73256236454" x2="136.06805624565305" y2="573.0297337064259"/>
    <line x1="136.06805624565305" y1="573.0297337064259" x2="129.49298410165596" y2="572.1202954071273"/>
    <line x1="129.49298410165596" y1="572.1202954071273" x2="125.53273724046912" y2="571.5725353794721"/>
    <line x1="125.53273724046912" y1="571.5725353794721" x2="118.92704951360733" y2="570.9219235240412"/>
    <line x1="118.92704951360733" y1="570.9219235240412" x2="114.94834922119549" y2="570.5300436016762"/>
  </g>
  <g id="face10" fill="none" stroke="#0000FF" stroke-width="1" stroke-miterlimit="4" stroke-dasharray="none" stroke-linejoin="round" stroke-linecap="round">
    <line x1="119.47082858853832" y1="623.7251391195693" x2="117.96809775031039" y2="623.5771338008941"/>
    <line x1="117.96809775031039" y1="623.5771338008941" x2="109.44177479620382" y2="622.737358539298"/>
    <line x1="109.44177479620382" y1="622.737358539298" x2="107.9343894313576" y2="622.6484631315448"/>
    <line x1="107.9343894313576" y1="622.6484631315448" x2="99.38167938917209" y2="622.144072055318"/>
    <line x1="99.38167938917209" y1="622.144072055318" x2="97.87197012249365" y2="622.1144226983483"/>
    <line x1="97.87197012249365" y1="622.1144226983483" x2="89.30606002736653" y2="621.946209893516"/>
    <line x1="89.30606002736653" y1="621.946209893516" x2="87.79634851970286" y2="621.9758592504859"/>
    <line x1="87.79634851970286" y1="621.9758592504859" x2="79.23042540677224" y2="622.144072055318"/>
    <line x1="79.23042540677224" y1="622.144072055318" x2="77.72304004192523" y2="622.2329674630714"/>
    <line x1="77.72304004192523" y1="622.2329674630714" x2="69.17032999973978" y2="622.7373585392982"/>
    <line x1="69.17032999973978" y1="622.7373585392982" x2="67.66760140249707" y2="622.8853638579733"/>
    <line x1="67.66760140249707" y1="622.8853638579733" x2="59.141291466195014" y2="623.7251391195693"/>
    <line x1="59.141291466195014" y1="623.7251391195693" x2="57.64552785148939" y2="623.9320274494"/>
    <line x1="57.64552785148939" y1="623.9320274494" x2="49.15875298499418" y2="625.1058655892889"/>
    <line x1="49.15875298499418" y1="625.1058655892889" x2="47.67226704973089" y2="625.3713175898542"/>
    <line x1="47.67226704973089" y1="625.3713175898542" x2="39.238136181357646" y2="626.8774677134434"/>
    <line x1="39.238136181357646" y1="626.8774677134434" x2="37.76321821258662" y2="627.2010755254089"/>
    <line x1="37.76321821258662" y1="627.2010755254089" x2="29.39469707481217" y2="629.0371976824835"/>
    <line x1="29.39469707481217" y1="629.0371976824835" x2="27.933619431700862" y2="629.4184587648789"/>
    <line x1="27.933619431700862" y1="629.4184587648789" x2="19.643647721392398" y2="631.5816890386268"/>
    <line x1="19.643647721392398" y1="631.5816890386268" x2="18.198664835226296" y2="632.0200201750089"/>
    <line x1="18.198664835226296" y1="632.0200201750089" x2="10.0" y2="634.507055297744"/>
    <line x1="10.0" y1="634.507055297744" x2="15.029387664085561" y2="649.9859818234987"/>
    <line x1="15.029387664085561" y1="649.9859818234987" x2="163.58270187306994" y2="649.9859818234986"/>
    <line x1="163.58270187306994" y1="649.9859818234986" x2="168.61210479594405" y2="634.5070552977439"/>
    <line x1="168.61210479594405" y1="634.5070552977439" x2="167.16712415076216" y2="634.0687241613618"/>
    <line x1="167.16712415076216" y1="634.0687241613618" x2="158.96847233333915" y2="631.5816890386268"/>
    <line x1="158.96847233333915" y1="631.5816890386268" x2="157.50739469022835" y2="631.2004279562315"/>
    <line x1="157.50739469022835" y1="631.2004279562315" x2="149.2174229799199" y2="629.0371976824836"/>
    <line x1="149.2174229799199" y1="629.0371976824836" x2="147.7425050111487" y2="628.713589870518"/>
    <line x1="147.7425050111487" y1="628.713589870518" x2="139.3739838733755" y2="626.8774677134436"/>
    <line x1="139.3739838733755" y1="626.8774677134436" x2="137.8874956971259" y2="626.6120157128778"/>
    <line x1="137.8874956971259" y1="626.6120157128778" x2="129.45336482875373" y2="625.1058655892884"/>
    <line x1="129.45336482875373" y1="625.1058655892884" x2="127.95760345503362" y2="624.8989772594603"/>
    <line x1="127.95760345503362" y1="624.8989772594603" x2="119.47082858853832" y2="623.7251391195693"/>
  </g>
  <g id="face11" fill="none" stroke="#0000FF" stroke-width="1" stroke-miterlimit="4" stroke-dasharray="none" stroke-linejoin="round" stroke-linecap="round">
    <line x1="126.26688816394059" y1="660.910961443707" x2="119.60455552557079" y2="660.5180649747603"/>
    <line x1="119.60455552557079" y1="660.5180649747603" x2="114.5046645176262" y2="660.2173184837502"/>
    <line x1="114.5046645176262" y1="660.2173184837502" x2="107.83205140601521" y2="660.0862913263422"/>
    <line x1="107.83205140601521" y1="660.0862913263422" x2="102.72429026764277" y2="659.9859818234987"/>
    <line x1="102.72429026764277" y1="659.9859818234987" x2="96.05166853870261" y2="660.1170089809066"/>
    <line x1="96.05166853870261" y1="660.1170089809066" x2="90.94390740032992" y2="660.21731848375"/>
    <line x1="90.94390740032992" y1="660.21731848375" x2="84.28158337928821" y2="660.6102149526973"/>
    <line x1="84.28158337928821" y1="660.6102149526973" x2="79.18169237134495" y2="660.910961443707"/>
    <line x1="79.18169237134495" y1="660.910961443707" x2="72.53991206212672" y2="661.5651209143252"/>
    <line x1="72.53991206212672" y1="661.5651209143252" x2="67.45576131503995" y2="662.0658766419507"/>
    <line x1="67.45576131503995" y1="662.0658766419507" x2="60.84478795622965" y2="662.9802896749595"/>
    <line x1="60.84478795622965" y1="662.9802896749595" x2="55.78420775166654" y2="663.6802501923246"/>
    <line x1="55.78420775166654" y1="663.6802501923246" x2="49.21425287787369" y2="664.8535027379298"/>
    <line x1="49.21425287787369" y1="664.8535027379298" x2="44.185073497501605" y2="665.7516045812075"/>
    <line x1="44.185073497501605" y1="665.7516045812075" x2="37.66621938340555" y2="667.1818791909099"/>
    <line x1="37.66621938340555" y1="667.1818791909099" x2="32.67615820406792" y2="668.2767214270726"/>
    <line x1="32.67615820406792" y1="668.2767214270726" x2="26.218504359003163" y2="669.9618303765266"/>
    <line x1="26.218504359003163" y1="669.9618303765266" x2="21.275292040460542" y2="671.2517522254141"/>
    <line x1="21.275292040460542" y1="671.2517522254141" x2="14.888765627189997" y2="673.1890855411636"/>
    <line x1="14.888765627189997" y1="673.1890855411636" x2="10.0" y2="674.6720771308594"/>
    <line x1="10.0" y1="674.6720771308594" x2="28.44762186547942" y2="731.4480867709431"/>
    <line x1="28.44762186547942" y1="731.4480867709431" x2="177.00093211334593" y2="731.448088057987"/>
    <line x1="177.00093211334593" y1="731.448088057987" x2="195.44857191795631" y2="674.6720771308596"/>
    <line x1="195.44857191795631" y1="674.6720771308596" x2="189.06204550468533" y2="672.7347438151099"/>
    <line x1="189.06204550468533" y1="672.7347438151099" x2="184.1732732360357" y2="671.2517522254141"/>
    <line x1="184.1732732360357" y1="671.2517522254141" x2="177.71561077364277" y2="669.5666432759602"/>
    <line x1="177.71561077364277" y1="669.5666432759602" x2="172.77239181364" y2="668.2767214270726"/>
    <line x1="172.77239181364" y1="668.2767214270726" x2="166.2535549342008" y2="666.8464468173704"/>
    <line x1="166.2535549342008" y1="666.8464468173704" x2="161.26350039632274" y2="665.7516045812075"/>
    <line x1="161.26350039632274" y1="665.7516045812075" x2="154.69352828787217" y2="664.5783520356023"/>
    <line x1="154.69352828787217" y1="664.5783520356023" x2="149.66434226604017" y2="663.6802501923246"/>
    <line x1="149.66434226604017" y1="663.6802501923246" x2="143.05337752455833" y2="662.7658371593154"/>
    <line x1="143.05337752455833" y1="662.7658371593154" x2="137.99280396145582" y2="662.0658766419504"/>
    <line x1="137.99280396145582" y1="662.0658766419504" x2="131.35103226956727" y2="661.4117171713326"/>
    <line x1="131.35103226956727" y1="661.4117171713326" x2="126.26688816394059" y2="660.910961443707"/>
  </g>
  <g id="face12" fill="none" stroke="#0000FF" stroke-width="1" stroke-miterlimit="4" stroke-dasharray="none" stroke-linejoin="round" stroke-linecap="round">
    <line x1="30.92519499426558" y1="749.0986456387553" x2="22.35319751321768" y2="751.3354828966355"/>
    <line x1="22.35319751321768" y1="751.3354828966355" x2="20.404656512877125" y2="751.8439529506416"/>
    <line x1="20.404656512877125" y1="751.8439529506416" x2="11.927079301689616" y2="754.4155918465127"/>
    <line x1="11.927079301689616" y1="754.4155918465127" x2="10.0" y2="755.0001607422734"/>
    <line x1="10.0" y1="755.0001607422734" x2="21.287711917569737" y2="789.7402133628328"/>
    <line x1="21.287711917569737" y1="789.7402133628328" x2="169.8410261265535" y2="789.7402133628328"/>
    <line x1="169.8410261265535" y1="789.7402133628328" x2="181.12875043523482" y2="755.0001607422737"/>
    <line x1="181.12875043523482" y1="755.0001607422737" x2="172.6511732240476" y2="752.4285218464015"/>
    <line x1="172.6511732240476" y1="752.4285218464015" x2="170.72409679003582" y2="751.8439529506405"/>
    <line x1="170.72409679003582" y1="751.8439529506405" x2="162.15209930898803" y2="749.6071156927603"/>
    <line x1="162.15209930898803" y1="749.6071156927603" x2="160.20355830864716" y2="749.0986456387553"/>
    <line x1="160.20355830864716" y1="749.0986456387553" x2="151.55034948263048" y2="747.2000717856503"/>
    <line x1="151.55034948263048" y1="747.2000717856503" x2="149.58335210969145" y2="746.7685035231074"/>
    <line x1="149.58335210969145" y1="746.7685035231074" x2="140.86227716582383" y2="745.211117377098"/>
    <line x1="140.86227716582383" y1="745.211117377098" x2="138.87985168776143" y2="744.8570990011413"/>
    <line x1="138.87985168776143" y1="744.8570990011413" x2="130.1043549820529" y2="743.6433028889749"/>
    <line x1="130.1043549820529" y1="743.6433028889749" x2="128.10955547543946" y2="743.3673900121265"/>
    <line x1="128.10955547543946" y1="743.3673900121265" x2="119.29316810168027" y2="742.4990441494224"/>
    <line x1="119.29316810168027" y1="742.4990441494224" x2="117.2890801875399" y2="742.3016561695208"/>
    <line x1="117.2890801875399" y1="742.3016561695208" x2="108.44540758619215" y2="741.7801158341026"/>
    <line x1="108.44540758619215" y1="741.7801158341026" x2="106.43510828251564" y2="741.6615606680227"/>
    <line x1="106.43510828251564" y1="741.6615606680227" x2="97.57778067626211" y2="741.4876250865841"/>
    <line x1="97.57778067626211" y1="741.4876250865841" x2="95.56438428085104" y2="741.448088057987"/>
    <line x1="95.56438428085104" y1="741.448088057987" x2="86.7070442834848" y2="741.6220236394257"/>
    <line x1="86.7070442834848" y1="741.6220236394257" x2="84.69364215271932" y2="741.6615606680228"/>
    <line x1="84.69364215271932" y1="741.6615606680228" x2="75.84995716025966" y2="742.183101003441"/>
    <line x1="75.84995716025966" y1="742.183101003441" x2="73.83966645961655" y2="742.3016561695208"/>
    <line x1="73.83966645961655" y1="742.3016561695208" x2="65.0232914769696" y2="743.1700020322247"/>
    <line x1="65.0232914769696" y1="743.1700020322247" x2="63.019200695151454" y2="743.3673900121263"/>
    <line x1="63.019200695151454" y1="743.3673900121263" x2="54.243716380554105" y2="744.5811861242925"/>
    <line x1="54.243716380554105" y1="744.5811861242925" x2="52.24891400626319" y2="744.857099001141"/>
    <line x1="52.24891400626319" y1="744.857099001141" x2="43.52785145350589" y2="746.4144851471509"/>
    <line x1="43.52785145350589" y1="746.4144851471509" x2="41.54543171079908" y2="746.7685035231074"/>
    <line x1="41.54543171079908" y1="746.7685035231074" x2="32.89219810255932" y2="748.6670773762129"/>
    <line x1="32.89219810255932" y1="748.6670773762129" x2="30.92519499426558" y2="749.0986456387553"/>
  </g>
  <g id="face13" fill="none" stroke="#0000FF" stroke-width="1" stroke-miterlimit="4" stroke-dasharray="none" stroke-linejoin="round" stroke-linecap="round">
    <line x1="20.8108477795395" y1="810.2850017041017" x2="20.606962650724967" y2="810.3382049223093"/>
    <line x1="20.606962650724967" y1="810.3382049223093" x2="10.201639340837232" y2="813.4946277866147"/>
    <line x1="10.201639340837232" y1="813.4946277866147" x2="10.0" y2="813.5557942683721"/>
    <line x1="10.0" y1="813.5557942683721" x2="22.95145980186234" y2="853.4163525912992"/>
    <line x1="22.95145980186234" y1="853.4163525912992" x2="171.50477401084532" y2="853.4163525912992"/>
    <line x1="171.50477401084532" y1="853.4163525912992" x2="184.45624907149931" y2="813.5557942683718"/>
    <line x1="184.45624907149931" y1="813.5557942683718" x2="174.05096844113177" y2="810.2850017041017"/>
    <line x1="174.05096844113177" y1="810.2850017041017" x2="173.84929566871966" y2="810.2850017041017"/>
    <line x1="173.84929566871966" y1="810.2850017041017" x2="163.3280664179269" y2="807.5927345973772"/>
    <line x1="163.3280664179269" y1="807.5927345973772" x2="163.1241812891131" y2="807.5395313791695"/>
    <line x1="163.1241812891131" y1="807.5395313791695" x2="152.50328564110202" y2="805.2092278487621"/>
    <line x1="152.50328564110202" y1="805.2092278487621" x2="152.29746889885058" y2="805.1640702322951"/>
    <line x1="152.29746889885058" y1="805.1640702322951" x2="141.59326829413283" y2="803.2525566709496"/>
    <line x1="141.59326829413283" y1="803.2525566709496" x2="141.38583735493114" y2="803.2155142108115"/>
    <line x1="141.38583735493114" y1="803.2155142108115" x2="130.61485212262585" y2="801.7256842948352"/>
    <line x1="130.61485212262585" y1="801.7256842948352" x2="130.40612676074738" y2="801.6968141304155"/>
    <line x1="130.40612676074738" y1="801.6968141304155" x2="119.58496701436962" y2="800.6310340527803"/>
    <line x1="119.58496701436962" y1="800.6310340527803" x2="119.37526906714726" y2="800.6103804293436"/>
    <line x1="119.37526906714726" y1="800.6103804293436" x2="108.52058981241277" y2="799.9702569566617"/>
    <line x1="108.52058981241277" y1="799.9702569566617" x2="108.31024288551498" y2="799.957852109518"/>
    <line x1="108.31024288551498" y1="799.957852109518" x2="97.43880387660181" y2="799.744350424061"/>
    <line x1="97.43880387660181" y1="799.744350424061" x2="97.22813216514339" y2="799.7402133628328"/>
    <line x1="97.22813216514339" y1="799.7402133628328" x2="86.35669315623045" y2="799.9537150482897"/>
    <line x1="86.35669315623045" y1="799.9537150482897" x2="86.14602115004936" y2="799.957852109518"/>
    <line x1="86.14602115004936" y1="799.957852109518" x2="75.2913568593811" y2="800.5979755822"/>
    <line x1="75.2913568593811" y1="800.5979755822" x2="75.0810096377599" y2="800.6103804293436"/>
    <line x1="75.0810096377599" y1="800.6103804293436" x2="64.25981996325044" y2="801.6761605069788"/>
    <line x1="64.25981996325044" y1="801.6761605069788" x2="64.05012231075074" y2="801.6968141304154"/>
    <line x1="64.05012231075074" y1="801.6968141304154" x2="53.27913707844516" y2="803.1866440463922"/>
    <line x1="53.27913707844516" y1="803.1866440463922" x2="53.07041201128925" y2="803.215514210812"/>
    <line x1="53.07041201128925" y1="803.215514210812" x2="42.3662263706392" y2="805.1270277721575"/>
    <line x1="42.3662263706392" y1="805.1270277721575" x2="42.15879572616021" y2="805.1640702322953"/>
    <line x1="42.15879572616021" y1="805.1640702322953" x2="31.537900078150415" y2="807.4943737627024"/>
    <line x1="31.537900078150415" y1="807.4943737627024" x2="31.332082746451704" y2="807.5395313791693"/>
    <line x1="31.332082746451704" y1="807.5395313791693" x2="20.8108477795395" y2="810.2850017041017"/>
  </g>
</svg>
