<?xml version="1.0" standalone="no"?>
<!DOCTYPE svg PUBLIC "-//W3C//DTD SVG 1.1//EN" "http://www.w3.org/Graphics/SVG/1.1/DTD/svg11.dtd">
<svg width="94.81886491184963mm" height="2560.4139217356624mm"
 viewBox="0 0 94.81886491184963 2560.4139217356624"
 xmlns="http://www.w3.org/2000/svg" version="1.1"
 xmlns:xlink="http://www.w3.org/1999/xlink">
<desc>Output from Flights of Ideas SVG Sketchup Plugin</desc>

  <g id="face0" fill="none" stroke="#0000FF" stroke-width="1" stroke-miterlimit="4" stroke-dasharray="none" stroke-linejoin="round" stroke-linecap="round">
    <line x1="10.76541573044517" y1="67.24659476778083" x2="10.273280695594678" y2="75.59166994839546"/>
    <line x1="10.273280695594678" y1="75.59166994839546" x2="10.191429969176" y2="76.97962297686189"/>
    <line x1="10.191429969176" y1="76.97962297686189" x2="10.027299172453525" y2="85.33757243865563"/>
    <line x1="10.027299172453525" y1="85.33757243865563" x2="10.0" y2="86.72766893789424"/>
    <line x1="10.0" y1="86.72766893789424" x2="10.164130796722475" y2="95.08563143033683"/>
    <line x1="10.164130796722475" y1="95.08563143033683" x2="10.191429969176" y2="96.4757279295755"/>
    <line x1="10.191429969176" y1="96.4757279295755" x2="10.683565004026491" y2="104.82079007954104"/>
    <line x1="10.683565004026491" y1="104.82079007954104" x2="10.76541573044517" y2="106.20874310800747"/>
    <line x1="10.76541573044517" y1="106.20874310800747" x2="11.584795968121114" y2="114.5280827569128"/>
    <line x1="11.584795968121114" y1="114.5280827569128" x2="11.721076257834682" y2="115.91174884383497"/>
    <line x1="11.721076257834682" y1="115.91174884383497" x2="12.866437725386447" y2="124.19246564920286"/>
    <line x1="12.866437725386447" y1="124.19246564920286" x2="13.056934791015692" y2="125.5697191489295"/>
    <line x1="13.056934791015692" y1="125.5697191489295" x2="14.526521608495159" y2="133.79912125866656"/>
    <line x1="14.526521608495159" y1="133.79912125866656" x2="14.770943006652544" y2="135.16783652554614"/>
    <line x1="14.770943006652544" y1="135.16783652554614" x2="16.5624650375035" y2="143.33315390366465"/>
    <line x1="16.5624650375035" y1="143.33315390366465" x2="16.860433098442854" y2="144.69121420460613"/>
    <line x1="16.860433098442854" y1="144.69121420460613" x2="18.971153906382483" y2="152.7799374280986"/>
    <line x1="18.971153906382483" y1="152.7799374280986" x2="19.32220740510388" y2="154.12524831141207"/>
    <line x1="19.32220740510388" y1="154.12524831141207" x2="21.748859554903788" y2="162.12484189597194"/>
    <line x1="21.748859554903788" y1="162.12484189597194" x2="22.152461509644183" y2="163.4553401039285"/>
    <line x1="22.152461509644183" y1="163.4553401039285" x2="29.695987645912737" y2="161.0043413011755"/>
    <line x1="29.695987645912737" y1="161.0043413011755" x2="29.695987645912737" y2="12.451027092191111"/>
    <line x1="29.695987645912737" y1="12.451027092191111" x2="22.152461509644183" y2="10.0"/>
    <line x1="22.152461509644183" y1="10.0" x2="19.72580935984422" y2="17.99960661520896"/>
    <line x1="19.72580935984422" y1="17.99960661520896" x2="19.32220740510388" y2="19.330102595025437"/>
    <line x1="19.32220740510388" y1="19.330102595025437" x2="17.211486597164253" y2="27.418812787868887"/>
    <line x1="17.211486597164253" y1="27.418812787868887" x2="16.860433098442854" y2="28.764125899322437"/>
    <line x1="16.860433098442854" y1="28.764125899322437" x2="15.068911067591785" y2="36.929469338738954"/>
    <line x1="15.068911067591785" y1="36.929469338738954" x2="14.770943006652544" y2="38.28753186782052"/>
    <line x1="14.770943006652544" y1="38.28753186782052" x2="13.301356189173134" y2="46.51690791625958"/>
    <line x1="13.301356189173134" y1="46.51690791625958" x2="13.056934791015692" y2="47.88561872685892"/>
    <line x1="13.056934791015692" y1="47.88561872685892" x2="11.911573323463926" y2="56.166361593524755"/>
    <line x1="11.911573323463926" y1="56.166361593524755" x2="11.721076257834682" y2="57.543612865111186"/>
    <line x1="11.721076257834682" y1="57.543612865111186" x2="10.901696020158681" y2="65.86292645271857"/>
    <line x1="10.901696020158681" y1="65.86292645271857" x2="10.76541573044517" y2="67.24659476778083"/>
  </g>
  <g id="face1" fill="none" stroke="#0000FF" stroke-width="1" stroke-miterlimit="4" stroke-dasharray="none" stroke-linejoin="round" stroke-linecap="round">
    <line x1="11.65657356059046" y1="214.9881682698425" x2="11.178216511336814" y2="219.8449784052645"/>
    <line x1="11.178216511336814" y1="219.8449784052645" x2="10.736727239585548" y2="224.32747329589643"/>
    <line x1="10.736727239585548" y1="224.32747329589643" x2="10.449423242425041" y2="229.19932319139855"/>
    <line x1="10.449423242425041" y1="229.19932319139855" x2="10.184254480737991" y2="233.69568958086086"/>
    <line x1="10.184254480737991" y1="233.69568958086086" x2="10.088431734767823" y2="238.57506326689696"/>
    <line x1="10.088431734767823" y1="238.57506326689696" x2="10.0" y2="243.0783765624758"/>
    <line x1="10.0" y1="243.0783765624758" x2="10.095822745970054" y2="247.95775024851173"/>
    <line x1="10.095822745970054" y1="247.95775024851173" x2="10.184254480737991" y2="252.46106354409062"/>
    <line x1="10.184254480737991" y1="252.46106354409062" x2="10.471558477898611" y2="257.33291343959274"/>
    <line x1="10.471558477898611" y1="257.33291343959274" x2="10.736727239585548" y2="261.82928726685583"/>
    <line x1="10.736727239585548" y1="261.82928726685583" x2="11.215084288839194" y2="266.68608958128976"/>
    <line x1="11.215084288839194" y1="266.68608958128976" x2="11.65657356059046" y2="271.16857703412074"/>
    <line x1="11.65657356059046" y1="271.16857703412074" x2="12.32523675757534" y2="276.00287054485716"/>
    <line x1="12.32523675757534" y1="276.00287054485716" x2="12.94236226170051" y2="280.4645842195471"/>
    <line x1="12.94236226170051" y1="280.4645842195471" x2="13.800305101731055" y2="285.26890770395676"/>
    <line x1="13.800305101731055" y1="285.26890770395676" x2="14.592125956405994" y2="289.70293788339416"/>
    <line x1="14.592125956405994" y1="289.70293788339416" x2="15.638022782002395" y2="294.46986140279967"/>
    <line x1="15.638022782002395" y1="294.46986140279967" x2="16.60331175006513" y2="298.86939506128545"/>
    <line x1="16.60331175006513" y1="298.86939506128545" x2="17.487938419246575" y2="302.45376879744606"/>
    <line x1="17.487938419246575" y1="302.45376879744606" x2="18.281147701851864" y2="305.25513817836963"/>
    <line x1="18.281147701851864" y1="305.25513817836963" x2="18.987190868204493" y2="307.9608441725919"/>
    <line x1="18.987190868204493" y1="307.9608441725919" x2="19.798920143397254" y2="310.6367587297565"/>
    <line x1="19.798920143397254" y1="310.6367587297565" x2="20.389593191360632" y2="312.7014362805771"/>
    <line x1="20.389593191360632" y1="312.7014362805771" x2="20.389593191360632" y2="173.4553401039285"/>
    <line x1="20.389593191360632" y1="173.4553401039285" x2="18.987190868204493" y2="178.19591972988536"/>
    <line x1="18.987190868204493" y1="178.19591972988536" x2="18.459599073107256" y2="179.979385315868"/>
    <line x1="18.459599073107256" y1="179.979385315868" x2="17.487938419246575" y2="183.70299958629448"/>
    <line x1="17.487938419246575" y1="183.70299958629448" x2="16.710104485767033" y2="187.05263491511676"/>
    <line x1="16.710104485767033" y1="187.05263491511676" x2="16.60331175006513" y2="187.28736588465404"/>
    <line x1="16.60331175006513" y1="187.28736588465404" x2="15.55741492446873" y2="192.0542972250476"/>
    <line x1="15.55741492446873" y1="192.0542972250476" x2="14.592125956405994" y2="196.45382344573233"/>
    <line x1="14.592125956405994" y1="196.45382344573233" x2="13.734183116375334" y2="201.25813128816577"/>
    <line x1="13.734183116375334" y1="201.25813128816577" x2="12.94236226170051" y2="205.69217634320518"/>
    <line x1="12.94236226170051" y1="205.69217634320518" x2="12.273699064715515" y2="210.52646203295348"/>
    <line x1="12.273699064715515" y1="210.52646203295348" x2="11.65657356059046" y2="214.9881682698425"/>
  </g>
  <g id="face2" fill="none" stroke="#0000FF" stroke-width="1" stroke-miterlimit="4" stroke-dasharray="none" stroke-linejoin="round" stroke-linecap="round">
    <line x1="18.294254733997263" y1="479.7742655777099" x2="20.774460892329444" y2="489.27885172589185"/>
    <line x1="20.774460892329444" y1="489.27885172589185" x2="21.19419736066766" y2="490.6625443306698"/>
    <line x1="21.19419736066766" y1="490.6625443306698" x2="24.0456224995894" y2="500.06243968854096"/>
    <line x1="24.0456224995894" y1="500.06243968854096" x2="68.37614574647239" y2="485.65860271844565"/>
    <line x1="68.37614574647239" y1="485.65860271844565" x2="68.37614574647239" y2="337.1052885094614"/>
    <line x1="68.37614574647239" y1="337.1052885094614" x2="24.0456224995894" y2="322.7014362805771"/>
    <line x1="24.0456224995894" y1="322.7014362805771" x2="23.625886031251298" y2="324.0851269493949"/>
    <line x1="23.625886031251298" y1="324.0851269493949" x2="20.774460892329444" y2="333.4849956616082"/>
    <line x1="20.774460892329444" y1="333.4849956616082" x2="20.409369800592344" y2="334.8840965724945"/>
    <line x1="20.409369800592344" y1="334.8840965724945" x2="17.929163642260164" y2="344.38869604350543"/>
    <line x1="17.929163642260164" y1="344.38869604350543" x2="17.61928516342141" y2="345.80105247291453"/>
    <line x1="17.61928516342141" y1="345.80105247291453" x2="15.514174928919033" y2="355.3956742995032"/>
    <line x1="15.514174928919033" y1="355.3956742995032" x2="15.259981921222561" y2="356.81910829236915"/>
    <line x1="15.259981921222561" y1="356.81910829236915" x2="13.53316508951093" y2="366.48897745717056"/>
    <line x1="13.53316508951093" y1="366.48897745717056" x2="13.335050552849111" y2="367.9212916988263"/>
    <line x1="13.335050552849111" y1="367.9212916988263" x2="11.989185028314182" y2="377.65149995618515"/>
    <line x1="11.989185028314182" y1="377.65149995618515" x2="11.847455328366323" y2="379.09048938812396"/>
    <line x1="11.847455328366323" y1="379.09048938812396" x2="10.884646117990997" y2="388.8660485554112"/>
    <line x1="10.884646117990997" y1="388.8660485554112" x2="10.799524374153748" y2="390.3094926314452"/>
    <line x1="10.799524374153748" y1="390.3094926314452" x2="10.221256973371851" y2="400.1153079433999"/>
    <line x1="10.221256973371851" y1="400.1153079433999" x2="10.1928679340715" y2="401.5609803094618"/>
    <line x1="10.1928679340715" y1="401.5609803094618" x2="10.0" y2="411.3819303551644"/>
    <line x1="10.0" y1="411.3819303551644" x2="10.02838903930035" y2="412.8276027212263"/>
    <line x1="10.02838903930035" y1="412.8276027212263" x2="10.221256973371851" y2="422.6485660897581"/>
    <line x1="10.221256973371851" y1="422.6485660897581" x2="10.306378717209327" y2="424.0920121017522"/>
    <line x1="10.306378717209327" y1="424.0920121017522" x2="10.884646117990997" y2="433.8978140908778"/>
    <line x1="10.884646117990997" y1="433.8978140908778" x2="11.026375817939083" y2="435.3368015868566"/>
    <line x1="11.026375817939083" y1="435.3368015868566" x2="11.98918502831441" y2="445.1123474313149"/>
    <line x1="11.98918502831441" y1="445.1123474313149" x2="12.187299564976001" y2="446.5446636089307"/>
    <line x1="12.187299564976001" y1="446.5446636089307" x2="13.53316508951093" y2="456.27488518911866"/>
    <line x1="13.53316508951093" y1="456.27488518911866" x2="13.787358097207175" y2="457.69831918198463"/>
    <line x1="13.787358097207175" y1="457.69831918198463" x2="15.514174928919033" y2="467.3681883467858"/>
    <line x1="15.514174928919033" y1="467.3681883467858" x2="15.824053407757788" y2="468.7805447761949"/>
    <line x1="15.824053407757788" y1="468.7805447761949" x2="17.929163642260164" y2="478.37516660278357"/>
    <line x1="17.929163642260164" y1="478.37516660278357" x2="18.294254733997263" y2="479.7742655777099"/>
  </g>
  <g id="face3" fill="none" stroke="#0000FF" stroke-width="1" stroke-miterlimit="4" stroke-dasharray="none" stroke-linejoin="round" stroke-linecap="round">
    <line x1="23.57717659236789" y1="692.7388825077776" x2="24.78075997893393" y2="696.7065617018474"/>
    <line x1="24.78075997893393" y1="696.7065617018474" x2="83.3965571553133" y2="677.6611654290808"/>
    <line x1="83.3965571553133" y1="677.6611654290808" x2="83.39655715531342" y2="529.1078512200966"/>
    <line x1="83.39655715531342" y1="529.1078512200966" x2="24.78075997893393" y2="510.06243968854096"/>
    <line x1="24.78075997893393" y1="510.06243968854096" x2="22.54197033697085" y2="517.4427397515846"/>
    <line x1="22.54197033697085" y1="517.4427397515846" x2="21.33838695040481" y2="521.4104189456543"/>
    <line x1="21.33838695040481" y1="521.4104189456543" x2="19.39108525045731" y2="528.8729322230528"/>
    <line x1="19.39108525045731" y1="528.8729322230528" x2="18.344198212677952" y2="532.8848052407733"/>
    <line x1="18.344198212677952" y1="532.8848052407733" x2="16.69134394474031" y2="540.4180020721038"/>
    <line x1="16.69134394474031" y1="540.4180020721038" x2="15.802774722051367" y2="544.4678801720893"/>
    <line x1="15.802774722051367" y1="544.4678801720893" x2="14.446980384350695" y2="552.0601813708962"/>
    <line x1="14.446980384350695" y1="552.0601813708962" x2="13.718088117513048" y2="556.1418276295183"/>
    <line x1="13.718088117513048" y1="556.1418276295183" x2="12.66138427739179" y2="563.7814955260415"/>
    <line x1="12.66138427739179" y1="563.7814955260415" x2="12.093298070417404" y2="567.8886087766813"/>
    <line x1="12.093298070417404" y1="567.8886087766813" x2="11.337348957344716" y2="575.5638660803342"/>
    <line x1="11.337348957344716" y1="575.5638660803342" x2="10.930947299664126" y2="579.6901183884606"/>
    <line x1="10.930947299664126" y1="579.6901183884606" x2="10.476913525263512" y2="587.3891382826241"/>
    <line x1="10.476913525263512" y1="587.3891382826241" x2="10.232823538878506" y2="591.5281642386282"/>
    <line x1="10.232823538878506" y1="591.5281642386282" x2="10.081401640369904" y2="599.2390802858566"/>
    <line x1="10.081401640369904" y1="599.2390802858566" x2="10.0" y2="603.3844930657996"/>
    <line x1="10.0" y1="603.3844930657996" x2="10.151421898508602" y2="611.095409113028"/>
    <line x1="10.151421898508602" y1="611.095409113028" x2="10.232823538878392" y2="615.2408272465535"/>
    <line x1="10.232823538878392" y1="615.2408272465535" x2="10.686857313279006" y2="622.9398570459236"/>
    <line x1="10.686857313279006" y1="622.9398570459236" x2="10.930947299664126" y2="627.0788776483453"/>
    <line x1="10.930947299664126" y1="627.0788776483453" x2="11.686896412736814" y2="634.7541448572048"/>
    <line x1="11.686896412736814" y1="634.7541448572048" x2="12.093298070417404" y2="638.8804025189136"/>
    <line x1="12.093298070417404" y1="638.8804025189136" x2="13.150001910538663" y2="646.5200506050237"/>
    <line x1="13.150001910538663" y1="646.5200506050237" x2="13.718088117513048" y2="650.627169209246"/>
    <line x1="13.718088117513048" y1="650.627169209246" x2="15.073882455213834" y2="658.2194505976399"/>
    <line x1="15.073882455213834" y1="658.2194505976399" x2="15.802774722051367" y2="662.3010861490967"/>
    <line x1="15.802774722051367" y1="662.3010861490967" x2="17.455628989989123" y2="669.8343126960469"/>
    <line x1="17.455628989989123" y1="669.8343126960469" x2="18.344198212677952" y2="673.8842015031975"/>
    <line x1="18.344198212677952" y1="673.8842015031975" x2="20.291499912625454" y2="681.3467048753895"/>
    <line x1="20.291499912625454" y1="681.3467048753895" x2="21.33838695040481" y2="685.3585725395275"/>
    <line x1="21.33838695040481" y1="685.3585725395275" x2="23.57717659236789" y2="692.7388825077776"/>
  </g>
  <g id="face4" fill="none" stroke="#0000FF" stroke-width="1" stroke-miterlimit="4" stroke-dasharray="none" stroke-linejoin="round" stroke-linecap="round">
    <line x1="10.917418954856885" y1="775.3220325505873" x2="10.59099084261581" y2="780.8574181464985"/>
    <line x1="10.59099084261581" y1="780.8574181464985" x2="10.22943947423417" y2="786.9879798195454"/>
    <line x1="10.22943947423417" y1="786.9879798195454" x2="10.120564249977718" y2="792.531907599308"/>
    <line x1="10.120564249977718" y1="792.531907599308" x2="10.0" y2="798.6719443519818"/>
    <line x1="10.0" y1="798.6719443519818" x2="10.108875224256536" y2="804.2158721317445"/>
    <line x1="10.108875224256536" y1="804.2158721317445" x2="10.22943947423417" y2="810.3559088844182"/>
    <line x1="10.22943947423417" y1="810.3559088844182" x2="10.555867586475273" y2="815.8912944803293"/>
    <line x1="10.555867586475273" y1="815.8912944803293" x2="10.917418954856885" y2="822.0218642035712"/>
    <line x1="10.917418954856885" y1="822.0218642035712" x2="11.460935676577265" y2="827.5401654317795"/>
    <line x1="11.460935676577265" y1="827.5401654317795" x2="12.062876436377053" y2="833.6518091463532"/>
    <line x1="12.062876436377053" y1="833.6518091463532" x2="12.822608626632501" y2="839.1445270745708"/>
    <line x1="12.822608626632501" y1="839.1445270745708" x2="13.664027093255982" y2="845.22783410241"/>
    <line x1="13.664027093255982" y1="845.22783410241" x2="14.638820475937422" y2="850.6864697983493"/>
    <line x1="14.638820475937422" y1="850.6864697983493" x2="15.718427108757709" y2="856.7320536119732"/>
    <line x1="15.718427108757709" y1="856.7320536119732" x2="16.906761121075135" y2="862.1482306894442"/>
    <line x1="16.906761121075135" y1="862.1482306894442" x2="18.22287393245469" y2="868.1467530625426"/>
    <line x1="18.22287393245469" y1="868.1467530625426" x2="19.62294597537897" y2="873.5120807181668"/>
    <line x1="19.62294597537897" y1="873.5120807181668" x2="21.17355141026971" y2="879.454316127161"/>
    <line x1="21.17355141026971" y1="879.454316127161" x2="22.783179983051554" y2="884.7605477294397"/>
    <line x1="22.783179983051554" y1="884.7605477294397" x2="24.565889649196095" y2="890.6373350523114"/>
    <line x1="24.565889649196095" y1="890.6373350523114" x2="79.00622328446215" y2="872.9486116416905"/>
    <line x1="79.00622328446215" y1="872.9486116416905" x2="79.00622423958217" y2="724.3953046402894"/>
    <line x1="79.00622423958217" y1="724.3953046402894" x2="24.565889649196095" y2="706.7065617018474"/>
    <line x1="24.565889649196095" y1="706.7065617018474" x2="22.956261076414165" y2="712.01280051272"/>
    <line x1="22.956261076414165" y1="712.01280051272" x2="21.17355141026971" y2="717.8895878355917"/>
    <line x1="21.17355141026971" y1="717.8895878355917" x2="19.773479367345345" y2="723.2549226998099"/>
    <line x1="19.773479367345345" y1="723.2549226998099" x2="18.22287393245469" y2="729.1971500586089"/>
    <line x1="18.22287393245469" y1="729.1971500586089" x2="17.034539920137263" y2="734.6133199274858"/>
    <line x1="17.034539920137263" y1="734.6133199274858" x2="15.718427108757709" y2="740.6118584009745"/>
    <line x1="15.718427108757709" y1="740.6118584009745" x2="14.743633726076354" y2="746.0705013055077"/>
    <line x1="14.743633726076354" y1="746.0705013055077" x2="13.664027093255982" y2="752.1160770689366"/>
    <line x1="13.664027093255982" y1="752.1160770689366" x2="12.904294903000533" y2="757.6087877885603"/>
    <line x1="12.904294903000533" y1="757.6087877885603" x2="12.062876436377053" y2="763.6920948163994"/>
    <line x1="12.062876436377053" y1="763.6920948163994" x2="11.519359714656673" y2="769.2103888360137"/>
    <line x1="11.519359714656673" y1="769.2103888360137" x2="10.917418954856885" y2="775.3220325505873"/>
  </g>
  <g id="face5" fill="none" stroke="#0000FF" stroke-width="1" stroke-miterlimit="4" stroke-dasharray="none" stroke-linejoin="round" stroke-linecap="round">
    <line x1="10.935338745690274" y1="970.5929497611274" x2="10.42447123671468" y2="979.2554628708106"/>
    <line x1="10.42447123671468" y1="979.2554628708106" x2="10.233913227651044" y2="982.4867420960386"/>
    <line x1="10.233913227651044" y1="982.4867420960386" x2="10.063551782125728" y2="991.1626437029204"/>
    <line x1="10.063551782125728" y1="991.1626437029204" x2="10.0" y2="994.3989157444792"/>
    <line x1="10.0" y1="994.3989157444792" x2="10.170361445525316" y2="1003.0748173513612"/>
    <line x1="10.170361445525316" y1="1003.0748173513612" x2="10.233913227651044" y2="1006.3110893929198"/>
    <line x1="10.233913227651044" y1="1006.3110893929198" x2="10.744780736626751" y2="1014.9736136041762"/>
    <line x1="10.744780736626751" y1="1014.9736136041762" x2="10.935338745690274" y2="1018.2048969866199"/>
    <line x1="10.935338745690274" y1="1018.2048969866199" x2="11.785888286504246" y2="1026.840688609771"/>
    <line x1="11.785888286504246" y1="1026.840688609771" x2="12.103160185782372" y2="1030.061998831201"/>
    <line x1="12.103160185782372" y1="1030.061998831201" x2="13.29209113975736" y2="1038.6577248769133"/>
    <line x1="13.29209113975736" y1="1038.6577248769133" x2="13.735589820464838" y2="1041.8640857498622"/>
    <line x1="13.735589820464838" y1="1041.8640857498622" x2="15.261080228641163" y2="1050.4065242445347"/>
    <line x1="15.261080228641163" y1="1050.4065242445347" x2="15.830107213545489" y2="1053.5930053109105"/>
    <line x1="15.830107213545489" y1="1053.5930053109105" x2="17.689772319244526" y2="1062.0689675856602"/>
    <line x1="17.689772319244526" y1="1062.0689675856602" x2="18.383475379080267" y2="1065.2306633306666"/>
    <line x1="18.383475379080267" y1="1065.2306633306666" x2="20.574497117346937" y2="1073.6270717323423"/>
    <line x1="20.574497117346937" y1="1073.6270717323423" x2="21.391779786412542" y2="1076.7590849556148"/>
    <line x1="21.391779786412542" y1="1076.7590849556148" x2="23.910752402764103" y2="1085.0629950499433"/>
    <line x1="23.910752402764103" y1="1085.0629950499433" x2="24.850372582887985" y2="1088.160511695436"/>
    <line x1="24.850372582887985" y1="1088.160511695436" x2="84.81886491184963" y2="1068.6755881077602"/>
    <line x1="84.81886491184963" y1="1068.6755881077602" x2="84.81886491184963" y2="920.122273898776"/>
    <line x1="84.81886491184963" y1="920.122273898776" x2="24.850372582887985" y2="900.6373350523114"/>
    <line x1="24.850372582887985" y1="900.6373350523114" x2="22.331399966536367" y2="908.9412562482132"/>
    <line x1="22.331399966536367" y1="908.9412562482132" x2="21.391779786412542" y2="912.0387687364898"/>
    <line x1="21.391779786412542" y1="912.0387687364898" x2="19.20075804814587" y2="920.4351771381658"/>
    <line x1="19.20075804814587" y1="920.4351771381658" x2="18.383475379080153" y2="923.5671945186541"/>
    <line x1="18.383475379080153" y1="923.5671945186541" x2="16.523810273381116" y2="932.0431456918307"/>
    <line x1="16.523810273381116" y1="932.0431456918307" x2="15.830107213545489" y2="935.2048289651892"/>
    <line x1="15.830107213545489" y1="935.2048289651892" x2="14.304616805369108" y2="943.7472563582885"/>
    <line x1="14.304616805369108" y1="943.7472563582885" x2="13.735589820464838" y2="946.9337457390961"/>
    <line x1="13.735589820464838" y1="946.9337457390961" x2="12.546658866489963" y2="955.5294939879551"/>
    <line x1="12.546658866489963" y1="955.5294939879551" x2="12.103160185782428" y2="958.7358631753357"/>
    <line x1="12.103160185782428" y1="958.7358631753357" x2="11.2526106449684" y2="967.3716436969136"/>
    <line x1="11.2526106449684" y1="967.3716436969136" x2="10.935338745690274" y2="970.5929497611274"/>
  </g>
  <g id="face6" fill="none" stroke="#0000FF" stroke-width="1" stroke-miterlimit="4" stroke-dasharray="none" stroke-linejoin="round" stroke-linecap="round">
    <line x1="18.786865774045737" y1="1258.912662518357" x2="20.928504598189193" y2="1267.1198325954588"/>
    <line x1="20.928504598189193" y1="1267.1198325954588" x2="21.784244222153006" y2="1269.9408172600497"/>
    <line x1="21.784244222153006" y1="1269.9408172600497" x2="24.24643483446357" y2="1278.057612471674"/>
    <line x1="24.24643483446357" y1="1278.057612471674" x2="72.47960622072685" y2="1262.3857290122019"/>
    <line x1="72.47960622072685" y1="1262.3857290122019" x2="72.47960622072685" y2="1113.8324148032177"/>
    <line x1="72.47960622072685" y1="1113.8324148032177" x2="24.246434992748277" y2="1098.160511695436"/>
    <line x1="24.246434992748277" y1="1098.160511695436" x2="23.390695368784463" y2="1100.981496360027"/>
    <line x1="23.390695368784463" y1="1100.981496360027" x2="20.928504598189193" y2="1109.098280702383"/>
    <line x1="20.928504598189193" y1="1109.098280702383" x2="20.18418058090481" y2="1111.950695059581"/>
    <line x1="20.18418058090481" y1="1111.950695059581" x2="18.042541756761352" y2="1120.1578764931014"/>
    <line x1="18.042541756761352" y1="1120.1578764931014" x2="17.410769423790043" y2="1123.0373069617867"/>
    <line x1="17.410769423790043" y1="1123.0373069617867" x2="15.593009976715507" y2="1131.3222457926945"/>
    <line x1="15.593009976715507" y1="1131.3222457926945" x2="15.074779798488635" y2="1134.2242592798943"/>
    <line x1="15.074779798488635" y1="1134.2242592798943" x2="13.583673533698743" y2="1142.5741795373906"/>
    <line x1="13.583673533698743" y1="1142.5741795373906" x2="13.179770618396219" y2="1145.4943039264263"/>
    <line x1="13.179770618396219" y1="1145.4943039264263" x2="12.017622888844016" y2="1153.896316075527"/>
    <line x1="12.017622888844016" y1="1153.896316075527" x2="11.728672103554231" y2="1156.8300480307562"/>
    <line x1="11.728672103554231" y1="1156.8300480307562" x2="10.897280062465256" y2="1165.2712171108037"/>
    <line x1="10.897280062465256" y1="1165.2712171108037" x2="10.723738960138121" y2="1168.2140298823597"/>
    <line x1="10.723738960138121" y1="1168.2140298823597" x2="10.224411434743274" y2="1176.681330081348"/>
    <line x1="10.224411434743274" y1="1176.681330081348" x2="10.166531230484338" y2="1179.628685212253"/>
    <line x1="10.166531230484338" y1="1179.628685212253" x2="10.0" y2="1188.1090566489208"/>
    <line x1="10.0" y1="1188.1090566489208" x2="10.057880204258936" y2="1191.056415682196"/>
    <line x1="10.057880204258936" y1="1191.056415682196" x2="10.224411434743274" y2="1199.5367871188641"/>
    <line x1="10.224411434743274" y1="1199.5367871188641" x2="10.397952537070523" y2="1202.4795998904203"/>
    <line x1="10.397952537070523" y1="1202.4795998904203" x2="10.89728006246537" y2="1210.946911445827"/>
    <line x1="10.89728006246537" y1="1210.946911445827" x2="11.186230847755041" y2="1213.8806394986855"/>
    <line x1="11.186230847755041" y1="1213.8806394986855" x2="12.017622888844016" y2="1222.3217972223147"/>
    <line x1="12.017622888844016" y1="1222.3217972223147" x2="12.421525804146427" y2="1225.241925513721"/>
    <line x1="12.421525804146427" y1="1225.241925513721" x2="13.583673533698743" y2="1233.6439490192402"/>
    <line x1="13.583673533698743" y1="1233.6439490192402" x2="14.101903711925615" y2="1236.54596250644"/>
    <line x1="14.101903711925615" y1="1236.54596250644" x2="15.593009976715507" y2="1244.8958827639362"/>
    <line x1="15.593009976715507" y1="1244.8958827639362" x2="16.22478230968693" y2="1247.775309330251"/>
    <line x1="16.22478230968693" y1="1247.775309330251" x2="18.042541756761352" y2="1256.0602481611588"/>
    <line x1="18.042541756761352" y1="1256.0602481611588" x2="18.786865774045737" y2="1258.912662518357"/>
  </g>
  <g id="face7" fill="none" stroke="#0000FF" stroke-width="1" stroke-miterlimit="4" stroke-dasharray="none" stroke-linejoin="round" stroke-linecap="round">
    <line x1="10.227135446721093" y1="1367.5326578336476" x2="10.142548063017728" y2="1371.8404824570139"/>
    <line x1="10.142548063017728" y1="1371.8404824570139" x2="10.0" y2="1379.099264113282"/>
    <line x1="10.0" y1="1379.099264113282" x2="10.084587383703365" y2="1383.4070887366483"/>
    <line x1="10.084587383703365" y1="1383.4070887366483" x2="10.227135446721093" y2="1390.6658800037217"/>
    <line x1="10.227135446721093" y1="1390.6658800037217" x2="10.480798405114342" y2="1394.9670625980352"/>
    <line x1="10.480798405114342" y1="1394.9670625980352" x2="10.908197518635745" y2="1402.2146572770807"/>
    <line x1="10.908197518635745" y1="1402.2146572770807" x2="11.330516688914997" y2="1406.5025614612728"/>
    <line x1="11.330516688914997" y1="1406.5025614612728" x2="12.042148157356962" y2="1413.727782185873"/>
    <line x1="12.042148157356962" y1="1413.727782185873" x2="12.63248390534693" y2="1417.9958054667777"/>
    <line x1="12.63248390534693" y1="1417.9958054667777" x2="13.627220861802641" y2="1425.1875325353462"/>
    <line x1="13.627220861802641" y1="1425.1875325353462" x2="14.38466845108428" y2="1429.4290893637499"/>
    <line x1="14.38466845108428" y1="1429.4290893637499" x2="15.660971965375438" y2="1436.5762030747"/>
    <line x1="15.660971965375438" y1="1436.5762030747" x2="16.58435132031491" y2="1440.7847417892924"/>
    <line x1="16.58435132031491" y1="1440.7847417892924" x2="18.140287818575473" y2="1447.8762281598952"/>
    <line x1="18.140287818575473" y1="1447.8762281598952" x2="19.22818623720275" y2="1452.0452761711397"/>
    <line x1="19.22818623720275" y1="1452.0452761711397" x2="21.061316376944433" y2="1459.0702365483269"/>
    <line x1="21.061316376944433" y1="1459.0702365483269" x2="22.312058173039645" y2="1463.193366450559"/>
    <line x1="22.312058173039645" y1="1463.193366450559" x2="24.419584008606137" y2="1470.140921402874"/>
    <line x1="24.419584008606137" y1="1470.140921402874" x2="76.0169881116368" y2="1453.3759364765633"/>
    <line x1="76.0169881116368" y1="1453.3759364765633" x2="76.0169881116368" y2="1304.822622267579"/>
    <line x1="76.0169881116368" y1="1304.822622267579" x2="24.419584008606137" y2="1288.057612471674"/>
    <line x1="24.419584008606137" y1="1288.057612471674" x2="23.168842212510867" y2="1292.1807423739062"/>
    <line x1="23.168842212510867" y1="1292.1807423739062" x2="21.061316376944433" y2="1299.1282973262212"/>
    <line x1="21.061316376944433" y1="1299.1282973262212" x2="19.973417958317043" y2="1303.297339689482"/>
    <line x1="19.973417958317043" y1="1303.297339689482" x2="18.14028781857536" y2="1310.3223000666692"/>
    <line x1="18.14028781857536" y1="1310.3223000666692" x2="17.21690846363589" y2="1314.5308500772294"/>
    <line x1="17.21690846363589" y1="1314.5308500772294" x2="15.660971965375438" y2="1321.6223460586368"/>
    <line x1="15.660971965375438" y1="1321.6223460586368" x2="14.903524376093799" y2="1325.8638972390568"/>
    <line x1="14.903524376093799" y1="1325.8638972390568" x2="13.627220861802641" y2="1333.011010950007"/>
    <line x1="13.627220861802641" y1="1333.011010950007" x2="13.036885113812673" y2="1337.2790342309117"/>
    <line x1="13.036885113812673" y1="1337.2790342309117" x2="12.042148157356962" y2="1344.4707516886751"/>
    <line x1="12.042148157356962" y1="1344.4707516886751" x2="11.619828987077653" y2="1348.758655872867"/>
    <line x1="11.619828987077653" y1="1348.758655872867" x2="10.908197518635745" y2="1355.9838862082722"/>
    <line x1="10.908197518635745" y1="1355.9838862082722" x2="10.654534560242553" y2="1360.285063154602"/>
    <line x1="10.654534560242553" y1="1360.285063154602" x2="10.227135446721093" y2="1367.5326578336476"/>
  </g>
  <g id="face8" fill="none" stroke="#0000FF" stroke-width="1" stroke-miterlimit="4" stroke-dasharray="none" stroke-linejoin="round" stroke-linecap="round">
    <line x1="17.297521141482548" y1="1623.4134246750668" x2="18.356295444453394" y2="1627.4708493080093"/>
    <line x1="18.356295444453394" y1="1627.4708493080093" x2="19.916138158130252" y2="1633.4485150624157"/>
    <line x1="19.916138158130252" y1="1633.4485150624157" x2="21.133379251207657" y2="1637.4612246480679"/>
    <line x1="21.133379251207657" y1="1637.4612246480679" x2="22.926711067210476" y2="1643.3730423773075"/>
    <line x1="22.926711067210476" y1="1643.3730423773075" x2="45.51513558218926" y2="1636.0336466239773"/>
    <line x1="45.51513558218926" y1="1636.0336466239773" x2="45.51513558218926" y2="1487.4803324149932"/>
    <line x1="45.51513558218926" y1="1487.4803324149932" x2="22.926711067210363" y2="1480.140921402874"/>
    <line x1="22.926711067210363" y1="1480.140921402874" x2="21.70946997413307" y2="1484.1536370788353"/>
    <line x1="21.70946997413307" y1="1484.1536370788353" x2="19.916138158130252" y2="1490.0654456395946"/>
    <line x1="19.916138158130252" y1="1490.0654456395946" x2="18.85736385515918" y2="1494.1228580919192"/>
    <line x1="18.85736385515918" y1="1494.1228580919192" x2="17.297521141482548" y2="1500.1005238463256"/>
    <line x1="17.297521141482548" y1="1500.1005238463256" x2="16.398868670037473" y2="1504.196378327865"/>
    <line x1="16.398868670037473" y1="1504.196378327865" x2="15.07490115567225" y2="1510.2306686163047"/>
    <line x1="15.07490115567225" y1="1510.2306686163047" x2="14.337734744926706" y2="1514.3586494768217"/>
    <line x1="14.337734744926706" y1="1514.3586494768217" x2="13.251698461569617" y2="1520.4402766288003"/>
    <line x1="13.251698461569617" y1="1520.4402766288003" x2="12.67717679277473" y2="1524.5940073149702"/>
    <line x1="12.67717679277473" y1="1524.5940073149702" x2="11.830740403831442" y2="1530.7135736382297"/>
    <line x1="11.830740403831442" y1="1530.7135736382297" x2="11.419714597643747" y2="1534.8866593258008"/>
    <line x1="11.419714597643747" y1="1534.8866593258008" x2="10.81418461154999" y2="1541.0347396226427"/>
    <line x1="10.81418461154999" y1="1541.0347396226427" x2="10.567326124516057" y2="1545.2207489455106"/>
    <line x1="10.567326124516057" y1="1545.2207489455106" x2="10.203630849897309" y2="1551.387872175835"/>
    <line x1="10.203630849897309" y1="1551.387872175835" x2="10.121303577968206" y2="1555.5803433163512"/>
    <line x1="10.121303577968206" y1="1555.5803433163512" x2="10.0" y2="1561.756974260696"/>
    <line x1="10.0" y1="1561.756974260696" x2="10.082327271929216" y2="1565.9494514915214"/>
    <line x1="10.082327271929216" y1="1565.9494514915214" x2="10.203630849897309" y2="1572.1260916043466"/>
    <line x1="10.203630849897309" y1="1572.1260916043466" x2="10.450489336931469" y2="1576.3120948369058"/>
    <line x1="10.450489336931469" y1="1576.3120948369058" x2="10.814184611550104" y2="1582.47921806723"/>
    <line x1="10.814184611550104" y1="1582.47921806723" x2="11.225210417737799" y2="1586.652303754801"/>
    <line x1="11.225210417737799" y1="1586.652303754801" x2="11.830740403831442" y2="1592.8003748831627"/>
    <line x1="11.830740403831442" y1="1592.8003748831627" x2="12.405262072626329" y2="1596.9541116596415"/>
    <line x1="12.405262072626329" y1="1596.9541116596415" x2="13.251698461569617" y2="1603.0736871513811"/>
    <line x1="13.251698461569617" y1="1603.0736871513811" x2="13.988864872315276" y2="1607.2016619215892"/>
    <line x1="13.988864872315276" y1="1607.2016619215892" x2="15.07490115567225" y2="1613.283279905088"/>
    <line x1="15.07490115567225" y1="1613.283279905088" x2="15.97355362711744" y2="1617.3791343866274"/>
    <line x1="15.97355362711744" y1="1617.3791343866274" x2="17.297521141482548" y2="1623.4134246750668"/>
  </g>
  <g id="face9" fill="none" stroke="#0000FF" stroke-width="1" stroke-miterlimit="4" stroke-dasharray="none" stroke-linejoin="round" stroke-linecap="round">
    <line x1="10.834940796632054" y1="1715.819896293834" x2="10.444170311962921" y2="1722.4460574237476"/>
    <line x1="10.444170311962921" y1="1722.4460574237476" x2="10.208810674495453" y2="1726.437079359036"/>
    <line x1="10.208810674495453" y1="1726.437079359036" x2="10.078492407158933" y2="1733.0734488339615"/>
    <line x1="10.078492407158933" y1="1733.0734488339615" x2="10.0" y2="1737.0706315906882"/>
    <line x1="10.0" y1="1737.0706315906882" x2="10.130318267336406" y2="1743.7070199699565"/>
    <line x1="10.130318267336406" y1="1743.7070199699565" x2="10.208810674495453" y2="1747.704208533301"/>
    <line x1="10.208810674495453" y1="1747.704208533301" x2="10.599581159164586" y2="1754.3303413067006"/>
    <line x1="10.599581159164586" y1="1754.3303413067006" x2="10.834940796632054" y2="1758.3213574353715"/>
    <line x1="10.834940796632054" y1="1758.3213574353715" x2="11.485552652063006" y2="1764.9270546144046"/>
    <line x1="11.485552652063006" y1="1764.9270546144046" x2="11.877432574428099" y2="1768.9057549068168"/>
    <line x1="11.877432574428099" y1="1768.9057549068168" x2="12.786870873726684" y2="1775.480836502985"/>
    <line x1="12.786870873726684" y1="1775.480836502985" x2="13.334630901381843" y2="1779.4410891707894"/>
    <line x1="13.334630901381843" y1="1779.4410891707894" x2="14.501513264494633" y2="1785.9753562912524"/>
    <line x1="14.501513264494633" y1="1785.9753562912524" x2="15.204341922608592" y2="1789.9110469659527"/>
    <line x1="15.204341922608592" y1="1789.9110469659527" x2="16.626836991344362" y2="1796.394499213467"/>
    <line x1="16.626836991344362" y1="1796.394499213467" x2="17.48362957088932" y2="1800.299565786127"/>
    <line x1="17.48362957088932" y1="1800.299565786127" x2="19.15960115453288" y2="1806.7221649547641"/>
    <line x1="19.15960115453288" y1="1806.7221649547641" x2="20.169056973131546" y2="1810.5905917693894"/>
    <line x1="20.169056973131546" y1="1810.5905917693894" x2="22.09585846371681" y2="1816.9424508879624"/>
    <line x1="22.09585846371681" y1="1816.9424508879624" x2="23.25639957299427" y2="1820.7682455150295"/>
    <line x1="23.25639957299427" y1="1820.7682455150295" x2="52.25110708847183" y2="1811.3473039539697"/>
    <line x1="52.25110708847183" y1="1811.3473039539697" x2="52.25110708847183" y2="1662.7939897449853"/>
    <line x1="52.25110708847183" y1="1662.7939897449853" x2="23.256399572994383" y2="1653.3730423773075"/>
    <line x1="23.256399572994383" y1="1653.3730423773075" x2="21.32959808240912" y2="1659.724892043709"/>
    <line x1="21.32959808240912" y1="1659.724892043709" x2="20.169056973131546" y2="1663.550692477394"/>
    <line x1="20.169056973131546" y1="1663.550692477394" x2="18.493085389487987" y2="1669.9732916460314"/>
    <line x1="18.493085389487987" y1="1669.9732916460314" x2="17.48362957088932" y2="1673.841706847421"/>
    <line x1="17.48362957088932" y1="1673.841706847421" x2="16.061134502153436" y2="1680.325140190593"/>
    <line x1="16.061134502153436" y1="1680.325140190593" x2="15.204341922608592" y2="1684.2302067632527"/>
    <line x1="15.204341922608592" y1="1684.2302067632527" x2="14.037459559495915" y2="1690.7644927880583"/>
    <line x1="14.037459559495915" y1="1690.7644927880583" x2="13.334630901381843" y2="1694.7001892693763"/>
    <line x1="13.334630901381843" y1="1694.7001892693763" x2="12.425192602083257" y2="1701.2752614133733"/>
    <line x1="12.425192602083257" y1="1701.2752614133733" x2="11.877432574427985" y2="1705.2355082745598"/>
    <line x1="11.877432574427985" y1="1705.2355082745598" x2="11.226820718997146" y2="1711.8411960014216"/>
    <line x1="11.226820718997146" y1="1711.8411960014216" x2="10.834940796632054" y2="1715.819896293834"/>
  </g>
  <g id="face10" fill="none" stroke="#0000FF" stroke-width="1" stroke-miterlimit="4" stroke-dasharray="none" stroke-linejoin="round" stroke-linecap="round">
    <line x1="11.778929226053322" y1="1879.9095217224358" x2="11.630923907378104" y2="1881.412252560664"/>
    <line x1="11.630923907378104" y1="1881.412252560664" x2="10.791148645782044" y2="1889.9385755147698"/>
    <line x1="10.791148645782044" y1="1889.9385755147698" x2="10.702253238028817" y2="1891.4459608796167"/>
    <line x1="10.702253238028817" y1="1891.4459608796167" x2="10.197862161802078" y2="1899.9986709218022"/>
    <line x1="10.197862161802078" y1="1899.9986709218022" x2="10.16821280483228" y2="1901.5083801884803"/>
    <line x1="10.16821280483228" y1="1901.5083801884803" x2="10.0" y2="1910.0742902836075"/>
    <line x1="10.0" y1="1910.0742902836075" x2="10.029649356969855" y2="1911.584001791271"/>
    <line x1="10.029649356969855" y1="1911.584001791271" x2="10.197862161802078" y2="1920.149924904202"/>
    <line x1="10.197862161802078" y1="1920.149924904202" x2="10.286757569555306" y2="1921.6573102690486"/>
    <line x1="10.286757569555306" y1="1921.6573102690486" x2="10.791148645782044" y2="1930.2100203112343"/>
    <line x1="10.791148645782044" y1="1930.2100203112343" x2="10.939153964457262" y2="1931.712748908477"/>
    <line x1="10.939153964457262" y1="1931.712748908477" x2="11.778929226053322" y2="1940.2390588447793"/>
    <line x1="11.778929226053322" y1="1940.2390588447793" x2="11.985817555881539" y2="1941.7348224594846"/>
    <line x1="11.985817555881539" y1="1941.7348224594846" x2="13.159655695772443" y2="1950.22159732598"/>
    <line x1="13.159655695772443" y1="1950.22159732598" x2="13.425107696338216" y2="1951.7080832612435"/>
    <line x1="13.425107696338216" y1="1951.7080832612435" x2="14.931257819927538" y2="1960.1422141296161"/>
    <line x1="14.931257819927538" y1="1960.1422141296161" x2="15.254865631892926" y2="1961.6171320983874"/>
    <line x1="15.254865631892926" y1="1961.6171320983874" x2="17.09098778896754" y2="1969.9856532361619"/>
    <line x1="17.09098778896754" y1="1969.9856532361619" x2="17.472248871362893" y2="1971.446730879273"/>
    <line x1="17.472248871362893" y1="1971.446730879273" x2="19.63547914511082" y2="1979.7367025895817"/>
    <line x1="19.63547914511082" y1="1979.7367025895817" x2="20.073810281492968" y2="1981.181685475748"/>
    <line x1="20.073810281492968" y1="1981.181685475748" x2="22.560845404227933" y2="1989.3803503109746"/>
    <line x1="22.560845404227933" y1="1989.3803503109746" x2="38.039771929982635" y2="1984.3509626468888"/>
    <line x1="38.039771929982635" y1="1984.3509626468888" x2="38.039771929982635" y2="1835.7976484379044"/>
    <line x1="38.039771929982635" y1="1835.7976484379044" x2="22.560845404227933" y2="1830.7682455150295"/>
    <line x1="22.560845404227933" y1="1830.7682455150295" x2="22.122514267845787" y2="1832.2132261602105"/>
    <line x1="22.122514267845787" y1="1832.2132261602105" x2="19.63547914511082" y2="1840.4118779776334"/>
    <line x1="19.63547914511082" y1="1840.4118779776334" x2="19.254218062715466" y2="1841.8729556207445"/>
    <line x1="19.254218062715466" y1="1841.8729556207445" x2="17.09098778896754" y2="1850.1629273310532"/>
    <line x1="17.09098778896754" y1="1850.1629273310532" x2="16.767379977002065" y2="1851.6378452998242"/>
    <line x1="16.767379977002065" y1="1851.6378452998242" x2="14.931257819927538" y2="1860.006366437599"/>
    <line x1="14.931257819927538" y1="1860.006366437599" x2="14.665805819361765" y2="1861.4928546138478"/>
    <line x1="14.665805819361765" y1="1861.4928546138478" x2="13.159655695772443" y2="1869.9269854822205"/>
    <line x1="13.159655695772443" y1="1869.9269854822205" x2="12.952767365944226" y2="1871.4227468559404"/>
    <line x1="12.952767365944226" y1="1871.4227468559404" x2="11.778929226053322" y2="1879.9095217224358"/>
  </g>
  <g id="face11" fill="none" stroke="#0000FF" stroke-width="1" stroke-miterlimit="4" stroke-dasharray="none" stroke-linejoin="round" stroke-linecap="round">
    <line x1="10.924979620208433" y1="2068.5620340649903" x2="10.532083151261531" y2="2075.2243667033604"/>
    <line x1="10.532083151261531" y1="2075.2243667033604" x2="10.2313366602516" y2="2080.324257711304"/>
    <line x1="10.2313366602516" y1="2080.324257711304" x2="10.100309502843515" y2="2086.9968708229158"/>
    <line x1="10.100309502843515" y1="2086.9968708229158" x2="10.0" y2="2092.104631961288"/>
    <line x1="10.0" y1="2092.104631961288" x2="10.131027157407857" y2="2098.7772536902285"/>
    <line x1="10.131027157407857" y1="2098.7772536902285" x2="10.2313366602516" y2="2103.8850148286006"/>
    <line x1="10.2313366602516" y1="2103.8850148286006" x2="10.624233129198387" y2="2110.547338849642"/>
    <line x1="10.624233129198387" y1="2110.547338849642" x2="10.924979620208433" y2="2115.6472298575864"/>
    <line x1="10.924979620208433" y1="2115.6472298575864" x2="11.579139090826175" y2="2122.289010166804"/>
    <line x1="11.579139090826175" y1="2122.289010166804" x2="12.079894818451749" y2="2127.373160913891"/>
    <line x1="12.079894818451749" y1="2127.373160913891" x2="12.99430785146103" y2="2133.9841342727013"/>
    <line x1="12.99430785146103" y1="2133.9841342727013" x2="13.694268368826101" y2="2139.0447144772643"/>
    <line x1="13.694268368826101" y1="2139.0447144772643" x2="14.867520914431338" y2="2145.6146693510573"/>
    <line x1="14.867520914431338" y1="2145.6146693510573" x2="15.765622757708798" y2="2150.6438487314285"/>
    <line x1="15.765622757708798" y1="2150.6438487314285" x2="17.19589736741102" y2="2157.1627028455255"/>
    <line x1="17.19589736741102" y1="2157.1627028455255" x2="18.290739603574025" y2="2162.1527640248637"/>
    <line x1="18.290739603574025" y1="2162.1527640248637" x2="19.975848553027845" y2="2168.610417869928"/>
    <line x1="19.975848553027845" y1="2168.610417869928" x2="21.26577040191546" y2="2173.5536301884704"/>
    <line x1="21.26577040191546" y1="2173.5536301884704" x2="23.203103717665158" y2="2179.9401566017414"/>
    <line x1="23.203103717665158" y1="2179.9401566017414" x2="24.686095307360915" y2="2184.8289222289304"/>
    <line x1="24.686095307360915" y1="2184.8289222289304" x2="81.46210494744446" y2="2166.3813003634514"/>
    <line x1="81.46210494744446" y1="2166.3813003634514" x2="81.46210623448826" y2="2017.827990115585"/>
    <line x1="81.46210623448826" y1="2017.827990115585" x2="24.68609530736103" y2="1999.3803503109746"/>
    <line x1="24.68609530736103" y1="1999.3803503109746" x2="22.748761991611218" y2="2005.7668767242453"/>
    <line x1="22.748761991611218" y1="2005.7668767242453" x2="21.26577040191546" y2="2010.6556489928948"/>
    <line x1="21.26577040191546" y1="2010.6556489928948" x2="19.58066145246164" y2="2017.113311455288"/>
    <line x1="19.58066145246164" y1="2017.113311455288" x2="18.290739603574025" y2="2022.0565304152906"/>
    <line x1="18.290739603574025" y1="2022.0565304152906" x2="16.860464993871688" y2="2028.5753672947299"/>
    <line x1="16.860464993871688" y1="2028.5753672947299" x2="15.765622757708798" y2="2033.565421832608"/>
    <line x1="15.765622757708798" y1="2033.565421832608" x2="14.59237021210356" y2="2040.1353939410585"/>
    <line x1="14.59237021210356" y1="2040.1353939410585" x2="13.694268368826101" y2="2045.1645799628905"/>
    <line x1="13.694268368826101" y1="2045.1645799628905" x2="12.77985533581682" y2="2051.775544704372"/>
    <line x1="12.77985533581682" y1="2051.775544704372" x2="12.079894818451749" y2="2056.8361182674744"/>
    <line x1="12.079894818451749" y1="2056.8361182674744" x2="11.425735347834006" y2="2063.4778899593634"/>
    <line x1="11.425735347834006" y1="2063.4778899593634" x2="10.924979620208433" y2="2068.5620340649903"/>
  </g>
  <g id="face12" fill="none" stroke="#0000FF" stroke-width="1" stroke-miterlimit="4" stroke-dasharray="none" stroke-linejoin="round" stroke-linecap="round">
    <line x1="17.65055758076835" y1="2345.0324776699" x2="19.887394838648675" y2="2353.604475150947"/>
    <line x1="19.887394838648675" y1="2353.604475150947" x2="20.395864892654572" y2="2355.5530161512884"/>
    <line x1="20.395864892654572" y1="2355.5530161512884" x2="22.967503788525732" y2="2364.0305933624754"/>
    <line x1="22.967503788525732" y1="2364.0305933624754" x2="23.552072684286486" y2="2365.957672664165"/>
    <line x1="23.552072684286486" y1="2365.957672664165" x2="58.292125304845854" y2="2354.6699607465957"/>
    <line x1="58.292125304845854" y1="2354.6699607465957" x2="58.292125304845854" y2="2206.1166465376114"/>
    <line x1="58.292125304845854" y1="2206.1166465376114" x2="23.552072684286486" y2="2194.8289222289304"/>
    <line x1="23.552072684286486" y1="2194.8289222289304" x2="20.980433788415212" y2="2203.3064994401175"/>
    <line x1="20.980433788415212" y1="2203.3064994401175" x2="20.395864892654572" y2="2205.2335758741297"/>
    <line x1="20.395864892654572" y1="2205.2335758741297" x2="18.159027634774247" y2="2213.8055733551773"/>
    <line x1="18.159027634774247" y1="2213.8055733551773" x2="17.650557580768236" y2="2215.754114355518"/>
    <line x1="17.650557580768236" y1="2215.754114355518" x2="15.751983727662719" y2="2224.407323181535"/>
    <line x1="15.751983727662719" y1="2224.407323181535" x2="15.32041546512039" y2="2226.374320554474"/>
    <line x1="15.32041546512039" y1="2226.374320554474" x2="13.763029319110501" y2="2235.0953954983415"/>
    <line x1="13.763029319110501" y1="2235.0953954983415" x2="13.409010943154158" y2="2237.0778209764035"/>
    <line x1="13.409010943154158" y1="2237.0778209764035" x2="12.19521483098788" y2="2245.853317682112"/>
    <line x1="12.19521483098788" y1="2245.853317682112" x2="11.919301954139428" y2="2247.848117188726"/>
    <line x1="11.919301954139428" y1="2247.848117188726" x2="11.05095609143541" y2="2256.6645045624846"/>
    <line x1="11.05095609143541" y1="2256.6645045624846" x2="10.853568111533832" y2="2258.6685924766257"/>
    <line x1="10.853568111533832" y1="2258.6685924766257" x2="10.332027776115638" y2="2267.5122650779736"/>
    <line x1="10.332027776115638" y1="2267.5122650779736" x2="10.213472610035979" y2="2269.5225643816493"/>
    <line x1="10.213472610035979" y1="2269.5225643816493" x2="10.039537028597238" y2="2278.3798919879036"/>
    <line x1="10.039537028597238" y1="2278.3798919879036" x2="10.0" y2="2280.3932883833145"/>
    <line x1="10.0" y1="2280.3932883833145" x2="10.17393558143874" y2="2289.25062838068"/>
    <line x1="10.17393558143874" y1="2289.25062838068" x2="10.213472610035979" y2="2291.264030511446"/>
    <line x1="10.213472610035979" y1="2291.264030511446" x2="10.735012945454173" y2="2300.107715503905"/>
    <line x1="10.735012945454173" y1="2300.107715503905" x2="10.853568111533832" y2="2302.1180062045487"/>
    <line x1="10.853568111533832" y1="2302.1180062045487" x2="11.72191397423785" y2="2310.934381187196"/>
    <line x1="11.72191397423785" y1="2310.934381187196" x2="11.919301954139314" y2="2312.9384719690142"/>
    <line x1="11.919301954139314" y1="2312.9384719690142" x2="13.133098066305593" y2="2321.713956283611"/>
    <line x1="13.133098066305593" y1="2321.713956283611" x2="13.409010943154158" y2="2323.7087586579028"/>
    <line x1="13.409010943154158" y1="2323.7087586579028" x2="14.966397089163934" y2="2332.4298212106587"/>
    <line x1="14.966397089163934" y1="2332.4298212106587" x2="15.32041546512039" y2="2334.412240953366"/>
    <line x1="15.32041546512039" y1="2334.412240953366" x2="17.21898931822591" y2="2343.0654745616057"/>
    <line x1="17.21898931822591" y1="2343.0654745616057" x2="17.65055758076835" y2="2345.0324776699"/>
  </g>
  <g id="face13" fill="none" stroke="#0000FF" stroke-width="1" stroke-miterlimit="4" stroke-dasharray="none" stroke-linejoin="round" stroke-linecap="round">
    <line x1="20.544788341268827" y1="2539.603073956123" x2="20.597991559476384" y2="2539.8069590849373"/>
    <line x1="20.597991559476384" y1="2539.8069590849373" x2="23.754414423781895" y2="2550.2122823948253"/>
    <line x1="23.754414423781895" y1="2550.2122823948253" x2="23.815580905539207" y2="2550.4139217356624"/>
    <line x1="23.815580905539207" y1="2550.4139217356624" x2="63.6761392284663" y2="2537.4624619338006"/>
    <line x1="63.6761392284663" y1="2537.4624619338006" x2="63.6761392284663" y2="2388.9091477248157"/>
    <line x1="63.6761392284663" y1="2388.9091477248157" x2="23.815580905539207" y2="2375.957672664165"/>
    <line x1="23.815580905539207" y1="2375.957672664165" x2="20.659158041233695" y2="2386.362995974053"/>
    <line x1="20.659158041233695" y1="2386.362995974053" x2="20.597991559476384" y2="2386.56463531489"/>
    <line x1="20.597991559476384" y1="2386.56463531489" x2="17.85252123454393" y2="2397.085855317736"/>
    <line x1="17.85252123454393" y1="2397.085855317736" x2="17.799318016336372" y2="2397.2897404465502"/>
    <line x1="17.799318016336372" y1="2397.2897404465502" x2="15.469014485929222" y2="2407.91063609456"/>
    <line x1="15.469014485929222" y1="2407.91063609456" x2="15.42385686946244" y2="2408.1164528368126"/>
    <line x1="15.42385686946244" y1="2408.1164528368126" x2="13.512343308116783" y2="2418.82065344153"/>
    <line x1="13.512343308116783" y1="2418.82065344153" x2="13.4753008479791" y2="2419.0280843807313"/>
    <line x1="13.4753008479791" y1="2419.0280843807313" x2="11.985470932002215" y2="2429.799069613037"/>
    <line x1="11.985470932002215" y1="2429.799069613037" x2="11.956600767582529" y2="2430.007794974915"/>
    <line x1="11.956600767582529" y1="2430.007794974915" x2="10.890820689947361" y2="2440.8289547212926"/>
    <line x1="10.890820689947361" y1="2440.8289547212926" x2="10.870167066510817" y2="2441.038652668515"/>
    <line x1="10.870167066510817" y1="2441.038652668515" x2="10.230043593828782" y2="2451.8933319232497"/>
    <line x1="10.230043593828782" y1="2451.8933319232497" x2="10.217638746685111" y2="2452.103678850148"/>
    <line x1="10.217638746685111" y1="2452.103678850148" x2="10.004137061228107" y2="2462.9751178590604"/>
    <line x1="10.004137061228107" y1="2462.9751178590604" x2="10.0" y2="2463.185789570519"/>
    <line x1="10.0" y1="2463.185789570519" x2="10.213501685456947" y2="2474.057228579432"/>
    <line x1="10.213501685456947" y1="2474.057228579432" x2="10.217638746685111" y2="2474.2679005856135"/>
    <line x1="10.217638746685111" y1="2474.2679005856135" x2="10.857762219367146" y2="2485.1225648762816"/>
    <line x1="10.857762219367146" y1="2485.1225648762816" x2="10.870167066510817" y2="2485.3329120979024"/>
    <line x1="10.870167066510817" y1="2485.3329120979024" x2="11.935947144145985" y2="2496.154101772412"/>
    <line x1="11.935947144145985" y1="2496.154101772412" x2="11.956600767582529" y2="2496.363799424912"/>
    <line x1="11.956600767582529" y1="2496.363799424912" x2="13.4464306835593" y2="2507.134784657217"/>
    <line x1="13.4464306835593" y1="2507.134784657217" x2="13.4753008479791" y2="2507.343509724373"/>
    <line x1="13.4753008479791" y1="2507.343509724373" x2="15.386814409324643" y2="2518.0476953650236"/>
    <line x1="15.386814409324643" y1="2518.0476953650236" x2="15.42385686946244" y2="2518.2551260095024"/>
    <line x1="15.42385686946244" y1="2518.2551260095024" x2="17.754160399869534" y2="2528.8760216575124"/>
    <line x1="17.754160399869534" y1="2528.8760216575124" x2="17.799318016336372" y2="2529.0818389892106"/>
    <line x1="17.799318016336372" y1="2529.0818389892106" x2="20.544788341268827" y2="2539.603073956123"/>
  </g>
</svg>
